<?xml version="1.0" encoding="UTF-8"?>
<svg id="_图层_1" data-name="图层 1" xmlns="http://www.w3.org/2000/svg" xmlns:xlink="http://www.w3.org/1999/xlink" viewBox="0 0 421.02 255.32">
  <defs>
    <style>
      .cls-1 {
        fill: url(#_未命名的渐变_64-4);
      }

      .cls-2 {
        fill: url(#_未命名的渐变_35-5);
      }

      .cls-3 {
        fill: url(#_未命名的渐变_64-10);
      }

      .cls-4 {
        fill: url(#_未命名的渐变_64-2);
      }

      .cls-5 {
        fill: url(#_未命名的渐变_64-8);
      }

      .cls-6 {
        fill: url(#_未命名的渐变_64-9);
      }

      .cls-7 {
        fill: url(#_未命名的渐变_35-2);
      }

      .cls-8 {
        fill: url(#_未命名的渐变_64-7);
      }

      .cls-9 {
        fill: url(#_未命名的渐变_35-15);
      }

      .cls-10 {
        fill: url(#_未命名的渐变_64-11);
      }

      .cls-11 {
        fill: url(#_未命名的渐变_64-6);
      }

      .cls-12 {
        fill: url(#_未命名的渐变_35-12);
      }

      .cls-13 {
        fill: url(#_未命名的渐变_64-5);
      }

      .cls-14 {
        fill: url(#_未命名的渐变_35-10);
      }

      .cls-15 {
        fill: url(#_未命名的渐变_35-7);
      }

      .cls-16 {
        fill: url(#_未命名的渐变_35);
      }

      .cls-17 {
        fill: url(#_未命名的渐变_35-8);
      }

      .cls-18 {
        fill: url(#_未命名的渐变_35-14);
      }

      .cls-19 {
        fill: url(#_未命名的渐变_35-13);
      }

      .cls-20 {
        fill: url(#_未命名的渐变_64-3);
      }

      .cls-21 {
        fill: url(#_未命名的渐变_35-4);
      }

      .cls-22 {
        fill: url(#_未命名的渐变_35-11);
      }

      .cls-23 {
        fill: url(#_未命名的渐变_35-6);
      }

      .cls-24 {
        fill: url(#_未命名的渐变_35-3);
      }

      .cls-25 {
        fill: url(#_未命名的渐变_35-9);
      }

      .cls-26 {
        fill: url(#_未命名的渐变_64);
      }
    </style>
    <linearGradient id="_未命名的渐变_35" data-name="未命名的渐变 35" x1="180.05" y1="205.58" x2="137.54" y2="163.08" gradientUnits="userSpaceOnUse">
      <stop offset="0" stop-color="#bdb8b5"/>
      <stop offset="1" stop-color="#e6e6e6"/>
    </linearGradient>
    <linearGradient id="_未命名的渐变_35-2" data-name="未命名的渐变 35" x1="351.19" y1="219.26" x2="281.34" y2="149.4" xlink:href="#_未命名的渐变_35"/>
    <linearGradient id="_未命名的渐变_35-3" data-name="未命名的渐变 35" x1="100.67" y1="155.13" x2="45.73" y2="100.19" xlink:href="#_未命名的渐变_35"/>
    <linearGradient id="_未命名的渐变_35-4" data-name="未命名的渐变 35" x1="232.36" y1="146.36" x2="194.96" y2="108.96" xlink:href="#_未命名的渐变_35"/>
    <linearGradient id="_未命名的渐变_35-5" data-name="未命名的渐变 35" x1="201.28" y1="98.05" x2="147.15" y2="43.92" xlink:href="#_未命名的渐变_35"/>
    <linearGradient id="_未命名的渐变_35-6" data-name="未命名的渐变 35" x1="369.25" y1="87.85" x2="335.52" y2="54.12" xlink:href="#_未命名的渐变_35"/>
    <linearGradient id="_未命名的渐变_35-7" data-name="未命名的渐变 35" x1="105.37" y1="43.05" x2="47.9" y2="-14.42" xlink:href="#_未命名的渐变_35"/>
    <linearGradient id="_未命名的渐变_35-8" data-name="未命名的渐变 35" x1="258.74" y1="42.16" x2="203.05" y2="-13.53" xlink:href="#_未命名的渐变_35"/>
    <linearGradient id="_未命名的渐变_64" data-name="未命名的渐变 64" x1="163.12" y1="137.78" x2="142.88" y2="117.54" gradientUnits="userSpaceOnUse">
      <stop offset="0" stop-color="#507950"/>
      <stop offset="1" stop-color="#b4dbb4"/>
    </linearGradient>
    <linearGradient id="_未命名的渐变_64-2" data-name="未命名的渐变 64" x1="98.28" y1="194.45" x2="78.04" y2="174.21" xlink:href="#_未命名的渐变_64"/>
    <linearGradient id="_未命名的渐变_35-9" data-name="未命名的渐变 35" x1="92.72" y1="265.52" x2="43.68" y2="216.48" xlink:href="#_未命名的渐变_35"/>
    <linearGradient id="_未命名的渐变_64-3" data-name="未命名的渐变 64" x1="164.77" y1="24.43" x2="144.53" y2="4.19" xlink:href="#_未命名的渐变_64"/>
    <linearGradient id="_未命名的渐变_64-4" data-name="未命名的渐变 64" x1="320.38" y1="24.43" x2="300.14" y2="4.19" xlink:href="#_未命名的渐变_64"/>
    <linearGradient id="_未命名的渐变_35-10" data-name="未命名的渐变 35" x1="397.4" y1="35.89" x2="354.24" y2="-7.27" xlink:href="#_未命名的渐变_35"/>
    <linearGradient id="_未命名的渐变_35-11" data-name="未命名的渐变 35" x1="48.89" y1="199.84" x2="17.87" y2="168.82" xlink:href="#_未命名的渐变_35"/>
    <linearGradient id="_未命名的渐变_35-12" data-name="未命名的渐变 35" x1="390.12" y1="277.83" x2="316.46" y2="204.17" xlink:href="#_未命名的渐变_35"/>
    <linearGradient id="_未命名的渐变_64-5" data-name="未命名的渐变 64" x1="273.21" y1="251.12" x2="252.97" y2="230.88" xlink:href="#_未命名的渐变_64"/>
    <linearGradient id="_未命名的渐变_64-6" data-name="未命名的渐变 64" x1="112.6" y1="81.11" x2="92.36" y2="60.86" xlink:href="#_未命名的渐变_64"/>
    <linearGradient id="_未命名的渐变_35-13" data-name="未命名的渐变 35" x1="60.44" y1="93.11" x2="16.19" y2="48.86" xlink:href="#_未命名的渐变_35"/>
    <linearGradient id="_未命名的渐变_35-14" data-name="未命名的渐变 35" x1="379.27" y1="152.64" x2="329.31" y2="102.68" xlink:href="#_未命名的渐变_35"/>
    <linearGradient id="_未命名的渐变_64-7" data-name="未命名的渐变 64" x1="285.91" x2="265.66" y2="117.54" xlink:href="#_未命名的渐变_64"/>
    <linearGradient id="_未命名的渐变_64-8" data-name="未命名的渐变 64" x1="268.04" y1="81.11" x2="247.8" y2="60.86" xlink:href="#_未命名的渐变_64"/>
    <linearGradient id="_未命名的渐变_64-9" data-name="未命名的渐变 64" x1="310" y1="79.21" x2="289.75" y2="58.97" xlink:href="#_未命名的渐变_64"/>
    <linearGradient id="_未命名的渐变_64-10" data-name="未命名的渐变 64" x1="140.95" y1="251.12" x2="120.71" y2="230.88" xlink:href="#_未命名的渐变_64"/>
    <linearGradient id="_未命名的渐变_35-15" data-name="未命名的渐变 35" x1="222.28" y1="265.52" x2="173.24" y2="216.48" xlink:href="#_未命名的渐变_35"/>
    <linearGradient id="_未命名的渐变_64-11" data-name="未命名的渐变 64" x1="232.54" y1="194.45" x2="212.3" y2="174.21" xlink:href="#_未命名的渐变_64"/>
  </defs>
  <rect class="cls-16" x="122.22" y="170.02" width="73.16" height="28.63" rx="14.31" ry="14.31"/>
  <rect class="cls-7" x="252.34" y="170.02" width="127.85" height="28.63" rx="14.31" ry="14.31"/>
  <rect class="cls-24" x="24.19" y="113.34" width="98.03" height="28.63" rx="14.31" ry="14.31"/>
  <rect class="cls-21" x="182.18" y="113.34" width="62.95" height="28.63" rx="14.31" ry="14.31"/>
  <rect class="cls-2" x="126.01" y="56.67" width="96.41" height="28.63" rx="14.31" ry="14.31"/>
  <rect class="cls-23" x="324.58" y="56.67" width="55.61" height="28.63" rx="14.31" ry="14.31"/>
  <rect class="cls-15" x="25.09" y="0" width="103.08" height="28.63" rx="14.31" ry="14.31"/>
  <rect class="cls-17" x="181.13" y="0" width="99.53" height="28.63" rx="14.31" ry="14.31"/>
  <circle class="cls-26" cx="153" cy="127.66" r="14.31"/>
  <circle class="cls-4" cx="88.16" cy="184.33" r="14.31"/>
  <rect class="cls-25" x="25.09" y="226.69" width="86.21" height="28.63" rx="14.31" ry="14.31"/>
  <circle class="cls-20" cx="154.65" cy="14.31" r="14.31"/>
  <circle class="cls-1" cx="310.26" cy="14.31" r="14.31"/>
  <rect class="cls-14" x="338.59" y="0" width="74.47" height="28.63" rx="14.31" ry="14.31"/>
  <rect class="cls-22" x="8.29" y="170.02" width="50.19" height="28.63" rx="14.31" ry="14.31"/>
  <rect class="cls-12" x="285.56" y="226.69" width="135.46" height="28.63" rx="14.31" ry="14.31"/>
  <circle class="cls-13" cx="263.09" cy="241" r="14.31"/>
  <circle class="cls-11" cx="102.48" cy="70.99" r="14.31"/>
  <rect class="cls-19" x="0" y="56.67" width="76.64" height="28.63" rx="14.31" ry="14.31"/>
  <rect class="cls-18" x="310.26" y="113.34" width="88.06" height="28.63" rx="14.31" ry="14.31"/>
  <circle class="cls-8" cx="275.78" cy="127.66" r="14.31"/>
  <circle class="cls-5" cx="257.92" cy="70.99" r="14.31"/>
  <circle class="cls-6" cx="299.88" cy="69.09" r="14.31"/>
  <circle class="cls-3" cx="130.83" cy="241" r="14.31"/>
  <rect class="cls-9" x="154.65" y="226.69" width="86.21" height="28.63" rx="14.31" ry="14.31"/>
  <circle class="cls-10" cx="222.42" cy="184.33" r="14.31"/>
</svg>