<?xml version="1.0" encoding="UTF-8"?>
<svg id="_图层_1" data-name="图层 1" xmlns="http://www.w3.org/2000/svg" xmlns:xlink="http://www.w3.org/1999/xlink" viewBox="0 0 401.68 434.78">
  <defs>
    <style>
      .cls-1 {
        fill: url(#_未命名的渐变_630-2);
      }

      .cls-2 {
        fill: url(#_未命名的渐变_630);
      }

      .cls-3 {
        fill: url(#_未命名的渐变_144-3);
      }

      .cls-4 {
        fill: url(#_未命名的渐变_144);
      }

      .cls-5 {
        fill: url(#_未命名的渐变_144-2);
      }
    </style>
    <linearGradient id="_未命名的渐变_630" data-name="未命名的渐变 630" x1="331.82" y1="159.74" x2="180.72" y2="8.64" gradientUnits="userSpaceOnUse">
      <stop offset="0" stop-color="#969696"/>
      <stop offset=".6" stop-color="#cecece"/>
      <stop offset="1" stop-color="#f0f0f0"/>
    </linearGradient>
    <linearGradient id="_未命名的渐变_630-2" data-name="未命名的渐变 630" x1="315.78" y1="277.79" x2="91.44" y2="53.45" xlink:href="#_未命名的渐变_630"/>
    <linearGradient id="_未命名的渐变_144" data-name="未命名的渐变 144" x1="197.49" y1="419.3" x2="130.28" y2="352.09" gradientUnits="userSpaceOnUse">
      <stop offset="0" stop-color="#dcdcff"/>
      <stop offset="1" stop-color="#f5f5ff"/>
    </linearGradient>
    <linearGradient id="_未命名的渐变_144-2" data-name="未命名的渐变 144" x1="316.86" y1="332.01" x2="258.14" y2="273.3" gradientTransform="translate(-89.18 109.18) rotate(-19.44)" xlink:href="#_未命名的渐变_144"/>
    <linearGradient id="_未命名的渐变_144-3" data-name="未命名的渐变 144" x1="134.38" y1="309.56" x2="85.26" y2="260.43" gradientTransform="translate(78.14 -13.13) rotate(14.41)" xlink:href="#_未命名的渐变_144"/>
  </defs>
  <path class="cls-2" d="M343.89,109.25c0,9.19-1.14,18.12-3.28,26.64,0,.03-.01,.05-.03,.09-.62,3.03-1.89,8.2-4.59,14.12-2.92,6.42-7.5,13.69-14.75,20.05-10.58,9.3-22.57,12.9-32.52,14.1-7.84,.95-14.41,.42-18,0-.71-.09-1.3-.16-1.77-.23-8.56-1.13-16.8-3.95-24.47-8.21-19.64-10.9-35.53-31.18-43.74-56.39-6.28-23.76-22.43-38.9-24.44-40.68-3.39-3-18.03-14.84-39.26-18.66C155.01,24.44,191.96,0,234.62,0c50.76,0,93.44,34.61,105.7,81.53,2.33,8.85,3.56,18.15,3.56,27.73Z"/>
  <path class="cls-1" d="M401.68,158.94c0,43.92-35.59,79.51-79.51,79.51H66.18C29.63,238.45,0,208.82,0,172.28c0-31.03,21.38-57.08,50.21-64.21,11.91-28.86,40.33-49.18,73.51-49.18,4.67,0,9.12,.44,13.31,1.21,21.23,3.82,35.87,15.66,39.26,18.66,2.01,1.78,18.16,16.92,24.44,40.68,8.21,25.21,24.11,45.49,43.74,56.39,7.67,4.26,15.91,7.09,24.47,8.21,.47,.07,1.06,.13,1.77,.23,3.59,.42,10.17,.95,18,0,9.95-1.21,21.94-4.81,32.52-14.1,7.25-6.36,11.83-13.63,14.75-20.05,2.71-5.92,3.98-11.09,4.59-14.12,.01-.04,.03-.07,.03-.09,2.14-8.52,3.28-17.45,3.28-26.64s-1.23-18.87-3.56-27.73c35.17,8.2,61.36,39.75,61.36,77.42Z"/>
  <g>
    <path class="cls-4" d="M206.5,392.15l-19.07,3.36-17.01-9.82,17.01-9.82,19.07,3.36c1.37,.24,2.67-.67,2.91-2.04,.24-1.37-.67-2.67-2.04-2.91l-13.17-2.32,10.99-6.34c1.57-.9,2.1-2.9,1.2-4.47h0c-.9-1.57-2.9-2.1-4.47-1.2l-10.99,6.34,4.57-12.57c.47-1.3-.2-2.75-1.5-3.22-1.3-.47-2.75,.2-3.22,1.5l-6.62,18.2-17.01,9.82v-19.64l12.45-14.83c.89-1.06,.75-2.65-.31-3.54-1.06-.89-2.65-.75-3.54,.31l-8.6,10.24v-12.69c0-1.81-1.46-3.27-3.27-3.27h0c-1.81,0-3.27,1.46-3.27,3.27v12.69l-8.6-10.24c-.89-1.06-2.48-1.2-3.54-.31-1.06,.89-1.2,2.48-.31,3.54l12.45,14.83v19.64l-17.01-9.82-6.62-18.2c-.47-1.3-1.92-1.98-3.22-1.5-1.3,.47-1.98,1.92-1.5,3.22l4.57,12.57-10.99-6.34c-1.57-.9-3.57-.37-4.47,1.2h0c-.9,1.57-.37,3.57,1.2,4.47l10.99,6.34-13.17,2.32c-1.37,.24-2.28,1.54-2.04,2.91,.24,1.37,1.54,2.28,2.91,2.04l19.07-3.36,17.01,9.82-17.01,9.82-19.07-3.36c-1.37-.24-2.67,.67-2.91,2.04-.24,1.37,.67,2.67,2.04,2.91l13.17,2.32-10.99,6.34c-1.57,.9-2.1,2.9-1.2,4.47h0c.9,1.57,2.9,2.1,4.47,1.2l10.99-6.34-4.57,12.57c-.47,1.3,.2,2.75,1.5,3.22,1.3,.47,2.75-.2,3.22-1.5l6.62-18.2,17.01-9.82v19.64l-12.45,14.83c-.89,1.06-.75,2.65,.31,3.54,1.06,.89,2.65,.75,3.54-.31l8.6-10.24v12.69c0,1.81,1.46,3.27,3.27,3.27h0c1.81,0,3.27-1.46,3.27-3.27v-12.69l8.6,10.24c.89,1.06,2.48,1.2,3.54,.31,1.06-.89,1.2-2.48,.31-3.54l-12.45-14.83v-19.64l17.01,9.82,6.62,18.2c.47,1.3,1.92,1.98,3.22,1.5,1.3-.47,1.98-1.92,1.5-3.22l-4.57-12.57,10.99,6.34c1.57,.9,3.57,.37,4.47-1.2h0c.9-1.57,.37-3.57-1.2-4.47l-10.99-6.34,13.17-2.32c1.37-.24,2.28-1.54,2.04-2.91-.24-1.37-1.54-2.28-2.91-2.04Z"/>
    <path class="cls-5" d="M319.65,291.81l-14.73,8.31-16.86-3.14,11.15-13.03,16.69-2.77c1.2-.2,2-1.33,1.81-2.53-.2-1.2-1.33-2-2.53-1.81l-11.52,1.92,7.21-8.42c1.03-1.2,.89-3-.31-4.03h0c-1.2-1.03-3-.89-4.03,.31l-7.21,8.42,.11-11.68c.01-1.21-.96-2.21-2.17-2.22-1.21-.01-2.21,.96-2.22,2.17l-.17,16.92-11.15,13.03-5.71-16.18,5.94-15.84c.43-1.14-.15-2.4-1.28-2.83-1.14-.43-2.4,.15-2.83,1.28l-4.1,10.94-3.69-10.45c-.53-1.49-2.16-2.27-3.65-1.74h0c-1.49,.53-2.27,2.16-1.74,3.65l3.69,10.45-10.06-5.94c-1.04-.62-2.39-.27-3.01,.77-.62,1.04-.27,2.39,.77,3.01l14.57,8.6,5.71,16.18-16.86-3.14-10.75-13.06c-.77-.94-2.15-1.07-3.09-.3-.94,.77-1.07,2.15-.3,3.09l7.42,9.02-10.9-2.03c-1.55-.29-3.04,.73-3.33,2.29h0c-.29,1.55,.73,3.04,2.29,3.33l10.9,2.03-10.17,5.74c-1.06,.6-1.43,1.94-.83,2.99,.6,1.06,1.94,1.43,2.99,.83l14.73-8.31,16.86,3.14-11.15,13.03-16.69,2.77c-1.2,.2-2,1.33-1.81,2.53,.2,1.2,1.33,2,2.53,1.81l11.52-1.92-7.21,8.42c-1.03,1.2-.89,3,.31,4.03h0c1.2,1.03,3,.89,4.03-.31l7.21-8.42-.11,11.68c-.01,1.21,.96,2.21,2.17,2.22,1.21,.01,2.21-.96,2.22-2.17l.17-16.92,11.15-13.03,5.71,16.18-5.94,15.84c-.43,1.14,.15,2.4,1.28,2.83,1.14,.43,2.4-.15,2.83-1.28l4.1-10.94,3.69,10.45c.53,1.49,2.16,2.27,3.65,1.74h0c1.49-.53,2.27-2.16,1.74-3.65l-3.69-10.45,10.06,5.94c1.04,.62,2.39,.27,3.01-.77,.62-1.04,.27-2.39-.77-3.01l-14.57-8.6-5.71-16.18,16.86,3.14,10.75,13.06c.77,.94,2.15,1.07,3.09,.3,.94-.77,1.07-2.15,.3-3.09l-7.42-9.02,10.9,2.03c1.55,.29,3.04-.73,3.33-2.29h0c.29-1.55-.73-3.04-2.29-3.33l-10.9-2.03,10.17-5.74c1.06-.6,1.43-1.94,.83-2.99-.6-1.06-1.94-1.43-2.99-.83Z"/>
    <path class="cls-3" d="M142.6,302.55l-14.11-1.09-10.25-10.04,13.82-3.86,12.89,5.85c.92,.42,2.01,.01,2.43-.91,.42-.92,.01-2.01-.91-2.43l-8.9-4.04,8.93-2.49c1.27-.36,2.02-1.67,1.66-2.95h0c-.36-1.27-1.67-2.02-2.95-1.66l-8.93,2.49,5.52-8.06c.57-.84,.36-1.98-.48-2.55-.84-.57-1.98-.36-2.55,.48l-8,11.68-13.82,3.86,3.57-13.9,11.51-8.24c.83-.59,1.02-1.74,.42-2.56-.59-.83-1.74-1.02-2.56-.42l-7.95,5.69,2.31-8.98c.33-1.28-.44-2.58-1.72-2.91h0c-1.28-.33-2.58,.44-2.91,1.72l-2.31,8.98-4.22-8.82c-.44-.92-1.54-1.3-2.45-.86-.92,.44-1.3,1.54-.86,2.45l6.11,12.76-3.57,13.9-10.25-10.04-1.38-14.09c-.1-1.01-1-1.75-2.01-1.65-1.01,.1-1.75,1-1.65,2.01l.95,9.73-6.62-6.49c-.94-.92-2.46-.91-3.38,.03h0c-.92,.94-.91,2.46,.03,3.38l6.62,6.49-9.75-.75c-1.01-.08-1.89,.68-1.97,1.69-.08,1.01,.68,1.89,1.69,1.97l14.11,1.09,10.25,10.04-13.82,3.86-12.89-5.85c-.92-.42-2.01-.01-2.43,.91-.42,.92-.01,2.01,.91,2.43l8.9,4.04-8.93,2.49c-1.27,.36-2.02,1.67-1.66,2.95h0c.36,1.27,1.67,2.02,2.95,1.66l8.93-2.49-5.52,8.06c-.57,.84-.36,1.98,.48,2.55,.84,.57,1.98,.36,2.55-.48l8-11.68,13.82-3.86-3.57,13.9-11.51,8.24c-.83,.59-1.02,1.74-.42,2.56,.59,.83,1.74,1.02,2.56,.42l7.95-5.69-2.31,8.98c-.33,1.28,.44,2.58,1.72,2.91h0c1.28,.33,2.58-.44,2.91-1.72l2.31-8.98,4.22,8.82c.44,.92,1.54,1.3,2.45,.86,.92-.44,1.3-1.54,.86-2.45l-6.11-12.76,3.57-13.9,10.25,10.04,1.38,14.09c.1,1.01,1,1.75,2.01,1.65,1.01-.1,1.75-1,1.65-2.01l-.95-9.73,6.62,6.49c.94,.92,2.46,.91,3.38-.03h0c.92-.94,.91-2.46-.03-3.38l-6.62-6.49,9.75,.75c1.01,.08,1.89-.68,1.97-1.69,.08-1.01-.68-1.89-1.69-1.97Z"/>
  </g>
</svg>