<?xml version="1.0" encoding="UTF-8"?>
<svg id="_图层_1" data-name="图层 1" xmlns="http://www.w3.org/2000/svg" xmlns:xlink="http://www.w3.org/1999/xlink" viewBox="0 0 500 500">
  <defs>
    <style>
      .cls-1 {
        fill: url(#_未命名的渐变_630-2);
      }

      .cls-2 {
        fill: url(#_未命名的渐变_207);
      }

      .cls-3 {
        fill: url(#_未命名的渐变_630);
      }

      .cls-4 {
        fill: url(#_未命名的渐变_207-3);
      }

      .cls-5 {
        fill: url(#_未命名的渐变_207-4);
      }

      .cls-6 {
        fill: url(#_未命名的渐变_207-2);
      }
    </style>
    <linearGradient id="_未命名的渐变_630" data-name="未命名的渐变 630" x1="380.98" y1="213.67" x2="229.88" y2="62.57" gradientUnits="userSpaceOnUse">
      <stop offset="0" stop-color="#969696"/>
      <stop offset=".6" stop-color="#cecece"/>
      <stop offset="1" stop-color="#f0f0f0"/>
    </linearGradient>
    <linearGradient id="_未命名的渐变_630-2" data-name="未命名的渐变 630" x1="364.94" y1="331.71" x2="140.6" y2="107.38" xlink:href="#_未命名的渐变_630"/>
    <linearGradient id="_未命名的渐变_207" data-name="未命名的渐变 207" x1="206.08" y1="347.44" x2="163.92" y2="332.89" gradientTransform="translate(-.17 87.16) scale(1 .76)" gradientUnits="userSpaceOnUse">
      <stop offset="0" stop-color="#c0c4ff"/>
      <stop offset=".96" stop-color="#e0e2ff"/>
      <stop offset=".96" stop-color="#cae4ff"/>
      <stop offset=".99" stop-color="#76eeff"/>
      <stop offset="1" stop-color="#55f3ff"/>
    </linearGradient>
    <linearGradient id="_未命名的渐变_207-2" data-name="未命名的渐变 207" x1="278.68" y1="400.91" x2="236.51" y2="386.37" gradientTransform="translate(-13.47 104.9) scale(1 .76)" xlink:href="#_未命名的渐变_207"/>
    <linearGradient id="_未命名的渐变_207-3" data-name="未命名的渐变 207" x1="169.32" y1="414.06" x2="127.15" y2="399.52" gradientTransform="translate(-12.22 75.64) scale(1 .76)" xlink:href="#_未命名的渐变_207"/>
    <linearGradient id="_未命名的渐变_207-4" data-name="未命名的渐变 207" x1="312.86" y1="304.31" x2="270.69" y2="289.76" gradientTransform="translate(4.69 116.54) scale(1 .76)" xlink:href="#_未命名的渐变_207"/>
  </defs>
  <g>
    <path class="cls-3" d="M393.05,163.18c0,9.19-1.14,18.12-3.28,26.64,0,.03-.01,.05-.03,.09-.62,3.03-1.89,8.2-4.59,14.12-2.92,6.42-7.5,13.69-14.75,20.05-10.58,9.3-22.57,12.9-32.52,14.1-7.84,.95-14.41,.42-18,0-.71-.09-1.3-.16-1.77-.23-8.56-1.13-16.8-3.95-24.47-8.21-19.64-10.9-35.53-31.18-43.74-56.39-6.28-23.76-22.43-38.9-24.44-40.68-3.39-3-18.03-14.84-39.26-18.66,17.97-35.65,54.93-60.1,97.59-60.1,50.76,0,93.44,34.61,105.7,81.53,2.33,8.85,3.56,18.15,3.56,27.73Z"/>
    <path class="cls-1" d="M450.84,212.87c0,43.92-35.59,79.51-79.51,79.51H115.34c-36.55,0-66.18-29.63-66.18-66.17,0-31.03,21.38-57.08,50.21-64.21,11.91-28.86,40.33-49.18,73.51-49.18,4.67,0,9.12,.44,13.31,1.21,21.23,3.82,35.87,15.66,39.26,18.66,2.01,1.78,18.16,16.92,24.44,40.68,8.21,25.21,24.11,45.49,43.74,56.39,7.67,4.26,15.91,7.09,24.47,8.21,.47,.07,1.06,.13,1.77,.23,3.59,.42,10.17,.95,18,0,9.95-1.21,21.94-4.81,32.52-14.1,7.25-6.36,11.83-13.63,14.75-20.05,2.71-5.92,3.98-11.09,4.59-14.12,.01-.04,.03-.07,.03-.09,2.14-8.52,3.28-17.45,3.28-26.64s-1.23-18.87-3.56-27.73c35.17,8.2,61.36,39.75,61.36,77.42Z"/>
  </g>
  <g>
    <rect class="cls-2" x="179.08" y="301.59" width="11.5" height="87.5" rx="5.75" ry="5.75" transform="translate(97.85 -36.57) rotate(15.33)"/>
    <rect class="cls-6" x="238.37" y="359.92" width="11.5" height="87.5" rx="5.75" ry="5.75" transform="translate(115.38 -50.17) rotate(15.33)"/>
    <rect class="cls-4" x="130.26" y="340.64" width="11.5" height="87.5" rx="5.75" ry="5.75" transform="translate(106.44 -22.28) rotate(15.33)"/>
    <rect class="cls-5" x="290.71" y="298.24" width="11.5" height="87.5" rx="5.75" ry="5.75" transform="translate(100.93 -66.2) rotate(15.33)"/>
  </g>
</svg>