<?xml version="1.0" encoding="UTF-8"?>
<svg id="_图层_1" data-name="图层 1" xmlns="http://www.w3.org/2000/svg" xmlns:xlink="http://www.w3.org/1999/xlink" viewBox="0 0 401.68 392.14">
  <defs>
    <style>
      .cls-1 {
        fill: url(#_未命名的渐变_630-2);
      }

      .cls-2 {
        fill: url(#_未命名的渐变_207);
      }

      .cls-3 {
        fill: url(#_未命名的渐变_630);
      }

      .cls-4 {
        fill: url(#_未命名的渐变_207-3);
      }

      .cls-5 {
        fill: url(#_未命名的渐变_207-4);
      }

      .cls-6 {
        fill: url(#_未命名的渐变_207-2);
      }
    </style>
    <linearGradient id="_未命名的渐变_630" data-name="未命名的渐变 630" x1="331.82" y1="159.74" x2="180.72" y2="8.64" gradientUnits="userSpaceOnUse">
      <stop offset="0" stop-color="#969696"/>
      <stop offset=".6" stop-color="#cecece"/>
      <stop offset="1" stop-color="#f0f0f0"/>
    </linearGradient>
    <linearGradient id="_未命名的渐变_630-2" data-name="未命名的渐变 630" x1="315.78" y1="277.79" x2="91.44" y2="53.45" xlink:href="#_未命名的渐变_630"/>
    <linearGradient id="_未命名的渐变_207" data-name="未命名的渐变 207" x1="156.92" y1="293.51" x2="114.76" y2="278.96" gradientTransform="translate(-.17 74.16) scale(1 .76)" gradientUnits="userSpaceOnUse">
      <stop offset="0" stop-color="#c0c4ff"/>
      <stop offset=".96" stop-color="#e0e2ff"/>
      <stop offset=".96" stop-color="#cae4ff"/>
      <stop offset=".99" stop-color="#76eeff"/>
      <stop offset="1" stop-color="#55f3ff"/>
    </linearGradient>
    <linearGradient id="_未命名的渐变_207-2" data-name="未命名的渐变 207" x1="229.52" y1="346.98" x2="187.35" y2="332.44" gradientTransform="translate(-13.47 91.9) scale(1 .76)" xlink:href="#_未命名的渐变_207"/>
    <linearGradient id="_未命名的渐变_207-3" data-name="未命名的渐变 207" x1="120.16" y1="360.13" x2="77.99" y2="345.59" gradientTransform="translate(-12.22 62.64) scale(1 .76)" xlink:href="#_未命名的渐变_207"/>
    <linearGradient id="_未命名的渐变_207-4" data-name="未命名的渐变 207" x1="263.7" y1="250.38" x2="221.53" y2="235.83" gradientTransform="translate(4.69 103.54) scale(1 .76)" xlink:href="#_未命名的渐变_207"/>
  </defs>
  <g>
    <path class="cls-3" d="M343.89,109.25c0,9.19-1.14,18.12-3.28,26.64,0,.03-.01,.05-.03,.09-.62,3.03-1.89,8.2-4.59,14.12-2.92,6.42-7.5,13.69-14.75,20.05-10.58,9.3-22.57,12.9-32.52,14.1-7.84,.95-14.41,.42-18,0-.71-.09-1.3-.16-1.77-.23-8.56-1.13-16.8-3.95-24.47-8.21-19.64-10.9-35.53-31.18-43.74-56.39-6.28-23.76-22.43-38.9-24.44-40.68-3.39-3-18.03-14.84-39.26-18.66C155.01,24.44,191.96,0,234.62,0c50.76,0,93.44,34.61,105.7,81.53,2.33,8.85,3.56,18.15,3.56,27.73Z"/>
    <path class="cls-1" d="M401.68,158.94c0,43.92-35.59,79.51-79.51,79.51H66.18C29.63,238.45,0,208.82,0,172.28c0-31.03,21.38-57.08,50.21-64.21,11.91-28.86,40.33-49.18,73.51-49.18,4.67,0,9.12,.44,13.31,1.21,21.23,3.82,35.87,15.66,39.26,18.66,2.01,1.78,18.16,16.92,24.44,40.68,8.21,25.21,24.11,45.49,43.74,56.39,7.67,4.26,15.91,7.09,24.47,8.21,.47,.07,1.06,.13,1.77,.23,3.59,.42,10.17,.95,18,0,9.95-1.21,21.94-4.81,32.52-14.1,7.25-6.36,11.83-13.63,14.75-20.05,2.71-5.92,3.98-11.09,4.59-14.12,.01-.04,.03-.07,.03-.09,2.14-8.52,3.28-17.45,3.28-26.64s-1.23-18.87-3.56-27.73c35.17,8.2,61.36,39.75,61.36,77.42Z"/>
  </g>
  <g>
    <rect class="cls-2" x="129.92" y="247.66" width="11.5" height="87.5" rx="5.75" ry="5.75" transform="translate(81.85 -25.5) rotate(15.33)"/>
    <rect class="cls-6" x="189.21" y="305.99" width="11.5" height="87.5" rx="5.75" ry="5.75" transform="translate(99.37 -39.09) rotate(15.33)"/>
    <rect class="cls-4" x="81.1" y="286.71" width="11.5" height="87.5" rx="5.75" ry="5.75" transform="translate(90.43 -11.2) rotate(15.33)"/>
    <rect class="cls-5" x="241.55" y="244.31" width="11.5" height="87.5" rx="5.75" ry="5.75" transform="translate(84.93 -55.12) rotate(15.33)"/>
  </g>
</svg>