<?xml version="1.0" encoding="UTF-8"?>
<svg id="_图层_1" data-name="图层 1" xmlns="http://www.w3.org/2000/svg" xmlns:xlink="http://www.w3.org/1999/xlink" viewBox="0 0 361.27 389.12">
  <defs>
    <style>
      .cls-1 {
        fill: url(#_未命名的渐变_144);
      }
    </style>
    <linearGradient id="_未命名的渐变_144" data-name="未命名的渐变 144" x1="313.84" y1="327.77" x2="47.43" y2="61.36" gradientUnits="userSpaceOnUse">
      <stop offset="0" stop-color="#dcdcff"/>
      <stop offset="1" stop-color="#f5f5ff"/>
    </linearGradient>
  </defs>
  <path class="cls-1" d="M349.58,220.15l-75.59,13.33-67.41-38.92,67.41-38.92,75.59,13.33c5.42,.96,10.59-2.66,11.54-8.08,.96-5.42-2.66-10.59-8.08-11.54l-52.21-9.21,43.55-25.15c6.2-3.58,8.33-11.51,4.75-17.72h0c-3.58-6.2-11.51-8.33-17.72-4.75l-43.55,25.15,18.13-49.81c1.88-5.17-.78-10.89-5.95-12.77-5.17-1.88-10.89,.78-12.77,5.95l-26.25,72.13-67.41,38.92V94.26l49.34-58.8c3.54-4.22,2.99-10.5-1.23-14.04-4.22-3.54-10.5-2.99-14.04,1.23l-34.07,40.61V12.97c0-7.16-5.81-12.97-12.97-12.97h0c-7.16,0-12.97,5.81-12.97,12.97V63.26l-34.07-40.61c-3.54-4.22-9.82-4.76-14.04-1.23-4.22,3.54-4.76,9.82-1.23,14.04l49.34,58.8v77.83l-67.41-38.92-26.25-72.13c-1.88-5.17-7.6-7.84-12.77-5.95-5.17,1.88-7.84,7.6-5.95,12.77l18.13,49.81-43.55-25.15c-6.2-3.58-14.14-1.46-17.72,4.75h0c-3.58,6.2-1.46,14.14,4.75,17.72l43.55,25.15-52.21,9.21c-5.42,.96-9.04,6.12-8.08,11.54,.96,5.42,6.12,9.04,11.54,8.08l75.59-13.33,67.41,38.92-67.41,38.92-75.59-13.33c-5.42-.96-10.59,2.66-11.54,8.08-.96,5.42,2.66,10.59,8.08,11.54l52.21,9.21-43.55,25.15c-6.2,3.58-8.33,11.51-4.75,17.72h0c3.58,6.2,11.51,8.33,17.72,4.75l43.55-25.15-18.13,49.81c-1.88,5.17,.78,10.89,5.95,12.77,5.17,1.88,10.89-.78,12.77-5.95l26.25-72.13,67.41-38.92v77.83l-49.34,58.8c-3.54,4.22-2.99,10.5,1.23,14.04,4.22,3.54,10.5,2.99,14.04-1.23l34.07-40.61v50.29c0,7.16,5.81,12.97,12.97,12.97h0c7.16,0,12.97-5.81,12.97-12.97v-50.29l34.07,40.61c3.54,4.22,9.82,4.76,14.04,1.23,4.22-3.54,4.76-9.82,1.23-14.04l-49.34-58.8v-77.83l67.41,38.92,26.25,72.13c1.88,5.17,7.6,7.84,12.77,5.95,5.17-1.88,7.84-7.6,5.95-12.77l-18.13-49.81,43.55,25.15c6.2,3.58,14.14,1.46,17.72-4.75h0c3.58-6.2,1.46-14.14-4.75-17.72l-43.55-25.15,52.21-9.21c5.42-.96,9.04-6.12,8.08-11.54-.96-5.42-6.12-9.04-11.54-8.08Z"/>
</svg>