<?xml version="1.0" encoding="UTF-8"?>
<svg id="_图层_1" data-name="图层 1" xmlns="http://www.w3.org/2000/svg" xmlns:xlink="http://www.w3.org/1999/xlink" viewBox="0 0 500 500">
  <defs>
    <style>
      .cls-1 {
        fill: url(#_未命名的渐变_630-2);
      }

      .cls-2 {
        fill: url(#_未命名的渐变_207-9);
      }

      .cls-3 {
        fill: url(#_未命名的渐变_207-5);
      }

      .cls-4 {
        fill: url(#_未命名的渐变_207);
      }

      .cls-5 {
        fill: url(#_未命名的渐变_630);
      }

      .cls-6 {
        fill: url(#_未命名的渐变_207-3);
      }

      .cls-7 {
        fill: url(#_未命名的渐变_207-4);
      }

      .cls-8 {
        fill: url(#_未命名的渐变_207-6);
      }

      .cls-9 {
        fill: url(#_未命名的渐变_207-7);
      }

      .cls-10 {
        fill: url(#_未命名的渐变_207-10);
      }

      .cls-11 {
        fill: url(#_未命名的渐变_207-11);
      }

      .cls-12 {
        fill: url(#_未命名的渐变_207-2);
      }

      .cls-13 {
        fill: url(#_未命名的渐变_207-8);
      }
    </style>
    <linearGradient id="_未命名的渐变_630" data-name="未命名的渐变 630" x1="380.98" y1="181.06" x2="229.88" y2="29.96" gradientUnits="userSpaceOnUse">
      <stop offset="0" stop-color="#969696"/>
      <stop offset=".6" stop-color="#cecece"/>
      <stop offset="1" stop-color="#f0f0f0"/>
    </linearGradient>
    <linearGradient id="_未命名的渐变_630-2" data-name="未命名的渐变 630" x1="364.94" y1="299.1" x2="140.6" y2="74.76" xlink:href="#_未命名的渐变_630"/>
    <linearGradient id="_未命名的渐变_207" data-name="未命名的渐变 207" x1="229.72" y1="436.49" x2="187.55" y2="421.95" gradientTransform="translate(-18.87 91) scale(1 .76)" gradientUnits="userSpaceOnUse">
      <stop offset="0" stop-color="#c0c4ff"/>
      <stop offset=".96" stop-color="#e0e2ff"/>
      <stop offset=".96" stop-color="#cae4ff"/>
      <stop offset=".99" stop-color="#76eeff"/>
      <stop offset="1" stop-color="#55f3ff"/>
    </linearGradient>
    <linearGradient id="_未命名的渐变_207-2" data-name="未命名的渐变 207" x1="204.26" y1="314.08" x2="162.09" y2="299.54" gradientTransform="translate(6.59 87.57) scale(1 .76)" xlink:href="#_未命名的渐变_207"/>
    <linearGradient id="_未命名的渐变_207-3" data-name="未命名的渐变 207" x1="294.61" y1="375.89" x2="252.45" y2="361.34" gradientTransform="translate(-9.02 109.79) scale(1 .76)" xlink:href="#_未命名的渐变_207"/>
    <linearGradient id="_未命名的渐变_207-4" data-name="未命名的渐变 207" x1="131.01" y1="353.35" x2="88.85" y2="338.81" gradientTransform="translate(1.32 67.16) scale(1 .76)" xlink:href="#_未命名的渐变_207"/>
    <linearGradient id="_未命名的渐变_207-5" data-name="未命名的渐变 207" x1="245.54" y1="291.01" x2="203.37" y2="276.47" gradientTransform="translate(9.75 99.11) scale(1 .76)" xlink:href="#_未命名的渐变_207"/>
    <linearGradient id="_未命名的渐变_207-6" data-name="未命名的渐变 207" x1="414" y1="309.1" x2="371.83" y2="294.55" gradientTransform="translate(.13 143.14) scale(1 .76)" xlink:href="#_未命名的渐变_207"/>
    <linearGradient id="_未命名的渐变_207-7" data-name="未命名的渐变 207" x1="315.67" y1="273.86" x2="273.5" y2="259.31" gradientTransform="translate(10.7 118.11) scale(1 .76)" xlink:href="#_未命名的渐变_207"/>
    <linearGradient id="_未命名的渐变_207-8" data-name="未命名的渐变 207" x1="161.54" y1="411.15" x2="119.37" y2="396.6" gradientTransform="translate(-11.36 73.66) scale(1 .76)" xlink:href="#_未命名的渐变_207"/>
    <linearGradient id="_未命名的渐变_207-9" data-name="未命名的渐变 207" x1="352.56" y1="361.12" x2="310.39" y2="346.57" gradientTransform="translate(-8.12 125.5) scale(1 .76)" xlink:href="#_未命名的渐变_207"/>
    <linearGradient id="_未命名的渐变_207-10" data-name="未命名的渐变 207" x1="268.59" y1="449.11" x2="226.42" y2="434.56" gradientTransform="translate(-22.79 100.93) scale(1 .76)" xlink:href="#_未命名的渐变_207"/>
    <linearGradient id="_未命名的渐变_207-11" data-name="未命名的渐变 207" x1="373.66" y1="259.18" x2="331.49" y2="244.63" gradientTransform="translate(11.58 133.83) scale(1 .76)" xlink:href="#_未命名的渐变_207"/>
  </defs>
  <g>
    <path class="cls-5" d="M393.05,130.57c0,9.19-1.14,18.12-3.28,26.64,0,.03-.01,.05-.03,.09-.62,3.03-1.89,8.2-4.59,14.12-2.92,6.42-7.5,13.69-14.75,20.05-10.58,9.3-22.57,12.9-32.52,14.1-7.84,.95-14.41,.42-18,0-.71-.09-1.3-.16-1.77-.23-8.56-1.13-16.8-3.95-24.47-8.21-19.64-10.9-35.53-31.18-43.74-56.39-6.28-23.76-22.43-38.9-24.44-40.68-3.39-3-18.03-14.84-39.26-18.66,17.97-35.65,54.93-60.1,97.59-60.1,50.76,0,93.44,34.61,105.7,81.53,2.33,8.85,3.56,18.15,3.56,27.73Z"/>
    <path class="cls-1" d="M450.84,180.26c0,43.92-35.59,79.51-79.51,79.51H115.34c-36.55,0-66.18-29.63-66.18-66.17,0-31.03,21.38-57.08,50.21-64.21,11.91-28.86,40.33-49.18,73.51-49.18,4.67,0,9.12,.44,13.31,1.21,21.23,3.82,35.87,15.66,39.26,18.66,2.01,1.78,18.16,16.92,24.44,40.68,8.21,25.21,24.11,45.49,43.74,56.39,7.67,4.26,15.91,7.09,24.47,8.21,.47,.07,1.06,.13,1.77,.23,3.59,.42,10.17,.95,18,0,9.95-1.21,21.94-4.81,32.52-14.1,7.25-6.36,11.83-13.63,14.75-20.05,2.71-5.92,3.98-11.09,4.59-14.12,.01-.04,.03-.07,.03-.09,2.14-8.52,3.28-17.45,3.28-26.64s-1.23-18.87-3.56-27.73c35.17,8.2,61.36,39.75,61.36,77.42Z"/>
  </g>
  <g>
    <rect class="cls-4" x="184.01" y="373.02" width="11.5" height="87.5" rx="5.75" ry="5.75" transform="translate(116.91 -35.34) rotate(15.33)"/>
    <rect class="cls-12" x="184.01" y="276.69" width="11.5" height="87.5" rx="5.75" ry="5.75" transform="translate(91.44 -38.76) rotate(15.33)"/>
    <rect class="cls-6" x="258.76" y="345.81" width="11.5" height="87.5" rx="5.75" ry="5.75" transform="translate(112.37 -56.06) rotate(15.33)"/>
    <rect class="cls-7" x="105.5" y="286.08" width="11.5" height="87.5" rx="5.75" ry="5.75" transform="translate(91.13 -17.67) rotate(15.33)"/>
    <rect class="cls-3" x="228.45" y="270.71" width="11.5" height="87.5" rx="5.75" ry="5.75" transform="translate(91.45 -50.72) rotate(15.33)"/>
    <rect class="cls-8" x="387.29" y="328.48" width="11.5" height="87.5" rx="5.75" ry="5.75" transform="translate(112.36 -90.65) rotate(15.33)"/>
    <rect class="cls-9" x="299.53" y="276.69" width="11.5" height="87.5" rx="5.75" ry="5.75" transform="translate(95.55 -69.29) rotate(15.33)"/>
    <rect class="cls-13" x="123.34" y="336.45" width="11.5" height="87.5" rx="5.75" ry="5.75" transform="translate(105.08 -20.6) rotate(15.33)"/>
    <rect class="cls-2" x="317.6" y="350.32" width="11.5" height="87.5" rx="5.75" ry="5.75" transform="translate(115.65 -71.45) rotate(15.33)"/>
    <rect class="cls-10" x="218.97" y="392.53" width="11.5" height="87.5" rx="5.75" ry="5.75" transform="translate(123.31 -43.88) rotate(15.33)"/>
    <rect class="cls-11" x="358.4" y="281.27" width="11.5" height="87.5" rx="5.75" ry="5.75" transform="translate(98.86 -84.69) rotate(15.33)"/>
  </g>
</svg>