<?xml version="1.0" encoding="UTF-8"?>
<svg id="_图层_1" data-name="图层 1" xmlns="http://www.w3.org/2000/svg" xmlns:xlink="http://www.w3.org/1999/xlink" viewBox="0 0 401.68 457.37">
  <defs>
    <style>
      .cls-1 {
        fill: url(#_未命名的渐变_630-2);
      }

      .cls-2 {
        fill: url(#_未命名的渐变_207-9);
      }

      .cls-3 {
        fill: url(#_未命名的渐变_207-5);
      }

      .cls-4 {
        fill: url(#_未命名的渐变_207);
      }

      .cls-5 {
        fill: url(#_未命名的渐变_630);
      }

      .cls-6 {
        fill: url(#_未命名的渐变_207-3);
      }

      .cls-7 {
        fill: url(#_未命名的渐变_207-4);
      }

      .cls-8 {
        fill: url(#_未命名的渐变_207-6);
      }

      .cls-9 {
        fill: url(#_未命名的渐变_207-7);
      }

      .cls-10 {
        fill: url(#_未命名的渐变_207-10);
      }

      .cls-11 {
        fill: url(#_未命名的渐变_207-11);
      }

      .cls-12 {
        fill: url(#_未命名的渐变_207-2);
      }

      .cls-13 {
        fill: url(#_未命名的渐变_207-8);
      }
    </style>
    <linearGradient id="_未命名的渐变_630" data-name="未命名的渐变 630" x1="331.82" y1="159.74" x2="180.72" y2="8.64" gradientUnits="userSpaceOnUse">
      <stop offset="0" stop-color="#969696"/>
      <stop offset=".6" stop-color="#cecece"/>
      <stop offset="1" stop-color="#f0f0f0"/>
    </linearGradient>
    <linearGradient id="_未命名的渐变_630-2" data-name="未命名的渐变 630" x1="315.78" y1="277.79" x2="91.44" y2="53.45" xlink:href="#_未命名的渐变_630"/>
    <linearGradient id="_未命名的渐变_207" data-name="未命名的渐变 207" x1="180.56" y1="415.18" x2="138.39" y2="400.63" gradientTransform="translate(-18.87 85.86) scale(1 .76)" gradientUnits="userSpaceOnUse">
      <stop offset="0" stop-color="#c0c4ff"/>
      <stop offset=".96" stop-color="#e0e2ff"/>
      <stop offset=".96" stop-color="#cae4ff"/>
      <stop offset=".99" stop-color="#76eeff"/>
      <stop offset="1" stop-color="#55f3ff"/>
    </linearGradient>
    <linearGradient id="_未命名的渐变_207-2" data-name="未命名的渐变 207" x1="155.1" y1="292.77" x2="112.93" y2="278.22" gradientTransform="translate(6.59 82.44) scale(1 .76)" xlink:href="#_未命名的渐变_207"/>
    <linearGradient id="_未命名的渐变_207-3" data-name="未命名的渐变 207" x1="245.45" y1="354.57" x2="203.29" y2="340.03" gradientTransform="translate(-9.02 104.65) scale(1 .76)" xlink:href="#_未命名的渐变_207"/>
    <linearGradient id="_未命名的渐变_207-4" data-name="未命名的渐变 207" x1="81.85" y1="332.04" x2="39.69" y2="317.49" gradientTransform="translate(1.32 62.02) scale(1 .76)" xlink:href="#_未命名的渐变_207"/>
    <linearGradient id="_未命名的渐变_207-5" data-name="未命名的渐变 207" x1="196.38" y1="269.7" x2="154.21" y2="255.15" gradientTransform="translate(9.75 93.97) scale(1 .76)" xlink:href="#_未命名的渐变_207"/>
    <linearGradient id="_未命名的渐变_207-6" data-name="未命名的渐变 207" x1="364.84" y1="287.78" x2="322.67" y2="273.24" gradientTransform="translate(.13 138.01) scale(1 .76)" xlink:href="#_未命名的渐变_207"/>
    <linearGradient id="_未命名的渐变_207-7" data-name="未命名的渐变 207" x1="266.51" y1="252.54" x2="224.34" y2="238" gradientTransform="translate(10.7 112.97) scale(1 .76)" xlink:href="#_未命名的渐变_207"/>
    <linearGradient id="_未命名的渐变_207-8" data-name="未命名的渐变 207" x1="112.38" y1="389.84" x2="70.21" y2="375.29" gradientTransform="translate(-11.36 68.53) scale(1 .76)" xlink:href="#_未命名的渐变_207"/>
    <linearGradient id="_未命名的渐变_207-9" data-name="未命名的渐变 207" x1="303.4" y1="339.8" x2="261.23" y2="325.26" gradientTransform="translate(-8.12 120.36) scale(1 .76)" xlink:href="#_未命名的渐变_207"/>
    <linearGradient id="_未命名的渐变_207-10" data-name="未命名的渐变 207" x1="219.43" y1="427.8" x2="177.26" y2="413.25" gradientTransform="translate(-22.79 95.8) scale(1 .76)" xlink:href="#_未命名的渐变_207"/>
    <linearGradient id="_未命名的渐变_207-11" data-name="未命名的渐变 207" x1="324.5" y1="237.86" x2="282.33" y2="223.32" gradientTransform="translate(11.58 128.69) scale(1 .76)" xlink:href="#_未命名的渐变_207"/>
  </defs>
  <g>
    <path class="cls-5" d="M343.89,109.25c0,9.19-1.14,18.12-3.28,26.64,0,.03-.01,.05-.03,.09-.62,3.03-1.89,8.2-4.59,14.12-2.92,6.42-7.5,13.69-14.75,20.05-10.58,9.3-22.57,12.9-32.52,14.1-7.84,.95-14.41,.42-18,0-.71-.09-1.3-.16-1.77-.23-8.56-1.13-16.8-3.95-24.47-8.21-19.64-10.9-35.53-31.18-43.74-56.39-6.28-23.76-22.43-38.9-24.44-40.68-3.39-3-18.03-14.84-39.26-18.66C155.01,24.44,191.96,0,234.62,0c50.76,0,93.44,34.61,105.7,81.53,2.33,8.85,3.56,18.15,3.56,27.73Z"/>
    <path class="cls-1" d="M401.68,158.94c0,43.92-35.59,79.51-79.51,79.51H66.18C29.63,238.45,0,208.82,0,172.28c0-31.03,21.38-57.08,50.21-64.21,11.91-28.86,40.33-49.18,73.51-49.18,4.67,0,9.12,.44,13.31,1.21,21.23,3.82,35.87,15.66,39.26,18.66,2.01,1.78,18.16,16.92,24.44,40.68,8.21,25.21,24.11,45.49,43.74,56.39,7.67,4.26,15.91,7.09,24.47,8.21,.47,.07,1.06,.13,1.77,.23,3.59,.42,10.17,.95,18,0,9.95-1.21,21.94-4.81,32.52-14.1,7.25-6.36,11.83-13.63,14.75-20.05,2.71-5.92,3.98-11.09,4.59-14.12,.01-.04,.03-.07,.03-.09,2.14-8.52,3.28-17.45,3.28-26.64s-1.23-18.87-3.56-27.73c35.17,8.2,61.36,39.75,61.36,77.42Z"/>
  </g>
  <g>
    <rect class="cls-4" x="134.85" y="351.71" width="11.5" height="87.5" rx="5.75" ry="5.75" transform="translate(109.52 -23.1) rotate(15.33)"/>
    <rect class="cls-12" x="134.85" y="255.38" width="11.5" height="87.5" rx="5.75" ry="5.75" transform="translate(84.06 -26.53) rotate(15.33)"/>
    <rect class="cls-6" x="209.6" y="324.5" width="11.5" height="87.5" rx="5.75" ry="5.75" transform="translate(104.99 -43.82) rotate(15.33)"/>
    <rect class="cls-7" x="56.34" y="264.76" width="11.5" height="87.5" rx="5.75" ry="5.75" transform="translate(83.75 -5.44) rotate(15.33)"/>
    <rect class="cls-3" x="179.29" y="249.4" width="11.5" height="87.5" rx="5.75" ry="5.75" transform="translate(84.06 -38.48) rotate(15.33)"/>
    <rect class="cls-8" x="338.14" y="307.16" width="11.5" height="87.5" rx="5.75" ry="5.75" transform="translate(104.98 -78.41) rotate(15.33)"/>
    <rect class="cls-9" x="250.37" y="255.38" width="11.5" height="87.5" rx="5.75" ry="5.75" transform="translate(88.17 -57.06) rotate(15.33)"/>
    <rect class="cls-13" x="74.18" y="315.14" width="11.5" height="87.5" rx="5.75" ry="5.75" transform="translate(97.7 -8.36) rotate(15.33)"/>
    <rect class="cls-2" x="268.44" y="329" width="11.5" height="87.5" rx="5.75" ry="5.75" transform="translate(108.27 -59.22) rotate(15.33)"/>
    <rect class="cls-10" x="169.81" y="371.22" width="11.5" height="87.5" rx="5.75" ry="5.75" transform="translate(115.92 -31.65) rotate(15.33)"/>
    <rect class="cls-11" x="309.24" y="259.96" width="11.5" height="87.5" rx="5.75" ry="5.75" transform="translate(91.48 -72.46) rotate(15.33)"/>
  </g>
</svg>