<?xml version="1.0" encoding="UTF-8"?>
<svg id="_图层_1" data-name="图层 1" xmlns="http://www.w3.org/2000/svg" xmlns:xlink="http://www.w3.org/1999/xlink" viewBox="0 0 500 500">
  <defs>
    <style>
      .cls-1 {
        fill: url(#_未命名的渐变_630-2);
      }

      .cls-2 {
        fill: url(#_未命名的渐变_207-5);
      }

      .cls-3 {
        fill: url(#_未命名的渐变_207);
      }

      .cls-4 {
        fill: url(#_未命名的渐变_630);
      }

      .cls-5 {
        fill: url(#_未命名的渐变_207-3);
      }

      .cls-6 {
        fill: url(#_未命名的渐变_207-4);
      }

      .cls-7 {
        fill: url(#_未命名的渐变_207-6);
      }

      .cls-8 {
        fill: url(#_未命名的渐变_207-7);
      }

      .cls-9 {
        fill: url(#_未命名的渐变_207-2);
      }
    </style>
    <linearGradient id="_未命名的渐变_630" data-name="未命名的渐变 630" x1="380.98" y1="193.8" x2="229.88" y2="42.7" gradientUnits="userSpaceOnUse">
      <stop offset="0" stop-color="#969696"/>
      <stop offset=".6" stop-color="#cecece"/>
      <stop offset="1" stop-color="#f0f0f0"/>
    </linearGradient>
    <linearGradient id="_未命名的渐变_630-2" data-name="未命名的渐变 630" x1="364.94" y1="311.84" x2="140.6" y2="87.5" xlink:href="#_未命名的渐变_630"/>
    <linearGradient id="_未命名的渐变_207" data-name="未命名的渐变 207" x1="252.06" y1="437.67" x2="209.89" y2="423.13" gradientTransform="translate(-19.9 96.87) scale(1 .76)" gradientUnits="userSpaceOnUse">
      <stop offset="0" stop-color="#c0c4ff"/>
      <stop offset=".96" stop-color="#e0e2ff"/>
      <stop offset=".96" stop-color="#cae4ff"/>
      <stop offset=".99" stop-color="#76eeff"/>
      <stop offset="1" stop-color="#55f3ff"/>
    </linearGradient>
    <linearGradient id="_未命名的渐变_207-2" data-name="未命名的渐变 207" x1="180.45" y1="331.93" x2="138.28" y2="317.38" gradientTransform="translate(3.86 80.8) scale(1 .76)" xlink:href="#_未命名的渐变_207"/>
    <linearGradient id="_未命名的渐变_207-3" data-name="未命名的渐变 207" x1="316.95" y1="377.07" x2="274.79" y2="362.52" gradientTransform="translate(-10.05 115.66) scale(1 .76)" xlink:href="#_未命名的渐变_207"/>
    <linearGradient id="_未命名的渐变_207-4" data-name="未命名的渐变 207" x1="153.35" y1="450.29" x2="111.19" y2="435.74" gradientTransform="translate(-18.92 70.44) scale(1 .76)" xlink:href="#_未命名的渐变_207"/>
    <linearGradient id="_未命名的渐变_207-5" data-name="未命名的渐变 207" x1="273.74" y1="298.24" x2="231.58" y2="283.69" gradientTransform="translate(7.3 106.37) scale(1 .76)" xlink:href="#_未命名的渐变_207"/>
    <linearGradient id="_未命名的渐变_207-6" data-name="未命名的渐变 207" x1="228.51" y1="346.92" x2="186.35" y2="332.37" gradientTransform="translate(-.86 93.1) scale(1 .76)" xlink:href="#_未命名的渐变_207"/>
    <linearGradient id="_未命名的渐变_207-7" data-name="未命名的渐变 207" x1="338.01" y1="275.04" x2="295.84" y2="260.49" gradientTransform="translate(9.67 123.98) scale(1 .76)" xlink:href="#_未命名的渐变_207"/>
  </defs>
  <g>
    <path class="cls-4" d="M393.05,143.31c0,9.19-1.14,18.12-3.28,26.64,0,.03-.01,.05-.03,.09-.62,3.03-1.89,8.2-4.59,14.12-2.92,6.42-7.5,13.69-14.75,20.05-10.58,9.3-22.57,12.9-32.52,14.1-7.84,.95-14.41,.42-18,0-.71-.09-1.3-.16-1.77-.23-8.56-1.13-16.8-3.95-24.47-8.21-19.64-10.9-35.53-31.18-43.74-56.39-6.28-23.76-22.43-38.9-24.44-40.68-3.39-3-18.03-14.84-39.26-18.66,17.97-35.65,54.93-60.1,97.59-60.1,50.76,0,93.44,34.61,105.7,81.53,2.33,8.85,3.56,18.15,3.56,27.73Z"/>
    <path class="cls-1" d="M450.84,193c0,43.92-35.59,79.51-79.51,79.51H115.34c-36.55,0-66.18-29.63-66.18-66.17,0-31.03,21.38-57.08,50.21-64.21,11.91-28.86,40.33-49.18,73.51-49.18,4.67,0,9.12,.44,13.31,1.21,21.23,3.82,35.87,15.66,39.26,18.66,2.01,1.78,18.16,16.92,24.44,40.68,8.21,25.21,24.11,45.49,43.74,56.39,7.67,4.26,15.91,7.09,24.47,8.21,.47,.07,1.06,.13,1.77,.23,3.59,.42,10.17,.95,18,0,9.95-1.21,21.94-4.81,32.52-14.1,7.25-6.36,11.83-13.63,14.75-20.05,2.71-5.92,3.98-11.09,4.59-14.12,.01-.04,.03-.07,.03-.09,2.14-8.52,3.28-17.45,3.28-26.64s-1.23-18.87-3.56-27.73c35.17,8.2,61.36,39.75,61.36,77.42Z"/>
  </g>
  <g>
    <rect class="cls-3" x="205.32" y="379.79" width="11.5" height="87.5" rx="5.75" ry="5.75" transform="translate(119.45 -40.73) rotate(15.33)"/>
    <rect class="cls-9" x="157.47" y="283.46" width="11.5" height="87.5" rx="5.75" ry="5.75" transform="translate(92.29 -31.51) rotate(15.33)"/>
    <rect class="cls-5" x="280.07" y="352.58" width="11.5" height="87.5" rx="5.75" ry="5.75" transform="translate(114.92 -61.45) rotate(15.33)"/>
    <rect class="cls-6" x="107.6" y="362.94" width="11.5" height="87.5" rx="5.75" ry="5.75" transform="translate(111.52 -15.5) rotate(15.33)"/>
    <rect class="cls-2" x="254.21" y="283.46" width="11.5" height="87.5" rx="5.75" ry="5.75" transform="translate(95.73 -57.07) rotate(15.33)"/>
    <rect class="cls-7" x="200.82" y="307.13" width="11.5" height="87.5" rx="5.75" ry="5.75" transform="translate(100.09 -42.12) rotate(15.33)"/>
    <rect class="cls-8" x="320.84" y="283.46" width="11.5" height="87.5" rx="5.75" ry="5.75" transform="translate(98.1 -74.68) rotate(15.33)"/>
  </g>
</svg>