<?xml version="1.0" encoding="UTF-8"?>
<svg id="_图层_1" data-name="图层 1" xmlns="http://www.w3.org/2000/svg" xmlns:xlink="http://www.w3.org/1999/xlink" viewBox="0 0 355.5 446.1">
  <defs>
    <style>
      .cls-1 {
        fill: url(#_未命名的渐变_25-3);
      }

      .cls-2 {
        fill: url(#_未命名的渐变_25-4);
      }

      .cls-3 {
        fill: url(#_未命名的渐变_25-9);
      }

      .cls-4 {
        fill: url(#_未命名的渐变_25-5);
      }

      .cls-5 {
        fill: url(#_未命名的渐变_25-7);
      }

      .cls-6 {
        fill: url(#_未命名的渐变_25);
      }

      .cls-7 {
        fill: url(#_未命名的渐变_25-8);
      }

      .cls-8 {
        fill: url(#_未命名的渐变_25-2);
      }

      .cls-9 {
        fill: url(#_未命名的渐变_25-6);
      }
    </style>
    <linearGradient id="_未命名的渐变_25" data-name="未命名的渐变 25" x1="246.98" y1="278.86" x2="245.55" y2="277.43" gradientUnits="userSpaceOnUse">
      <stop offset="0" stop-color="#969696"/>
      <stop offset="1" stop-color="#e6e6e6"/>
    </linearGradient>
    <linearGradient id="_未命名的渐变_25-2" data-name="未命名的渐变 25" x1="272.26" y1="163.75" x2="101.32" y2="-7.18" xlink:href="#_未命名的渐变_25"/>
    <linearGradient id="_未命名的渐变_25-3" data-name="未命名的渐变 25" x1="293.21" y1="-86.89" x2="79.57" y2="126.75" gradientTransform="translate(0 387.74) scale(1 -1)" xlink:href="#_未命名的渐变_25"/>
    <linearGradient id="_未命名的渐变_25-4" data-name="未命名的渐变 25" x1="297.36" y1="306.88" x2="253.11" y2="262.63" xlink:href="#_未命名的渐变_25"/>
    <linearGradient id="_未命名的渐变_25-5" data-name="未命名的渐变 25" x1="112.84" y1="308.78" x2="64.79" y2="260.73" xlink:href="#_未命名的渐变_25"/>
    <linearGradient id="_未命名的渐变_25-6" data-name="未命名的渐变 25" x1="247.2" y1="242.19" x2="208.92" y2="203.91" xlink:href="#_未命名的渐变_25"/>
    <linearGradient id="_未命名的渐变_25-7" data-name="未命名的渐变 25" x1="135.19" y1="247.03" x2="87.23" y2="199.07" xlink:href="#_未命名的渐变_25"/>
    <linearGradient id="_未命名的渐变_25-8" data-name="未命名的渐变 25" x1="248.08" y1="179.6" x2="211.57" y2="143.09" xlink:href="#_未命名的渐变_25"/>
    <linearGradient id="_未命名的渐变_25-9" data-name="未命名的渐变 25" x1="107.17" y1="187.25" x2="55.35" y2="135.44" xlink:href="#_未命名的渐变_25"/>
  </defs>
  <path class="cls-6" d="M247.65,278.13v.06c-.25,.02-.5,.02-.75,.02-.68,0-1.37-.02-2.05-.08h2.8Z"/>
  <g>
    <path class="cls-8" d="M355.5,56.94c0,31.19-25.09,56.53-56.18,56.92v.09H14.63v-.08c-7.86,0-14.23-6.38-14.23-14.23s6.38-14.23,14.23-14.23v-.08H296.51c.68,.06,1.37,.08,2.05,.08,.25,0,.5,0,.75-.02,15.37-.39,27.72-12.97,27.72-28.45s-12.74-28.47-28.47-28.47c-7.86,0-14.23-6.38-14.23-14.23s6.38-14.23,14.23-14.23c31.44,0,56.94,25.48,56.94,56.94Z"/>
    <path class="cls-1" d="M355.1,389.16c0-31.19-25.09-56.53-56.18-56.92v-.09H14.23v.08c-7.86,0-14.23,6.38-14.23,14.23s6.38,14.23,14.23,14.23v.08H296.11c.68-.06,1.37-.08,2.05-.08,.25,0,.5,0,.75,.02,15.37,.39,27.72,12.97,27.72,28.45s-12.74,28.47-28.47,28.47c-7.86,0-14.23,6.38-14.23,14.23s6.38,14.23,14.23,14.23c31.44,0,56.94-25.48,56.94-56.94Z"/>
    <g>
      <rect class="cls-2" x="236.91" y="270.44" width="76.64" height="28.62" rx="14.31" ry="14.31"/>
      <rect class="cls-4" x="46.7" y="270.44" width="84.24" height="28.62" rx="14.31" ry="14.31"/>
    </g>
    <g>
      <rect class="cls-9" x="195.7" y="208.74" width="64.71" height="28.62" rx="14.31" ry="14.31"/>
      <rect class="cls-5" x="69.18" y="208.74" width="84.06" height="28.62" rx="14.31" ry="14.31"/>
    </g>
    <g>
      <rect class="cls-7" x="199.23" y="147.04" width="61.18" height="28.62" rx="14.31" ry="14.31"/>
      <rect class="cls-3" x="35.37" y="147.04" width="91.78" height="28.62" rx="14.31" ry="14.31"/>
    </g>
  </g>
</svg>