<?xml version="1.0" encoding="UTF-8"?>
<svg id="_图层_1" data-name="图层 1" xmlns="http://www.w3.org/2000/svg" xmlns:xlink="http://www.w3.org/1999/xlink" viewBox="0 0 500 500">
  <defs>
    <style>
      .cls-1 {
        fill: url(#_未命名的渐变_31-5);
      }

      .cls-2 {
        fill: url(#_未命名的渐变_35-5);
      }

      .cls-3 {
        fill: url(#_未命名的渐变_31);
      }

      .cls-4 {
        fill: url(#_未命名的渐变_35-2);
      }

      .cls-5 {
        fill: url(#_未命名的渐变_31-8);
      }

      .cls-6 {
        fill: url(#_未命名的渐变_31-3);
      }

      .cls-7 {
        fill: url(#_未命名的渐变_35-12);
      }

      .cls-8 {
        fill: url(#_未命名的渐变_31-2);
      }

      .cls-9 {
        fill: url(#_未命名的渐变_35-10);
      }

      .cls-10 {
        fill: url(#_未命名的渐变_31-7);
      }

      .cls-11 {
        fill: url(#_未命名的渐变_35-7);
      }

      .cls-12 {
        fill: url(#_未命名的渐变_31-4);
      }

      .cls-13 {
        fill: url(#_未命名的渐变_35);
      }

      .cls-14 {
        fill: url(#_未命名的渐变_35-8);
      }

      .cls-15 {
        fill: url(#_未命名的渐变_31-6);
      }

      .cls-16 {
        fill: url(#_未命名的渐变_35-4);
      }

      .cls-17 {
        fill: url(#_未命名的渐变_35-11);
      }

      .cls-18 {
        fill: url(#_未命名的渐变_35-6);
      }

      .cls-19 {
        fill: url(#_未命名的渐变_35-3);
      }

      .cls-20 {
        fill: url(#_未命名的渐变_35-9);
      }
    </style>
    <linearGradient id="_未命名的渐变_35" data-name="未命名的渐变 35" x1="149.78" y1="336.96" x2="88.3" y2="275.48" gradientUnits="userSpaceOnUse">
      <stop offset="0" stop-color="#bdb8b5"/>
      <stop offset="1" stop-color="#e6e6e6"/>
    </linearGradient>
    <linearGradient id="_未命名的渐变_35-2" data-name="未命名的渐变 35" x1="283.82" y1="320.9" x2="254.46" y2="291.54" xlink:href="#_未命名的渐变_35"/>
    <linearGradient id="_未命名的渐变_35-3" data-name="未命名的渐变 35" x1="167.93" y1="280.6" x2="105.83" y2="218.5" xlink:href="#_未命名的渐变_35"/>
    <linearGradient id="_未命名的渐变_35-4" data-name="未命名的渐变 35" x1="422.06" y1="270.12" x2="380.92" y2="228.97" xlink:href="#_未命名的渐变_35"/>
    <linearGradient id="_未命名的渐变_35-5" data-name="未命名的渐变 35" x1="190.13" y1="244.66" x2="86.56" y2="141.09" xlink:href="#_未命名的渐变_35"/>
    <linearGradient id="_未命名的渐变_35-6" data-name="未命名的渐变 35" x1="142.35" y1="164.46" x2="85.83" y2="107.94" xlink:href="#_未命名的渐变_35"/>
    <linearGradient id="_未命名的渐变_35-7" data-name="未命名的渐变 35" x1="372.33" y1="188.39" x2="267.94" y2="84.01" xlink:href="#_未命名的渐变_35"/>
    <linearGradient id="_未命名的渐变_31" data-name="未命名的渐变 31" x1="231.8" y1="259.67" x2="211.56" y2="239.42" gradientUnits="userSpaceOnUse">
      <stop offset="0" stop-color="#c8c8f0"/>
      <stop offset="1" stop-color="#f0f0ff"/>
    </linearGradient>
    <linearGradient id="_未命名的渐变_35-8" data-name="未命名的渐变 35" x1="242.68" y1="424.6" x2="119.27" y2="301.18" xlink:href="#_未命名的渐变_35"/>
    <linearGradient id="_未命名的渐变_35-9" data-name="未命名的渐变 35" x1="402.26" y1="230.75" x2="326.51" y2="155" xlink:href="#_未命名的渐变_35"/>
    <linearGradient id="_未命名的渐变_31-2" data-name="未命名的渐变 31" x1="217.49" y1="316.34" x2="197.24" y2="296.1" xlink:href="#_未命名的渐变_31"/>
    <linearGradient id="_未命名的渐变_31-3" data-name="未命名的渐变 31" x1="333.61" y1="373.01" x2="313.36" y2="352.77" xlink:href="#_未命名的渐变_31"/>
    <linearGradient id="_未命名的渐变_35-10" data-name="未命名的渐变 35" x1="434.13" y1="393.07" x2="373.76" y2="332.71" xlink:href="#_未命名的渐变_35"/>
    <linearGradient id="_未命名的渐变_31-4" data-name="未命名的渐变 31" x1="279.69" y1="203" x2="259.45" y2="182.75" xlink:href="#_未命名的渐变_31"/>
    <linearGradient id="_未命名的渐变_35-11" data-name="未命名的渐变 35" x1="304.86" y1="271.08" x2="261.79" y2="228.01" xlink:href="#_未命名的渐变_35"/>
    <linearGradient id="_未命名的渐变_31-5" data-name="未命名的渐变 31" x1="354.89" y1="259.67" x2="334.64" y2="239.42" xlink:href="#_未命名的渐变_31"/>
    <linearGradient id="_未命名的渐变_31-6" data-name="未命名的渐变 31" x1="208.36" y1="146.32" x2="188.12" y2="126.08" xlink:href="#_未命名的渐变_31"/>
    <linearGradient id="_未命名的渐变_31-7" data-name="未命名的渐变 31" x1="64.05" y1="259.67" x2="43.81" y2="239.42" xlink:href="#_未命名的渐变_31"/>
    <linearGradient id="_未命名的渐变_31-8" data-name="未命名的渐变 31" x1="462.85" y1="314.65" x2="442.61" y2="294.4" xlink:href="#_未命名的渐变_31"/>
    <linearGradient id="_未命名的渐变_35-12" data-name="未命名的渐变 35" x1="393.48" y1="333.86" x2="338.19" y2="278.57" xlink:href="#_未命名的渐变_35"/>
  </defs>
  <rect class="cls-13" x="63.49" y="291.9" width="111.1" height="28.63" rx="14.31" ry="14.31"/>
  <rect class="cls-4" x="245.71" y="291.9" width="46.87" height="28.63" rx="14.31" ry="14.31"/>
  <rect class="cls-19" x="80.71" y="235.23" width="112.34" height="28.63" rx="14.31" ry="14.31"/>
  <rect class="cls-16" x="366.28" y="235.23" width="70.43" height="28.63" rx="14.31" ry="14.31"/>
  <rect class="cls-2" x="40.71" y="178.56" width="195.28" height="28.63" rx="14.31" ry="14.31"/>
  <rect class="cls-18" x="63.49" y="121.89" width="101.19" height="28.63" rx="14.31" ry="14.31"/>
  <rect class="cls-11" x="221.68" y="121.89" width="196.91" height="28.63" rx="14.31" ry="14.31"/>
  <circle class="cls-3" cx="221.68" cy="249.55" r="14.31"/>
  <rect class="cls-14" x="63.49" y="348.58" width="234.97" height="28.63" rx="14.31" ry="14.31"/>
  <rect class="cls-20" x="294.57" y="178.56" width="139.64" height="28.63" rx="14.31" ry="14.31"/>
  <circle class="cls-8" cx="207.36" cy="306.22" r="14.31"/>
  <circle class="cls-6" cx="323.49" cy="362.89" r="14.31"/>
  <rect class="cls-9" x="349.5" y="348.58" width="108.88" height="28.63" rx="14.31" ry="14.31"/>
  <circle class="cls-12" cx="269.57" cy="192.87" r="14.31"/>
  <rect class="cls-17" x="246.18" y="235.23" width="74.28" height="28.63" rx="14.31" ry="14.31"/>
  <circle class="cls-1" cx="344.76" cy="249.55" r="14.31"/>
  <circle class="cls-15" cx="198.24" cy="136.2" r="14.31"/>
  <circle class="cls-10" cx="53.93" cy="249.55" r="14.31"/>
  <circle class="cls-5" cx="452.73" cy="304.53" r="14.31"/>
  <rect class="cls-7" x="316.48" y="291.9" width="98.72" height="28.63" rx="14.31" ry="14.31"/>
</svg>