<?xml version="1.0" encoding="UTF-8"?>
<svg id="_图层_1" data-name="图层 1" xmlns="http://www.w3.org/2000/svg" xmlns:xlink="http://www.w3.org/1999/xlink" viewBox="0 0 500 500">
  <defs>
    <style>
      .cls-1 {
        fill: url(#_未命名的渐变_12);
      }

      .cls-2 {
        fill: url(#_未命名的渐变_12-2);
      }

      .cls-3 {
        fill: url(#_未命名的渐变_277);
      }
    </style>
    <linearGradient id="_未命名的渐变_277" data-name="未命名的渐变 277" x1="339.9" y1="427.25" x2="135.24" y2="72.75" gradientUnits="userSpaceOnUse">
      <stop offset="0" stop-color="#f70"/>
      <stop offset="1" stop-color="#ddff09"/>
    </linearGradient>
    <linearGradient id="_未命名的渐变_12" data-name="未命名的渐变 12" x1="428.5" y1="388.63" x2="345.09" y2="305.23" gradientUnits="userSpaceOnUse">
      <stop offset="0" stop-color="#b4b4b4"/>
      <stop offset=".42" stop-color="#cecece"/>
      <stop offset="1" stop-color="#f0f0f0"/>
    </linearGradient>
    <linearGradient id="_未命名的渐变_12-2" data-name="未命名的渐变 12" x1="419.64" y1="453.79" x2="295.81" y2="329.96" xlink:href="#_未命名的渐变_12"/>
  </defs>
  <circle class="cls-3" cx="237.57" cy="250" r="204.63"/>
  <g>
    <path class="cls-1" d="M435.16,360.76c0,5.07-.63,10-1.81,14.71,0,.01,0,.03-.01,.05-.34,1.67-1.04,4.52-2.54,7.79-1.61,3.54-4.14,7.56-8.14,11.07-5.84,5.13-12.46,7.12-17.95,7.79-4.33,.52-7.96,.23-9.94,0-.39-.05-.72-.09-.98-.13-4.72-.62-9.27-2.18-13.51-4.53-10.84-6.02-19.61-17.21-24.15-31.13-3.47-13.12-12.38-21.47-13.49-22.45-1.87-1.66-9.95-8.19-21.67-10.3,9.92-19.68,30.32-33.17,53.87-33.17,28.02,0,51.58,19.1,58.35,45,1.29,4.89,1.97,10.02,1.97,15.3Z"/>
    <path class="cls-2" d="M467.06,388.19c0,24.24-19.64,43.89-43.89,43.89h-141.31c-20.18,0-36.53-16.35-36.53-36.52,0-17.13,11.8-31.51,27.72-35.44,6.57-15.93,22.26-27.15,40.57-27.15,2.58,0,5.03,.24,7.35,.67,11.72,2.11,19.8,8.64,21.67,10.3,1.11,.98,10.03,9.34,13.49,22.45,4.53,13.91,13.31,25.11,24.15,31.13,4.24,2.35,8.78,3.91,13.51,4.53,.26,.04,.58,.07,.98,.13,1.98,.23,5.61,.52,9.94,0,5.49-.67,12.11-2.65,17.95-7.79,4-3.51,6.53-7.53,8.14-11.07,1.49-3.27,2.2-6.12,2.54-7.79,0-.02,.01-.04,.01-.05,1.18-4.7,1.81-9.63,1.81-14.71s-.68-10.42-1.97-15.3c19.41,4.52,33.87,21.94,33.87,42.73Z"/>
  </g>
</svg>