<?xml version="1.0" encoding="UTF-8"?>
<svg id="_图层_1" data-name="图层 1" xmlns="http://www.w3.org/2000/svg" xmlns:xlink="http://www.w3.org/1999/xlink" viewBox="0 0 500 500">
  <defs>
    <style>
      .cls-1 {
        fill: url(#_未命名的渐变_64-4);
      }

      .cls-2 {
        fill: url(#_未命名的渐变_35-5);
      }

      .cls-3 {
        fill: url(#_未命名的渐变_110);
      }

      .cls-4 {
        fill: url(#_未命名的渐变_64-2);
      }

      .cls-5 {
        fill: url(#_未命名的渐变_35-2);
      }

      .cls-6 {
        fill: url(#_未命名的渐变_64-7);
      }

      .cls-7 {
        fill: url(#_未命名的渐变_64-6);
      }

      .cls-8 {
        fill: url(#_未命名的渐变_64-5);
      }

      .cls-9 {
        fill: url(#_未命名的渐变_35-7);
      }

      .cls-10 {
        fill: url(#_未命名的渐变_35);
      }

      .cls-11 {
        fill: url(#_未命名的渐变_35-8);
      }

      .cls-12 {
        fill: url(#_未命名的渐变_25);
      }

      .cls-13 {
        fill: url(#_未命名的渐变_64-3);
      }

      .cls-14 {
        fill: url(#_未命名的渐变_35-4);
      }

      .cls-15 {
        fill: url(#_未命名的渐变_35-6);
      }

      .cls-16 {
        fill: url(#_未命名的渐变_35-3);
      }

      .cls-17 {
        fill: url(#_未命名的渐变_64);
      }
    </style>
    <linearGradient id="_未命名的渐变_64" data-name="未命名的渐变 64" x1="322.44" y1="321" x2="302.2" y2="300.76" gradientUnits="userSpaceOnUse">
      <stop offset="0" stop-color="#507950"/>
      <stop offset="1" stop-color="#b4dbb4"/>
    </linearGradient>
    <linearGradient id="_未命名的渐变_110" data-name="未命名的渐变 110" x1="143.52" y1="518.38" x2="336.06" y2="325.83" gradientUnits="userSpaceOnUse">
      <stop offset="0" stop-color="green"/>
      <stop offset="1" stop-color="#004000"/>
    </linearGradient>
    <linearGradient id="_未命名的渐变_25" data-name="未命名的渐变 25" x1="406.19" y1="184.73" x2="320.47" y2="99.01" gradientUnits="userSpaceOnUse">
      <stop offset="0" stop-color="#969696"/>
      <stop offset="1" stop-color="#e6e6e6"/>
    </linearGradient>
    <linearGradient id="_未命名的渐变_64-2" data-name="未命名的渐变 64" x1="218.69" y1="375.16" x2="198.45" y2="354.91" xlink:href="#_未命名的渐变_64"/>
    <linearGradient id="_未命名的渐变_35" data-name="未命名的渐变 35" x1="166.46" y1="390.17" x2="116.2" y2="339.9" gradientUnits="userSpaceOnUse">
      <stop offset="0" stop-color="#bdb8b5"/>
      <stop offset="1" stop-color="#e6e6e6"/>
    </linearGradient>
    <linearGradient id="_未命名的渐变_35-2" data-name="未命名的渐变 35" x1="395.68" y1="330.51" x2="356.42" y2="291.25" xlink:href="#_未命名的渐变_35"/>
    <linearGradient id="_未命名的渐变_35-3" data-name="未命名的渐变 35" x1="284.86" y1="384.11" x2="246.71" y2="345.96" xlink:href="#_未命名的渐变_35"/>
    <linearGradient id="_未命名的渐变_64-3" data-name="未命名的渐变 64" x1="340" y1="375.45" x2="319.76" y2="355.21" xlink:href="#_未命名的渐变_64"/>
    <linearGradient id="_未命名的渐变_35-4" data-name="未命名的渐变 35" x1="253.56" y1="342.53" x2="190.26" y2="279.23" xlink:href="#_未命名的渐变_35"/>
    <linearGradient id="_未命名的渐变_35-5" data-name="未命名的渐变 35" x1="184.8" y1="196.22" x2="118.8" y2="130.22" xlink:href="#_未命名的渐变_35"/>
    <linearGradient id="_未命名的渐变_64-4" data-name="未命名的渐变 64" x1="247.14" y1="173.34" x2="226.9" y2="153.1" xlink:href="#_未命名的渐变_64"/>
    <linearGradient id="_未命名的渐变_35-6" data-name="未命名的渐变 35" x1="417.83" y1="271.93" x2="348.07" y2="202.17" xlink:href="#_未命名的渐变_35"/>
    <linearGradient id="_未命名的渐变_64-5" data-name="未命名的渐变 64" x1="298.17" y1="247.17" x2="277.93" y2="226.93" xlink:href="#_未命名的渐变_64"/>
    <linearGradient id="_未命名的渐变_35-7" data-name="未命名的渐变 35" x1="237.13" y1="268" x2="175.22" y2="206.1" xlink:href="#_未命名的渐变_35"/>
    <linearGradient id="_未命名的渐变_64-6" data-name="未命名的渐变 64" x1="126.85" y1="247.17" x2="106.61" y2="226.93" xlink:href="#_未命名的渐变_64"/>
    <linearGradient id="_未命名的渐变_64-7" data-name="未命名的渐变 64" x1="151.45" y1="321" x2="131.2" y2="300.76" xlink:href="#_未命名的渐变_64"/>
    <linearGradient id="_未命名的渐变_35-8" data-name="未命名的渐变 35" x1="105.9" y1="330.43" x2="66.8" y2="291.33" xlink:href="#_未命名的渐变_35"/>
  </defs>
  <circle class="cls-17" cx="312.32" cy="310.88" r="14.31"/>
  <rect class="cls-3" x="53.18" y="407.79" width="373.23" height="28.63" rx="14.31" ry="14.31"/>
  <path class="cls-12" d="M446.82,120.52c0,31.19-25.09,56.53-56.18,56.92v.09h-114.25v-.08c-7.86,0-14.23-6.38-14.23-14.23s6.38-14.23,14.23-14.23v-.08h111.45c.68,.06,1.37,.08,2.05,.08,.25,0,.5,0,.75-.02,15.37-.39,27.72-12.97,27.72-28.45s-12.74-28.47-28.47-28.47c-7.86,0-14.23-6.38-14.23-14.23s6.38-14.23,14.23-14.23c31.44,0,56.94,25.48,56.94,56.94Z"/>
  <circle class="cls-4" cx="208.57" cy="365.03" r="14.31"/>
  <rect class="cls-10" x="96.99" y="350.72" width="88.67" height="28.63" rx="14.31" ry="14.31"/>
  <rect class="cls-5" x="342.72" y="296.57" width="66.67" height="28.63" rx="14.31" ry="14.31"/>
  <rect class="cls-16" x="233.56" y="350.72" width="64.45" height="28.63" rx="14.31" ry="14.31"/>
  <circle class="cls-13" cx="329.88" cy="365.33" r="14.31"/>
  <rect class="cls-14" x="164.54" y="296.57" width="114.74" height="28.63" rx="14.31" ry="14.31"/>
  <rect class="cls-2" x="91.72" y="148.91" width="120.15" height="28.63" rx="14.31" ry="14.31"/>
  <circle class="cls-1" cx="237.02" cy="163.22" r="14.31"/>
  <rect class="cls-15" x="319.12" y="222.74" width="127.66" height="28.63" rx="14.31" ry="14.31"/>
  <circle class="cls-8" cx="288.05" cy="237.05" r="14.31"/>
  <rect class="cls-9" x="150.2" y="222.74" width="111.96" height="28.63" rx="14.31" ry="14.31"/>
  <circle class="cls-7" cx="116.73" cy="237.05" r="14.31"/>
  <circle class="cls-6" cx="141.33" cy="310.88" r="14.31"/>
  <rect class="cls-11" x="53.18" y="296.57" width="66.34" height="28.63" rx="14.31" ry="14.31"/>
</svg>