<?xml version="1.0" encoding="UTF-8"?>
<svg id="_图层_1" data-name="图层 1" xmlns="http://www.w3.org/2000/svg" xmlns:xlink="http://www.w3.org/1999/xlink" viewBox="0 0 440.62 255.32">
  <defs>
    <style>
      .cls-1 {
        fill: url(#_未命名的渐变_31-5);
      }

      .cls-2 {
        fill: url(#_未命名的渐变_35-5);
      }

      .cls-3 {
        fill: url(#_未命名的渐变_31);
      }

      .cls-4 {
        fill: url(#_未命名的渐变_31-13);
      }

      .cls-5 {
        fill: url(#_未命名的渐变_35-2);
      }

      .cls-6 {
        fill: url(#_未命名的渐变_31-14);
      }

      .cls-7 {
        fill: url(#_未命名的渐变_31-8);
      }

      .cls-8 {
        fill: url(#_未命名的渐变_31-3);
      }

      .cls-9 {
        fill: url(#_未命名的渐变_35-12);
      }

      .cls-10 {
        fill: url(#_未命名的渐变_31-2);
      }

      .cls-11 {
        fill: url(#_未命名的渐变_35-10);
      }

      .cls-12 {
        fill: url(#_未命名的渐变_31-7);
      }

      .cls-13 {
        fill: url(#_未命名的渐变_35-7);
      }

      .cls-14 {
        fill: url(#_未命名的渐变_31-4);
      }

      .cls-15 {
        fill: url(#_未命名的渐变_31-11);
      }

      .cls-16 {
        fill: url(#_未命名的渐变_35);
      }

      .cls-17 {
        fill: url(#_未命名的渐变_35-8);
      }

      .cls-18 {
        fill: url(#_未命名的渐变_35-13);
      }

      .cls-19 {
        fill: url(#_未命名的渐变_31-6);
      }

      .cls-20 {
        fill: url(#_未命名的渐变_31-9);
      }

      .cls-21 {
        fill: url(#_未命名的渐变_35-4);
      }

      .cls-22 {
        fill: url(#_未命名的渐变_35-11);
      }

      .cls-23 {
        fill: url(#_未命名的渐变_35-6);
      }

      .cls-24 {
        fill: url(#_未命名的渐变_31-10);
      }

      .cls-25 {
        fill: url(#_未命名的渐变_31-12);
      }

      .cls-26 {
        fill: url(#_未命名的渐变_35-3);
      }

      .cls-27 {
        fill: url(#_未命名的渐变_35-9);
      }
    </style>
    <linearGradient id="_未命名的渐变_35" data-name="未命名的渐变 35" x1="115.35" y1="209.89" x2="64.24" y2="158.77" gradientUnits="userSpaceOnUse">
      <stop offset="0" stop-color="#bdb8b5"/>
      <stop offset="1" stop-color="#e6e6e6"/>
    </linearGradient>
    <linearGradient id="_未命名的渐变_35-2" data-name="未命名的渐变 35" x1="244.21" y1="199.01" x2="214.85" y2="169.65" xlink:href="#_未命名的渐变_35"/>
    <linearGradient id="_未命名的渐变_35-3" data-name="未命名的渐变 35" x1="128.31" y1="158.71" x2="66.21" y2="96.61" xlink:href="#_未命名的渐变_35"/>
    <linearGradient id="_未命名的渐变_35-4" data-name="未命名的渐变 35" x1="382.45" y1="148.23" x2="341.31" y2="107.09" xlink:href="#_未命名的渐变_35"/>
    <linearGradient id="_未命名的渐变_35-5" data-name="未命名的渐变 35" x1="73.06" y1="93.27" x2="28.48" y2="48.7" xlink:href="#_未命名的渐变_35"/>
    <linearGradient id="_未命名的渐变_35-6" data-name="未命名的渐变 35" x1="102.74" y1="42.58" x2="46.21" y2="-13.95" xlink:href="#_未命名的渐变_35"/>
    <linearGradient id="_未命名的渐变_35-7" data-name="未命名的渐变 35" x1="275.7" y1="47.5" x2="209.32" y2="-18.87" xlink:href="#_未命名的渐变_35"/>
    <linearGradient id="_未命名的渐变_31" data-name="未命名的渐变 31" x1="192.18" y1="137.78" x2="171.94" y2="117.54" gradientUnits="userSpaceOnUse">
      <stop offset="0" stop-color="#c8c8f0"/>
      <stop offset="1" stop-color="#f0f0ff"/>
    </linearGradient>
    <linearGradient id="_未命名的渐变_35-8" data-name="未命名的渐变 35" x1="184.26" y1="266.23" x2="133.81" y2="215.78" xlink:href="#_未命名的渐变_35"/>
    <linearGradient id="_未命名的渐变_35-9" data-name="未命名的渐变 35" x1="324.1" y1="113.14" x2="239.78" y2="28.83" xlink:href="#_未命名的渐变_35"/>
    <linearGradient id="_未命名的渐变_31-2" data-name="未命名的渐变 31" x1="177.87" y1="194.45" x2="157.63" y2="174.21" xlink:href="#_未命名的渐变_31"/>
    <linearGradient id="_未命名的渐变_31-3" data-name="未命名的渐变 31" x1="293.99" y1="251.12" x2="273.75" y2="230.88" xlink:href="#_未命名的渐变_31"/>
    <linearGradient id="_未命名的渐变_35-10" data-name="未命名的渐变 35" x1="394.51" y1="271.19" x2="334.14" y2="210.82" xlink:href="#_未命名的渐变_35"/>
    <linearGradient id="_未命名的渐变_31-4" data-name="未命名的渐变 31" x1="183.06" y1="81.11" x2="162.82" y2="60.86" xlink:href="#_未命名的渐变_31"/>
    <linearGradient id="_未命名的渐变_35-11" data-name="未命名的渐变 35" x1="265.24" y1="149.19" x2="222.17" y2="106.12" xlink:href="#_未命名的渐变_35"/>
    <linearGradient id="_未命名的渐变_31-5" data-name="未命名的渐变 31" x1="315.27" y1="137.78" x2="295.03" y2="117.54" xlink:href="#_未命名的渐变_31"/>
    <linearGradient id="_未命名的渐变_31-6" data-name="未命名的渐变 31" x1="168.75" y1="24.43" x2="148.5" y2="4.19" xlink:href="#_未命名的渐变_31"/>
    <linearGradient id="_未命名的渐变_31-7" data-name="未命名的渐变 31" x1="24.43" y1="137.78" x2="4.19" y2="117.54" xlink:href="#_未命名的渐变_31"/>
    <linearGradient id="_未命名的渐变_31-8" data-name="未命名的渐变 31" x1="423.24" y1="192.76" x2="403" y2="172.52" xlink:href="#_未命名的渐变_31"/>
    <linearGradient id="_未命名的渐变_35-12" data-name="未命名的渐变 35" x1="360.39" y1="205.45" x2="318.15" y2="163.21" xlink:href="#_未命名的渐变_35"/>
    <linearGradient id="_未命名的渐变_31-9" data-name="未命名的渐变 31" x1="400.01" y1="81.11" x2="379.77" y2="60.86" xlink:href="#_未命名的渐变_31"/>
    <linearGradient id="_未命名的渐变_31-10" data-name="未命名的渐变 31" x1="89.55" y1="251.12" x2="69.31" y2="230.88" xlink:href="#_未命名的渐变_31"/>
    <linearGradient id="_未命名的渐变_35-13" data-name="未命名的渐变 35" x1="422.91" y1="37.95" x2="375.64" y2="-9.32" xlink:href="#_未命名的渐变_35"/>
    <linearGradient id="_未命名的渐变_31-11" data-name="未命名的渐变 31" x1="338.98" y1="24.43" x2="318.73" y2="4.19" xlink:href="#_未命名的渐变_31"/>
    <linearGradient id="_未命名的渐变_31-12" data-name="未命名的渐变 31" x1="133.17" y1="81.11" x2="112.93" y2="60.86" xlink:href="#_未命名的渐变_31"/>
    <linearGradient id="_未命名的渐变_31-13" data-name="未命名的渐变 31" x1="288.2" y1="192.76" x2="267.96" y2="172.52" xlink:href="#_未命名的渐变_31"/>
    <linearGradient id="_未命名的渐变_31-14" data-name="未命名的渐变 31" x1="247.96" y1="251.12" x2="227.72" y2="230.88" xlink:href="#_未命名的渐变_31"/>
  </defs>
  <rect class="cls-16" x="44.61" y="170.02" width="90.37" height="28.63" rx="14.31" ry="14.31"/>
  <rect class="cls-5" x="206.09" y="170.02" width="46.87" height="28.63" rx="14.31" ry="14.31"/>
  <rect class="cls-26" x="41.09" y="113.34" width="112.34" height="28.63" rx="14.31" ry="14.31"/>
  <rect class="cls-21" x="326.66" y="113.34" width="70.43" height="28.63" rx="14.31" ry="14.31"/>
  <rect class="cls-2" x="12.13" y="56.67" width="77.29" height="28.63" rx="14.31" ry="14.31"/>
  <rect class="cls-23" x="23.88" y="0" width="101.19" height="28.63" rx="14.31" ry="14.31"/>
  <rect class="cls-13" x="182.06" y="0" width="120.9" height="28.63" rx="14.31" ry="14.31"/>
  <circle class="cls-3" cx="182.06" cy="127.66" r="14.31"/>
  <rect class="cls-17" x="114.51" y="226.69" width="89.04" height="28.63" rx="14.31" ry="14.31"/>
  <rect class="cls-27" x="203.55" y="56.67" width="156.78" height="28.63" rx="14.31" ry="14.31"/>
  <circle class="cls-10" cx="167.75" cy="184.33" r="14.31"/>
  <circle class="cls-8" cx="283.87" cy="241" r="14.31"/>
  <rect class="cls-11" x="309.89" y="226.69" width="108.88" height="28.63" rx="14.31" ry="14.31"/>
  <circle class="cls-14" cx="172.94" cy="70.99" r="14.31"/>
  <rect class="cls-22" x="206.57" y="113.34" width="74.28" height="28.63" rx="14.31" ry="14.31"/>
  <circle class="cls-1" cx="305.15" cy="127.66" r="14.31"/>
  <circle class="cls-19" cx="158.62" cy="14.31" r="14.31"/>
  <circle class="cls-12" cx="14.31" cy="127.66" r="14.31"/>
  <circle class="cls-7" cx="413.12" cy="182.64" r="14.31"/>
  <rect class="cls-9" x="302.96" y="170.02" width="72.62" height="28.63" rx="14.31" ry="14.31"/>
  <circle class="cls-20" cx="389.89" cy="70.99" r="14.31"/>
  <circle class="cls-24" cx="79.43" cy="241" r="14.31"/>
  <rect class="cls-18" x="357.94" y="0" width="82.68" height="28.63" rx="14.31" ry="14.31"/>
  <circle class="cls-15" cx="328.86" cy="14.31" r="14.31"/>
  <circle class="cls-25" cx="123.05" cy="70.99" r="14.31"/>
  <circle class="cls-4" cx="278.08" cy="182.64" r="14.31"/>
  <circle class="cls-6" cx="237.84" cy="241" r="14.31"/>
</svg>