<?xml version="1.0" encoding="UTF-8"?>
<svg id="_图层_1" data-name="图层 1" xmlns="http://www.w3.org/2000/svg" xmlns:xlink="http://www.w3.org/1999/xlink" viewBox="0 0 500 500">
  <defs>
    <style>
      .cls-1 {
        fill: url(#_未命名的渐变_630-2);
      }

      .cls-2 {
        fill: url(#_未命名的渐变_207-9);
      }

      .cls-3 {
        fill: url(#_未命名的渐变_207-5);
      }

      .cls-4 {
        fill: url(#_未命名的渐变_207);
      }

      .cls-5 {
        fill: url(#_未命名的渐变_630);
      }

      .cls-6 {
        fill: url(#_未命名的渐变_207-3);
      }

      .cls-7 {
        fill: url(#_未命名的渐变_207-4);
      }

      .cls-8 {
        fill: url(#_未命名的渐变_207-6);
      }

      .cls-9 {
        fill: url(#_未命名的渐变_207-7);
      }

      .cls-10 {
        fill: url(#_未命名的渐变_207-2);
      }

      .cls-11 {
        fill: url(#_未命名的渐变_277);
      }

      .cls-12 {
        fill: url(#_未命名的渐变_207-8);
      }
    </style>
    <linearGradient id="_未命名的渐变_277" data-name="未命名的渐变 277" x1="177.44" y1="189.96" x2="96.7" y2="50.11" gradientUnits="userSpaceOnUse">
      <stop offset="0" stop-color="#f70"/>
      <stop offset="1" stop-color="#ddff09"/>
    </linearGradient>
    <linearGradient id="_未命名的渐变_630" data-name="未命名的渐变 630" x1="384.02" y1="187.3" x2="255.05" y2="58.32" gradientUnits="userSpaceOnUse">
      <stop offset="0" stop-color="#969696"/>
      <stop offset=".6" stop-color="#cecece"/>
      <stop offset="1" stop-color="#f0f0f0"/>
    </linearGradient>
    <linearGradient id="_未命名的渐变_630-2" data-name="未命名的渐变 630" x1="370.33" y1="288.06" x2="178.84" y2="96.56" xlink:href="#_未命名的渐变_630"/>
    <linearGradient id="_未命名的渐变_207" data-name="未命名的渐变 207" x1="279.41" y1="375.13" x2="237.25" y2="360.58" gradientTransform="translate(-8.33 105.79) scale(1 .76)" gradientUnits="userSpaceOnUse">
      <stop offset="0" stop-color="#c0c4ff"/>
      <stop offset=".96" stop-color="#e0e2ff"/>
      <stop offset=".96" stop-color="#cae4ff"/>
      <stop offset=".99" stop-color="#76eeff"/>
      <stop offset="1" stop-color="#55f3ff"/>
    </linearGradient>
    <linearGradient id="_未命名的渐变_207-2" data-name="未命名的渐变 207" x1="361.3" y1="254.44" x2="319.13" y2="239.89" gradientTransform="translate(12.97 130.69) scale(1 .76)" xlink:href="#_未命名的渐变_207"/>
    <linearGradient id="_未命名的渐变_207-3" data-name="未命名的渐变 207" x1="311.13" y1="261.22" x2="268.97" y2="246.67" gradientTransform="translate(13.39 117.25) scale(1 .76)" xlink:href="#_未命名的渐变_207"/>
    <linearGradient id="_未命名的渐变_207-4" data-name="未命名的渐变 207" x1="207.52" y1="446.58" x2="165.36" y2="432.03" gradientTransform="translate(-20.11 84.86) scale(1 .76)" xlink:href="#_未命名的渐变_207"/>
    <linearGradient id="_未命名的渐变_207-5" data-name="未命名的渐变 207" x1="343.51" y1="387.78" x2="301.34" y2="373.23" gradientTransform="translate(-13.14 122.39) scale(1 .76)" xlink:href="#_未命名的渐变_207"/>
    <linearGradient id="_未命名的渐变_207-6" data-name="未命名的渐变 207" x1="189.87" y1="323.96" x2="147.7" y2="309.41" gradientTransform="translate(5.12 83.5) scale(1 .76)" xlink:href="#_未命名的渐变_207"/>
    <linearGradient id="_未命名的渐变_207-7" data-name="未命名的渐变 207" x1="238.84" y1="287.32" x2="196.67" y2="272.78" gradientTransform="translate(10.73 97.44) scale(1 .76)" xlink:href="#_未命名的渐变_207"/>
    <linearGradient id="_未命名的渐变_207-8" data-name="未命名的渐变 207" x1="153.89" y1="375.13" x2="111.72" y2="360.58" gradientTransform="translate(-3.87 72.61) scale(1 .76)" xlink:href="#_未命名的渐变_207"/>
    <linearGradient id="_未命名的渐变_207-9" data-name="未命名的渐变 207" x1="399.55" y1="312.03" x2="357.39" y2="297.48" gradientTransform="translate(.06 139.25) scale(1 .76)" xlink:href="#_未命名的渐变_207"/>
  </defs>
  <circle class="cls-11" cx="137.07" cy="120.04" r="80.73"/>
  <g>
    <path class="cls-5" d="M394.32,144.2c0,7.84-.97,15.47-2.8,22.74,0,.02-.01,.05-.02,.08-.53,2.58-1.61,7-3.92,12.05-2.49,5.48-6.4,11.68-12.59,17.11-9.03,7.93-19.26,11.01-27.76,12.04-6.69,.81-12.3,.35-15.37,0-.61-.08-1.11-.14-1.51-.19-7.31-.96-14.34-3.37-20.89-7.01-16.76-9.31-30.33-26.62-37.34-48.13-5.36-20.28-19.15-33.2-20.86-34.72-2.89-2.56-15.39-12.67-33.51-15.93,15.34-30.43,46.89-51.3,83.3-51.3,43.33,0,79.75,29.54,90.23,69.59,1.99,7.56,3.04,15.49,3.04,23.67Z"/>
    <path class="cls-1" d="M443.66,186.61c0,37.49-30.38,67.86-67.86,67.86H157.28c-31.2,0-56.49-25.29-56.49-56.48,0-26.49,18.25-48.73,42.86-54.81,10.16-24.64,34.42-41.98,62.74-41.98,3.99,0,7.79,.38,11.36,1.03,18.12,3.26,30.62,13.36,33.51,15.93,1.71,1.52,15.5,14.44,20.86,34.72,7.01,21.52,20.58,38.83,37.34,48.13,6.55,3.64,13.58,6.05,20.89,7.01,.4,.06,.9,.11,1.51,.19,3.06,.35,8.68,.81,15.37,0,8.49-1.03,18.73-4.1,27.76-12.04,6.19-5.43,10.1-11.64,12.59-17.11,2.31-5.05,3.4-9.47,3.92-12.05,.01-.03,.02-.06,.02-.08,1.83-7.27,2.8-14.9,2.8-22.74s-1.05-16.11-3.04-23.67c30.02,7,52.37,33.93,52.37,66.08Z"/>
  </g>
  <g>
    <rect class="cls-4" x="244.25" y="341.24" width="11.5" height="87.5" rx="5.75" ry="5.75" transform="translate(110.65 -52.39) rotate(15.33)"/>
    <rect class="cls-10" x="347.44" y="274.54" width="11.5" height="87.5" rx="5.75" ry="5.75" transform="translate(96.69 -82.03) rotate(15.33)"/>
    <rect class="cls-6" x="297.69" y="266.24" width="11.5" height="87.5" rx="5.75" ry="5.75" transform="translate(92.73 -69.18) rotate(15.33)"/>
    <rect class="cls-7" x="160.58" y="374.54" width="11.5" height="87.5" rx="5.75" ry="5.75" transform="translate(116.47 -29.09) rotate(15.33)"/>
    <rect class="cls-3" x="303.53" y="367.44" width="11.5" height="87.5" rx="5.75" ry="5.75" transform="translate(119.68 -67.12) rotate(15.33)"/>
    <rect class="cls-8" x="168.15" y="280.12" width="11.5" height="87.5" rx="5.75" ry="5.75" transform="translate(91.79 -34.45) rotate(15.33)"/>
    <rect class="cls-9" x="222.74" y="266.24" width="11.5" height="87.5" rx="5.75" ry="5.75" transform="translate(90.06 -49.37) rotate(15.33)"/>
    <rect class="cls-12" x="123.19" y="308.06" width="11.5" height="87.5" rx="5.75" ry="5.75" transform="translate(97.57 -21.57) rotate(15.33)"/>
    <rect class="cls-2" x="372.78" y="326.81" width="11.5" height="87.5" rx="5.75" ry="5.75" transform="translate(111.4 -86.87) rotate(15.33)"/>
  </g>
</svg>