<?xml version="1.0" encoding="UTF-8"?>
<svg id="_图层_1" data-name="图层 1" xmlns="http://www.w3.org/2000/svg" xmlns:xlink="http://www.w3.org/1999/xlink" viewBox="0 0 500 500">
  <defs>
    <style>
      .cls-1 {
        fill: url(#_未命名的渐变_630-2);
      }

      .cls-2 {
        fill: url(#_未命名的渐变_207-5);
      }

      .cls-3 {
        fill: url(#_未命名的渐变_207);
      }

      .cls-4 {
        fill: url(#_未命名的渐变_630);
      }

      .cls-5 {
        fill: url(#_未命名的渐变_207-3);
      }

      .cls-6 {
        fill: url(#_未命名的渐变_207-4);
      }

      .cls-7 {
        fill: url(#_未命名的渐变_207-6);
      }

      .cls-8 {
        fill: url(#_未命名的渐变_207-7);
      }

      .cls-9 {
        fill: url(#_未命名的渐变_207-2);
      }

      .cls-10 {
        fill: url(#_未命名的渐变_277);
      }

      .cls-11 {
        fill: url(#_未命名的渐变_251);
      }

      .cls-12 {
        fill: url(#_未命名的渐变_251-2);
      }
    </style>
    <linearGradient id="_未命名的渐变_277" data-name="未命名的渐变 277" x1="177.44" y1="187.45" x2="96.7" y2="47.61" gradientUnits="userSpaceOnUse">
      <stop offset="0" stop-color="#f70"/>
      <stop offset="1" stop-color="#ddff09"/>
    </linearGradient>
    <linearGradient id="_未命名的渐变_630" data-name="未命名的渐变 630" x1="384.02" y1="184.79" x2="255.05" y2="55.81" gradientUnits="userSpaceOnUse">
      <stop offset="0" stop-color="#969696"/>
      <stop offset=".6" stop-color="#cecece"/>
      <stop offset="1" stop-color="#f0f0f0"/>
    </linearGradient>
    <linearGradient id="_未命名的渐变_630-2" data-name="未命名的渐变 630" x1="370.33" y1="285.55" x2="178.84" y2="94.06" xlink:href="#_未命名的渐变_630"/>
    <linearGradient id="_未命名的渐变_207" data-name="未命名的渐变 207" x1="360.64" y1="251.25" x2="318.47" y2="236.7" gradientTransform="translate(13.63 130.6) scale(1 .76)" gradientUnits="userSpaceOnUse">
      <stop offset="0" stop-color="#c0c4ff"/>
      <stop offset=".96" stop-color="#e0e2ff"/>
      <stop offset=".96" stop-color="#cae4ff"/>
      <stop offset=".99" stop-color="#76eeff"/>
      <stop offset="1" stop-color="#55f3ff"/>
    </linearGradient>
    <linearGradient id="_未命名的渐变_207-2" data-name="未命名的渐变 207" x1="269.37" y1="367.39" x2="227.2" y2="352.84" gradientTransform="translate(-6.42 103.34) scale(1 .76)" xlink:href="#_未命名的渐变_207"/>
    <linearGradient id="_未命名的渐变_207-3" data-name="未命名的渐变 207" x1="206.86" y1="443.39" x2="164.69" y2="428.84" gradientTransform="translate(-19.44 84.77) scale(1 .76)" xlink:href="#_未命名的渐变_207"/>
    <linearGradient id="_未命名的渐变_207-4" data-name="未命名的渐变 207" x1="295.59" y1="263.4" x2="253.43" y2="248.86" gradientTransform="translate(13.51 113.08) scale(1 .76)" xlink:href="#_未命名的渐变_207"/>
    <linearGradient id="_未命名的渐变_207-5" data-name="未命名的渐变 207" x1="238.18" y1="284.14" x2="196.01" y2="269.59" gradientTransform="translate(11.39 97.35) scale(1 .76)" xlink:href="#_未命名的渐变_207"/>
    <linearGradient id="_未命名的渐变_207-6" data-name="未命名的渐变 207" x1="153.22" y1="371.94" x2="111.06" y2="357.4" gradientTransform="translate(-3.2 72.52) scale(1 .76)" xlink:href="#_未命名的渐变_207"/>
    <linearGradient id="_未命名的渐变_207-7" data-name="未命名的渐变 207" x1="398.89" y1="308.84" x2="356.73" y2="294.3" gradientTransform="translate(.72 139.16) scale(1 .76)" xlink:href="#_未命名的渐变_207"/>
    <linearGradient id="_未命名的渐变_251" data-name="未命名的渐变 251" x1="282.65" y1="387.31" x2="316.44" y2="421.1" gradientUnits="userSpaceOnUse">
      <stop offset="0" stop-color="#ffff6b"/>
      <stop offset=".25" stop-color="#bcf84e"/>
      <stop offset=".77" stop-color="#35ea16"/>
      <stop offset="1" stop-color="#00e500"/>
    </linearGradient>
    <linearGradient id="_未命名的渐变_251-2" data-name="未命名的渐变 251" x1="167.54" y1="291.79" x2="193.15" y2="317.4" xlink:href="#_未命名的渐变_251"/>
  </defs>
  <circle class="cls-10" cx="137.07" cy="117.53" r="80.73"/>
  <g>
    <path class="cls-4" d="M394.32,141.69c0,7.84-.97,15.47-2.8,22.74,0,.02-.01,.05-.02,.08-.53,2.58-1.61,7-3.92,12.05-2.49,5.48-6.4,11.68-12.59,17.11-9.03,7.93-19.26,11.01-27.76,12.04-6.69,.81-12.3,.35-15.37,0-.61-.08-1.11-.14-1.51-.19-7.31-.96-14.34-3.37-20.89-7.01-16.76-9.31-30.33-26.62-37.34-48.13-5.36-20.28-19.15-33.2-20.86-34.72-2.89-2.56-15.39-12.67-33.51-15.93,15.34-30.43,46.89-51.3,83.3-51.3,43.33,0,79.75,29.54,90.23,69.59,1.99,7.56,3.04,15.49,3.04,23.67Z"/>
    <path class="cls-1" d="M443.66,184.11c0,37.49-30.38,67.86-67.86,67.86H157.28c-31.2,0-56.49-25.29-56.49-56.48,0-26.49,18.25-48.73,42.86-54.81,10.16-24.64,34.42-41.98,62.74-41.98,3.99,0,7.79,.38,11.36,1.03,18.12,3.26,30.62,13.36,33.51,15.93,1.71,1.52,15.5,14.44,20.86,34.72,7.01,21.52,20.58,38.83,37.34,48.13,6.55,3.64,13.58,6.05,20.89,7.01,.4,.06,.9,.11,1.51,.19,3.06,.35,8.68,.81,15.37,0,8.49-1.03,18.73-4.1,27.76-12.04,6.19-5.43,10.1-11.64,12.59-17.11,2.31-5.05,3.4-9.47,3.92-12.05,.01-.03,.02-.06,.02-.08,1.83-7.27,2.8-14.9,2.8-22.74s-1.05-16.11-3.04-23.67c30.02,7,52.37,33.93,52.37,66.08Z"/>
  </g>
  <g>
    <rect class="cls-3" x="347.44" y="272.03" width="11.5" height="87.5" rx="5.75" ry="5.75" transform="translate(96.02 -82.12) rotate(15.33)"/>
    <rect class="cls-9" x="236.12" y="332.92" width="11.5" height="87.5" rx="5.75" ry="5.75" transform="translate(108.16 -50.53) rotate(15.33)"/>
    <rect class="cls-5" x="160.58" y="372.03" width="11.5" height="87.5" rx="5.75" ry="5.75" transform="translate(115.81 -29.18) rotate(15.33)"/>
    <rect class="cls-6" x="282.27" y="263.73" width="11.5" height="87.5" rx="5.75" ry="5.75" transform="translate(91.51 -65.19) rotate(15.33)"/>
    <rect class="cls-2" x="222.74" y="263.73" width="11.5" height="87.5" rx="5.75" ry="5.75" transform="translate(89.4 -49.46) rotate(15.33)"/>
    <rect class="cls-7" x="123.19" y="305.56" width="11.5" height="87.5" rx="5.75" ry="5.75" transform="translate(96.91 -21.66) rotate(15.33)"/>
    <rect class="cls-8" x="372.78" y="324.3" width="11.5" height="87.5" rx="5.75" ry="5.75" transform="translate(110.74 -86.96) rotate(15.33)"/>
    <path class="cls-11" d="M324.41,347.67l-.1,.1-54.84,52.71c-1.62,1.66-2.7,4.07-2.65,6.55l.03,.52c.09,2.29,1.09,3.88,2.65,4.43l12.56,4.36c2.57,.89,3.79,3.82,2.61,6.27l-14.87,31.06-.19,.35c-1.41,2.76-1.33,5.63-.04,7.44l.17,.22,.03,.06c.34,.53,.78,.92,1.28,1.16l.31,.13c1.26,.44,2.67,.09,4.02-.93,.19-.14,.38-.31,.55-.49l52.07-53.31c.44-.45,.83-1,1.14-1.62,.68-1.36,1.16-2.75,1.4-4.16,.06-.36,.09-.72,.1-1.06v-.46c-.1-2.27-1.1-3.86-2.66-4.4l-10.07-3.5c-2.57-.89-3.79-3.82-2.61-6.27l15-31.33c.12-.25,.22-.51,.32-.77l.14-.42c.79-2.55,.72-5.02-.48-6.52l-.08-.09-.06-.11c-1.3-2.08-3.62-1.96-5.74,.11h0Z"/>
    <path class="cls-12" d="M199.19,261.75l-.08,.08-41.56,39.95c-1.23,1.26-2.04,3.08-2.01,4.96l.02,.39c.07,1.74,.83,2.94,2.01,3.35l9.52,3.3c1.94,.67,2.87,2.89,1.98,4.75l-11.27,23.54-.14,.26c-1.07,2.09-1,4.27-.03,5.64l.13,.16,.02,.05c.26,.4,.59,.7,.97,.88l.24,.1c.95,.33,2.02,.07,3.05-.71,.14-.11,.28-.23,.42-.37l39.46-40.4c.33-.34,.63-.76,.86-1.23,.52-1.03,.88-2.08,1.06-3.15,.05-.27,.07-.54,.07-.81v-.35c-.08-1.72-.83-2.92-2.01-3.33l-7.63-2.65c-1.94-.68-2.87-2.89-1.98-4.75l11.36-23.75c.09-.19,.17-.38,.24-.58l.11-.32c.6-1.93,.54-3.8-.36-4.94l-.06-.07-.05-.09c-.98-1.58-2.74-1.48-4.35,.09h0Z"/>
  </g>
</svg>