<?xml version="1.0" encoding="UTF-8"?>
<svg id="_图层_1" data-name="图层 1" xmlns="http://www.w3.org/2000/svg" xmlns:xlink="http://www.w3.org/1999/xlink" viewBox="0 0 500 500">
  <defs>
    <style>
      .cls-1 {
        fill: url(#_未命名的渐变_25-3);
      }

      .cls-2 {
        fill: url(#_未命名的渐变_25-4);
      }

      .cls-3 {
        fill: url(#_未命名的渐变_25-5);
      }

      .cls-4 {
        fill: url(#_未命名的渐变_25-7);
      }

      .cls-5 {
        fill: url(#_未命名的渐变_25);
      }

      .cls-6 {
        fill: url(#_未命名的渐变_25-2);
      }

      .cls-7 {
        fill: url(#_未命名的渐变_25-6);
      }
    </style>
    <linearGradient id="_未命名的渐变_25" data-name="未命名的渐变 25" x1="388.14" y1="361.39" x2="386.71" y2="359.96" gradientUnits="userSpaceOnUse">
      <stop offset="0" stop-color="#969696"/>
      <stop offset="1" stop-color="#e6e6e6"/>
    </linearGradient>
    <linearGradient id="_未命名的渐变_25-2" data-name="未命名的渐变 25" x1="344.31" y1="221.55" x2="173.38" y2="50.62" xlink:href="#_未命名的渐变_25"/>
    <linearGradient id="_未命名的渐变_25-3" data-name="未命名的渐变 25" x1="365.66" y1="-29.09" x2="152.03" y2="184.55" gradientTransform="translate(0 441.64) scale(1 -1)" xlink:href="#_未命名的渐变_25"/>
    <linearGradient id="_未命名的渐变_25-4" data-name="未命名的渐变 25" x1="365.98" y1="306.8" x2="314.08" y2="254.9" xlink:href="#_未命名的渐变_25"/>
    <linearGradient id="_未命名的渐变_25-5" data-name="未命名的渐变 25" x1="204.29" y1="307.22" x2="151.55" y2="254.48" xlink:href="#_未命名的渐变_25"/>
    <linearGradient id="_未命名的渐变_25-6" data-name="未命名的渐变 25" x1="321.02" y1="238.75" x2="281.82" y2="199.55" xlink:href="#_未命名的渐变_25"/>
    <linearGradient id="_未命名的渐变_25-7" data-name="未命名的渐变 25" x1="168.9" y1="242.66" x2="121.88" y2="195.64" xlink:href="#_未命名的渐变_25"/>
  </defs>
  <path class="cls-5" d="M388.81,360.66v.06c-.25,.02-.5,.02-.75,.02-.68,0-1.37-.02-2.05-.08h2.8Z"/>
  <path class="cls-6" d="M427.55,114.74c0,31.19-25.09,56.53-56.18,56.92v.09H86.69v-.08c-7.86,0-14.23-6.38-14.23-14.23s6.38-14.23,14.23-14.23v-.08H368.56c.68,.06,1.37,.08,2.05,.08,.25,0,.5,0,.75-.02,15.37-.39,27.72-12.97,27.72-28.45s-12.74-28.47-28.47-28.47c-7.86,0-14.23-6.38-14.23-14.23s6.38-14.23,14.23-14.23c31.44,0,56.94,25.48,56.94,56.94Z"/>
  <path class="cls-1" d="M427.55,385.26c0-31.19-25.09-56.53-56.18-56.92v-.09H86.69v.08c-7.86,0-14.23,6.38-14.23,14.23s6.38,14.23,14.23,14.23v.08H368.56c.68-.06,1.37-.08,2.05-.08,.25,0,.5,0,.75,.02,15.37,.39,27.72,12.97,27.72,28.45s-12.74,28.47-28.47,28.47c-7.86,0-14.23,6.38-14.23,14.23s6.38,14.23,14.23,14.23c31.44,0,56.94-25.48,56.94-56.94Z"/>
  <g>
    <rect class="cls-2" x="294.05" y="266.54" width="91.96" height="28.62" rx="14.31" ry="14.31"/>
    <rect class="cls-3" x="131.1" y="266.54" width="93.63" height="28.62" rx="14.31" ry="14.31"/>
  </g>
  <g>
    <rect class="cls-7" x="268.15" y="204.84" width="66.53" height="28.62" rx="14.31" ry="14.31"/>
    <rect class="cls-4" x="104.29" y="204.84" width="82.19" height="28.62" rx="14.31" ry="14.31"/>
  </g>
</svg>