<?xml version="1.0" encoding="UTF-8"?>
<svg id="_图层_1" data-name="图层 1" xmlns="http://www.w3.org/2000/svg" xmlns:xlink="http://www.w3.org/1999/xlink" viewBox="0 0 355.1 276.08">
  <defs>
    <style>
      .cls-1 {
        fill: url(#_未命名的渐变_25-3);
      }

      .cls-2 {
        fill: url(#_未命名的渐变_25);
      }

      .cls-3 {
        fill: url(#_未命名的渐变_25-2);
      }
    </style>
    <linearGradient id="_未命名的渐变_25" data-name="未命名的渐变 25" x1="315.68" y1="195.26" x2="314.26" y2="193.84" gradientUnits="userSpaceOnUse">
      <stop offset="0" stop-color="#969696"/>
      <stop offset="1" stop-color="#e6e6e6"/>
    </linearGradient>
    <linearGradient id="_未命名的渐变_25-2" data-name="未命名的渐变 25" x1="271.86" y1="163.75" x2="100.93" y2="-7.18" xlink:href="#_未命名的渐变_25"/>
    <linearGradient id="_未命名的渐变_25-3" data-name="未命名的渐变 25" x1="293.21" y1="-86.89" x2="79.57" y2="126.75" gradientTransform="translate(0 217.72) scale(1 -1)" xlink:href="#_未命名的渐变_25"/>
  </defs>
  <path class="cls-2" d="M316.36,194.54v.06c-.25,.02-.5,.02-.75,.02-.68,0-1.37-.02-2.05-.08h2.8Z"/>
  <path class="cls-3" d="M355.1,56.94c0,31.19-25.09,56.53-56.18,56.92v.09H14.23v-.08c-7.86,0-14.23-6.38-14.23-14.23s6.38-14.23,14.23-14.23v-.08H296.11c.68,.06,1.37,.08,2.05,.08,.25,0,.5,0,.75-.02,15.37-.39,27.72-12.97,27.72-28.45s-12.74-28.47-28.47-28.47c-7.86,0-14.23-6.38-14.23-14.23s6.38-14.23,14.23-14.23c31.44,0,56.94,25.48,56.94,56.94Z"/>
  <path class="cls-1" d="M355.1,219.14c0-31.19-25.09-56.53-56.18-56.92v-.09H14.23v.08C6.38,162.21,0,168.58,0,176.44s6.38,14.23,14.23,14.23v.08H296.11c.68-.06,1.37-.08,2.05-.08,.25,0,.5,0,.75,.02,15.37,.39,27.72,12.97,27.72,28.45s-12.74,28.47-28.47,28.47c-7.86,0-14.23,6.38-14.23,14.23s6.38,14.23,14.23,14.23c31.44,0,56.94-25.48,56.94-56.94Z"/>
</svg>