<?xml version="1.0" encoding="UTF-8"?>
<svg id="_图层_1" data-name="图层 1" xmlns="http://www.w3.org/2000/svg" xmlns:xlink="http://www.w3.org/1999/xlink" viewBox="0 0 412.17 320.71">
  <defs>
    <style>
      .cls-1 {
        fill: url(#_未命名的渐变_64-4);
      }

      .cls-2 {
        fill: url(#_未命名的渐变_110);
      }

      .cls-3 {
        fill: url(#_未命名的渐变_64-10);
      }

      .cls-4 {
        fill: url(#_未命名的渐变_64-2);
      }

      .cls-5 {
        fill: url(#_未命名的渐变_64-8);
      }

      .cls-6 {
        fill: url(#_未命名的渐变_64-9);
      }

      .cls-7 {
        fill: url(#_未命名的渐变_64-7);
      }

      .cls-8 {
        fill: url(#_未命名的渐变_64-11);
      }

      .cls-9 {
        fill: url(#_未命名的渐变_64-6);
      }

      .cls-10 {
        fill: url(#_未命名的渐变_64-5);
      }

      .cls-11 {
        fill: url(#_未命名的渐变_25);
      }

      .cls-12 {
        fill: url(#_未命名的渐变_64-3);
      }

      .cls-13 {
        fill: url(#_未命名的渐变_64-12);
      }

      .cls-14 {
        fill: url(#_未命名的渐变_64);
      }
    </style>
    <linearGradient id="_未命名的渐变_64" data-name="未命名的渐变 64" x1="216.87" y1="188.41" x2="196.62" y2="168.17" gradientUnits="userSpaceOnUse">
      <stop offset="0" stop-color="#507950"/>
      <stop offset="1" stop-color="#b4dbb4"/>
    </linearGradient>
    <linearGradient id="_未命名的渐变_64-2" data-name="未命名的渐变 64" x1="318.5" y1="123.19" x2="298.26" y2="102.95" xlink:href="#_未命名的渐变_64"/>
    <linearGradient id="_未命名的渐变_110" data-name="未命名的渐变 110" x1="129.28" y1="402.67" x2="321.83" y2="210.13" gradientUnits="userSpaceOnUse">
      <stop offset="0" stop-color="green"/>
      <stop offset="1" stop-color="#004000"/>
    </linearGradient>
    <linearGradient id="_未命名的渐变_25" data-name="未命名的渐变 25" x1="324.56" y1="302.17" x2="153.63" y2="131.23" gradientUnits="userSpaceOnUse">
      <stop offset="0" stop-color="#969696"/>
      <stop offset="1" stop-color="#e6e6e6"/>
    </linearGradient>
    <linearGradient id="_未命名的渐变_64-3" data-name="未命名的渐变 64" x1="123.64" y1="106.31" x2="103.4" y2="86.06" xlink:href="#_未命名的渐变_64"/>
    <linearGradient id="_未命名的渐变_64-4" data-name="未命名的渐变 64" x1="279.42" y1="191.2" x2="259.18" y2="170.95" xlink:href="#_未命名的渐变_64"/>
    <linearGradient id="_未命名的渐变_64-5" data-name="未命名的渐变 64" x1="24.43" y1="91.99" x2="4.19" y2="71.75" xlink:href="#_未命名的渐变_64"/>
    <linearGradient id="_未命名的渐变_64-6" data-name="未命名的渐变 64" x1="188.24" y1="46.75" x2="168" y2="26.5" xlink:href="#_未命名的渐变_64"/>
    <linearGradient id="_未命名的渐变_64-7" data-name="未命名的渐变 64" x1="104.51" y1="24.43" x2="84.27" y2="4.19" xlink:href="#_未命名的渐变_64"/>
    <linearGradient id="_未命名的渐变_64-8" data-name="未命名的渐变 64" x1="56.31" y1="153.52" x2="36.06" y2="133.28" xlink:href="#_未命名的渐变_64"/>
    <linearGradient id="_未命名的渐变_64-9" data-name="未命名的渐变 64" x1="156.71" y1="156.11" x2="136.46" y2="135.87" xlink:href="#_未命名的渐变_64"/>
    <linearGradient id="_未命名的渐变_64-10" data-name="未命名的渐变 64" x1="123.64" y1="202.72" x2="103.4" y2="182.48" xlink:href="#_未命名的渐变_64"/>
    <linearGradient id="_未命名的渐变_64-11" data-name="未命名的渐变 64" x1="204.12" y1="108.88" x2="183.87" y2="88.64" xlink:href="#_未命名的渐变_64"/>
    <linearGradient id="_未命名的渐变_64-12" data-name="未命名的渐变 64" x1="266.3" y1="133.65" x2="246.05" y2="113.41" xlink:href="#_未命名的渐变_64"/>
  </defs>
  <circle class="cls-14" cx="206.74" cy="178.29" r="14.31"/>
  <circle class="cls-4" cx="308.38" cy="113.07" r="14.31"/>
  <rect class="cls-2" x="38.94" y="292.09" width="373.23" height="28.63" rx="14.31" ry="14.31"/>
  <path class="cls-11" d="M407.8,195.35c0,31.19-25.09,56.53-56.18,56.92v.09H66.94v-.08c-7.86,0-14.23-6.38-14.23-14.23s6.38-14.23,14.23-14.23v-.08H348.81c.68,.06,1.37,.08,2.05,.08,.25,0,.5,0,.75-.02,15.37-.39,27.72-12.97,27.72-28.45s-12.74-28.47-28.47-28.47c-7.86,0-14.23-6.38-14.23-14.23s6.38-14.23,14.23-14.23c31.44,0,56.94,25.48,56.94,56.94Z"/>
  <circle class="cls-12" cx="113.52" cy="96.19" r="14.31"/>
  <circle class="cls-1" cx="269.3" cy="181.08" r="14.31"/>
  <circle class="cls-10" cx="14.31" cy="81.87" r="14.31"/>
  <circle class="cls-9" cx="178.12" cy="36.62" r="14.31"/>
  <circle class="cls-7" cx="94.39" cy="14.31" r="14.31"/>
  <circle class="cls-5" cx="46.19" cy="143.4" r="14.31"/>
  <circle class="cls-6" cx="146.58" cy="145.99" r="14.31"/>
  <circle class="cls-3" cx="113.52" cy="192.6" r="14.31"/>
  <circle class="cls-8" cx="193.99" cy="98.76" r="14.31"/>
  <circle class="cls-13" cx="256.18" cy="123.53" r="14.31"/>
</svg>