<?xml version="1.0" encoding="UTF-8"?>
<svg id="_图层_1" data-name="图层 1" xmlns="http://www.w3.org/2000/svg" xmlns:xlink="http://www.w3.org/1999/xlink" viewBox="0 0 412.09 353.88">
  <defs>
    <style>
      .cls-1 {
        fill: url(#_未命名的渐变_13-2);
      }

      .cls-2 {
        fill: url(#_未命名的渐变_13);
      }

      .cls-3 {
        fill: url(#_未命名的渐变_15);
      }

      .cls-4 {
        fill: url(#_未命名的渐变_277);
      }

      .cls-5 {
        fill: url(#_未命名的渐变_20);
      }
    </style>
    <linearGradient id="_未命名的渐变_277" data-name="未命名的渐变 277" x1="265.43" y1="330.2" x2="88.46" y2="23.68" gradientUnits="userSpaceOnUse">
      <stop offset="0" stop-color="#f70"/>
      <stop offset="1" stop-color="#ddff09"/>
    </linearGradient>
    <linearGradient id="_未命名的渐变_13" data-name="未命名的渐变 13" x1="370.21" y1="204.42" x2="279.65" y2="113.85" gradientUnits="userSpaceOnUse">
      <stop offset="0" stop-color="#969696"/>
      <stop offset=".6" stop-color="#cecece"/>
      <stop offset="1" stop-color="#f0f0f0"/>
    </linearGradient>
    <linearGradient id="_未命名的渐变_13-2" data-name="未命名的渐变 13" x1="360.6" y1="275.17" x2="226.13" y2="140.7" xlink:href="#_未命名的渐变_13"/>
    <linearGradient id="_未命名的渐变_20" data-name="未命名的渐变 20" x1="158.19" y1="296.31" x2="210.16" y2="244.34" gradientTransform="translate(290.53) rotate(-180) scale(1 -1)" gradientUnits="userSpaceOnUse">
      <stop offset="0" stop-color="#b4b4b4"/>
      <stop offset=".42" stop-color="#cecece"/>
      <stop offset="1" stop-color="#f0f0f0"/>
    </linearGradient>
    <linearGradient id="_未命名的渐变_15" data-name="未命名的渐变 15" x1="101.5" y1="366.87" x2="216.07" y2="252.29" gradientTransform="translate(290.53) rotate(-180) scale(1 -1)" gradientUnits="userSpaceOnUse">
      <stop offset="0" stop-color="#969696"/>
      <stop offset=".6" stop-color="#cecece"/>
      <stop offset="1" stop-color="#f0f0f0"/>
    </linearGradient>
  </defs>
  <circle class="cls-4" cx="176.94" cy="176.94" r="176.94"/>
  <g>
    <path class="cls-2" d="M377.45,174.15c0,5.51-.68,10.86-1.97,15.97,0,.02,0,.03-.02,.06-.37,1.81-1.13,4.91-2.75,8.46-1.75,3.85-4.5,8.2-8.84,12.02-6.34,5.57-13.53,7.73-19.49,8.45-4.7,.57-8.64,.25-10.79,0-.43-.06-.78-.1-1.06-.14-5.13-.67-10.07-2.37-14.67-4.92-11.77-6.53-21.3-18.69-26.22-33.8-3.77-14.24-13.45-23.31-14.65-24.38-2.03-1.8-10.81-8.9-23.53-11.18,10.77-21.37,32.92-36.02,58.49-36.02,30.43,0,56,20.74,63.36,48.87,1.4,5.31,2.14,10.88,2.14,16.62Z"/>
    <path class="cls-1" d="M412.09,203.94c0,26.32-21.33,47.65-47.65,47.65H210.99c-21.91,0-39.67-17.76-39.67-39.66,0-18.6,12.81-34.22,30.1-38.49,7.14-17.3,24.17-29.48,44.06-29.48,2.8,0,5.47,.26,7.98,.72,12.72,2.29,21.5,9.38,23.53,11.18,1.2,1.07,10.89,10.14,14.65,24.38,4.92,15.11,14.45,27.26,26.22,33.8,4.6,2.55,9.54,4.25,14.67,4.92,.28,.04,.63,.08,1.06,.14,2.15,.25,6.09,.57,10.79,0,5.96-.72,13.15-2.88,19.49-8.45,4.34-3.81,7.09-8.17,8.84-12.02,1.62-3.55,2.38-6.65,2.75-8.46,0-.02,.02-.04,.02-.06,1.28-5.11,1.97-10.46,1.97-15.97s-.74-11.31-2.14-16.62c21.08,4.91,36.78,23.83,36.78,46.4Z"/>
  </g>
  <g>
    <path class="cls-5" d="M64.12,282.41c0,4.43,.55,8.74,1.58,12.84,0,.01,0,.03,.01,.05,.3,1.46,.91,3.95,2.21,6.81,1.41,3.09,3.62,6.6,7.11,9.67,5.1,4.48,10.88,6.22,15.68,6.8,3.78,.46,6.95,.2,8.68,0,.34-.05,.63-.08,.85-.11,4.13-.54,8.1-1.9,11.8-3.96,9.47-5.26,17.13-15.03,21.09-27.18,3.03-11.45,10.82-18.75,11.78-19.61,1.63-1.45,8.69-7.15,18.92-8.99-8.67-17.19-26.48-28.97-47.04-28.97-24.47,0-45.04,16.68-50.96,39.3-1.12,4.27-1.72,8.75-1.72,13.37Z"/>
    <path class="cls-3" d="M36.26,306.36c0,21.17,17.16,38.33,38.33,38.33h123.41c17.62,0,31.9-14.28,31.9-31.9,0-14.96-10.31-27.52-24.21-30.95-5.74-13.91-19.44-23.71-35.44-23.71-2.25,0-4.4,.21-6.42,.58-10.23,1.84-17.29,7.55-18.92,8.99-.97,.86-8.76,8.15-11.78,19.61-3.96,12.15-11.62,21.93-21.09,27.18-3.7,2.05-7.67,3.42-11.8,3.96-.23,.03-.51,.06-.85,.11-1.73,.2-4.9,.46-8.68,0-4.8-.58-10.58-2.32-15.68-6.8-3.49-3.07-5.7-6.57-7.11-9.67-1.3-2.85-1.92-5.35-2.21-6.81,0-.02-.01-.03-.01-.05-1.03-4.11-1.58-8.41-1.58-12.84s.59-9.1,1.72-13.37c-16.96,3.95-29.58,19.16-29.58,37.32Z"/>
  </g>
</svg>