<?xml version="1.0" encoding="UTF-8"?>
<svg id="_图层_1" data-name="图层 1" xmlns="http://www.w3.org/2000/svg" xmlns:xlink="http://www.w3.org/1999/xlink" viewBox="0 0 500 500">
  <defs>
    <style>
      .cls-1 {
        fill: url(#_未命名的渐变_144-5);
      }

      .cls-2 {
        fill: url(#_未命名的渐变_630-2);
      }

      .cls-3 {
        fill: url(#_未命名的渐变_630);
      }

      .cls-4 {
        fill: url(#_未命名的渐变_144-3);
      }

      .cls-5 {
        fill: url(#_未命名的渐变_144-7);
      }

      .cls-6 {
        fill: url(#_未命名的渐变_144-6);
      }

      .cls-7 {
        fill: url(#_未命名的渐变_144);
      }

      .cls-8 {
        fill: url(#_未命名的渐变_144-2);
      }

      .cls-9 {
        fill: url(#_未命名的渐变_144-4);
      }
    </style>
    <linearGradient id="_未命名的渐变_630" data-name="未命名的渐变 630" x1="380.52" y1="194.77" x2="229.43" y2="43.68" gradientUnits="userSpaceOnUse">
      <stop offset="0" stop-color="#969696"/>
      <stop offset=".6" stop-color="#cecece"/>
      <stop offset="1" stop-color="#f0f0f0"/>
    </linearGradient>
    <linearGradient id="_未命名的渐变_630-2" data-name="未命名的渐变 630" x1="364.48" y1="312.82" x2="140.15" y2="88.48" xlink:href="#_未命名的渐变_630"/>
    <linearGradient id="_未命名的渐变_144" data-name="未命名的渐变 144" x1="252.5" y1="448.58" x2="185.29" y2="381.37" gradientUnits="userSpaceOnUse">
      <stop offset="0" stop-color="#dcdcff"/>
      <stop offset="1" stop-color="#f5f5ff"/>
    </linearGradient>
    <linearGradient id="_未命名的渐变_144-2" data-name="未命名的渐变 144" x1="371.74" y1="379.35" x2="313.03" y2="320.64" gradientTransform="translate(-97.23 127.4) rotate(-19.44)" xlink:href="#_未命名的渐变_144"/>
    <linearGradient id="_未命名的渐变_144-3" data-name="未命名的渐变 144" x1="178.55" y1="351.77" x2="129.43" y2="302.65" gradientTransform="translate(87.81 -24.34) rotate(14.41)" xlink:href="#_未命名的渐变_144"/>
    <linearGradient id="_未命名的渐变_144-4" data-name="未命名的渐变 144" x1="276.4" y1="463.12" x2="227.57" y2="414.29" gradientTransform="translate(-71.07 102.06) rotate(-20.3)" xlink:href="#_未命名的渐变_144"/>
    <linearGradient id="_未命名的渐变_144-5" data-name="未命名的渐变 144" x1="114.2" y1="376.56" x2="79.52" y2="341.88" gradientTransform="translate(104.04 43.14) rotate(13.14)" xlink:href="#_未命名的渐变_144"/>
    <linearGradient id="_未命名的渐变_144-6" data-name="未命名的渐变 144" x1="274.01" y1="303.54" x2="242.16" y2="271.69" gradientTransform="translate(-50.96 50.34) rotate(-6.33)" xlink:href="#_未命名的渐变_144"/>
    <linearGradient id="_未命名的渐变_144-7" data-name="未命名的渐变 144" x1="302.68" y1="360.73" x2="283.42" y2="341.46" gradientTransform="translate(266.42 -92.29) rotate(39.13)" xlink:href="#_未命名的渐变_144"/>
  </defs>
  <path class="cls-3" d="M392.59,144.29c0,9.19-1.14,18.12-3.28,26.64,0,.03-.01,.05-.03,.09-.62,3.03-1.89,8.2-4.59,14.12-2.92,6.42-7.5,13.69-14.75,20.05-10.58,9.3-22.57,12.9-32.52,14.1-7.84,.95-14.41,.42-18,0-.71-.09-1.3-.16-1.77-.23-8.56-1.13-16.8-3.95-24.47-8.21-19.64-10.9-35.53-31.18-43.74-56.39-6.28-23.76-22.43-38.9-24.44-40.68-3.39-3-18.03-14.84-39.26-18.66,17.97-35.65,54.93-60.1,97.59-60.1,50.76,0,93.44,34.61,105.7,81.53,2.33,8.85,3.56,18.15,3.56,27.73Z"/>
  <path class="cls-2" d="M450.39,193.98c0,43.92-35.59,79.51-79.51,79.51H114.88c-36.55,0-66.18-29.63-66.18-66.17,0-31.03,21.38-57.08,50.21-64.21,11.91-28.86,40.33-49.18,73.51-49.18,4.67,0,9.12,.44,13.31,1.21,21.23,3.82,35.87,15.66,39.26,18.66,2.01,1.78,18.16,16.92,24.44,40.68,8.21,25.21,24.11,45.49,43.74,56.39,7.67,4.26,15.91,7.09,24.47,8.21,.47,.07,1.06,.13,1.77,.23,3.59,.42,10.17,.95,18,0,9.95-1.21,21.94-4.81,32.52-14.1,7.25-6.36,11.83-13.63,14.75-20.05,2.71-5.92,3.98-11.09,4.59-14.12,.01-.04,.03-.07,.03-.09,2.14-8.52,3.28-17.45,3.28-26.64s-1.23-18.87-3.56-27.73c35.17,8.2,61.36,39.75,61.36,77.42Z"/>
  <g>
    <path class="cls-7" d="M261.52,421.43l-19.07,3.36-17.01-9.82,17.01-9.82,19.07,3.36c1.37,.24,2.67-.67,2.91-2.04,.24-1.37-.67-2.67-2.04-2.91l-13.17-2.32,10.99-6.34c1.57-.9,2.1-2.9,1.2-4.47h0c-.9-1.57-2.9-2.1-4.47-1.2l-10.99,6.34,4.57-12.57c.47-1.3-.2-2.75-1.5-3.22-1.3-.47-2.75,.2-3.22,1.5l-6.62,18.2-17.01,9.82v-19.64l12.45-14.83c.89-1.06,.75-2.65-.31-3.54-1.06-.89-2.65-.75-3.54,.31l-8.6,10.24v-12.69c0-1.81-1.46-3.27-3.27-3.27h0c-1.81,0-3.27,1.46-3.27,3.27v12.69l-8.6-10.24c-.89-1.06-2.48-1.2-3.54-.31-1.06,.89-1.2,2.48-.31,3.54l12.45,14.83v19.64l-17.01-9.82-6.62-18.2c-.47-1.3-1.92-1.98-3.22-1.5-1.3,.47-1.98,1.92-1.5,3.22l4.57,12.57-10.99-6.34c-1.57-.9-3.57-.37-4.47,1.2h0c-.9,1.57-.37,3.57,1.2,4.47l10.99,6.34-13.17,2.32c-1.37,.24-2.28,1.54-2.04,2.91,.24,1.37,1.54,2.28,2.91,2.04l19.07-3.36,17.01,9.82-17.01,9.82-19.07-3.36c-1.37-.24-2.67,.67-2.91,2.04-.24,1.37,.67,2.67,2.04,2.91l13.17,2.32-10.99,6.34c-1.57,.9-2.1,2.9-1.2,4.47h0c.9,1.57,2.9,2.1,4.47,1.2l10.99-6.34-4.57,12.57c-.47,1.3,.2,2.75,1.5,3.22,1.3,.47,2.75-.2,3.22-1.5l6.62-18.2,17.01-9.82v19.64l-12.45,14.83c-.89,1.06-.75,2.65,.31,3.54,1.06,.89,2.65,.75,3.54-.31l8.6-10.24v12.69c0,1.81,1.46,3.27,3.27,3.27h0c1.81,0,3.27-1.46,3.27-3.27v-12.69l8.6,10.24c.89,1.06,2.48,1.2,3.54,.31,1.06-.89,1.2-2.48,.31-3.54l-12.45-14.83v-19.64l17.01,9.82,6.62,18.2c.47,1.3,1.92,1.98,3.22,1.5,1.3-.47,1.98-1.92,1.5-3.22l-4.57-12.57,10.99,6.34c1.57,.9,3.57,.37,4.47-1.2h0c.9-1.57,.37-3.57-1.2-4.47l-10.99-6.34,13.17-2.32c1.37-.24,2.28-1.54,2.04-2.91-.24-1.37-1.54-2.28-2.91-2.04Z"/>
    <path class="cls-8" d="M379.11,336.41l-14.73,8.31-16.86-3.14,11.15-13.03,16.69-2.77c1.2-.2,2-1.33,1.81-2.53-.2-1.2-1.33-2-2.53-1.81l-11.52,1.92,7.21-8.42c1.03-1.2,.89-3-.31-4.03h0c-1.2-1.03-3-.89-4.03,.31l-7.21,8.42,.11-11.68c.01-1.21-.96-2.21-2.17-2.22-1.21-.01-2.21,.96-2.22,2.17l-.17,16.92-11.15,13.03-5.71-16.18,5.94-15.84c.43-1.14-.15-2.4-1.28-2.83-1.14-.43-2.4,.15-2.83,1.28l-4.1,10.94-3.69-10.45c-.53-1.49-2.16-2.27-3.65-1.74h0c-1.49,.53-2.27,2.16-1.74,3.65l3.69,10.45-10.06-5.94c-1.04-.62-2.39-.27-3.01,.77-.62,1.04-.27,2.39,.77,3.01l14.57,8.6,5.71,16.18-16.86-3.14-10.75-13.06c-.77-.94-2.15-1.07-3.09-.3-.94,.77-1.07,2.15-.3,3.09l7.42,9.02-10.9-2.03c-1.55-.29-3.04,.73-3.33,2.29h0c-.29,1.55,.73,3.04,2.29,3.33l10.9,2.03-10.17,5.74c-1.06,.6-1.43,1.94-.83,2.99,.6,1.06,1.94,1.43,2.99,.83l14.73-8.31,16.86,3.14-11.15,13.03-16.69,2.77c-1.2,.2-2,1.33-1.81,2.53,.2,1.2,1.33,2,2.53,1.81l11.52-1.92-7.21,8.42c-1.03,1.2-.89,3,.31,4.03h0c1.2,1.03,3,.89,4.03-.31l7.21-8.42-.11,11.68c-.01,1.21,.96,2.21,2.17,2.22,1.21,.01,2.21-.96,2.22-2.17l.17-16.92,11.15-13.03,5.71,16.18-5.94,15.84c-.43,1.14,.15,2.4,1.28,2.83,1.14,.43,2.4-.15,2.83-1.28l4.1-10.94,3.69,10.45c.53,1.49,2.16,2.27,3.65,1.74h0c1.49-.53,2.27-2.16,1.74-3.65l-3.69-10.45,10.06,5.94c1.04,.62,2.39,.27,3.01-.77,.62-1.04,.27-2.39-.77-3.01l-14.57-8.6-5.71-16.18,16.86,3.14,10.75,13.06c.77,.94,2.15,1.07,3.09,.3,.94-.77,1.07-2.15,.3-3.09l-7.42-9.02,10.9,2.03c1.55,.29,3.04-.73,3.33-2.29h0c.29-1.55-.73-3.04-2.29-3.33l-10.9-2.03,10.17-5.74c1.06-.6,1.43-1.94,.83-2.99-.6-1.06-1.94-1.43-2.99-.83Z"/>
    <path class="cls-4" d="M184.53,343.22l-14.11-1.09-10.25-10.04,13.82-3.86,12.89,5.85c.92,.42,2.01,.01,2.43-.91,.42-.92,.01-2.01-.91-2.43l-8.9-4.04,8.93-2.49c1.27-.36,2.02-1.67,1.66-2.95h0c-.36-1.27-1.67-2.02-2.95-1.66l-8.93,2.49,5.52-8.06c.57-.84,.36-1.98-.48-2.55-.84-.57-1.98-.36-2.55,.48l-8,11.68-13.82,3.86,3.57-13.9,11.51-8.24c.83-.59,1.02-1.74,.42-2.56-.59-.83-1.74-1.02-2.56-.42l-7.95,5.69,2.31-8.98c.33-1.28-.44-2.58-1.72-2.91h0c-1.28-.33-2.58,.44-2.91,1.72l-2.31,8.98-4.22-8.82c-.44-.92-1.54-1.3-2.45-.86-.92,.44-1.3,1.54-.86,2.45l6.11,12.76-3.57,13.9-10.25-10.04-1.38-14.09c-.1-1.01-1-1.75-2.01-1.65-1.01,.1-1.75,1-1.65,2.01l.95,9.73-6.62-6.49c-.94-.92-2.46-.91-3.38,.03h0c-.92,.94-.91,2.46,.03,3.38l6.62,6.49-9.75-.75c-1.01-.08-1.89,.68-1.97,1.69-.08,1.01,.68,1.89,1.69,1.97l14.11,1.09,10.25,10.04-13.82,3.86-12.89-5.85c-.92-.42-2.01-.01-2.43,.91-.42,.92-.01,2.01,.91,2.43l8.9,4.04-8.93,2.49c-1.27,.36-2.02,1.67-1.66,2.95h0c.36,1.27,1.67,2.02,2.95,1.66l8.93-2.49-5.52,8.06c-.57,.84-.36,1.98,.48,2.55,.84,.57,1.98,.36,2.55-.48l8-11.68,13.82-3.86-3.57,13.9-11.51,8.24c-.83,.59-1.02,1.74-.42,2.56,.59,.83,1.74,1.02,2.56,.42l7.95-5.69-2.31,8.98c-.33,1.28,.44,2.58,1.72,2.91h0c1.28,.33,2.58-.44,2.91-1.72l2.31-8.98,4.22,8.82c.44,.92,1.54,1.3,2.45,.86,.92-.44,1.3-1.54,.86-2.45l-6.11-12.76,3.57-13.9,10.25,10.04,1.38,14.09c.1,1.01,1,1.75,2.01,1.65,1.01-.1,1.75-1,1.65-2.01l-.95-9.73,6.62,6.49c.94,.92,2.46,.91,3.38-.03h0c.92-.94,.91-2.46-.03-3.38l-6.62-6.49,9.75,.75c1.01,.08,1.89-.68,1.97-1.69,.08-1.01-.68-1.89-1.69-1.97Z"/>
    <path class="cls-9" d="M348.12,419.77l-12.15,7.1-14.06-2.4,9.11-10.98,13.84-2.51c.99-.18,1.65-1.13,1.47-2.12-.18-.99-1.13-1.65-2.12-1.47l-9.56,1.74,5.89-7.09c.84-1.01,.7-2.51-.31-3.35h0c-1.01-.84-2.51-.7-3.35,.31l-5.89,7.09-.05-9.72c0-1.01-.83-1.82-1.84-1.82-1.01,0-1.82,.83-1.82,1.84l.07,14.07-9.11,10.98-4.95-13.38,4.74-13.25c.34-.95-.15-1.99-1.1-2.33-.95-.34-1.99,.15-2.33,1.1l-3.28,9.15-3.2-8.65c-.46-1.23-1.82-1.86-3.05-1.41h0c-1.23,.46-1.86,1.82-1.41,3.05l3.2,8.65-8.44-4.81c-.88-.5-1.99-.19-2.49,.68-.5,.88-.19,1.99,.68,2.49l12.22,6.97,4.95,13.38-14.06-2.4-9.1-10.73c-.65-.77-1.8-.86-2.57-.21-.77,.65-.86,1.8-.21,2.57l6.28,7.41-9.09-1.55c-1.29-.22-2.52,.65-2.74,1.94h0c-.22,1.29,.65,2.52,1.94,2.74l9.09,1.55-8.39,4.9c-.87,.51-1.16,1.63-.66,2.5,.51,.87,1.63,1.16,2.5,.66l12.15-7.1,14.06,2.4-9.11,10.98-13.84,2.51c-.99,.18-1.65,1.13-1.47,2.12,.18,.99,1.13,1.65,2.12,1.47l9.56-1.74-5.89,7.09c-.84,1.01-.7,2.51,.31,3.35h0c1.01,.84,2.51,.7,3.35-.31l5.89-7.09,.05,9.72c0,1.01,.83,1.82,1.84,1.82,1.01,0,1.82-.83,1.82-1.84l-.07-14.07,9.11-10.98,4.95,13.38-4.74,13.25c-.34,.95,.15,1.99,1.1,2.33,.95,.34,1.99-.15,2.33-1.1l3.28-9.15,3.2,8.65c.46,1.23,1.82,1.86,3.05,1.41h0c1.23-.46,1.86-1.82,1.41-3.05l-3.2-8.65,8.44,4.81c.88,.5,1.99,.19,2.49-.68,.5-.88,.19-1.99-.68-2.49l-12.22-6.97-4.95-13.38,14.06,2.4,9.1,10.73c.65,.77,1.8,.86,2.57,.21,.77-.65,.86-1.8,.21-2.57l-6.28-7.41,9.09,1.55c1.29,.22,2.52-.65,2.74-1.94h0c.22-1.29-.65-2.52-1.94-2.74l-9.09-1.55,8.39-4.9c.87-.51,1.16-1.63,.66-2.5-.51-.87-1.63-1.16-2.5-.66Z"/>
    <path class="cls-1" d="M137.35,423.22l-9.98-.55-7.39-6.93,9.7-2.94,9.19,3.93c.66,.28,1.42-.02,1.7-.68,.28-.66-.02-1.42-.68-1.7l-6.35-2.71,6.27-1.9c.89-.27,1.4-1.21,1.13-2.11h0c-.27-.89-1.21-1.4-2.11-1.13l-6.27,1.9,3.77-5.78c.39-.6,.22-1.4-.38-1.8-.6-.39-1.4-.22-1.8,.38l-5.46,8.37-9.7,2.94,2.3-9.87,8-5.99c.57-.43,.69-1.24,.26-1.82-.43-.57-1.24-.69-1.82-.26l-5.52,4.14,1.49-6.38c.21-.91-.35-1.82-1.26-2.03h0c-.91-.21-1.82,.35-2.03,1.26l-1.49,6.38-3.12-6.16c-.32-.64-1.1-.89-1.74-.57-.64,.32-.89,1.1-.57,1.74l4.51,8.91-2.3,9.87-7.39-6.93-1.19-9.92c-.09-.71-.73-1.22-1.44-1.13-.71,.09-1.22,.73-1.13,1.44l.82,6.85-4.78-4.48c-.68-.64-1.75-.6-2.39,.08h0c-.64,.68-.6,1.75,.08,2.39l4.78,4.48-6.89-.38c-.72-.04-1.33,.51-1.37,1.22-.04,.72,.51,1.33,1.22,1.37l9.98,.55,7.39,6.93-9.7,2.94-9.19-3.93c-.66-.28-1.42,.02-1.7,.68-.28,.66,.02,1.42,.68,1.7l6.35,2.71-6.27,1.9c-.89,.27-1.4,1.21-1.13,2.11h0c.27,.89,1.21,1.4,2.11,1.13l6.27-1.9-3.77,5.78c-.39,.6-.22,1.4,.38,1.8,.6,.39,1.4,.22,1.8-.38l5.46-8.37,9.7-2.94-2.3,9.87-8,5.99c-.57,.43-.69,1.24-.26,1.82,.43,.57,1.24,.69,1.82,.26l5.52-4.14-1.49,6.38c-.21,.91,.35,1.82,1.26,2.03h0c.91,.21,1.82-.35,2.03-1.26l1.49-6.38,3.12,6.16c.32,.64,1.1,.89,1.74,.57,.64-.32,.89-1.1,.57-1.74l-4.51-8.91,2.3-9.87,7.39,6.93,1.19,9.92c.09,.71,.73,1.22,1.44,1.13,.71-.09,1.22-.73,1.13-1.44l-.82-6.85,4.78,4.48c.68,.64,1.75,.6,2.39-.08h0c.64-.68,.6-1.75-.08-2.39l-4.78-4.48,6.89,.38c.72,.04,1.33-.51,1.37-1.22,.04-.72-.51-1.33-1.22-1.37Z"/>
    <path class="cls-6" d="M257.66,308.58l-8.81,2.58-8.52-3.74,7.5-5.51,9.16,.59c.66,.04,1.22-.46,1.27-1.11,.04-.66-.46-1.22-1.11-1.27l-6.32-.41,4.84-3.56c.69-.51,.84-1.48,.33-2.17h0c-.51-.69-1.48-.84-2.17-.33l-4.84,3.56,1.5-6.16c.16-.64-.24-1.28-.88-1.44-.64-.16-1.28,.24-1.44,.88l-2.17,8.92-7.5,5.51-1.03-9.25,5.09-7.64c.36-.55,.22-1.29-.33-1.65-.55-.36-1.29-.22-1.65,.33l-3.51,5.27-.66-5.98c-.09-.85-.86-1.46-1.71-1.37h0c-.85,.09-1.46,.86-1.37,1.71l.66,5.98-4.58-4.38c-.48-.45-1.23-.44-1.68,.04-.45,.48-.44,1.23,.04,1.68l6.64,6.34,1.03,9.25-8.52-3.74-4.07-8.23c-.29-.59-1.01-.83-1.6-.54-.59,.29-.83,1.01-.54,1.6l2.81,5.68-5.51-2.41c-.78-.34-1.7,.01-2.04,.8h0c-.34,.78,.01,1.7,.8,2.04l5.51,2.41-6.08,1.78c-.63,.18-.99,.85-.81,1.48,.18,.63,.85,.99,1.48,.81l8.81-2.58,8.52,3.74-7.5,5.51-9.16-.59c-.66-.04-1.22,.46-1.27,1.11-.04,.66,.46,1.22,1.11,1.27l6.32,.41-4.84,3.56c-.69,.51-.84,1.48-.33,2.17h0c.51,.69,1.48,.84,2.17,.33l4.84-3.56-1.5,6.16c-.16,.64,.24,1.28,.88,1.44,.64,.16,1.28-.24,1.44-.88l2.17-8.92,7.5-5.51,1.03,9.25-5.09,7.64c-.36,.55-.22,1.29,.33,1.65,.55,.36,1.29,.22,1.65-.33l3.51-5.27,.66,5.98c.09,.85,.86,1.46,1.71,1.37h0c.85-.09,1.46-.86,1.37-1.71l-.66-5.98,4.58,4.38c.48,.45,1.23,.44,1.68-.04,.45-.48,.44-1.23-.04-1.68l-6.64-6.34-1.03-9.25,8.52,3.74,4.07,8.23c.29,.59,1.01,.83,1.6,.54,.59-.29,.83-1.01,.54-1.6l-2.81-5.68,5.51,2.41c.78,.34,1.7-.01,2.04-.8h0c.34-.78-.01-1.7-.8-2.04l-5.51-2.41,6.08-1.78c.63-.18,.99-.85,.81-1.48-.18-.63-.85-.99-1.48-.81Z"/>
    <path class="cls-5" d="M280.49,374.15l-4.85-2.7-2.01-5.26,5.56,.89,3.63,4.2c.26,.3,.72,.33,1.02,.07,.3-.26,.33-.72,.07-1.02l-2.51-2.9,3.59,.58c.51,.08,.99-.27,1.07-.78h0c.08-.51-.27-.99-.78-1.07l-3.59-.58,3.29-1.97c.34-.2,.45-.65,.25-.99-.2-.34-.65-.45-.99-.25l-4.76,2.85-5.56-.89,3.55-4.37,5.45-1.05c.39-.08,.65-.45,.57-.84-.08-.39-.45-.65-.84-.57l-3.76,.72,2.3-2.82c.33-.4,.27-.99-.14-1.32h0c-.4-.33-.99-.27-1.32,.14l-2.3,2.82-.06-3.83c0-.4-.33-.72-.73-.71-.4,0-.72,.33-.71,.73l.08,5.55-3.55,4.37-2.01-5.26,1.82-5.24c.13-.38-.07-.79-.44-.92-.38-.13-.79,.07-.92,.44l-1.26,3.62-1.3-3.4c-.18-.48-.73-.73-1.21-.54h0c-.48,.18-.73,.73-.54,1.21l1.3,3.4-3.35-1.87c-.35-.19-.79-.07-.98,.28-.19,.35-.07,.79,.28,.98l4.85,2.7,2.01,5.26-5.56-.89-3.63-4.2c-.26-.3-.72-.33-1.02-.07-.3,.26-.33,.72-.07,1.02l2.51,2.9-3.59-.58c-.51-.08-.99,.27-1.07,.78h0c-.08,.51,.27,.99,.78,1.07l3.59,.58-3.29,1.97c-.34,.2-.45,.65-.25,.99,.2,.34,.65,.45,.99,.25l4.76-2.85,5.56,.89-3.55,4.37-5.45,1.05c-.39,.08-.65,.45-.57,.84,.08,.39,.45,.65,.84,.57l3.76-.72-2.3,2.82c-.33,.4-.27,.99,.14,1.32h0c.4,.33,.99,.27,1.32-.14l2.3-2.82,.06,3.83c0,.4,.33,.72,.73,.71,.4,0,.72-.33,.71-.73l-.08-5.55,3.55-4.37,2.01,5.26-1.82,5.24c-.13,.38,.07,.79,.44,.92,.38,.13,.79-.07,.92-.44l1.26-3.62,1.3,3.4c.18,.48,.73,.73,1.21,.54h0c.48-.18,.73-.73,.54-1.21l-1.3-3.4,3.35,1.87c.35,.19,.79,.07,.98-.28,.19-.35,.07-.79-.28-.98Z"/>
  </g>
</svg>