<?xml version="1.0" encoding="UTF-8"?>
<svg id="_图层_1" data-name="图层 1" xmlns="http://www.w3.org/2000/svg" xmlns:xlink="http://www.w3.org/1999/xlink" viewBox="0 0 500 500">
  <defs>
    <style>
      .cls-1 {
        fill: url(#_未命名的渐变_630-2);
      }

      .cls-2 {
        fill: url(#_未命名的渐变_207-5);
      }

      .cls-3 {
        fill: url(#_未命名的渐变_207);
      }

      .cls-4 {
        fill: url(#_未命名的渐变_630);
      }

      .cls-5 {
        fill: url(#_未命名的渐变_207-3);
      }

      .cls-6 {
        fill: url(#_未命名的渐变_207-4);
      }

      .cls-7 {
        fill: url(#_未命名的渐变_207-6);
      }

      .cls-8 {
        fill: url(#_未命名的渐变_207-7);
      }

      .cls-9 {
        fill: url(#_未命名的渐变_207-2);
      }

      .cls-10 {
        fill: url(#_未命名的渐变_207-8);
      }
    </style>
    <linearGradient id="_未命名的渐变_630" data-name="未命名的渐变 630" x1="380.98" y1="191.74" x2="229.88" y2="40.64" gradientUnits="userSpaceOnUse">
      <stop offset="0" stop-color="#969696"/>
      <stop offset=".6" stop-color="#cecece"/>
      <stop offset="1" stop-color="#f0f0f0"/>
    </linearGradient>
    <linearGradient id="_未命名的渐变_630-2" data-name="未命名的渐变 630" x1="364.94" y1="309.79" x2="140.6" y2="85.45" xlink:href="#_未命名的渐变_630"/>
    <linearGradient id="_未命名的渐变_207" data-name="未命名的渐变 207" x1="205.72" y1="364.42" x2="163.55" y2="349.87" gradientTransform="translate(-3.56 86.6) scale(1 .76)" gradientUnits="userSpaceOnUse">
      <stop offset="0" stop-color="#c0c4ff"/>
      <stop offset=".96" stop-color="#e0e2ff"/>
      <stop offset=".96" stop-color="#cae4ff"/>
      <stop offset=".99" stop-color="#76eeff"/>
      <stop offset="1" stop-color="#55f3ff"/>
    </linearGradient>
    <linearGradient id="_未命名的渐变_207-2" data-name="未命名的渐变 207" x1="147.42" y1="338.24" x2="105.26" y2="323.69" gradientTransform="translate(3.77 71.9) scale(1 .76)" xlink:href="#_未命名的渐变_207"/>
    <linearGradient id="_未命名的渐变_207-3" data-name="未命名的渐变 207" x1="183.84" y1="454.94" x2="141.67" y2="440.39" gradientTransform="translate(-20.94 78.38) scale(1 .76)" xlink:href="#_未命名的渐变_207"/>
    <linearGradient id="_未命名的渐变_207-4" data-name="未命名的渐变 207" x1="263.93" y1="300.7" x2="221.76" y2="286.15" gradientTransform="translate(7.15 103.71) scale(1 .76)" xlink:href="#_未命名的渐变_207"/>
    <linearGradient id="_未命名的渐变_207-5" data-name="未命名的渐变 207" x1="339.7" y1="396.86" x2="297.53" y2="382.32" gradientTransform="translate(-14.83 121.14) scale(1 .76)" xlink:href="#_未命名的渐变_207"/>
    <linearGradient id="_未命名的渐变_207-6" data-name="未命名的渐变 207" x1="252.49" y1="440.33" x2="210.32" y2="425.78" gradientTransform="translate(-20.45 96.91) scale(1 .76)" xlink:href="#_未命名的渐变_207"/>
    <linearGradient id="_未命名的渐变_207-7" data-name="未命名的渐变 207" x1="300.13" y1="368.18" x2="257.96" y2="353.63" gradientTransform="translate(-7.67 111.45) scale(1 .76)" xlink:href="#_未命名的渐变_207"/>
    <linearGradient id="_未命名的渐变_207-8" data-name="未命名的渐变 207" x1="329.36" y1="268.4" x2="287.19" y2="253.85" gradientTransform="translate(11.31 121.87) scale(1 .76)" xlink:href="#_未命名的渐变_207"/>
  </defs>
  <g>
    <path class="cls-4" d="M393.05,141.25c0,9.19-1.14,18.12-3.28,26.64,0,.03-.01,.05-.03,.09-.62,3.03-1.89,8.2-4.59,14.12-2.92,6.42-7.5,13.69-14.75,20.05-10.58,9.3-22.57,12.9-32.52,14.1-7.84,.95-14.41,.42-18,0-.71-.09-1.3-.16-1.77-.23-8.56-1.13-16.8-3.95-24.47-8.21-19.64-10.9-35.53-31.18-43.74-56.39-6.28-23.76-22.43-38.9-24.44-40.68-3.39-3-18.03-14.84-39.26-18.66,17.97-35.65,54.93-60.1,97.59-60.1,50.76,0,93.44,34.61,105.7,81.53,2.33,8.85,3.56,18.15,3.56,27.73Z"/>
    <path class="cls-1" d="M450.84,190.94c0,43.92-35.59,79.51-79.51,79.51H115.34c-36.55,0-66.18-29.63-66.18-66.17,0-31.03,21.38-57.08,50.21-64.21,11.91-28.86,40.33-49.18,73.51-49.18,4.67,0,9.12,.44,13.31,1.21,21.23,3.82,35.87,15.66,39.26,18.66,2.01,1.78,18.16,16.92,24.44,40.68,8.21,25.21,24.11,45.49,43.74,56.39,7.67,4.26,15.91,7.09,24.47,8.21,.47,.07,1.06,.13,1.77,.23,3.59,.42,10.17,.95,18,0,9.95-1.21,21.94-4.81,32.52-14.1,7.25-6.36,11.83-13.63,14.75-20.05,2.71-5.92,3.98-11.09,4.59-14.12,.01-.04,.03-.07,.03-.09,2.14-8.52,3.28-17.45,3.28-26.64s-1.23-18.87-3.56-27.73c35.17,8.2,61.36,39.75,61.36,77.42Z"/>
  </g>
  <g>
    <rect class="cls-3" x="175.32" y="313.92" width="11.5" height="87.5" rx="5.75" ry="5.75" transform="translate(100.98 -35.14) rotate(15.33)"/>
    <rect class="cls-9" x="124.36" y="279.35" width="11.5" height="87.5" rx="5.75" ry="5.75" transform="translate(90.03 -22.9) rotate(15.33)"/>
    <rect class="cls-5" x="136.06" y="374.4" width="11.5" height="87.5" rx="5.75" ry="5.75" transform="translate(115.56 -22.61) rotate(15.33)"/>
    <rect class="cls-6" x="244.25" y="282.66" width="11.5" height="87.5" rx="5.75" ry="5.75" transform="translate(95.16 -54.47) rotate(15.33)"/>
    <rect class="cls-2" x="298.03" y="373.08" width="11.5" height="87.5" rx="5.75" ry="5.75" transform="translate(120.98 -65.47) rotate(15.33)"/>
    <rect class="cls-7" x="205.21" y="381.85" width="11.5" height="87.5" rx="5.75" ry="5.75" transform="translate(119.99 -40.62) rotate(15.33)"/>
    <rect class="cls-8" x="265.62" y="341.63" width="11.5" height="87.5" rx="5.75" ry="5.75" transform="translate(111.51 -58.02) rotate(15.33)"/>
    <rect class="cls-10" x="313.83" y="276.31" width="11.5" height="87.5" rx="5.75" ry="5.75" transform="translate(95.96 -73.09) rotate(15.33)"/>
  </g>
</svg>