<?xml version="1.0" encoding="UTF-8"?>
<svg id="_图层_1" data-name="图层 1" xmlns="http://www.w3.org/2000/svg" xmlns:xlink="http://www.w3.org/1999/xlink" viewBox="0 0 822.32 322.69">
  <defs>
    <style>
      .cls-1 {
        fill: url(#_未命名的渐变_25-3);
      }

      .cls-2 {
        fill: url(#_未命名的渐变_71-3);
      }

      .cls-3 {
        fill: url(#_未命名的渐变_25-4);
      }

      .cls-4 {
        fill: url(#_未命名的渐变_71-2);
      }

      .cls-5 {
        fill: url(#_未命名的渐变_25-5);
      }

      .cls-6 {
        fill: url(#_未命名的渐变_71);
      }

      .cls-7 {
        fill: url(#_未命名的渐变_71-4);
      }

      .cls-8 {
        fill: url(#_未命名的渐变_25);
      }

      .cls-9 {
        fill: url(#_未命名的渐变_25-2);
      }

      .cls-10 {
        fill: url(#_未命名的渐变_71-5);
      }
    </style>
    <linearGradient id="_未命名的渐变_71" data-name="未命名的渐变 71" x1="78.25" y1="252.38" x2="234.9" y2="95.73" gradientUnits="userSpaceOnUse">
      <stop offset="0" stop-color="#f0f0f0"/>
      <stop offset="1" stop-color="#b4b4b4"/>
    </linearGradient>
    <linearGradient id="_未命名的渐变_71-2" data-name="未命名的渐变 71" x1="257.89" y1="171.62" x2="338.41" y2="91.1" xlink:href="#_未命名的渐变_71"/>
    <linearGradient id="_未命名的渐变_71-3" data-name="未命名的渐变 71" x1="4.17" y1="184.12" x2="24.3" y2="163.99" xlink:href="#_未命名的渐变_71"/>
    <linearGradient id="_未命名的渐变_71-4" data-name="未命名的渐变 71" x1="278.02" y1="151.49" x2="318.28" y2="111.23" xlink:href="#_未命名的渐变_71"/>
    <linearGradient id="_未命名的渐变_71-5" data-name="未命名的渐变 71" x1="288.09" y1="98.72" x2="308.22" y2="78.59" xlink:href="#_未命名的渐变_71"/>
    <linearGradient id="_未命名的渐变_25" data-name="未命名的渐变 25" x1="777.67" y1="241.88" x2="776.24" y2="240.45" gradientUnits="userSpaceOnUse">
      <stop offset="0" stop-color="#969696"/>
      <stop offset="1" stop-color="#e6e6e6"/>
    </linearGradient>
    <linearGradient id="_未命名的渐变_25-2" data-name="未命名的渐变 25" x1="739.08" y1="163.75" x2="568.15" y2="-7.18" xlink:href="#_未命名的渐变_25"/>
    <linearGradient id="_未命名的渐变_25-3" data-name="未命名的渐变 25" x1="755.2" y1="-86.89" x2="541.56" y2="126.75" gradientTransform="translate(0 264.33) scale(1 -1)" xlink:href="#_未命名的渐变_25"/>
    <linearGradient id="_未命名的渐变_25-4" data-name="未命名的渐变 25" x1="603.34" y1="208.7" x2="508.64" y2="113.99" xlink:href="#_未命名的渐变_25"/>
    <linearGradient id="_未命名的渐变_25-5" data-name="未命名的渐变 25" x1="754.55" y1="189.67" x2="697.91" y2="133.02" xlink:href="#_未命名的渐变_25"/>
  </defs>
  <g>
    <rect class="cls-6" x="14.23" y="159.75" width="284.68" height="28.62"/>
    <circle class="cls-4" cx="298.15" cy="131.36" r="56.94"/>
    <circle class="cls-2" cx="14.23" cy="174.06" r="14.23"/>
    <circle class="cls-7" cx="298.15" cy="131.36" r="28.47"/>
    <circle class="cls-10" cx="298.15" cy="88.65" r="14.23"/>
  </g>
  <g>
    <path class="cls-8" d="M778.34,241.15v.06c-.25,.02-.5,.02-.75,.02-.68,0-1.37-.02-2.05-.08h2.8Z"/>
    <path class="cls-9" d="M822.32,56.94c0,31.19-25.09,56.53-56.18,56.92v.09H481.45v-.08c-7.86,0-14.23-6.38-14.23-14.23s6.38-14.23,14.23-14.23v-.08h281.88c.68,.06,1.37,.08,2.05,.08,.25,0,.5,0,.75-.02,15.37-.39,27.72-12.97,27.72-28.45s-12.74-28.47-28.47-28.47c-7.86,0-14.23-6.38-14.23-14.23s6.38-14.23,14.23-14.23c31.44,0,56.94,25.48,56.94,56.94Z"/>
    <path class="cls-1" d="M817.08,265.76c0-31.19-25.09-56.53-56.18-56.92v-.09H476.22v.08c-7.86,0-14.23,6.38-14.23,14.23s6.38,14.23,14.23,14.23v.08h281.88c.68-.06,1.37-.08,2.05-.08,.25,0,.5,0,.75,.02,15.37,.39,27.72,12.97,27.72,28.45s-12.74,28.47-28.47,28.47c-7.86,0-14.23,6.38-14.23,14.23s6.38,14.23,14.23,14.23c31.44,0,56.94-25.48,56.94-56.94Z"/>
    <g>
      <rect class="cls-3" x="467.22" y="147.04" width="177.55" height="28.62" rx="14.31" ry="14.31"/>
      <rect class="cls-5" x="675.51" y="147.04" width="101.43" height="28.62" rx="14.31" ry="14.31"/>
    </g>
  </g>
</svg>