<?xml version="1.0" encoding="UTF-8"?>
<svg id="_图层_1" data-name="图层 1" xmlns="http://www.w3.org/2000/svg" xmlns:xlink="http://www.w3.org/1999/xlink" viewBox="0 0 500 500">
  <defs>
    <style>
      .cls-1 {
        fill: url(#_未命名的渐变_25);
      }
    </style>
    <linearGradient id="_未命名的渐变_25" data-name="未命名的渐变 25" x1="393.33" y1="413.4" x2="94.71" y2="114.78" gradientUnits="userSpaceOnUse">
      <stop offset="0" stop-color="#828282"/>
      <stop offset="1" stop-color="#dcdcdc"/>
    </linearGradient>
  </defs>
  <path class="cls-1" d="M244.02,52.93c-116.62,0-211.16,94.54-211.16,211.16s94.54,211.16,211.16,211.16,211.16-94.54,211.16-211.16S360.64,52.93,244.02,52.93Zm22.16,313.06c-1.54,4.15-4.33,6.94-8.36,8.36-4.04,1.42-10.44,2.14-19.21,2.14s-15.18-.71-19.21-2.14c-4.04-1.42-6.76-4.15-8.18-8.18-1.42-4.03-2.14-10.55-2.14-19.57s.71-15.53,2.14-19.57c1.42-4.03,4.15-6.76,8.18-8.18,4.03-1.42,10.44-2.13,19.21-2.13s15.18,.71,19.21,2.13c4.03,1.42,6.82,4.15,8.36,8.18,1.54,4.04,2.31,10.56,2.31,19.57s-.77,15.24-2.31,19.39Zm45.9-143.03c-3.68,8.42-8.01,15.18-12.99,20.28-4.98,5.1-11.51,10.74-19.57,16.9-7.59,5.46-13.17,10.32-16.72,14.59-3.56,4.27-5.34,9.37-5.34,15.3v6.41h-39.14v-8.54c0-11.62,2.19-20.99,6.58-28.11,4.39-7.12,10.85-14.7,19.39-22.77,7.59-7.12,13.16-13.4,16.72-18.86,3.56-5.45,5.34-12.57,5.34-21.35,0-12.33-3.02-20.75-9.07-25.26-6.05-4.5-16.9-6.76-32.55-6.76s-29.53,2.26-42.34,6.76v-40.56c18.02-4.98,34.87-7.47,50.52-7.47,20.16,0,36.41,2.14,48.74,6.4,12.33,4.27,21.4,11.39,27.22,21.35,5.81,9.96,8.72,23.61,8.72,40.92,0,12.1-1.84,22.36-5.52,30.78Z"/>
</svg>