<?xml version="1.0" encoding="UTF-8"?>
<svg id="_图层_1" data-name="图层 1" xmlns="http://www.w3.org/2000/svg" xmlns:xlink="http://www.w3.org/1999/xlink" viewBox="0 0 500 500">
  <defs>
    <style>
      .cls-1 {
        fill: url(#_未命名的渐变_630-2);
      }

      .cls-2 {
        fill: url(#_未命名的渐变_207-9);
      }

      .cls-3 {
        fill: url(#_未命名的渐变_129-2);
      }

      .cls-4 {
        fill: url(#_未命名的渐变_207-5);
      }

      .cls-5 {
        fill: url(#_未命名的渐变_207);
      }

      .cls-6 {
        fill: url(#_未命名的渐变_630);
      }

      .cls-7 {
        fill: url(#_未命名的渐变_207-3);
      }

      .cls-8 {
        fill: url(#_未命名的渐变_207-4);
      }

      .cls-9 {
        fill: url(#_未命名的渐变_207-6);
      }

      .cls-10 {
        fill: url(#_未命名的渐变_251-3);
      }

      .cls-11 {
        fill: url(#_未命名的渐变_129);
      }

      .cls-12 {
        fill: url(#_未命名的渐变_207-7);
      }

      .cls-13 {
        fill: url(#_未命名的渐变_207-10);
      }

      .cls-14 {
        fill: url(#_未命名的渐变_207-2);
      }

      .cls-15 {
        fill: url(#_未命名的渐变_251);
      }

      .cls-16 {
        fill: url(#_未命名的渐变_207-8);
      }

      .cls-17 {
        fill: url(#_未命名的渐变_251-2);
      }
    </style>
    <linearGradient id="_未命名的渐变_630" data-name="未命名的渐变 630" x1="380.98" y1="185.4" x2="229.88" y2="34.31" gradientUnits="userSpaceOnUse">
      <stop offset="0" stop-color="#969696"/>
      <stop offset=".6" stop-color="#cecece"/>
      <stop offset="1" stop-color="#f0f0f0"/>
    </linearGradient>
    <linearGradient id="_未命名的渐变_630-2" data-name="未命名的渐变 630" x1="364.94" y1="303.45" x2="140.6" y2="79.11" xlink:href="#_未命名的渐变_630"/>
    <linearGradient id="_未命名的渐变_207" data-name="未命名的渐变 207" x1="230.75" y1="312.14" x2="188.58" y2="297.59" gradientTransform="translate(6.04 94.63) scale(1 .76)" gradientUnits="userSpaceOnUse">
      <stop offset="0" stop-color="#c0c4ff"/>
      <stop offset=".96" stop-color="#e0e2ff"/>
      <stop offset=".96" stop-color="#cae4ff"/>
      <stop offset=".99" stop-color="#76eeff"/>
      <stop offset="1" stop-color="#55f3ff"/>
    </linearGradient>
    <linearGradient id="_未命名的渐变_207-2" data-name="未命名的渐变 207" x1="145.31" y1="461.24" x2="103.15" y2="446.69" gradientTransform="translate(-20.83 68.02) scale(1 .76)" xlink:href="#_未命名的渐变_207"/>
    <linearGradient id="_未命名的渐变_207-3" data-name="未命名的渐变 207" x1="205.15" y1="336.18" x2="162.98" y2="321.63" gradientTransform="translate(2.13 87.21) scale(1 .76)" xlink:href="#_未命名的渐变_207"/>
    <linearGradient id="_未命名的渐变_207-4" data-name="未命名的渐变 207" x1="309.66" y1="425.63" x2="267.49" y2="411.08" gradientTransform="translate(-19.53 112.42) scale(1 .76)" xlink:href="#_未命名的渐变_207"/>
    <linearGradient id="_未命名的渐变_207-5" data-name="未命名的渐变 207" x1="252.31" y1="366.14" x2="210.14" y2="351.59" gradientTransform="translate(-5.56 98.87) scale(1 .76)" xlink:href="#_未命名的渐变_207"/>
    <linearGradient id="_未命名的渐变_207-6" data-name="未命名的渐变 207" x1="313.11" y1="277.68" x2="270.95" y2="263.13" gradientTransform="translate(10.02 117.33) scale(1 .76)" xlink:href="#_未命名的渐变_207"/>
    <linearGradient id="_未命名的渐变_207-7" data-name="未命名的渐变 207" x1="389.21" y1="312.14" x2="347.04" y2="297.59" gradientTransform="translate(.4 136.51) scale(1 .76)" xlink:href="#_未命名的渐变_207"/>
    <linearGradient id="_未命名的渐变_207-8" data-name="未命名的渐变 207" x1="127.08" y1="349.57" x2="84.92" y2="335.02" gradientTransform="translate(2.22 66.22) scale(1 .76)" xlink:href="#_未命名的渐变_207"/>
    <linearGradient id="_未命名的渐变_207-9" data-name="未命名的渐变 207" x1="271.57" y1="439.38" x2="229.41" y2="424.83" gradientTransform="translate(-20.94 101.98) scale(1 .76)" xlink:href="#_未命名的渐变_207"/>
    <linearGradient id="_未命名的渐变_207-10" data-name="未命名的渐变 207" x1="230.27" y1="456.95" x2="188.1" y2="442.4" gradientTransform="translate(-23 90.59) scale(1 .76)" xlink:href="#_未命名的渐变_207"/>
    <linearGradient id="_未命名的渐变_251" data-name="未命名的渐变 251" x1="256.6" y1="300.39" x2="282.21" y2="326" gradientUnits="userSpaceOnUse">
      <stop offset="0" stop-color="#ffff6b"/>
      <stop offset=".25" stop-color="#bcf84e"/>
      <stop offset=".77" stop-color="#35ea16"/>
      <stop offset="1" stop-color="#00e500"/>
    </linearGradient>
    <linearGradient id="_未命名的渐变_251-2" data-name="未命名的渐变 251" x1="131.34" y1="410.51" x2="156.95" y2="436.12" xlink:href="#_未命名的渐变_251"/>
    <linearGradient id="_未命名的渐变_251-3" data-name="未命名的渐变 251" x1="299.63" y1="416.82" x2="325.24" y2="442.43" xlink:href="#_未命名的渐变_251"/>
    <linearGradient id="_未命名的渐变_129" data-name="未命名的渐变 129" x1="356.71" y1="338.47" x2="326.77" y2="308.54" gradientTransform="translate(55.15 -26.05) rotate(9.85)" gradientUnits="userSpaceOnUse">
      <stop offset="0" stop-color="#e0c9ff"/>
      <stop offset=".18" stop-color="#dccaff"/>
      <stop offset=".35" stop-color="#d0ceff"/>
      <stop offset=".51" stop-color="#bcd5ff"/>
      <stop offset=".68" stop-color="#a1deff"/>
      <stop offset=".85" stop-color="#7eebff"/>
      <stop offset="1" stop-color="#57f9ff"/>
    </linearGradient>
    <linearGradient id="_未命名的渐变_129-2" data-name="未命名的渐变 129" x1="165.73" y1="365.14" x2="135.79" y2="335.2" xlink:href="#_未命名的渐变_129"/>
  </defs>
  <g>
    <path class="cls-6" d="M393.05,134.92c0,9.19-1.14,18.12-3.28,26.64,0,.03-.01,.05-.03,.09-.62,3.03-1.89,8.2-4.59,14.12-2.92,6.42-7.5,13.69-14.75,20.05-10.58,9.3-22.57,12.9-32.52,14.1-7.84,.95-14.41,.42-18,0-.71-.09-1.3-.16-1.77-.23-8.56-1.13-16.8-3.95-24.47-8.21-19.64-10.9-35.53-31.18-43.74-56.39-6.28-23.76-22.43-38.9-24.44-40.68-3.39-3-18.03-14.84-39.26-18.66,17.97-35.65,54.93-60.1,97.59-60.1,50.76,0,93.44,34.61,105.7,81.53,2.33,8.85,3.56,18.15,3.56,27.73Z"/>
    <path class="cls-1" d="M450.84,184.61c0,43.92-35.59,79.51-79.51,79.51H115.34c-36.55,0-66.18-29.63-66.18-66.17,0-31.03,21.38-57.08,50.21-64.21,11.91-28.86,40.33-49.18,73.51-49.18,4.67,0,9.12,.44,13.31,1.21,21.23,3.82,35.87,15.66,39.26,18.66,2.01,1.78,18.16,16.92,24.44,40.68,8.21,25.21,24.11,45.49,43.74,56.39,7.67,4.26,15.91,7.09,24.47,8.21,.47,.07,1.06,.13,1.77,.23,3.59,.42,10.17,.95,18,0,9.95-1.21,21.94-4.81,32.52-14.1,7.25-6.36,11.83-13.63,14.75-20.05,2.71-5.92,3.98-11.09,4.59-14.12,.01-.04,.03-.07,.03-.09,2.14-8.52,3.28-17.45,3.28-26.64s-1.23-18.87-3.56-27.73c35.17,8.2,61.36,39.75,61.36,77.42Z"/>
  </g>
  <g>
    <rect class="cls-5" x="209.95" y="282.27" width="11.5" height="87.5" rx="5.75" ry="5.75" transform="translate(93.84 -45.42) rotate(15.33)"/>
    <rect class="cls-14" x="97.65" y="368.83" width="11.5" height="87.5" rx="5.75" ry="5.75" transform="translate(112.73 -12.66) rotate(15.33)"/>
    <rect class="cls-7" x="180.44" y="293.1" width="11.5" height="87.5" rx="5.75" ry="5.75" transform="translate(95.65 -37.23) rotate(15.33)"/>
    <rect class="cls-8" x="263.29" y="386.2" width="11.5" height="87.5" rx="5.75" ry="5.75" transform="translate(123.21 -55.82) rotate(15.33)"/>
    <rect class="cls-4" x="219.91" y="327.5" width="11.5" height="87.5" rx="5.75" ry="5.75" transform="translate(106.15 -46.44) rotate(15.33)"/>
    <rect class="cls-9" x="296.3" y="278.81" width="11.5" height="87.5" rx="5.75" ry="5.75" transform="translate(96 -68.36) rotate(15.33)"/>
    <rect class="cls-12" x="362.78" y="324.15" width="11.5" height="87.5" rx="5.75" ry="5.75" transform="translate(110.35 -84.32) rotate(15.33)"/>
    <rect class="cls-16" x="102.47" y="282.27" width="11.5" height="87.5" rx="5.75" ry="5.75" transform="translate(90.02 -17.01) rotate(15.33)"/>
    <rect class="cls-2" x="223.8" y="386.2" width="11.5" height="87.5" rx="5.75" ry="5.75" transform="translate(121.8 -45.38) rotate(15.33)"/>
    <rect class="cls-13" x="180.44" y="388.15" width="11.5" height="87.5" rx="5.75" ry="5.75" transform="translate(120.78 -33.85) rotate(15.33)"/>
    <path class="cls-15" d="M288.25,270.35l-.08,.08-41.56,39.95c-1.23,1.26-2.04,3.08-2.01,4.96l.02,.39c.07,1.74,.83,2.94,2.01,3.35l9.52,3.3c1.94,.67,2.87,2.89,1.98,4.75l-11.27,23.54-.14,.26c-1.07,2.09-1,4.27-.03,5.64l.13,.16,.02,.05c.26,.4,.59,.7,.97,.88l.24,.1c.95,.33,2.02,.07,3.05-.71,.14-.11,.28-.23,.42-.37l39.46-40.4c.33-.34,.63-.76,.86-1.23,.52-1.03,.88-2.08,1.06-3.15,.05-.27,.07-.54,.07-.81v-.35c-.08-1.72-.83-2.92-2.01-3.33l-7.63-2.65c-1.94-.68-2.87-2.89-1.98-4.75l11.36-23.75c.09-.19,.17-.38,.24-.58l.11-.32c.6-1.93,.54-3.8-.36-4.94l-.06-.07-.05-.09c-.98-1.58-2.74-1.48-4.35,.09h0Z"/>
    <path class="cls-17" d="M162.99,380.48l-.08,.08-41.56,39.95c-1.23,1.26-2.04,3.08-2.01,4.96l.02,.39c.07,1.74,.83,2.94,2.01,3.35l9.52,3.3c1.94,.67,2.87,2.89,1.98,4.75l-11.27,23.54-.14,.26c-1.07,2.09-1,4.27-.03,5.64l.13,.16,.02,.05c.26,.4,.59,.7,.97,.88l.24,.1c.95,.33,2.02,.07,3.05-.71,.14-.11,.28-.23,.42-.37l39.46-40.4c.33-.34,.63-.76,.86-1.23,.52-1.03,.88-2.08,1.06-3.15,.05-.27,.07-.54,.07-.81v-.35c-.08-1.72-.83-2.92-2.01-3.33l-7.63-2.65c-1.94-.68-2.87-2.89-1.98-4.75l11.36-23.75c.09-.19,.17-.38,.24-.58l.11-.32c.6-1.93,.54-3.8-.36-4.94l-.06-.07-.05-.09c-.98-1.58-2.74-1.48-4.35,.09h0Z"/>
    <path class="cls-10" d="M331.28,386.78l-.08,.08-41.56,39.95c-1.23,1.26-2.04,3.08-2.01,4.96l.02,.39c.07,1.74,.83,2.94,2.01,3.35l9.52,3.3c1.94,.67,2.87,2.89,1.98,4.75l-11.27,23.54-.14,.26c-1.07,2.09-1,4.27-.03,5.64l.13,.16,.02,.05c.26,.4,.59,.7,.97,.88l.24,.1c.95,.33,2.02,.07,3.05-.71,.14-.11,.28-.23,.42-.37l39.46-40.4c.33-.34,.63-.76,.86-1.23,.52-1.03,.88-2.08,1.06-3.15,.05-.27,.07-.54,.07-.81v-.35c-.08-1.72-.83-2.92-2.01-3.33l-7.63-2.65c-1.94-.68-2.87-2.89-1.98-4.75l11.36-23.75c.09-.19,.17-.38,.24-.58l.11-.32c.6-1.93,.54-3.8-.36-4.94l-.06-.07-.05-.09c-.98-1.58-2.74-1.48-4.35,.09h0Z"/>
    <path class="cls-11" d="M347.68,333.23l-15.66-2.72c-2.05-.36-4.13,.41-5.46,2l-10.18,12.2c-1.33,1.6-1.71,3.78-1,5.73l5.47,14.92c.72,1.95,2.42,3.37,4.47,3.73l15.66,2.72c2.05,.36,4.13-.41,5.46-2l10.18-12.2c1.33-1.6,1.71-3.78,1-5.73l-5.47-14.92c-.72-1.95-2.42-3.37-4.47-3.73Z"/>
    <path class="cls-3" d="M154.95,326.82l-15.66-2.72c-2.05-.36-4.13,.41-5.46,2l-10.18,12.2c-1.33,1.6-1.71,3.78-1,5.73l5.47,14.92c.72,1.95,2.42,3.37,4.47,3.73l15.66,2.72c2.05,.36,4.13-.41,5.46-2l10.18-12.2c1.33-1.6,1.71-3.78,1-5.73l-5.47-14.92c-.72-1.95-2.42-3.37-4.47-3.73Z"/>
  </g>
</svg>