<?xml version="1.0" encoding="UTF-8"?>
<svg id="_图层_1" data-name="图层 1" xmlns="http://www.w3.org/2000/svg" xmlns:xlink="http://www.w3.org/1999/xlink" viewBox="0 0 401.68 448.67">
  <defs>
    <style>
      .cls-1 {
        fill: url(#_未命名的渐变_630-2);
      }

      .cls-2 {
        fill: url(#_未命名的渐变_207-9);
      }

      .cls-3 {
        fill: url(#_未命名的渐变_129-2);
      }

      .cls-4 {
        fill: url(#_未命名的渐变_207-5);
      }

      .cls-5 {
        fill: url(#_未命名的渐变_207);
      }

      .cls-6 {
        fill: url(#_未命名的渐变_630);
      }

      .cls-7 {
        fill: url(#_未命名的渐变_207-3);
      }

      .cls-8 {
        fill: url(#_未命名的渐变_207-4);
      }

      .cls-9 {
        fill: url(#_未命名的渐变_207-6);
      }

      .cls-10 {
        fill: url(#_未命名的渐变_251-3);
      }

      .cls-11 {
        fill: url(#_未命名的渐变_129);
      }

      .cls-12 {
        fill: url(#_未命名的渐变_207-7);
      }

      .cls-13 {
        fill: url(#_未命名的渐变_207-10);
      }

      .cls-14 {
        fill: url(#_未命名的渐变_207-2);
      }

      .cls-15 {
        fill: url(#_未命名的渐变_251);
      }

      .cls-16 {
        fill: url(#_未命名的渐变_207-8);
      }

      .cls-17 {
        fill: url(#_未命名的渐变_251-2);
      }
    </style>
    <linearGradient id="_未命名的渐变_630" data-name="未命名的渐变 630" x1="331.82" y1="159.74" x2="180.72" y2="8.64" gradientUnits="userSpaceOnUse">
      <stop offset="0" stop-color="#969696"/>
      <stop offset=".6" stop-color="#cecece"/>
      <stop offset="1" stop-color="#f0f0f0"/>
    </linearGradient>
    <linearGradient id="_未命名的渐变_630-2" data-name="未命名的渐变 630" x1="315.78" y1="277.79" x2="91.44" y2="53.45" xlink:href="#_未命名的渐变_630"/>
    <linearGradient id="_未命名的渐变_207" data-name="未命名的渐变 207" x1="181.59" y1="286.47" x2="139.42" y2="271.93" gradientTransform="translate(6.04 88.44) scale(1 .76)" gradientUnits="userSpaceOnUse">
      <stop offset="0" stop-color="#c0c4ff"/>
      <stop offset=".96" stop-color="#e0e2ff"/>
      <stop offset=".96" stop-color="#cae4ff"/>
      <stop offset=".99" stop-color="#76eeff"/>
      <stop offset="1" stop-color="#55f3ff"/>
    </linearGradient>
    <linearGradient id="_未命名的渐变_207-2" data-name="未命名的渐变 207" x1="96.15" y1="435.57" x2="53.99" y2="421.03" gradientTransform="translate(-20.83 61.84) scale(1 .76)" xlink:href="#_未命名的渐变_207"/>
    <linearGradient id="_未命名的渐变_207-3" data-name="未命名的渐变 207" x1="155.99" y1="310.52" x2="113.82" y2="295.97" gradientTransform="translate(2.13 81.03) scale(1 .76)" xlink:href="#_未命名的渐变_207"/>
    <linearGradient id="_未命名的渐变_207-4" data-name="未命名的渐变 207" x1="260.5" y1="399.97" x2="218.33" y2="385.42" gradientTransform="translate(-19.53 106.24) scale(1 .76)" xlink:href="#_未命名的渐变_207"/>
    <linearGradient id="_未命名的渐变_207-5" data-name="未命名的渐变 207" x1="203.15" y1="340.48" x2="160.98" y2="325.93" gradientTransform="translate(-5.56 92.68) scale(1 .76)" xlink:href="#_未命名的渐变_207"/>
    <linearGradient id="_未命名的渐变_207-6" data-name="未命名的渐变 207" x1="263.95" y1="252.02" x2="221.79" y2="237.47" gradientTransform="translate(10.02 111.14) scale(1 .76)" xlink:href="#_未命名的渐变_207"/>
    <linearGradient id="_未命名的渐变_207-7" data-name="未命名的渐变 207" x1="340.05" y1="286.47" x2="297.88" y2="271.93" gradientTransform="translate(.4 130.33) scale(1 .76)" xlink:href="#_未命名的渐变_207"/>
    <linearGradient id="_未命名的渐变_207-8" data-name="未命名的渐变 207" x1="77.92" y1="323.9" x2="35.76" y2="309.36" gradientTransform="translate(2.22 60.03) scale(1 .76)" xlink:href="#_未命名的渐变_207"/>
    <linearGradient id="_未命名的渐变_207-9" data-name="未命名的渐变 207" x1="222.41" y1="413.72" x2="180.25" y2="399.17" gradientTransform="translate(-20.94 95.8) scale(1 .76)" xlink:href="#_未命名的渐变_207"/>
    <linearGradient id="_未命名的渐变_207-10" data-name="未命名的渐变 207" x1="181.11" y1="431.29" x2="138.94" y2="416.74" gradientTransform="translate(-23 84.41) scale(1 .76)" xlink:href="#_未命名的渐变_207"/>
    <linearGradient id="_未命名的渐变_251" data-name="未命名的渐变 251" x1="207.44" y1="274.73" x2="233.05" y2="300.34" gradientUnits="userSpaceOnUse">
      <stop offset="0" stop-color="#ffff6b"/>
      <stop offset=".25" stop-color="#bcf84e"/>
      <stop offset=".77" stop-color="#35ea16"/>
      <stop offset="1" stop-color="#00e500"/>
    </linearGradient>
    <linearGradient id="_未命名的渐变_251-2" data-name="未命名的渐变 251" x1="82.18" y1="384.85" x2="107.79" y2="410.46" xlink:href="#_未命名的渐变_251"/>
    <linearGradient id="_未命名的渐变_251-3" data-name="未命名的渐变 251" x1="250.47" y1="391.16" x2="276.08" y2="416.77" xlink:href="#_未命名的渐变_251"/>
    <linearGradient id="_未命名的渐变_129" data-name="未命名的渐变 129" x1="307.55" y1="312.81" x2="277.61" y2="282.88" gradientTransform="translate(50.03 -18.01) rotate(9.85)" gradientUnits="userSpaceOnUse">
      <stop offset="0" stop-color="#e0c9ff"/>
      <stop offset=".18" stop-color="#dccaff"/>
      <stop offset=".35" stop-color="#d0ceff"/>
      <stop offset=".51" stop-color="#bcd5ff"/>
      <stop offset=".68" stop-color="#a1deff"/>
      <stop offset=".85" stop-color="#7eebff"/>
      <stop offset="1" stop-color="#57f9ff"/>
    </linearGradient>
    <linearGradient id="_未命名的渐变_129-2" data-name="未命名的渐变 129" x1="116.57" y1="339.48" x2="86.63" y2="309.54" xlink:href="#_未命名的渐变_129"/>
  </defs>
  <g>
    <path class="cls-6" d="M343.89,109.25c0,9.19-1.14,18.12-3.28,26.64,0,.03-.01,.05-.03,.09-.62,3.03-1.89,8.2-4.59,14.12-2.92,6.42-7.5,13.69-14.75,20.05-10.58,9.3-22.57,12.9-32.52,14.1-7.84,.95-14.41,.42-18,0-.71-.09-1.3-.16-1.77-.23-8.56-1.13-16.8-3.95-24.47-8.21-19.64-10.9-35.53-31.18-43.74-56.39-6.28-23.76-22.43-38.9-24.44-40.68-3.39-3-18.03-14.84-39.26-18.66C155.01,24.44,191.96,0,234.62,0c50.76,0,93.44,34.61,105.7,81.53,2.33,8.85,3.56,18.15,3.56,27.73Z"/>
    <path class="cls-1" d="M401.68,158.94c0,43.92-35.59,79.51-79.51,79.51H66.18C29.63,238.45,0,208.82,0,172.28c0-31.03,21.38-57.08,50.21-64.21,11.91-28.86,40.33-49.18,73.51-49.18,4.67,0,9.12,.44,13.31,1.21,21.23,3.82,35.87,15.66,39.26,18.66,2.01,1.78,18.16,16.92,24.44,40.68,8.21,25.21,24.11,45.49,43.74,56.39,7.67,4.26,15.91,7.09,24.47,8.21,.47,.07,1.06,.13,1.77,.23,3.59,.42,10.17,.95,18,0,9.95-1.21,21.94-4.81,32.52-14.1,7.25-6.36,11.83-13.63,14.75-20.05,2.71-5.92,3.98-11.09,4.59-14.12,.01-.04,.03-.07,.03-.09,2.14-8.52,3.28-17.45,3.28-26.64s-1.23-18.87-3.56-27.73c35.17,8.2,61.36,39.75,61.36,77.42Z"/>
  </g>
  <g>
    <rect class="cls-5" x="160.79" y="256.6" width="11.5" height="87.5" rx="5.75" ry="5.75" transform="translate(85.31 -33.34) rotate(15.33)"/>
    <rect class="cls-14" x="48.49" y="343.16" width="11.5" height="87.5" rx="5.75" ry="5.75" transform="translate(104.19 -.58) rotate(15.33)"/>
    <rect class="cls-7" x="131.28" y="267.44" width="11.5" height="87.5" rx="5.75" ry="5.75" transform="translate(87.12 -25.15) rotate(15.33)"/>
    <rect class="cls-8" x="214.13" y="360.54" width="11.5" height="87.5" rx="5.75" ry="5.75" transform="translate(114.68 -43.74) rotate(15.33)"/>
    <rect class="cls-4" x="170.75" y="301.83" width="11.5" height="87.5" rx="5.75" ry="5.75" transform="translate(97.62 -34.36) rotate(15.33)"/>
    <rect class="cls-9" x="247.14" y="253.15" width="11.5" height="87.5" rx="5.75" ry="5.75" transform="translate(87.47 -56.28) rotate(15.33)"/>
    <rect class="cls-12" x="313.62" y="298.49" width="11.5" height="87.5" rx="5.75" ry="5.75" transform="translate(101.81 -72.24) rotate(15.33)"/>
    <rect class="cls-16" x="53.31" y="256.6" width="11.5" height="87.5" rx="5.75" ry="5.75" transform="translate(81.49 -4.93) rotate(15.33)"/>
    <rect class="cls-2" x="174.64" y="360.54" width="11.5" height="87.5" rx="5.75" ry="5.75" transform="translate(113.27 -33.3) rotate(15.33)"/>
    <rect class="cls-13" x="131.28" y="362.48" width="11.5" height="87.5" rx="5.75" ry="5.75" transform="translate(112.24 -21.77) rotate(15.33)"/>
    <path class="cls-15" d="M239.09,244.69l-.08,.08-41.56,39.95c-1.23,1.26-2.04,3.08-2.01,4.96l.02,.39c.07,1.74,.83,2.94,2.01,3.35l9.52,3.3c1.94,.67,2.87,2.89,1.98,4.75l-11.27,23.54-.14,.26c-1.07,2.09-1,4.27-.03,5.64l.13,.16,.02,.05c.26,.4,.59,.7,.97,.88l.24,.1c.95,.33,2.02,.07,3.05-.71,.14-.11,.28-.23,.42-.37l39.46-40.4c.33-.34,.63-.76,.86-1.23,.52-1.03,.88-2.08,1.06-3.15,.05-.27,.07-.54,.07-.81v-.35c-.08-1.72-.83-2.92-2.01-3.33l-7.63-2.65c-1.94-.68-2.87-2.89-1.98-4.75l11.36-23.75c.09-.19,.17-.38,.24-.58l.11-.32c.6-1.93,.54-3.8-.36-4.94l-.06-.07-.05-.09c-.98-1.58-2.74-1.48-4.35,.09h0Z"/>
    <path class="cls-17" d="M113.83,354.81l-.08,.08-41.56,39.95c-1.23,1.26-2.04,3.08-2.01,4.96l.02,.39c.07,1.74,.83,2.94,2.01,3.35l9.52,3.3c1.94,.67,2.87,2.89,1.98,4.75l-11.27,23.54-.14,.26c-1.07,2.09-1,4.27-.03,5.64l.13,.16,.02,.05c.26,.4,.59,.7,.97,.88l.24,.1c.95,.33,2.02,.07,3.05-.71,.14-.11,.28-.23,.42-.37l39.46-40.4c.33-.34,.63-.76,.86-1.23,.52-1.03,.88-2.08,1.06-3.15,.05-.27,.07-.54,.07-.81v-.35c-.08-1.72-.83-2.92-2.01-3.33l-7.63-2.65c-1.94-.68-2.87-2.89-1.98-4.75l11.36-23.75c.09-.19,.17-.38,.24-.58l.11-.32c.6-1.93,.54-3.8-.36-4.94l-.06-.07-.05-.09c-.98-1.58-2.74-1.48-4.35,.09h0Z"/>
    <path class="cls-10" d="M282.12,361.12l-.08,.08-41.56,39.95c-1.23,1.26-2.04,3.08-2.01,4.96l.02,.39c.07,1.74,.83,2.94,2.01,3.35l9.52,3.3c1.94,.67,2.87,2.89,1.98,4.75l-11.27,23.54-.14,.26c-1.07,2.09-1,4.27-.03,5.64l.13,.16,.02,.05c.26,.4,.59,.7,.97,.88l.24,.1c.95,.33,2.02,.07,3.05-.71,.14-.11,.28-.23,.42-.37l39.46-40.4c.33-.34,.63-.76,.86-1.23,.52-1.03,.88-2.08,1.06-3.15,.05-.27,.07-.54,.07-.81v-.35c-.08-1.72-.83-2.92-2.01-3.33l-7.63-2.65c-1.94-.68-2.87-2.89-1.98-4.75l11.36-23.75c.09-.19,.17-.38,.24-.58l.11-.32c.6-1.93,.54-3.8-.36-4.94l-.06-.07-.05-.09c-.98-1.58-2.74-1.48-4.35,.09h0Z"/>
    <path class="cls-11" d="M298.52,307.56l-15.66-2.72c-2.05-.36-4.13,.41-5.46,2l-10.18,12.2c-1.33,1.6-1.71,3.78-1,5.73l5.47,14.92c.72,1.95,2.42,3.37,4.47,3.73l15.66,2.72c2.05,.36,4.13-.41,5.46-2l10.18-12.2c1.33-1.6,1.71-3.78,1-5.73l-5.47-14.92c-.72-1.95-2.42-3.37-4.47-3.73Z"/>
    <path class="cls-3" d="M105.79,301.16l-15.66-2.72c-2.05-.36-4.13,.41-5.46,2l-10.18,12.2c-1.33,1.6-1.71,3.78-1,5.73l5.47,14.92c.72,1.95,2.42,3.37,4.47,3.73l15.66,2.72c2.05,.36,4.13-.41,5.46-2l10.18-12.2c1.33-1.6,1.71-3.78,1-5.73l-5.47-14.92c-.72-1.95-2.42-3.37-4.47-3.73Z"/>
  </g>
</svg>