<?xml version="1.0" encoding="UTF-8"?>
<svg id="_图层_1" data-name="图层 1" xmlns="http://www.w3.org/2000/svg" xmlns:xlink="http://www.w3.org/1999/xlink" viewBox="0 0 500 500">
  <defs>
    <style>
      .cls-1 {
        fill: url(#_未命名的渐变_64-4);
      }

      .cls-2 {
        fill: url(#_未命名的渐变_35-5);
      }

      .cls-3 {
        fill: url(#_未命名的渐变_110);
      }

      .cls-4 {
        fill: url(#_未命名的渐变_64-2);
      }

      .cls-5 {
        fill: url(#_未命名的渐变_35-2);
      }

      .cls-6 {
        fill: url(#_未命名的渐变_35);
      }

      .cls-7 {
        fill: url(#_未命名的渐变_25);
      }

      .cls-8 {
        fill: url(#_未命名的渐变_64-3);
      }

      .cls-9 {
        fill: url(#_未命名的渐变_35-4);
      }

      .cls-10 {
        fill: url(#_未命名的渐变_35-3);
      }

      .cls-11 {
        fill: url(#_未命名的渐变_64);
      }
    </style>
    <linearGradient id="_未命名的渐变_64" data-name="未命名的渐变 64" x1="324.96" y1="276.58" x2="304.72" y2="256.34" gradientUnits="userSpaceOnUse">
      <stop offset="0" stop-color="#507950"/>
      <stop offset="1" stop-color="#b4dbb4"/>
    </linearGradient>
    <linearGradient id="_未命名的渐变_110" data-name="未命名的渐变 110" x1="147.7" y1="473.95" x2="340.25" y2="281.41" gradientUnits="userSpaceOnUse">
      <stop offset="0" stop-color="green"/>
      <stop offset="1" stop-color="#004000"/>
    </linearGradient>
    <linearGradient id="_未命名的渐变_25" data-name="未命名的渐变 25" x1="402.01" y1="229.15" x2="316.29" y2="143.43" gradientUnits="userSpaceOnUse">
      <stop offset="0" stop-color="#969696"/>
      <stop offset="1" stop-color="#e6e6e6"/>
    </linearGradient>
    <linearGradient id="_未命名的渐变_64-2" data-name="未命名的渐变 64" x1="222.88" y1="330.73" x2="202.63" y2="310.49" xlink:href="#_未命名的渐变_64"/>
    <linearGradient id="_未命名的渐变_35" data-name="未命名的渐变 35" x1="170.64" y1="345.74" x2="120.38" y2="295.48" gradientUnits="userSpaceOnUse">
      <stop offset="0" stop-color="#bdb8b5"/>
      <stop offset="1" stop-color="#e6e6e6"/>
    </linearGradient>
    <linearGradient id="_未命名的渐变_35-2" data-name="未命名的渐变 35" x1="397.53" y1="286.09" x2="358.27" y2="246.83" xlink:href="#_未命名的渐变_35"/>
    <linearGradient id="_未命名的渐变_35-3" data-name="未命名的渐变 35" x1="289.04" y1="339.69" x2="250.89" y2="301.53" xlink:href="#_未命名的渐变_35"/>
    <linearGradient id="_未命名的渐变_64-3" data-name="未命名的渐变 64" x1="344.19" y1="331.03" x2="323.94" y2="310.78" xlink:href="#_未命名的渐变_64"/>
    <linearGradient id="_未命名的渐变_35-4" data-name="未命名的渐变 35" x1="229.71" y1="318.91" x2="124.81" y2="214.01" xlink:href="#_未命名的渐变_35"/>
    <linearGradient id="_未命名的渐变_35-5" data-name="未命名的渐变 35" x1="180.62" y1="240.64" x2="114.62" y2="174.64" xlink:href="#_未命名的渐变_35"/>
    <linearGradient id="_未命名的渐变_64-4" data-name="未命名的渐变 64" x1="242.96" y1="217.76" x2="222.71" y2="197.52" xlink:href="#_未命名的渐变_64"/>
  </defs>
  <circle class="cls-11" cx="314.84" cy="266.46" r="14.31"/>
  <rect class="cls-3" x="57.36" y="363.37" width="373.23" height="28.63" rx="14.31" ry="14.31"/>
  <path class="cls-7" d="M442.64,164.94c0,31.19-25.09,56.53-56.18,56.92v.09h-114.25v-.08c-7.86,0-14.23-6.38-14.23-14.23s6.38-14.23,14.23-14.23v-.08h111.45c.68,.06,1.37,.08,2.05,.08,.25,0,.5,0,.75-.02,15.37-.39,27.72-12.97,27.72-28.45s-12.74-28.47-28.47-28.47c-7.86,0-14.23-6.38-14.23-14.23s6.38-14.23,14.23-14.23c31.44,0,56.94,25.48,56.94,56.94Z"/>
  <circle class="cls-4" cx="212.75" cy="320.61" r="14.31"/>
  <rect class="cls-6" x="101.18" y="306.3" width="88.67" height="28.63" rx="14.31" ry="14.31"/>
  <rect class="cls-5" x="344.57" y="252.14" width="66.67" height="28.63" rx="14.31" ry="14.31"/>
  <rect class="cls-10" x="237.74" y="306.3" width="64.45" height="28.63" rx="14.31" ry="14.31"/>
  <circle class="cls-8" cx="334.07" cy="320.9" r="14.31"/>
  <rect class="cls-9" x="78.29" y="252.14" width="197.95" height="28.63" rx="14.31" ry="14.31"/>
  <rect class="cls-2" x="87.54" y="193.33" width="120.15" height="28.63" rx="14.31" ry="14.31"/>
  <circle class="cls-1" cx="232.83" cy="207.64" r="14.31"/>
</svg>