<?xml version="1.0" encoding="UTF-8"?>
<svg id="_图层_1" data-name="图层 1" xmlns="http://www.w3.org/2000/svg" xmlns:xlink="http://www.w3.org/1999/xlink" viewBox="0 0 404.14 255.32">
  <defs>
    <style>
      .cls-1 {
        fill: url(#_未命名的渐变_64-4);
      }

      .cls-2 {
        fill: url(#_未命名的渐变_35-5);
      }

      .cls-3 {
        fill: url(#_未命名的渐变_110);
      }

      .cls-4 {
        fill: url(#_未命名的渐变_64-2);
      }

      .cls-5 {
        fill: url(#_未命名的渐变_35-2);
      }

      .cls-6 {
        fill: url(#_未命名的渐变_64-5);
      }

      .cls-7 {
        fill: url(#_未命名的渐变_35-10);
      }

      .cls-8 {
        fill: url(#_未命名的渐变_35-7);
      }

      .cls-9 {
        fill: url(#_未命名的渐变_35);
      }

      .cls-10 {
        fill: url(#_未命名的渐变_35-8);
      }

      .cls-11 {
        fill: url(#_未命名的渐变_64-3);
      }

      .cls-12 {
        fill: url(#_未命名的渐变_35-4);
      }

      .cls-13 {
        fill: url(#_未命名的渐变_35-6);
      }

      .cls-14 {
        fill: url(#_未命名的渐变_35-3);
      }

      .cls-15 {
        fill: url(#_未命名的渐变_35-9);
      }

      .cls-16 {
        fill: url(#_未命名的渐变_64);
      }
    </style>
    <linearGradient id="_未命名的渐变_35" data-name="未命名的渐变 35" x1="180.05" y1="205.58" x2="137.54" y2="163.08" gradientUnits="userSpaceOnUse">
      <stop offset="0" stop-color="#bdb8b5"/>
      <stop offset="1" stop-color="#e6e6e6"/>
    </linearGradient>
    <linearGradient id="_未命名的渐变_35-2" data-name="未命名的渐变 35" x1="351.19" y1="219.26" x2="281.34" y2="149.4" xlink:href="#_未命名的渐变_35"/>
    <linearGradient id="_未命名的渐变_35-3" data-name="未命名的渐变 35" x1="100.67" y1="155.13" x2="45.73" y2="100.19" xlink:href="#_未命名的渐变_35"/>
    <linearGradient id="_未命名的渐变_35-4" data-name="未命名的渐变 35" x1="252.11" y1="152.94" x2="201.54" y2="102.37" xlink:href="#_未命名的渐变_35"/>
    <linearGradient id="_未命名的渐变_35-5" data-name="未命名的渐变 35" x1="327.11" y1="140" x2="189.09" y2="1.98" xlink:href="#_未命名的渐变_35"/>
    <linearGradient id="_未命名的渐变_35-6" data-name="未命名的渐变 35" x1="197.74" y1="67.68" x2="91.01" y2="-39.05" xlink:href="#_未命名的渐变_35"/>
    <linearGradient id="_未命名的渐变_35-7" data-name="未命名的渐变 35" x1="364.1" y1="46.34" x2="300.05" y2="-17.71" xlink:href="#_未命名的渐变_35"/>
    <linearGradient id="_未命名的渐变_64" data-name="未命名的渐变 64" x1="163.12" y1="137.78" x2="142.88" y2="117.54" gradientUnits="userSpaceOnUse">
      <stop offset="0" stop-color="#507950"/>
      <stop offset="1" stop-color="#b4dbb4"/>
    </linearGradient>
    <linearGradient id="_未命名的渐变_64-2" data-name="未命名的渐变 64" x1="98.28" y1="194.45" x2="78.04" y2="174.21" xlink:href="#_未命名的渐变_64"/>
    <linearGradient id="_未命名的渐变_35-8" data-name="未命名的渐变 35" x1="48.89" y1="199.84" x2="17.87" y2="168.82" xlink:href="#_未命名的渐变_35"/>
    <linearGradient id="_未命名的渐变_64-3" data-name="未命名的渐变 64" x1="112.6" y1="81.11" x2="92.36" y2="60.86" xlink:href="#_未命名的渐变_64"/>
    <linearGradient id="_未命名的渐变_35-9" data-name="未命名的渐变 35" x1="60.44" y1="93.11" x2="16.19" y2="48.86" xlink:href="#_未命名的渐变_35"/>
    <linearGradient id="_未命名的渐变_64-4" data-name="未命名的渐变 64" x1="232.54" y1="194.45" x2="212.3" y2="174.21" xlink:href="#_未命名的渐变_64"/>
    <linearGradient id="_未命名的渐变_110" data-name="未命名的渐变 110" x1="115.44" y1="337.27" x2="307.98" y2="144.73" gradientUnits="userSpaceOnUse">
      <stop offset="0" stop-color="green"/>
      <stop offset="1" stop-color="#004000"/>
    </linearGradient>
    <linearGradient id="_未命名的渐变_64-5" data-name="未命名的渐变 64" x1="312.07" x2="291.83" xlink:href="#_未命名的渐变_64"/>
    <linearGradient id="_未命名的渐变_35-10" data-name="未命名的渐变 35" x1="389.08" y1="149.09" x2="347.13" y2="107.13" xlink:href="#_未命名的渐变_35"/>
  </defs>
  <rect class="cls-9" x="122.22" y="170.02" width="73.16" height="28.63" rx="14.31" ry="14.31"/>
  <rect class="cls-5" x="252.34" y="170.02" width="127.85" height="28.63" rx="14.31" ry="14.31"/>
  <rect class="cls-14" x="24.19" y="113.34" width="98.03" height="28.63" rx="14.31" ry="14.31"/>
  <rect class="cls-12" x="182.18" y="113.34" width="89.28" height="28.63" rx="14.31" ry="14.31"/>
  <rect class="cls-2" x="126.01" y="56.67" width="264.18" height="28.63" rx="14.31" ry="14.31"/>
  <rect class="cls-13" x="43.58" y="0" width="201.59" height="28.63" rx="14.31" ry="14.31"/>
  <rect class="cls-8" x="273.96" y="0" width="116.23" height="28.63" rx="14.31" ry="14.31"/>
  <circle class="cls-16" cx="153" cy="127.66" r="14.31"/>
  <circle class="cls-4" cx="88.16" cy="184.33" r="14.31"/>
  <rect class="cls-10" x="8.29" y="170.02" width="50.19" height="28.63" rx="14.31" ry="14.31"/>
  <circle class="cls-11" cx="102.48" cy="70.99" r="14.31"/>
  <rect class="cls-15" x="0" y="56.67" width="76.64" height="28.63" rx="14.31" ry="14.31"/>
  <circle class="cls-1" cx="222.42" cy="184.33" r="14.31"/>
  <rect class="cls-3" x="25.09" y="226.69" width="373.23" height="28.63" rx="14.31" ry="14.31"/>
  <circle class="cls-6" cx="301.95" cy="127.66" r="14.31"/>
  <rect class="cls-7" x="332.07" y="113.8" width="72.06" height="28.63" rx="14.31" ry="14.31"/>
</svg>