<?xml version="1.0" encoding="UTF-8"?>
<svg id="_图层_1" data-name="图层 1" xmlns="http://www.w3.org/2000/svg" xmlns:xlink="http://www.w3.org/1999/xlink" viewBox="0 0 500 500">
  <defs>
    <style>
      .cls-1 {
        fill: url(#_未命名的渐变_25-3);
      }

      .cls-2 {
        fill: url(#_未命名的渐变_25-4);
      }

      .cls-3 {
        fill: url(#_未命名的渐变_25-5);
      }

      .cls-4 {
        fill: url(#_未命名的渐变_25);
      }

      .cls-5 {
        fill: url(#_未命名的渐变_25-2);
      }
    </style>
    <linearGradient id="_未命名的渐变_25" data-name="未命名的渐变 25" x1="385.52" y1="330.53" x2="384.09" y2="329.1" gradientUnits="userSpaceOnUse">
      <stop offset="0" stop-color="#969696"/>
      <stop offset="1" stop-color="#e6e6e6"/>
    </linearGradient>
    <linearGradient id="_未命名的渐变_25-2" data-name="未命名的渐变 25" x1="346.93" y1="252.41" x2="175.99" y2="81.47" xlink:href="#_未命名的渐变_25"/>
    <linearGradient id="_未命名的渐变_25-3" data-name="未命名的渐变 25" x1="363.05" y1="1.76" x2="149.41" y2="215.4" gradientTransform="translate(0 441.64) scale(1 -1)" xlink:href="#_未命名的渐变_25"/>
    <linearGradient id="_未命名的渐变_25-4" data-name="未命名的渐变 25" x1="350.29" y1="289.03" x2="272.24" y2="210.97" xlink:href="#_未命名的渐变_25"/>
    <linearGradient id="_未命名的渐变_25-5" data-name="未命名的渐变 25" x1="184.51" y1="279.59" x2="125.33" y2="220.41" xlink:href="#_未命名的渐变_25"/>
  </defs>
  <path class="cls-4" d="M386.19,329.8v.06c-.25,.02-.5,.02-.75,.02-.68,0-1.37-.02-2.05-.08h2.8Z"/>
  <path class="cls-5" d="M430.17,145.59c0,31.19-25.09,56.53-56.18,56.92v.09H89.3v-.08c-7.86,0-14.23-6.38-14.23-14.23s6.38-14.23,14.23-14.23v-.08H371.18c.68,.06,1.37,.08,2.05,.08,.25,0,.5,0,.75-.02,15.37-.39,27.72-12.97,27.72-28.45s-12.74-28.47-28.47-28.47c-7.86,0-14.23-6.38-14.23-14.23s6.38-14.23,14.23-14.23c31.44,0,56.94,25.48,56.94,56.94Z"/>
  <path class="cls-1" d="M424.93,354.41c0-31.19-25.09-56.53-56.18-56.92v-.09H84.07v.08c-7.86,0-14.23,6.38-14.23,14.23s6.38,14.23,14.23,14.23v.08H365.95c.68-.06,1.37-.08,2.05-.08,.25,0,.5,0,.75,.02,15.37,.39,27.72,12.97,27.72,28.45s-12.74,28.47-28.47,28.47c-7.86,0-14.23,6.38-14.23,14.23s6.38,14.23,14.23,14.23c31.44,0,56.94-25.48,56.94-56.94Z"/>
  <g>
    <rect class="cls-2" x="239.14" y="235.69" width="144.25" height="28.62" rx="14.31" ry="14.31"/>
    <rect class="cls-3" x="101.68" y="235.69" width="106.49" height="28.62" rx="14.31" ry="14.31"/>
  </g>
</svg>