<?xml version="1.0" encoding="UTF-8"?>
<svg id="_图层_1" data-name="图层 1" xmlns="http://www.w3.org/2000/svg" xmlns:xlink="http://www.w3.org/1999/xlink" viewBox="0 0 500 500">
  <defs>
    <style>
      .cls-1 {
        fill: url(#_未命名的渐变_25-3);
      }

      .cls-2 {
        fill: url(#_未命名的渐变_25-4);
      }

      .cls-3 {
        fill: url(#_未命名的渐变_25-5);
      }

      .cls-4 {
        fill: url(#_未命名的渐变_25-7);
      }

      .cls-5 {
        fill: url(#_未命名的渐变_25);
      }

      .cls-6 {
        fill: url(#_未命名的渐变_25-8);
      }

      .cls-7 {
        fill: url(#_未命名的渐变_25-2);
      }

      .cls-8 {
        fill: url(#_未命名的渐变_25-6);
      }
    </style>
    <linearGradient id="_未命名的渐变_25" data-name="未命名的渐变 25" x1="344.51" y1="190.7" x2="173.58" y2="19.77" gradientUnits="userSpaceOnUse">
      <stop offset="0" stop-color="#969696"/>
      <stop offset="1" stop-color="#e6e6e6"/>
    </linearGradient>
    <linearGradient id="_未命名的渐变_25-2" data-name="未命名的渐变 25" x1="365.46" y1="-59.94" x2="151.83" y2="153.7" gradientTransform="translate(0 441.64) scale(1 -1)" xlink:href="#_未命名的渐变_25"/>
    <linearGradient id="_未命名的渐变_25-3" data-name="未命名的渐变 25" x1="346.35" y1="357.09" x2="255.59" y2="266.32" xlink:href="#_未命名的渐变_25"/>
    <linearGradient id="_未命名的渐变_25-4" data-name="未命名的渐变 25" x1="185.09" y1="335.73" x2="137.05" y2="287.68" xlink:href="#_未命名的渐变_25"/>
    <linearGradient id="_未命名的渐变_25-5" data-name="未命名的渐变 25" x1="367.41" y1="285.13" x2="297.16" y2="214.87" xlink:href="#_未命名的渐变_25"/>
    <linearGradient id="_未命名的渐变_25-6" data-name="未命名的渐变 25" x1="214.42" y1="283.14" x2="148.13" y2="216.86" xlink:href="#_未命名的渐变_25"/>
    <linearGradient id="_未命名的渐变_25-7" data-name="未命名的渐变 25" x1="306.5" y1="220.39" x2="242.31" y2="156.2" xlink:href="#_未命名的渐变_25"/>
    <linearGradient id="_未命名的渐变_25-8" data-name="未命名的渐变 25" x1="179.42" y1="214.2" x2="127.61" y2="162.39" xlink:href="#_未命名的渐变_25"/>
  </defs>
  <path class="cls-5" d="M427.75,83.89c0,31.19-25.09,56.53-56.18,56.92v.09H86.88v-.08c-7.86,0-14.23-6.38-14.23-14.23s6.38-14.23,14.23-14.23v-.08H368.76c.68,.06,1.37,.08,2.05,.08,.25,0,.5,0,.75-.02,15.37-.39,27.72-12.97,27.72-28.45s-12.74-28.47-28.47-28.47c-7.86,0-14.23-6.38-14.23-14.23s6.38-14.23,14.23-14.23c31.44,0,56.94,25.48,56.94,56.94Z"/>
  <path class="cls-7" d="M427.35,416.11c0-31.19-25.09-56.53-56.18-56.92v-.09H86.49v.08c-7.86,0-14.23,6.38-14.23,14.23s6.38,14.23,14.23,14.23v.08H368.36c.68-.06,1.37-.08,2.05-.08,.25,0,.5,0,.75,.02,15.37,.39,27.72,12.97,27.72,28.45s-12.74,28.47-28.47,28.47c-7.86,0-14.23,6.38-14.23,14.23s6.38,14.23,14.23,14.23c31.44,0,56.94-25.48,56.94-56.94Z"/>
  <g>
    <rect class="cls-1" x="216.14" y="297.39" width="169.67" height="28.62" rx="14.31" ry="14.31"/>
    <rect class="cls-2" x="118.95" y="297.39" width="84.24" height="28.62" rx="14.31" ry="14.31"/>
  </g>
  <g>
    <rect class="cls-3" x="267.96" y="235.69" width="128.66" height="28.62" rx="14.31" ry="14.31"/>
    <rect class="cls-8" x="120.92" y="235.69" width="120.72" height="28.62" rx="14.31" ry="14.31"/>
  </g>
  <g>
    <rect class="cls-4" x="216.14" y="173.99" width="116.53" height="28.62" rx="14.31" ry="14.31"/>
    <rect class="cls-6" x="107.62" y="173.99" width="91.78" height="28.62" rx="14.31" ry="14.31"/>
  </g>
</svg>