<?xml version="1.0" encoding="UTF-8"?>
<svg id="_图层_1" data-name="图层 1" xmlns="http://www.w3.org/2000/svg" xmlns:xlink="http://www.w3.org/1999/xlink" viewBox="0 0 280.98 352.16">
  <defs>
    <style>
      .cls-1 {
        fill: url(#_未命名的渐变_139);
      }
    </style>
    <linearGradient id="_未命名的渐变_139" data-name="未命名的渐变 139" x1="223.7" y1="326.32" x2="69.5" y2="59.23" gradientUnits="userSpaceOnUse">
      <stop offset="0" stop-color="#fff21f"/>
      <stop offset=".07" stop-color="#fbd820"/>
      <stop offset=".25" stop-color="#f39f24"/>
      <stop offset=".42" stop-color="#ed7127"/>
      <stop offset=".57" stop-color="#e85129"/>
      <stop offset=".69" stop-color="#e53d2a"/>
      <stop offset=".77" stop-color="#e5362b"/>
      <stop offset=".84" stop-color="#e53826"/>
      <stop offset=".91" stop-color="#e5411a"/>
      <stop offset=".99" stop-color="#e55005"/>
      <stop offset="1" stop-color="#e55400"/>
    </linearGradient>
  </defs>
  <path class="cls-1" d="M280.98,212.72s0,3.38-.16,6.73c-.81,17.02-4.67,33.24-11.05,48.12-1.99,4.68-4.25,9.22-6.73,13.62-.99,1.75-2.01,3.47-3.07,5.17-18.53,29.74-47.95,51.99-82.69,61.17h0c-11.41,3.02-23.38,4.63-35.74,4.63-49.1,0-92.27-25.38-117.12-63.73-9.25-15.74-16.14-33.04-20.21-51.4-2.75-12.44-4.2-25.36-4.2-38.63,0-37.4,11.53-72.11,31.25-100.75,.11-.18,.23-.36,.36-.53,.06-.1,.14-.21,.22-.31,2.31-3.09,5.99-5.09,10.15-5.09,6.11,0,11.2,4.33,12.39,10.09,.01,.01,.01,.02,.01,.03,.06,.47,.13,.94,.2,1.42,.02,.14,.03,.27,.03,.41,.01,0,.02-.01,.03-.02,3.33,22.54,10.27,43.91,20.22,63.49,.13-30.46,6.81-59.37,18.7-85.4,5.22-11.43,11.43-22.31,18.55-32.51,0-.02,.01-.03,.02-.04,4.81-6.89,10.01-13.48,15.59-19.72,.91-.9,1.83-1.78,2.78-2.65h.01C148.69,10.16,172.91,0,199.5,0h.05c1.85,0,3.69,.05,5.52,.15,5.44,1.38,9.46,6.31,9.46,12.18,0,.9-.09,1.78-.27,2.63h-.01c-.76,1.62-1.5,3.24-2.21,4.88-.01,0-.02,.02-.02,.03-.52,1.16-1.03,2.33-1.52,3.51-7.98,18.94-13.27,39.28-15.42,60.55-.71,7.05-1.07,14.21-1.07,21.45,0,8.87,.55,17.61,1.61,26.19,6.36-12.69,15.08-23.98,25.59-33.3,5.54-4.92,11.57-9.28,18.01-13.01h.01c3.43-2,6.98-3.81,10.63-5.42h.04c2.95-1.45,6.45-1.07,8.92,.96,3.43,2.82,2.92,7.23,2.88,7.5-.74,3.94-1.34,7.93-1.8,11.96h0c-.75,6.55-1.13,13.2-1.13,19.94,0,6.26,.33,12.44,.98,18.53,1.43,13.45,4.39,26.44,8.71,38.8,3,8.58,6.35,15.65,7.23,17.49,1.07,2.23,2,4.06,2.67,5.35,.66,1.05,1.46,2.6,1.99,4.58,.46,1.71,.58,3.22,.59,4.36,.02,.88,.04,2.05,.04,3.42Z"/>
</svg>