<?xml version="1.0" encoding="UTF-8"?>
<svg id="_图层_1" data-name="图层 1" xmlns="http://www.w3.org/2000/svg" xmlns:xlink="http://www.w3.org/1999/xlink" viewBox="0 0 500 500">
  <defs>
    <style>
      .cls-1 {
        fill: url(#_未命名的渐变_221);
      }
    </style>
    <linearGradient id="_未命名的渐变_221" data-name="未命名的渐变 221" x1="384.61" y1="384.61" x2="115.39" y2="115.39" gradientUnits="userSpaceOnUse">
      <stop offset="0" stop-color="#a5a584"/>
      <stop offset="1" stop-color="#fffedd"/>
    </linearGradient>
  </defs>
  <path class="cls-1" d="M292.98,90.06c-67.3,0-124.89,41.57-148.51,100.43-3.25-10.41-5-21.46-5-32.93,0-1.63,.04-3.24,.11-4.85,0-.25,.02-.5,.03-.75,.04-.72,.08-1.44,.13-2.15,.22-3.21,.58-6.39,1.07-9.51,.12-.77,.25-1.54,.39-2.3,.16-.9,.33-1.81,.52-2.71,.18-.89,.37-1.77,.57-2.65,.02-.08,.04-.17,.06-.25,.19-.82,.39-1.62,.6-2.43,.18-.74,.38-1.48,.59-2.21,.19-.69,.39-1.37,.6-2.06,.17-.57,.34-1.14,.53-1.71,.19-.6,.38-1.2,.59-1.8,.54-1.63,1.13-3.24,1.76-4.83,.17-.45,.35-.9,.54-1.35,.3-.75,.61-1.49,.93-2.23,.2-.46,.4-.92,.6-1.38,.14-.32,.29-.63,.43-.93,.26-.57,.52-1.13,.79-1.69,.09-.19,.18-.38,.28-.57,.26-.54,.53-1.08,.8-1.62,.16-.3,.31-.61,.47-.91,.29-.55,.58-1.1,.88-1.65,.36-.67,.72-1.33,1.1-1.99,.24-.44,.49-.86,.75-1.29,.21-.37,.42-.73,.64-1.09,.27-.46,.55-.91,.84-1.36,.15-.25,.3-.5,.46-.74,.26-.42,.53-.84,.8-1.25,.26-.4,.52-.79,.78-1.18,.21-.32,.43-.63,.64-.95,.27-.39,.53-.77,.81-1.15,.3-.45,.62-.89,.95-1.33,.14-.21,.29-.41,.45-.61,.37-.52,.75-1.02,1.14-1.53,.39-.52,.79-1.03,1.19-1.53,.46-.59,.94-1.18,1.42-1.76,.45-.55,.91-1.1,1.39-1.64,.23-.29,.48-.58,.74-.86,.32-.38,.66-.75,.99-1.12,.25-.28,.5-.55,.75-.82,.37-.41,.75-.82,1.14-1.22,.17-.19,.35-.37,.53-.56,.4-.42,.81-.84,1.22-1.25,.25-.26,.5-.51,.75-.75,.47-.47,.94-.93,1.42-1.38,.06-.06,.11-.11,.17-.16,.59-.57,1.19-1.13,1.79-1.68,.05-.04,.1-.09,.15-.13,.52-.47,1.04-.94,1.57-1.4,.25-.22,.5-.43,.75-.64,.36-.33,.73-.64,1.1-.94,.62-.52,1.25-1.03,1.88-1.53,.38-.31,.75-.61,1.14-.9,.45-.36,.92-.71,1.38-1.05,.15-.13,.31-.24,.47-.35,.61-.47,1.22-.91,1.83-1.34,.08-.06,.16-.12,.24-.17,.54-.39,1.08-.77,1.63-1.14,.25-.17,.51-.34,.76-.51,.62-.42,1.24-.83,1.87-1.23,.03-.02,.06-.04,.09-.06,.67-.43,1.34-.85,2.02-1.26,.12-.07,.24-.15,.36-.22,.48-.29,.96-.58,1.44-.85,.34-.21,.69-.41,1.03-.61,.67-.38,1.33-.75,2.01-1.11,.61-.34,1.23-.66,1.85-.98,.27-.14,.54-.28,.81-.42,.52-.27,1.05-.53,1.59-.79,.22-.11,.45-.22,.67-.33,.46-.22,.92-.43,1.38-.64,.44-.21,.89-.42,1.34-.62,.21-.09,.42-.18,.63-.27,.59-.27,1.18-.52,1.78-.77,.72-.3,1.44-.59,2.16-.87,.79-.32,1.59-.62,2.39-.91,.03-.02,.06-.03,.1-.04,.59-.22,1.19-.43,1.79-.63,1.5-.53,3.02-1.02,4.56-1.47,.59-.18,1.18-.35,1.78-.52,.86-.24,1.73-.47,2.6-.69,.87-.22,1.74-.43,2.62-.63,1.19-.28,2.39-.53,3.59-.75,.57-.12,1.15-.22,1.73-.32,1.73-.31,3.47-.57,5.23-.8,.97-.12,1.94-.23,2.91-.33,2.75-.27,5.52-.45,8.32-.52-87.04,1.52-157.11,72.52-157.11,159.92,0,67.31,41.57,124.9,100.44,148.51-10.4,3.24-21.45,5-32.9,5-1.63,0-3.24-.04-4.85-.11-.25,0-.5-.02-.75-.03-.72-.04-1.44-.08-2.15-.13-3.21-.22-6.39-.58-9.51-1.07-.77-.12-1.54-.25-2.3-.39-.9-.16-1.81-.33-2.71-.52-.89-.18-1.77-.37-2.65-.57-.08-.02-.17-.04-.25-.06-.82-.19-1.62-.39-2.43-.6-.74-.18-1.48-.38-2.21-.59-.69-.19-1.37-.39-2.06-.6-.57-.17-1.14-.34-1.71-.53-.6-.19-1.2-.38-1.8-.59-1.63-.54-3.24-1.13-4.83-1.76-.45-.17-.9-.35-1.35-.54-.75-.3-1.49-.61-2.23-.93-.46-.2-.92-.4-1.38-.6-.32-.14-.63-.29-.93-.43-.57-.26-1.13-.52-1.69-.79-.19-.09-.38-.18-.57-.28-.54-.26-1.08-.53-1.62-.8-.3-.16-.61-.31-.91-.47-.55-.29-1.1-.58-1.65-.88-.67-.36-1.33-.72-1.99-1.1-.44-.24-.86-.49-1.29-.75-.37-.21-.73-.42-1.09-.64-.46-.27-.91-.55-1.36-.84-.25-.15-.5-.3-.74-.46-.42-.26-.84-.53-1.25-.8-.4-.26-.79-.52-1.18-.78-.32-.21-.63-.43-.95-.64-.39-.27-.77-.53-1.15-.81-.45-.3-.89-.62-1.33-.95-.21-.14-.41-.29-.61-.45-.52-.37-1.02-.75-1.53-1.14-.52-.39-1.03-.79-1.53-1.19-.59-.46-1.18-.94-1.76-1.42-.55-.45-1.1-.91-1.64-1.39-.29-.23-.58-.48-.86-.74-.38-.32-.75-.66-1.12-.99-.28-.25-.55-.5-.82-.75-.41-.37-.82-.75-1.22-1.14-.19-.17-.37-.35-.56-.53-.42-.4-.84-.81-1.25-1.22-.26-.25-.51-.5-.75-.75-.47-.47-.93-.94-1.38-1.42-.06-.06-.11-.11-.16-.17-.57-.59-1.13-1.19-1.68-1.79-.04-.05-.09-.1-.13-.15-.47-.52-.94-1.04-1.4-1.57-.22-.25-.43-.5-.64-.75-.33-.36-.64-.73-.94-1.1-.52-.62-1.03-1.25-1.53-1.88-.31-.38-.61-.75-.9-1.14-.36-.45-.71-.92-1.05-1.38-.13-.15-.24-.31-.35-.47-.47-.61-.91-1.22-1.34-1.83-.06-.08-.12-.16-.17-.24-.39-.54-.77-1.08-1.14-1.63-.17-.25-.34-.51-.51-.76-.42-.62-.83-1.24-1.23-1.87-.02-.03-.04-.06-.06-.09-.43-.67-.85-1.34-1.26-2.02-.07-.12-.15-.24-.22-.36-.29-.48-.58-.96-.85-1.44-.21-.34-.41-.69-.61-1.03-.38-.67-.75-1.33-1.11-2.01-.34-.61-.66-1.23-.98-1.85-.14-.27-.28-.54-.42-.81-.27-.52-.53-1.05-.79-1.59-.11-.22-.22-.45-.33-.67-.22-.46-.43-.92-.64-1.38-.21-.44-.42-.89-.62-1.34-.09-.21-.18-.42-.27-.63-.27-.59-.52-1.18-.77-1.78-.3-.72-.59-1.44-.87-2.16-.32-.79-.62-1.59-.91-2.39-.02-.03-.03-.06-.04-.1-.22-.59-.43-1.19-.63-1.79-.53-1.5-1.02-3.02-1.47-4.56-.18-.59-.35-1.18-.52-1.78-.24-.86-.47-1.73-.69-2.6-.22-.87-.43-1.74-.63-2.62-.28-1.19-.53-2.39-.75-3.59-.12-.57-.22-1.15-.32-1.73-.31-1.73-.57-3.47-.8-5.23-.12-.97-.23-1.94-.33-2.91-.27-2.75-.45-5.52-.52-8.32,1.52,87.04,72.52,157.11,159.92,157.11,67.3,0,124.89-41.57,148.51-100.43,3.25,10.41,5,21.46,5,32.93,0,1.63-.04,3.24-.11,4.85,0,.25-.02,.5-.03,.75-.04,.72-.08,1.44-.13,2.15-.22,3.21-.58,6.39-1.07,9.51-.12,.77-.25,1.54-.39,2.3-.16,.9-.33,1.81-.52,2.71-.18,.89-.37,1.77-.57,2.65-.02,.08-.04,.17-.06,.25-.19,.82-.39,1.62-.6,2.43-.18,.74-.38,1.48-.59,2.21-.19,.69-.39,1.37-.6,2.06-.17,.57-.34,1.14-.53,1.71-.19,.6-.38,1.2-.59,1.8-.54,1.63-1.13,3.24-1.76,4.83-.17,.45-.35,.9-.54,1.35-.3,.75-.61,1.49-.93,2.23-.2,.46-.4,.92-.6,1.38-.14,.32-.29,.63-.43,.93-.26,.57-.52,1.13-.79,1.69-.09,.19-.18,.38-.28,.57-.26,.54-.53,1.08-.8,1.62-.16,.3-.31,.61-.47,.91-.29,.55-.58,1.1-.88,1.65-.36,.67-.72,1.33-1.1,1.99-.24,.44-.49,.86-.75,1.29-.21,.37-.42,.73-.64,1.09-.27,.46-.55,.91-.84,1.36-.15,.25-.3,.5-.46,.74-.26,.42-.53,.84-.8,1.25-.26,.4-.52,.79-.78,1.18-.21,.32-.43,.63-.64,.95-.27,.39-.53,.77-.81,1.15-.3,.45-.62,.89-.95,1.33-.14,.21-.29,.41-.45,.61-.37,.52-.75,1.02-1.14,1.53-.39,.52-.79,1.03-1.19,1.53-.46,.59-.94,1.18-1.42,1.76-.45,.55-.91,1.1-1.39,1.64-.23,.29-.48,.58-.74,.86-.32,.38-.66,.75-.99,1.12-.25,.28-.5,.55-.75,.82-.37,.41-.75,.82-1.14,1.22-.17,.19-.35,.37-.53,.56-.4,.42-.81,.84-1.22,1.25-.25,.26-.5,.51-.75,.75-.47,.47-.94,.93-1.42,1.38-.06,.06-.11,.11-.17,.16-.59,.57-1.19,1.13-1.79,1.68-.05,.04-.1,.09-.15,.13-.52,.47-1.04,.94-1.57,1.4-.25,.22-.5,.43-.75,.64-.36,.33-.73,.64-1.1,.94-.62,.52-1.25,1.03-1.88,1.53-.38,.31-.75,.61-1.14,.9-.45,.36-.92,.71-1.38,1.05-.15,.13-.31,.24-.47,.35-.61,.47-1.22,.91-1.83,1.34-.08,.06-.16,.12-.24,.17-.54,.39-1.08,.77-1.63,1.14-.25,.17-.51,.34-.76,.51-.62,.42-1.24,.83-1.87,1.23-.03,.02-.06,.04-.09,.06-.67,.43-1.34,.85-2.02,1.26-.12,.07-.24,.15-.36,.22-.48,.29-.96,.58-1.44,.85-.34,.21-.69,.41-1.03,.61-.67,.38-1.33,.75-2.01,1.11-.61,.34-1.23,.66-1.85,.98-.27,.14-.54,.28-.81,.42-.52,.27-1.05,.53-1.59,.79-.22,.11-.45,.22-.67,.33-.46,.22-.92,.43-1.38,.64-.44,.21-.89,.42-1.34,.62-.21,.09-.42,.18-.63,.27-.59,.27-1.18,.52-1.78,.77-.72,.3-1.44,.59-2.16,.87-.79,.32-1.59,.62-2.39,.91-.03,.02-.06,.03-.1,.04-.59,.22-1.19,.43-1.79,.63-1.5,.53-3.02,1.02-4.56,1.47-.59,.18-1.18,.35-1.78,.52-.86,.24-1.73,.47-2.6,.69-.87,.22-1.74,.43-2.62,.63-1.19,.28-2.39,.53-3.59,.75-.57,.12-1.15,.22-1.73,.32-1.73,.31-3.47,.57-5.23,.8-.97,.12-1.94,.23-2.91,.33-2.75,.27-5.52,.45-8.32,.52,87.04-1.52,157.11-72.52,157.11-159.92,0-67.31-41.57-124.9-100.44-148.51,10.4-3.24,21.45-5,32.9-5,1.63,0,3.24,.04,4.85,.11,.25,0,.5,.02,.75,.03,.72,.04,1.44,.08,2.15,.13,3.21,.22,6.39,.58,9.51,1.07,.77,.12,1.54,.25,2.3,.39,.9,.16,1.81,.33,2.71,.52,.89,.18,1.77,.37,2.65,.57,.08,.02,.17,.04,.25,.06,.82,.19,1.62,.39,2.43,.6,.74,.18,1.48,.38,2.21,.59,.69,.19,1.37,.39,2.06,.6,.57,.17,1.14,.34,1.71,.53,.6,.19,1.2,.38,1.8,.59,1.63,.54,3.24,1.13,4.83,1.76,.45,.17,.9,.35,1.35,.54,.75,.3,1.49,.61,2.23,.93,.46,.2,.92,.4,1.38,.6,.32,.14,.63,.29,.93,.43,.57,.26,1.13,.52,1.69,.79,.19,.09,.38,.18,.57,.28,.54,.26,1.08,.53,1.62,.8,.3,.16,.61,.31,.91,.47,.55,.29,1.1,.58,1.65,.88,.67,.36,1.33,.72,1.99,1.1,.44,.24,.86,.49,1.29,.75,.37,.21,.73,.42,1.09,.64,.46,.27,.91,.55,1.36,.84,.25,.15,.5,.3,.74,.46,.42,.26,.84,.53,1.25,.8,.4,.26,.79,.52,1.18,.78,.32,.21,.63,.43,.95,.64,.39,.27,.77,.53,1.15,.81,.45,.3,.89,.62,1.33,.95,.21,.14,.41,.29,.61,.45,.52,.37,1.02,.75,1.53,1.14,.52,.39,1.03,.79,1.53,1.19,.59,.46,1.18,.94,1.76,1.42,.55,.45,1.1,.91,1.64,1.39,.29,.23,.58,.48,.86,.74,.38,.32,.75,.66,1.12,.99,.28,.25,.55,.5,.82,.75,.41,.37,.82,.75,1.22,1.14,.19,.17,.37,.35,.56,.53,.42,.4,.84,.81,1.25,1.22,.26,.25,.51,.5,.75,.75,.47,.47,.93,.94,1.38,1.42,.06,.06,.11,.11,.16,.17,.57,.59,1.13,1.19,1.68,1.79,.04,.05,.09,.1,.13,.15,.47,.52,.94,1.04,1.4,1.57,.22,.25,.43,.5,.64,.75,.33,.36,.64,.73,.94,1.1,.52,.62,1.03,1.25,1.53,1.88,.31,.38,.61,.75,.9,1.14,.36,.45,.71,.92,1.05,1.38,.13,.15,.24,.31,.35,.47,.47,.61,.91,1.22,1.34,1.83,.06,.08,.12,.16,.17,.24,.39,.54,.77,1.08,1.14,1.63,.17,.25,.34,.51,.51,.76,.42,.62,.83,1.24,1.23,1.87,.02,.03,.04,.06,.06,.09,.43,.67,.85,1.34,1.26,2.02,.07,.12,.15,.24,.22,.36,.29,.48,.58,.96,.85,1.44,.21,.34,.41,.69,.61,1.03,.38,.67,.75,1.33,1.11,2.01,.34,.61,.66,1.23,.98,1.85,.14,.27,.28,.54,.42,.81,.27,.52,.53,1.05,.79,1.59,.11,.22,.22,.45,.33,.67,.22,.46,.43,.92,.64,1.38,.21,.44,.42,.89,.62,1.34,.09,.21,.18,.42,.27,.63,.27,.59,.52,1.18,.77,1.78,.3,.72,.59,1.44,.87,2.16,.32,.79,.62,1.59,.91,2.39,.02,.03,.03,.06,.04,.1,.22,.59,.43,1.19,.63,1.79,.53,1.5,1.02,3.02,1.47,4.56,.18,.59,.35,1.18,.52,1.78,.24,.86,.47,1.73,.69,2.6,.22,.87,.43,1.74,.63,2.62,.28,1.19,.53,2.39,.75,3.59,.12,.57,.22,1.15,.32,1.73,.31,1.73,.57,3.47,.8,5.23,.12,.97,.23,1.94,.33,2.91,.27,2.75,.45,5.52,.52,8.32-1.52-87.04-72.52-157.11-159.92-157.11Zm-39.72,121.51c.47,.04,.94,.09,1.41,.14,.07,0,.14,.02,.21,.03,1.99,.25,3.94,.66,5.82,1.2,.06,.02,.12,.03,.18,.05,.44,.13,.87,.26,1.3,.41,.08,.03,.17,.06,.25,.08,.43,.15,.87,.3,1.29,.46,0,0,0,0,0,0,1.36,.52,2.69,1.12,3.98,1.78,.07,.04,.14,.07,.22,.11,.37,.2,.74,.4,1.11,.61,.11,.06,.21,.12,.32,.18,.36,.21,.72,.42,1.07,.64,.08,.05,.15,.1,.22,.14,1.13,.72,2.22,1.49,3.26,2.32,.1,.08,.2,.15,.3,.23,.3,.24,.58,.48,.87,.73,.13,.11,.26,.23,.39,.34,.28,.24,.55,.49,.82,.74,.13,.12,.25,.24,.37,.36,.87,.83,1.7,1.71,2.49,2.62,.13,.16,.27,.31,.4,.47,.21,.25,.41,.5,.61,.75,.15,.19,.3,.37,.44,.56,.19,.25,.38,.5,.56,.75,.15,.21,.3,.42,.45,.63,.17,.25,.35,.49,.51,.74,.19,.28,.37,.57,.55,.86,.22,.35,.44,.71,.65,1.07,.16,.28,.33,.56,.48,.84,.13,.23,.25,.46,.37,.69,.15,.28,.29,.56,.43,.84,.11,.23,.23,.46,.33,.69,.14,.31,.28,.61,.42,.92,.09,.21,.19,.42,.28,.63,.19,.46,.38,.93,.55,1.41,0,.02,.02,.04,.02,.06,.04,.1,.08,.21,.11,.31,.16,.44,.31,.88,.45,1.32,.03,.09,.06,.19,.09,.28,.04,.12,.07,.24,.11,.36,.11,.35,.21,.71,.3,1.07,.01,.04,.02,.08,.03,.13,.05,.17,.09,.34,.13,.51,.11,.43,.21,.86,.3,1.29,.02,.11,.05,.22,.07,.33,.01,.07,.02,.14,.04,.2,.1,.48,.18,.97,.26,1.45,.03,.2,.06,.4,.09,.6,.06,.4,.11,.79,.15,1.19,.02,.21,.05,.43,.07,.64,.04,.41,.07,.83,.09,1.24,.01,.19,.03,.38,.04,.57,.03,.6,.05,1.21,.05,1.82,0,.53-.01,1.05-.03,1.57,0,.19-.02,.37-.03,.55-.02,.33-.03,.67-.06,1-.02,.22-.04,.43-.06,.65-.03,.3-.06,.6-.09,.89-.03,.22-.06,.43-.09,.65-.04,.29-.08,.59-.13,.88-.03,.21-.07,.42-.11,.63-.05,.3-.1,.59-.16,.89-.04,.19-.08,.39-.13,.58-.07,.31-.13,.61-.21,.92-.04,.17-.09,.35-.13,.52-.08,.32-.17,.64-.26,.96-.04,.15-.09,.31-.14,.46-.1,.33-.2,.66-.31,.99-.06,.17-.12,.34-.17,.51-.11,.31-.21,.61-.33,.92-.07,.18-.14,.37-.21,.55-.11,.28-.22,.57-.34,.85-.08,.2-.17,.4-.26,.6-.11,.26-.23,.51-.35,.77-.1,.22-.21,.43-.31,.64-.11,.23-.23,.46-.34,.69-.12,.23-.24,.46-.37,.69-.11,.2-.22,.41-.34,.61-.14,.25-.29,.5-.43,.74-.11,.18-.21,.35-.32,.53-.16,.27-.33,.53-.5,.79-.1,.15-.2,.3-.3,.45-.19,.28-.38,.56-.58,.83-.09,.13-.18,.25-.27,.37-.21,.29-.43,.58-.66,.87-.08,.1-.15,.2-.23,.3-.24,.3-.49,.61-.74,.9-.07,.08-.13,.16-.2,.24-.27,.32-.54,.62-.82,.93-.05,.06-.1,.11-.15,.17-.3,.32-.6,.64-.91,.95-.04,.04-.07,.07-.11,.11-.33,.33-.66,.65-.99,.97-.02,.02-.04,.04-.06,.06-.35,.33-.71,.65-1.08,.97,0,0-.01,0-.02,.01-6.77,5.87-15.6,9.42-25.26,9.42-1.03,0-2.05-.04-3.06-.12-.07,0-.13,0-.2-.02-.47-.04-.94-.09-1.41-.14-.07,0-.14-.02-.21-.03-1.99-.25-3.94-.66-5.82-1.2-.06-.02-.12-.03-.18-.05-.44-.13-.87-.26-1.3-.41-.08-.03-.17-.06-.25-.08-.43-.15-.87-.3-1.29-.46,0,0,0,0,0,0-1.36-.52-2.69-1.12-3.98-1.78-.07-.04-.14-.07-.22-.11-.37-.2-.74-.4-1.11-.61-.11-.06-.21-.12-.32-.18-.36-.21-.72-.42-1.07-.64-.08-.05-.15-.1-.22-.14-1.13-.72-2.22-1.49-3.26-2.32-.1-.08-.2-.15-.3-.23-.3-.24-.58-.48-.87-.73-.13-.11-.26-.23-.39-.34-.28-.24-.55-.49-.82-.74-.13-.12-.25-.24-.37-.36-.87-.83-1.7-1.71-2.49-2.62-.13-.16-.27-.31-.4-.47-.21-.25-.41-.5-.61-.75-.15-.19-.3-.37-.44-.56-.19-.25-.38-.5-.56-.75-.15-.21-.3-.42-.45-.63-.17-.25-.35-.49-.51-.74-.19-.28-.37-.57-.55-.86-.22-.35-.44-.71-.65-1.07-.16-.28-.33-.56-.48-.84-.13-.23-.25-.46-.37-.69-.15-.28-.29-.56-.43-.84-.11-.23-.23-.46-.33-.69-.14-.31-.28-.61-.42-.92-.09-.21-.19-.42-.28-.63-.19-.46-.38-.93-.55-1.41,0-.02-.02-.04-.02-.06-.04-.1-.08-.21-.11-.31-.16-.44-.31-.88-.45-1.32-.03-.09-.06-.19-.09-.28-.04-.12-.07-.24-.11-.36-.11-.35-.21-.71-.3-1.07-.01-.04-.02-.08-.03-.13-.05-.17-.09-.34-.13-.51-.11-.43-.21-.86-.3-1.29-.02-.11-.05-.22-.07-.33-.01-.07-.02-.14-.04-.2-.1-.48-.18-.97-.26-1.45-.03-.2-.06-.4-.09-.6-.06-.4-.11-.79-.15-1.19-.02-.21-.05-.43-.07-.64-.04-.41-.07-.83-.09-1.24-.01-.19-.03-.38-.04-.57-.03-.6-.05-1.21-.05-1.82,0-.53,.01-1.05,.03-1.57,0-.19,.02-.37,.03-.55,.02-.33,.03-.67,.06-1,.02-.22,.04-.43,.06-.65,.03-.3,.06-.6,.09-.89,.03-.22,.06-.43,.09-.65,.04-.29,.08-.59,.13-.88,.03-.21,.07-.42,.11-.63,.05-.3,.1-.59,.16-.89,.04-.19,.08-.39,.13-.58,.07-.31,.13-.61,.21-.92,.04-.17,.09-.35,.13-.52,.08-.32,.17-.64,.26-.96,.04-.15,.09-.31,.14-.46,.1-.33,.2-.66,.31-.99,.06-.17,.12-.34,.17-.51,.11-.31,.21-.61,.33-.92,.07-.18,.14-.37,.21-.55,.11-.28,.22-.57,.34-.85,.08-.2,.17-.4,.26-.6,.11-.26,.23-.51,.35-.77,.1-.22,.21-.43,.31-.64,.11-.23,.23-.46,.34-.69,.12-.23,.24-.46,.37-.69,.11-.2,.22-.41,.34-.61,.14-.25,.29-.5,.43-.74,.11-.18,.21-.35,.32-.53,.16-.27,.33-.53,.5-.79,.1-.15,.2-.3,.3-.45,.19-.28,.38-.56,.58-.83,.09-.13,.18-.25,.27-.37,.21-.29,.43-.58,.66-.87,.08-.1,.15-.2,.23-.3,.24-.3,.49-.61,.74-.9,.07-.08,.13-.16,.2-.24,.27-.32,.54-.62,.82-.93,.05-.06,.1-.11,.15-.17,.3-.32,.6-.64,.91-.95,.04-.04,.07-.07,.11-.11,.33-.33,.66-.65,.99-.97,.02-.02,.04-.04,.06-.06,.35-.33,.71-.65,1.08-.97,0,0,.01,0,.02-.01,6.77-5.87,15.6-9.42,25.26-9.42,1.03,0,2.05,.04,3.06,.12,.07,0,.13,0,.2,.02Z"/>
</svg>