<?xml version="1.0" encoding="UTF-8"?>
<svg id="_图层_1" data-name="图层 1" xmlns="http://www.w3.org/2000/svg" xmlns:xlink="http://www.w3.org/1999/xlink" viewBox="0 0 401.68 448.63">
  <defs>
    <style>
      .cls-1 {
        fill: url(#_未命名的渐变_630-2);
      }

      .cls-2 {
        fill: url(#_未命名的渐变_207-9);
      }

      .cls-3 {
        fill: url(#_未命名的渐变_207-13);
      }

      .cls-4 {
        fill: url(#_未命名的渐变_207-5);
      }

      .cls-5 {
        fill: url(#_未命名的渐变_207);
      }

      .cls-6 {
        fill: url(#_未命名的渐变_630);
      }

      .cls-7 {
        fill: url(#_未命名的渐变_207-3);
      }

      .cls-8 {
        fill: url(#_未命名的渐变_207-4);
      }

      .cls-9 {
        fill: url(#_未命名的渐变_207-12);
      }

      .cls-10 {
        fill: url(#_未命名的渐变_207-6);
      }

      .cls-11 {
        fill: url(#_未命名的渐变_207-7);
      }

      .cls-12 {
        fill: url(#_未命名的渐变_207-10);
      }

      .cls-13 {
        fill: url(#_未命名的渐变_207-14);
      }

      .cls-14 {
        fill: url(#_未命名的渐变_207-15);
      }

      .cls-15 {
        fill: url(#_未命名的渐变_207-11);
      }

      .cls-16 {
        fill: url(#_未命名的渐变_207-2);
      }

      .cls-17 {
        fill: url(#_未命名的渐变_207-8);
      }
    </style>
    <linearGradient id="_未命名的渐变_630" data-name="未命名的渐变 630" x1="331.82" y1="159.74" x2="180.72" y2="8.64" gradientUnits="userSpaceOnUse">
      <stop offset="0" stop-color="#969696"/>
      <stop offset=".6" stop-color="#cecece"/>
      <stop offset="1" stop-color="#f0f0f0"/>
    </linearGradient>
    <linearGradient id="_未命名的渐变_630-2" data-name="未命名的渐变 630" x1="315.78" y1="277.79" x2="91.44" y2="53.45" xlink:href="#_未命名的渐变_630"/>
    <linearGradient id="_未命名的渐变_207" data-name="未命名的渐变 207" x1="170.09" y1="309.92" x2="127.92" y2="295.38" gradientTransform="translate(1.74 84.77) scale(1 .76)" gradientUnits="userSpaceOnUse">
      <stop offset="0" stop-color="#c0c4ff"/>
      <stop offset=".96" stop-color="#e0e2ff"/>
      <stop offset=".96" stop-color="#cae4ff"/>
      <stop offset=".99" stop-color="#76eeff"/>
      <stop offset="1" stop-color="#55f3ff"/>
    </linearGradient>
    <linearGradient id="_未命名的渐变_207-2" data-name="未命名的渐变 207" x1="96.16" y1="435.58" x2="53.99" y2="421.03" gradientTransform="translate(-20.84 61.83) scale(1 .76)" xlink:href="#_未命名的渐变_207"/>
    <linearGradient id="_未命名的渐变_207-3" data-name="未命名的渐变 207" x1="122.52" y1="394.53" x2="80.36" y2="379.98" gradientTransform="translate(-13.54 69.91) scale(1 .76)" xlink:href="#_未命名的渐变_207"/>
    <linearGradient id="_未命名的渐变_207-4" data-name="未命名的渐变 207" x1="260.5" y1="399.97" x2="218.34" y2="385.42" gradientTransform="translate(-19.54 106.23) scale(1 .76)" xlink:href="#_未命名的渐变_207"/>
    <linearGradient id="_未命名的渐变_207-5" data-name="未命名的渐变 207" x1="282.75" y1="364.56" x2="240.58" y2="350.02" gradientTransform="translate(-13.23 113.07) scale(1 .76)" xlink:href="#_未命名的渐变_207"/>
    <linearGradient id="_未命名的渐变_207-6" data-name="未命名的渐变 207" x1="203.15" y1="340.48" x2="160.99" y2="325.94" gradientTransform="translate(-5.57 92.68) scale(1 .76)" xlink:href="#_未命名的渐变_207"/>
    <linearGradient id="_未命名的渐变_207-7" data-name="未命名的渐变 207" x1="263.96" y1="252.02" x2="221.79" y2="237.47" gradientTransform="translate(10.02 111.14) scale(1 .76)" xlink:href="#_未命名的渐变_207"/>
    <linearGradient id="_未命名的渐变_207-8" data-name="未命名的渐变 207" x1="312.7" y1="247.48" x2="270.54" y2="232.93" gradientTransform="translate(9.19 124.15) scale(1 .76)" xlink:href="#_未命名的渐变_207"/>
    <linearGradient id="_未命名的渐变_207-9" data-name="未命名的渐变 207" x1="317" y1="382.23" x2="274.84" y2="367.68" gradientTransform="translate(-17.99 121.65) scale(1 .76)" xlink:href="#_未命名的渐变_207"/>
    <linearGradient id="_未命名的渐变_207-10" data-name="未命名的渐变 207" x1="77.93" y1="323.91" x2="35.77" y2="309.36" gradientTransform="translate(2.21 60.03) scale(1 .76)" xlink:href="#_未命名的渐变_207"/>
    <linearGradient id="_未命名的渐变_207-11" data-name="未命名的渐变 207" x1="222.42" y1="413.72" x2="180.25" y2="399.17" gradientTransform="translate(-20.94 95.8) scale(1 .76)" xlink:href="#_未命名的渐变_207"/>
    <linearGradient id="_未命名的渐变_207-12" data-name="未命名的渐变 207" x1="151.34" y1="435.58" x2="109.17" y2="421.03" gradientTransform="translate(-22.8 76.42) scale(1 .76)" xlink:href="#_未命名的渐变_207"/>
    <linearGradient id="_未命名的渐变_207-13" data-name="未命名的渐变 207" x1="220.99" y1="247.48" x2="178.82" y2="232.93" gradientTransform="translate(12.46 99.9) scale(1 .76)" xlink:href="#_未命名的渐变_207"/>
    <linearGradient id="_未命名的渐变_207-14" data-name="未命名的渐变 207" x1="138.02" y1="277.44" x2="95.86" y2="262.89" gradientTransform="translate(9.4 77.17) scale(1 .76)" xlink:href="#_未命名的渐变_207"/>
    <linearGradient id="_未命名的渐变_207-15" data-name="未命名的渐变 207" x1="181.12" y1="431.3" x2="138.95" y2="416.75" gradientTransform="translate(-23 84.4) scale(1 .76)" xlink:href="#_未命名的渐变_207"/>
  </defs>
  <g>
    <path class="cls-6" d="M343.89,109.25c0,9.19-1.14,18.12-3.28,26.64,0,.03-.01,.05-.03,.09-.62,3.03-1.89,8.2-4.59,14.12-2.92,6.42-7.5,13.69-14.75,20.05-10.58,9.3-22.57,12.9-32.52,14.1-7.84,.95-14.41,.42-18,0-.71-.09-1.3-.16-1.77-.23-8.56-1.13-16.8-3.95-24.47-8.21-19.64-10.9-35.53-31.18-43.74-56.39-6.28-23.76-22.43-38.9-24.44-40.68-3.39-3-18.03-14.84-39.26-18.66C155.01,24.44,191.96,0,234.62,0c50.76,0,93.44,34.61,105.7,81.53,2.33,8.85,3.56,18.15,3.56,27.73Z"/>
    <path class="cls-1" d="M401.68,158.94c0,43.92-35.59,79.51-79.51,79.51H66.18C29.63,238.45,0,208.82,0,172.28c0-31.03,21.38-57.08,50.21-64.21,11.91-28.86,40.33-49.18,73.51-49.18,4.67,0,9.12,.44,13.31,1.21,21.23,3.82,35.87,15.66,39.26,18.66,2.01,1.78,18.16,16.92,24.44,40.68,8.21,25.21,24.11,45.49,43.74,56.39,7.67,4.26,15.91,7.09,24.47,8.21,.47,.07,1.06,.13,1.77,.23,3.59,.42,10.17,.95,18,0,9.95-1.21,21.94-4.81,32.52-14.1,7.25-6.36,11.83-13.63,14.75-20.05,2.71-5.92,3.98-11.09,4.59-14.12,.01-.04,.03-.07,.03-.09,2.14-8.52,3.28-17.45,3.28-26.64s-1.23-18.87-3.56-27.73c35.17,8.2,61.36,39.75,61.36,77.42Z"/>
  </g>
  <g>
    <rect class="cls-5" x="145" y="270.72" width="11.5" height="87.5" rx="5.75" ry="5.75" transform="translate(88.48 -28.66) rotate(15.33)"/>
    <rect class="cls-16" x="48.49" y="343.16" width="11.5" height="87.5" rx="5.75" ry="5.75" transform="translate(104.19 -.58) rotate(15.33)"/>
    <rect class="cls-7" x="82.15" y="320.08" width="11.5" height="87.5" rx="5.75" ry="5.75" transform="translate(99.29 -10.29) rotate(15.33)"/>
    <rect class="cls-8" x="214.13" y="360.54" width="11.5" height="87.5" rx="5.75" ry="5.75" transform="translate(114.68 -43.74) rotate(15.33)"/>
    <rect class="cls-4" x="242.68" y="340.5" width="11.5" height="87.5" rx="5.75" ry="5.75" transform="translate(110.4 -52) rotate(15.33)"/>
    <rect class="cls-10" x="170.75" y="301.83" width="11.5" height="87.5" rx="5.75" ry="5.75" transform="translate(97.62 -34.36) rotate(15.33)"/>
    <rect class="cls-11" x="247.14" y="253.15" width="11.5" height="87.5" rx="5.75" ry="5.75" transform="translate(87.47 -56.28) rotate(15.33)"/>
    <rect class="cls-17" x="295.07" y="262.71" width="11.5" height="87.5" rx="5.75" ry="5.75" transform="translate(91.7 -68.61) rotate(15.33)"/>
    <rect class="cls-2" x="272.18" y="362.48" width="11.5" height="87.5" rx="5.75" ry="5.75" transform="translate(117.26 -59.01) rotate(15.33)"/>
    <rect class="cls-12" x="53.31" y="256.6" width="11.5" height="87.5" rx="5.75" ry="5.75" transform="translate(81.49 -4.93) rotate(15.33)"/>
    <rect class="cls-15" x="174.64" y="360.54" width="11.5" height="87.5" rx="5.75" ry="5.75" transform="translate(113.27 -33.3) rotate(15.33)"/>
    <rect class="cls-9" x="101.7" y="357.75" width="11.5" height="87.5" rx="5.75" ry="5.75" transform="translate(109.94 -14.12) rotate(15.33)"/>
    <rect class="cls-3" x="206.61" y="238.47" width="11.5" height="87.5" rx="5.75" ry="5.75" transform="translate(82.15 -46.09) rotate(15.33)"/>
    <rect class="cls-13" x="120.59" y="238.47" width="11.5" height="87.5" rx="5.75" ry="5.75" transform="translate(79.09 -23.36) rotate(15.33)"/>
    <rect class="cls-14" x="131.28" y="362.48" width="11.5" height="87.5" rx="5.75" ry="5.75" transform="translate(112.24 -21.77) rotate(15.33)"/>
  </g>
</svg>