<?xml version="1.0" encoding="UTF-8"?>
<svg id="_图层_1" data-name="图层 1" xmlns="http://www.w3.org/2000/svg" xmlns:xlink="http://www.w3.org/1999/xlink" viewBox="0 0 431.06 255.32">
  <defs>
    <style>
      .cls-1 {
        fill: url(#_未命名的渐变_31-5);
      }

      .cls-2 {
        fill: url(#_未命名的渐变_31-15);
      }

      .cls-3 {
        fill: url(#_未命名的渐变_35-5);
      }

      .cls-4 {
        fill: url(#_未命名的渐变_31);
      }

      .cls-5 {
        fill: url(#_未命名的渐变_31-13);
      }

      .cls-6 {
        fill: url(#_未命名的渐变_31-20);
      }

      .cls-7 {
        fill: url(#_未命名的渐变_35-2);
      }

      .cls-8 {
        fill: url(#_未命名的渐变_31-14);
      }

      .cls-9 {
        fill: url(#_未命名的渐变_31-8);
      }

      .cls-10 {
        fill: url(#_未命名的渐变_31-3);
      }

      .cls-11 {
        fill: url(#_未命名的渐变_35-12);
      }

      .cls-12 {
        fill: url(#_未命名的渐变_31-2);
      }

      .cls-13 {
        fill: url(#_未命名的渐变_35-10);
      }

      .cls-14 {
        fill: url(#_未命名的渐变_31-7);
      }

      .cls-15 {
        fill: url(#_未命名的渐变_35-7);
      }

      .cls-16 {
        fill: url(#_未命名的渐变_31-4);
      }

      .cls-17 {
        fill: url(#_未命名的渐变_31-11);
      }

      .cls-18 {
        fill: url(#_未命名的渐变_35);
      }

      .cls-19 {
        fill: url(#_未命名的渐变_35-8);
      }

      .cls-20 {
        fill: url(#_未命名的渐变_31-18);
      }

      .cls-21 {
        fill: url(#_未命名的渐变_35-14);
      }

      .cls-22 {
        fill: url(#_未命名的渐变_35-13);
      }

      .cls-23 {
        fill: url(#_未命名的渐变_31-6);
      }

      .cls-24 {
        fill: url(#_未命名的渐变_31-17);
      }

      .cls-25 {
        fill: url(#_未命名的渐变_31-9);
      }

      .cls-26 {
        fill: url(#_未命名的渐变_35-4);
      }

      .cls-27 {
        fill: url(#_未命名的渐变_35-11);
      }

      .cls-28 {
        fill: url(#_未命名的渐变_35-6);
      }

      .cls-29 {
        fill: url(#_未命名的渐变_31-16);
      }

      .cls-30 {
        fill: url(#_未命名的渐变_31-10);
      }

      .cls-31 {
        fill: url(#_未命名的渐变_31-12);
      }

      .cls-32 {
        fill: url(#_未命名的渐变_35-3);
      }

      .cls-33 {
        fill: url(#_未命名的渐变_31-19);
      }

      .cls-34 {
        fill: url(#_未命名的渐变_35-9);
      }
    </style>
    <linearGradient id="_未命名的渐变_35" data-name="未命名的渐变 35" x1="110.07" y1="205.6" x2="67.52" y2="163.06" gradientUnits="userSpaceOnUse">
      <stop offset="0" stop-color="#bdb8b5"/>
      <stop offset="1" stop-color="#e6e6e6"/>
    </linearGradient>
    <linearGradient id="_未命名的渐变_35-2" data-name="未命名的渐变 35" x1="236.92" y1="196.73" x2="212.12" y2="171.93" xlink:href="#_未命名的渐变_35"/>
    <linearGradient id="_未命名的渐变_35-3" data-name="未命名的渐变 35" x1="135.38" y1="147.99" x2="95.63" y2="108.24" xlink:href="#_未命名的渐变_35"/>
    <linearGradient id="_未命名的渐变_35-4" data-name="未命名的渐变 35" x1="372.89" y1="148.23" x2="331.74" y2="107.09" xlink:href="#_未命名的渐变_35"/>
    <linearGradient id="_未命名的渐变_35-5" data-name="未命名的渐变 35" x1="63.49" y1="93.27" x2="18.92" y2="48.7" xlink:href="#_未命名的渐变_35"/>
    <linearGradient id="_未命名的渐变_35-6" data-name="未命名的渐变 35" x1="93.17" y1="42.58" x2="36.65" y2="-13.95" xlink:href="#_未命名的渐变_35"/>
    <linearGradient id="_未命名的渐变_35-7" data-name="未命名的渐变 35" x1="234.27" y1="34.62" x2="193.65" y2="-5.99" xlink:href="#_未命名的渐变_35"/>
    <linearGradient id="_未命名的渐变_31" data-name="未命名的渐变 31" x1="182.62" y1="137.78" x2="162.38" y2="117.54" gradientUnits="userSpaceOnUse">
      <stop offset="0" stop-color="#c8c8f0"/>
      <stop offset="1" stop-color="#f0f0ff"/>
    </linearGradient>
    <linearGradient id="_未命名的渐变_35-8" data-name="未命名的渐变 35" x1="174.69" y1="266.23" x2="124.24" y2="215.78" xlink:href="#_未命名的渐变_35"/>
    <linearGradient id="_未命名的渐变_35-9" data-name="未命名的渐变 35" x1="254.23" y1="82.68" x2="230.85" y2="59.29" xlink:href="#_未命名的渐变_35"/>
    <linearGradient id="_未命名的渐变_31-2" data-name="未命名的渐变 31" x1="159.45" y1="194.45" x2="139.21" y2="174.21" xlink:href="#_未命名的渐变_31"/>
    <linearGradient id="_未命名的渐变_31-3" data-name="未命名的渐变 31" x1="284.43" y1="251.12" x2="264.19" y2="230.88" xlink:href="#_未命名的渐变_31"/>
    <linearGradient id="_未命名的渐变_35-10" data-name="未命名的渐变 35" x1="384.95" y1="271.19" x2="324.58" y2="210.82" xlink:href="#_未命名的渐变_35"/>
    <linearGradient id="_未命名的渐变_31-4" data-name="未命名的渐变 31" x1="173.5" y1="81.11" x2="153.25" y2="60.86" xlink:href="#_未命名的渐变_31"/>
    <linearGradient id="_未命名的渐变_35-11" data-name="未命名的渐变 35" x1="255.68" y1="149.19" x2="212.61" y2="106.12" xlink:href="#_未命名的渐变_35"/>
    <linearGradient id="_未命名的渐变_31-5" data-name="未命名的渐变 31" x1="305.71" y1="137.78" x2="285.46" y2="117.54" xlink:href="#_未命名的渐变_31"/>
    <linearGradient id="_未命名的渐变_31-6" data-name="未命名的渐变 31" x1="159.18" y1="24.43" x2="138.94" y2="4.19" xlink:href="#_未命名的渐变_31"/>
    <linearGradient id="_未命名的渐变_31-7" data-name="未命名的渐变 31" x1="24.43" y1="138.23" x2="4.19" y2="117.99" xlink:href="#_未命名的渐变_31"/>
    <linearGradient id="_未命名的渐变_31-8" data-name="未命名的渐变 31" x1="413.68" y1="192.76" x2="393.43" y2="172.52" xlink:href="#_未命名的渐变_31"/>
    <linearGradient id="_未命名的渐变_35-12" data-name="未命名的渐变 35" x1="350.82" y1="205.45" x2="308.59" y2="163.21" xlink:href="#_未命名的渐变_35"/>
    <linearGradient id="_未命名的渐变_31-9" data-name="未命名的渐变 31" x1="390.45" y1="81.11" x2="370.21" y2="60.86" xlink:href="#_未命名的渐变_31"/>
    <linearGradient id="_未命名的渐变_31-10" data-name="未命名的渐变 31" x1="79.99" y1="251.12" x2="59.74" y2="230.88" xlink:href="#_未命名的渐变_31"/>
    <linearGradient id="_未命名的渐变_35-13" data-name="未命名的渐变 35" x1="413.35" y1="37.95" x2="366.08" y2="-9.32" xlink:href="#_未命名的渐变_35"/>
    <linearGradient id="_未命名的渐变_31-11" data-name="未命名的渐变 31" x1="329.41" y1="24.43" x2="309.17" y2="4.19" xlink:href="#_未命名的渐变_31"/>
    <linearGradient id="_未命名的渐变_31-12" data-name="未命名的渐变 31" x1="123.61" y1="81.11" x2="103.37" y2="60.86" xlink:href="#_未命名的渐变_31"/>
    <linearGradient id="_未命名的渐变_31-13" data-name="未命名的渐变 31" x1="278.64" y1="192.76" x2="258.39" y2="172.52" xlink:href="#_未命名的渐变_31"/>
    <linearGradient id="_未命名的渐变_31-14" data-name="未命名的渐变 31" x1="238.4" y1="251.12" x2="218.15" y2="230.88" xlink:href="#_未命名的渐变_31"/>
    <linearGradient id="_未命名的渐变_31-15" data-name="未命名的渐变 31" x1="295.72" y1="81.11" x2="275.48" y2="60.86" xlink:href="#_未命名的渐变_31"/>
    <linearGradient id="_未命名的渐变_35-14" data-name="未命名的渐变 35" x1="345.28" y1="86.4" x2="314.46" y2="55.57" xlink:href="#_未命名的渐变_35"/>
    <linearGradient id="_未命名的渐变_31-16" data-name="未命名的渐变 31" x1="215.77" y1="81.11" x2="195.53" y2="60.86" xlink:href="#_未命名的渐变_31"/>
    <linearGradient id="_未命名的渐变_31-17" data-name="未命名的渐变 31" x1="65.67" y1="138.23" x2="45.43" y2="117.99" xlink:href="#_未命名的渐变_31"/>
    <linearGradient id="_未命名的渐变_31-18" data-name="未命名的渐变 31" x1="37.01" y1="194.45" x2="16.77" y2="174.21" xlink:href="#_未命名的渐变_31"/>
    <linearGradient id="_未命名的渐变_31-19" data-name="未命名的渐变 31" x1="287.65" y1="24.43" x2="267.4" y2="4.19" xlink:href="#_未命名的渐变_31"/>
    <linearGradient id="_未命名的渐变_31-20" data-name="未命名的渐变 31" x1="193.88" y1="194.45" x2="173.63" y2="174.21" xlink:href="#_未命名的渐变_31"/>
  </defs>
  <rect class="cls-18" x="52.18" y="170.02" width="73.24" height="28.63" rx="14.31" ry="14.31"/>
  <rect class="cls-7" x="205.65" y="170.02" width="37.75" height="28.63" rx="14.31" ry="14.31"/>
  <rect class="cls-32" x="81.68" y="113.8" width="67.65" height="28.63" rx="14.31" ry="14.31"/>
  <rect class="cls-26" x="317.1" y="113.34" width="70.43" height="28.63" rx="14.31" ry="14.31"/>
  <rect class="cls-3" x="2.56" y="56.67" width="77.29" height="28.63" rx="14.31" ry="14.31"/>
  <rect class="cls-28" x="14.31" y="0" width="101.19" height="28.63" rx="14.31" ry="14.31"/>
  <rect class="cls-15" x="179.27" y="0" width="69.37" height="28.63" rx="14.31" ry="14.31"/>
  <circle class="cls-4" cx="172.5" cy="127.66" r="14.31"/>
  <rect class="cls-19" x="104.95" y="226.69" width="89.04" height="28.63" rx="14.31" ry="14.31"/>
  <rect class="cls-34" x="225.09" y="56.67" width="34.9" height="28.63" rx="14.31" ry="14.31"/>
  <circle class="cls-12" cx="149.33" cy="184.33" r="14.31"/>
  <circle class="cls-10" cx="274.31" cy="241" r="14.31"/>
  <rect class="cls-13" x="300.32" y="226.69" width="108.88" height="28.63" rx="14.31" ry="14.31"/>
  <circle class="cls-16" cx="163.37" cy="70.99" r="14.31"/>
  <rect class="cls-27" x="197" y="113.34" width="74.28" height="28.63" rx="14.31" ry="14.31"/>
  <circle class="cls-1" cx="295.59" cy="127.66" r="14.31"/>
  <circle class="cls-23" cx="149.06" cy="14.31" r="14.31"/>
  <circle class="cls-14" cx="14.31" cy="128.11" r="14.31"/>
  <circle class="cls-9" cx="403.55" cy="182.64" r="14.31"/>
  <rect class="cls-11" x="293.39" y="170.02" width="72.62" height="28.63" rx="14.31" ry="14.31"/>
  <circle class="cls-25" cx="380.33" cy="70.99" r="14.31"/>
  <circle class="cls-30" cx="69.87" cy="241" r="14.31"/>
  <rect class="cls-22" x="348.37" y="0" width="82.68" height="28.63" rx="14.31" ry="14.31"/>
  <circle class="cls-17" cx="319.29" cy="14.31" r="14.31"/>
  <circle class="cls-31" cx="113.49" cy="70.99" r="14.31"/>
  <circle class="cls-5" cx="268.51" cy="182.64" r="14.31"/>
  <circle class="cls-8" cx="228.28" cy="241" r="14.31"/>
  <circle class="cls-2" cx="285.6" cy="70.99" r="14.31"/>
  <rect class="cls-21" x="304.98" y="56.67" width="49.79" height="28.63" rx="14.31" ry="14.31"/>
  <circle class="cls-29" cx="205.65" cy="70.99" r="14.31"/>
  <circle class="cls-24" cx="55.55" cy="128.11" r="14.31"/>
  <circle class="cls-20" cx="26.89" cy="184.33" r="14.31"/>
  <circle class="cls-33" cx="277.53" cy="14.31" r="14.31"/>
  <circle class="cls-6" cx="183.76" cy="184.33" r="14.31"/>
</svg>