<?xml version="1.0" encoding="UTF-8"?>
<svg id="_图层_1" data-name="图层 1" xmlns="http://www.w3.org/2000/svg" xmlns:xlink="http://www.w3.org/1999/xlink" viewBox="0 0 500 500">
  <defs>
    <style>
      .cls-1 {
        fill: url(#_未命名的渐变_31-5);
      }

      .cls-2 {
        fill: url(#_未命名的渐变_31-15);
      }

      .cls-3 {
        fill: url(#_未命名的渐变_35-5);
      }

      .cls-4 {
        fill: url(#_未命名的渐变_31);
      }

      .cls-5 {
        fill: url(#_未命名的渐变_31-13);
      }

      .cls-6 {
        fill: url(#_未命名的渐变_31-20);
      }

      .cls-7 {
        fill: url(#_未命名的渐变_35-2);
      }

      .cls-8 {
        fill: url(#_未命名的渐变_31-14);
      }

      .cls-9 {
        fill: url(#_未命名的渐变_31-8);
      }

      .cls-10 {
        fill: url(#_未命名的渐变_31-3);
      }

      .cls-11 {
        fill: url(#_未命名的渐变_35-12);
      }

      .cls-12 {
        fill: url(#_未命名的渐变_31-2);
      }

      .cls-13 {
        fill: url(#_未命名的渐变_35-10);
      }

      .cls-14 {
        fill: url(#_未命名的渐变_31-7);
      }

      .cls-15 {
        fill: url(#_未命名的渐变_35-7);
      }

      .cls-16 {
        fill: url(#_未命名的渐变_31-4);
      }

      .cls-17 {
        fill: url(#_未命名的渐变_31-11);
      }

      .cls-18 {
        fill: url(#_未命名的渐变_35);
      }

      .cls-19 {
        fill: url(#_未命名的渐变_35-8);
      }

      .cls-20 {
        fill: url(#_未命名的渐变_31-18);
      }

      .cls-21 {
        fill: url(#_未命名的渐变_35-14);
      }

      .cls-22 {
        fill: url(#_未命名的渐变_35-13);
      }

      .cls-23 {
        fill: url(#_未命名的渐变_31-6);
      }

      .cls-24 {
        fill: url(#_未命名的渐变_31-17);
      }

      .cls-25 {
        fill: url(#_未命名的渐变_31-9);
      }

      .cls-26 {
        fill: url(#_未命名的渐变_35-4);
      }

      .cls-27 {
        fill: url(#_未命名的渐变_35-11);
      }

      .cls-28 {
        fill: url(#_未命名的渐变_35-6);
      }

      .cls-29 {
        fill: url(#_未命名的渐变_31-16);
      }

      .cls-30 {
        fill: url(#_未命名的渐变_31-10);
      }

      .cls-31 {
        fill: url(#_未命名的渐变_31-12);
      }

      .cls-32 {
        fill: url(#_未命名的渐变_35-3);
      }

      .cls-33 {
        fill: url(#_未命名的渐变_31-19);
      }

      .cls-34 {
        fill: url(#_未命名的渐变_35-9);
      }
    </style>
    <linearGradient id="_未命名的渐变_35" data-name="未命名的渐变 35" x1="144.54" y1="327.95" x2="102" y2="285.4" gradientUnits="userSpaceOnUse">
      <stop offset="0" stop-color="#bdb8b5"/>
      <stop offset="1" stop-color="#e6e6e6"/>
    </linearGradient>
    <linearGradient id="_未命名的渐变_35-2" data-name="未命名的渐变 35" x1="271.39" y1="319.07" x2="246.59" y2="294.27" xlink:href="#_未命名的渐变_35"/>
    <linearGradient id="_未命名的渐变_35-3" data-name="未命名的渐变 35" x1="169.85" y1="270.33" x2="130.1" y2="230.58" xlink:href="#_未命名的渐变_35"/>
    <linearGradient id="_未命名的渐变_35-4" data-name="未命名的渐变 35" x1="407.36" y1="270.57" x2="366.22" y2="229.43" xlink:href="#_未命名的渐变_35"/>
    <linearGradient id="_未命名的渐变_35-5" data-name="未命名的渐变 35" x1="97.96" y1="215.61" x2="53.39" y2="171.04" xlink:href="#_未命名的渐变_35"/>
    <linearGradient id="_未命名的渐变_35-6" data-name="未命名的渐变 35" x1="127.64" y1="164.92" x2="71.12" y2="108.39" xlink:href="#_未命名的渐变_35"/>
    <linearGradient id="_未命名的渐变_35-7" data-name="未命名的渐变 35" x1="268.74" y1="156.96" x2="228.12" y2="116.35" xlink:href="#_未命名的渐变_35"/>
    <linearGradient id="_未命名的渐变_31" data-name="未命名的渐变 31" x1="217.09" y1="260.12" x2="196.85" y2="239.88" gradientUnits="userSpaceOnUse">
      <stop offset="0" stop-color="#c8c8f0"/>
      <stop offset="1" stop-color="#f0f0ff"/>
    </linearGradient>
    <linearGradient id="_未命名的渐变_35-8" data-name="未命名的渐变 35" x1="209.16" y1="388.57" x2="158.72" y2="338.12" xlink:href="#_未命名的渐变_35"/>
    <linearGradient id="_未命名的渐变_35-9" data-name="未命名的渐变 35" x1="288.7" y1="205.02" x2="265.32" y2="181.64" xlink:href="#_未命名的渐变_35"/>
    <linearGradient id="_未命名的渐变_31-2" data-name="未命名的渐变 31" x1="193.92" y1="316.79" x2="173.68" y2="296.55" xlink:href="#_未命名的渐变_31"/>
    <linearGradient id="_未命名的渐变_31-3" data-name="未命名的渐变 31" x1="318.9" y1="373.47" x2="298.66" y2="353.22" xlink:href="#_未命名的渐变_31"/>
    <linearGradient id="_未命名的渐变_35-10" data-name="未命名的渐变 35" x1="419.42" y1="393.53" x2="359.05" y2="333.16" xlink:href="#_未命名的渐变_35"/>
    <linearGradient id="_未命名的渐变_31-4" data-name="未命名的渐变 31" x1="207.97" y1="203.45" x2="187.73" y2="183.21" xlink:href="#_未命名的渐变_31"/>
    <linearGradient id="_未命名的渐变_35-11" data-name="未命名的渐变 35" x1="290.15" y1="271.53" x2="247.08" y2="228.47" xlink:href="#_未命名的渐变_35"/>
    <linearGradient id="_未命名的渐变_31-5" data-name="未命名的渐变 31" x1="340.18" y1="260.12" x2="319.94" y2="239.88" xlink:href="#_未命名的渐变_31"/>
    <linearGradient id="_未命名的渐变_31-6" data-name="未命名的渐变 31" x1="193.65" y1="146.78" x2="173.41" y2="126.53" xlink:href="#_未命名的渐变_31"/>
    <linearGradient id="_未命名的渐变_31-7" data-name="未命名的渐变 31" x1="58.91" y1="260.58" x2="38.66" y2="240.33" xlink:href="#_未命名的渐变_31"/>
    <linearGradient id="_未命名的渐变_31-8" data-name="未命名的渐变 31" x1="448.15" y1="315.1" x2="427.91" y2="294.86" xlink:href="#_未命名的渐变_31"/>
    <linearGradient id="_未命名的渐变_35-12" data-name="未命名的渐变 35" x1="385.3" y1="327.79" x2="343.06" y2="285.55" xlink:href="#_未命名的渐变_35"/>
    <linearGradient id="_未命名的渐变_31-9" data-name="未命名的渐变 31" x1="424.92" y1="203.45" x2="404.68" y2="183.21" xlink:href="#_未命名的渐变_31"/>
    <linearGradient id="_未命名的渐变_31-10" data-name="未命名的渐变 31" x1="114.46" y1="373.47" x2="94.22" y2="353.22" xlink:href="#_未命名的渐变_31"/>
    <linearGradient id="_未命名的渐变_35-13" data-name="未命名的渐变 35" x1="447.82" y1="160.29" x2="400.55" y2="113.02" xlink:href="#_未命名的渐变_35"/>
    <linearGradient id="_未命名的渐变_31-11" data-name="未命名的渐变 31" x1="363.88" y1="146.78" x2="343.64" y2="126.53" xlink:href="#_未命名的渐变_31"/>
    <linearGradient id="_未命名的渐变_31-12" data-name="未命名的渐变 31" x1="158.08" y1="203.45" x2="137.84" y2="183.21" xlink:href="#_未命名的渐变_31"/>
    <linearGradient id="_未命名的渐变_31-13" data-name="未命名的渐变 31" x1="313.11" y1="315.1" x2="292.87" y2="294.86" xlink:href="#_未命名的渐变_31"/>
    <linearGradient id="_未命名的渐变_31-14" data-name="未命名的渐变 31" x1="272.87" y1="373.47" x2="252.63" y2="353.22" xlink:href="#_未命名的渐变_31"/>
    <linearGradient id="_未命名的渐变_31-15" data-name="未命名的渐变 31" x1="330.19" y1="203.45" x2="309.95" y2="183.21" xlink:href="#_未命名的渐变_31"/>
    <linearGradient id="_未命名的渐变_35-14" data-name="未命名的渐变 35" x1="379.75" y1="208.74" x2="348.93" y2="177.92" xlink:href="#_未命名的渐变_35"/>
    <linearGradient id="_未命名的渐变_31-16" data-name="未命名的渐变 31" x1="250.24" y1="203.45" x2="230" y2="183.21" xlink:href="#_未命名的渐变_31"/>
    <linearGradient id="_未命名的渐变_31-17" data-name="未命名的渐变 31" x1="100.15" y1="260.58" x2="79.9" y2="240.33" xlink:href="#_未命名的渐变_31"/>
    <linearGradient id="_未命名的渐变_31-18" data-name="未命名的渐变 31" x1="71.49" y1="316.79" x2="51.24" y2="296.55" xlink:href="#_未命名的渐变_31"/>
    <linearGradient id="_未命名的渐变_31-19" data-name="未命名的渐变 31" x1="322.12" y1="146.78" x2="301.88" y2="126.53" xlink:href="#_未命名的渐变_31"/>
    <linearGradient id="_未命名的渐变_31-20" data-name="未命名的渐变 31" x1="228.35" y1="316.79" x2="208.11" y2="296.55" xlink:href="#_未命名的渐变_31"/>
  </defs>
  <rect class="cls-18" x="86.65" y="292.36" width="73.24" height="28.63" rx="14.31" ry="14.31"/>
  <rect class="cls-7" x="240.12" y="292.36" width="37.75" height="28.63" rx="14.31" ry="14.31"/>
  <rect class="cls-32" x="116.16" y="236.14" width="67.65" height="28.63" rx="14.31" ry="14.31"/>
  <rect class="cls-26" x="351.57" y="235.69" width="70.43" height="28.63" rx="14.31" ry="14.31"/>
  <rect class="cls-3" x="37.04" y="179.01" width="77.29" height="28.63" rx="14.31" ry="14.31"/>
  <rect class="cls-28" x="48.79" y="122.34" width="101.19" height="28.63" rx="14.31" ry="14.31"/>
  <rect class="cls-15" x="213.74" y="122.34" width="69.37" height="28.63" rx="14.31" ry="14.31"/>
  <circle class="cls-4" cx="206.97" cy="250" r="14.31"/>
  <rect class="cls-19" x="139.42" y="349.03" width="89.04" height="28.63" rx="14.31" ry="14.31"/>
  <rect class="cls-34" x="259.56" y="179.01" width="34.9" height="28.63" rx="14.31" ry="14.31"/>
  <circle class="cls-12" cx="183.8" cy="306.67" r="14.31"/>
  <circle class="cls-10" cx="308.78" cy="363.34" r="14.31"/>
  <rect class="cls-13" x="334.8" y="349.03" width="108.88" height="28.63" rx="14.31" ry="14.31"/>
  <circle class="cls-16" cx="197.85" cy="193.33" r="14.31"/>
  <rect class="cls-27" x="231.48" y="235.69" width="74.28" height="28.63" rx="14.31" ry="14.31"/>
  <circle class="cls-1" cx="330.06" cy="250" r="14.31"/>
  <circle class="cls-23" cx="183.53" cy="136.66" r="14.31"/>
  <circle class="cls-14" cx="48.79" cy="250.45" r="14.31"/>
  <circle class="cls-9" cx="438.03" cy="304.98" r="14.31"/>
  <rect class="cls-11" x="327.87" y="292.36" width="72.62" height="28.63" rx="14.31" ry="14.31"/>
  <circle class="cls-25" cx="414.8" cy="193.33" r="14.31"/>
  <circle class="cls-30" cx="104.34" cy="363.34" r="14.31"/>
  <rect class="cls-22" x="382.85" y="122.34" width="82.68" height="28.63" rx="14.31" ry="14.31"/>
  <circle class="cls-17" cx="353.76" cy="136.66" r="14.31"/>
  <circle class="cls-31" cx="147.96" cy="193.33" r="14.31"/>
  <circle class="cls-5" cx="302.99" cy="304.98" r="14.31"/>
  <circle class="cls-8" cx="262.75" cy="363.34" r="14.31"/>
  <circle class="cls-2" cx="320.07" cy="193.33" r="14.31"/>
  <rect class="cls-21" x="339.45" y="179.01" width="49.79" height="28.63" rx="14.31" ry="14.31"/>
  <circle class="cls-29" cx="240.12" cy="193.33" r="14.31"/>
  <circle class="cls-24" cx="90.02" cy="250.45" r="14.31"/>
  <circle class="cls-20" cx="61.37" cy="306.67" r="14.31"/>
  <circle class="cls-33" cx="312" cy="136.66" r="14.31"/>
  <circle class="cls-6" cx="218.23" cy="306.67" r="14.31"/>
</svg>