<?xml version="1.0" encoding="UTF-8"?>
<svg id="_图层_1" data-name="图层 1" xmlns="http://www.w3.org/2000/svg" xmlns:xlink="http://www.w3.org/1999/xlink" viewBox="0 0 500 500">
  <defs>
    <style>
      .cls-1 {
        fill: url(#_未命名的渐变_630-2);
      }

      .cls-2 {
        fill: url(#_未命名的渐变_207-9);
      }

      .cls-3 {
        fill: url(#_未命名的渐变_207-13);
      }

      .cls-4 {
        fill: url(#_未命名的渐变_207-5);
      }

      .cls-5 {
        fill: url(#_未命名的渐变_207);
      }

      .cls-6 {
        fill: url(#_未命名的渐变_630);
      }

      .cls-7 {
        fill: url(#_未命名的渐变_207-3);
      }

      .cls-8 {
        fill: url(#_未命名的渐变_207-4);
      }

      .cls-9 {
        fill: url(#_未命名的渐变_207-12);
      }

      .cls-10 {
        fill: url(#_未命名的渐变_207-6);
      }

      .cls-11 {
        fill: url(#_未命名的渐变_207-7);
      }

      .cls-12 {
        fill: url(#_未命名的渐变_207-10);
      }

      .cls-13 {
        fill: url(#_未命名的渐变_207-14);
      }

      .cls-14 {
        fill: url(#_未命名的渐变_207-15);
      }

      .cls-15 {
        fill: url(#_未命名的渐变_207-11);
      }

      .cls-16 {
        fill: url(#_未命名的渐变_207-2);
      }

      .cls-17 {
        fill: url(#_未命名的渐变_207-8);
      }
    </style>
    <linearGradient id="_未命名的渐变_630" data-name="未命名的渐变 630" x1="380.98" y1="185.43" x2="229.88" y2="34.33" gradientUnits="userSpaceOnUse">
      <stop offset="0" stop-color="#969696"/>
      <stop offset=".6" stop-color="#cecece"/>
      <stop offset="1" stop-color="#f0f0f0"/>
    </linearGradient>
    <linearGradient id="_未命名的渐变_630-2" data-name="未命名的渐变 630" x1="364.94" y1="303.47" x2="140.6" y2="79.13" xlink:href="#_未命名的渐变_630"/>
    <linearGradient id="_未命名的渐变_207" data-name="未命名的渐变 207" x1="219.25" y1="335.61" x2="177.08" y2="321.06" gradientTransform="translate(1.74 90.96) scale(1 .76)" gradientUnits="userSpaceOnUse">
      <stop offset="0" stop-color="#c0c4ff"/>
      <stop offset=".96" stop-color="#e0e2ff"/>
      <stop offset=".96" stop-color="#cae4ff"/>
      <stop offset=".99" stop-color="#76eeff"/>
      <stop offset="1" stop-color="#55f3ff"/>
    </linearGradient>
    <linearGradient id="_未命名的渐变_207-2" data-name="未命名的渐变 207" x1="145.32" y1="461.26" x2="103.15" y2="446.71" gradientTransform="translate(-20.84 68.02) scale(1 .76)" xlink:href="#_未命名的渐变_207"/>
    <linearGradient id="_未命名的渐变_207-3" data-name="未命名的渐变 207" x1="171.68" y1="420.21" x2="129.52" y2="405.66" gradientTransform="translate(-13.54 76.1) scale(1 .76)" xlink:href="#_未命名的渐变_207"/>
    <linearGradient id="_未命名的渐变_207-4" data-name="未命名的渐变 207" x1="309.66" y1="425.65" x2="267.5" y2="411.11" gradientTransform="translate(-19.54 112.42) scale(1 .76)" xlink:href="#_未命名的渐变_207"/>
    <linearGradient id="_未命名的渐变_207-5" data-name="未命名的渐变 207" x1="331.91" y1="390.25" x2="289.74" y2="375.7" gradientTransform="translate(-13.23 119.26) scale(1 .76)" xlink:href="#_未命名的渐变_207"/>
    <linearGradient id="_未命名的渐变_207-6" data-name="未命名的渐变 207" x1="252.31" y1="366.17" x2="210.15" y2="351.62" gradientTransform="translate(-5.57 98.87) scale(1 .76)" xlink:href="#_未命名的渐变_207"/>
    <linearGradient id="_未命名的渐变_207-7" data-name="未命名的渐变 207" x1="313.12" y1="277.7" x2="270.95" y2="263.16" gradientTransform="translate(10.02 117.33) scale(1 .76)" xlink:href="#_未命名的渐变_207"/>
    <linearGradient id="_未命名的渐变_207-8" data-name="未命名的渐变 207" x1="361.86" y1="273.16" x2="319.7" y2="258.62" gradientTransform="translate(9.19 130.34) scale(1 .76)" xlink:href="#_未命名的渐变_207"/>
    <linearGradient id="_未命名的渐变_207-9" data-name="未命名的渐变 207" x1="366.16" y1="407.91" x2="324" y2="393.36" gradientTransform="translate(-17.99 127.84) scale(1 .76)" xlink:href="#_未命名的渐变_207"/>
    <linearGradient id="_未命名的渐变_207-10" data-name="未命名的渐变 207" x1="127.09" y1="349.59" x2="84.92" y2="335.04" gradientTransform="translate(2.21 66.22) scale(1 .76)" xlink:href="#_未命名的渐变_207"/>
    <linearGradient id="_未命名的渐变_207-11" data-name="未命名的渐变 207" x1="271.58" y1="439.4" x2="229.41" y2="424.86" gradientTransform="translate(-20.94 101.98) scale(1 .76)" xlink:href="#_未命名的渐变_207"/>
    <linearGradient id="_未命名的渐变_207-12" data-name="未命名的渐变 207" x1="200.5" y1="461.26" x2="158.33" y2="446.71" gradientTransform="translate(-22.8 82.61) scale(1 .76)" xlink:href="#_未命名的渐变_207"/>
    <linearGradient id="_未命名的渐变_207-13" data-name="未命名的渐变 207" x1="270.15" y1="273.16" x2="227.98" y2="258.62" gradientTransform="translate(12.46 106.09) scale(1 .76)" xlink:href="#_未命名的渐变_207"/>
    <linearGradient id="_未命名的渐变_207-14" data-name="未命名的渐变 207" x1="187.18" y1="303.12" x2="145.02" y2="288.57" gradientTransform="translate(9.4 83.36) scale(1 .76)" xlink:href="#_未命名的渐变_207"/>
    <linearGradient id="_未命名的渐变_207-15" data-name="未命名的渐变 207" x1="230.28" y1="456.98" x2="188.11" y2="442.43" gradientTransform="translate(-23 90.59) scale(1 .76)" xlink:href="#_未命名的渐变_207"/>
  </defs>
  <g>
    <path class="cls-6" d="M393.05,134.94c0,9.19-1.14,18.12-3.28,26.64,0,.03-.01,.05-.03,.09-.62,3.03-1.89,8.2-4.59,14.12-2.92,6.42-7.5,13.69-14.75,20.05-10.58,9.3-22.57,12.9-32.52,14.1-7.84,.95-14.41,.42-18,0-.71-.09-1.3-.16-1.77-.23-8.56-1.13-16.8-3.95-24.47-8.21-19.64-10.9-35.53-31.18-43.74-56.39-6.28-23.76-22.43-38.9-24.44-40.68-3.39-3-18.03-14.84-39.26-18.66,17.97-35.65,54.93-60.1,97.59-60.1,50.76,0,93.44,34.61,105.7,81.53,2.33,8.85,3.56,18.15,3.56,27.73Z"/>
    <path class="cls-1" d="M450.84,184.63c0,43.92-35.59,79.51-79.51,79.51H115.34c-36.55,0-66.18-29.63-66.18-66.17,0-31.03,21.38-57.08,50.21-64.21,11.91-28.86,40.33-49.18,73.51-49.18,4.67,0,9.12,.44,13.31,1.21,21.23,3.82,35.87,15.66,39.26,18.66,2.01,1.78,18.16,16.92,24.44,40.68,8.21,25.21,24.11,45.49,43.74,56.39,7.67,4.26,15.91,7.09,24.47,8.21,.47,.07,1.06,.13,1.77,.23,3.59,.42,10.17,.95,18,0,9.95-1.21,21.94-4.81,32.52-14.1,7.25-6.36,11.83-13.63,14.75-20.05,2.71-5.92,3.98-11.09,4.59-14.12,.01-.04,.03-.07,.03-.09,2.14-8.52,3.28-17.45,3.28-26.64s-1.23-18.87-3.56-27.73c35.17,8.2,61.36,39.75,61.36,77.42Z"/>
  </g>
  <g>
    <rect class="cls-5" x="194.15" y="296.41" width="11.5" height="87.5" rx="5.75" ry="5.75" transform="translate(97.02 -40.74) rotate(15.33)"/>
    <rect class="cls-16" x="97.65" y="368.85" width="11.5" height="87.5" rx="5.75" ry="5.75" transform="translate(112.73 -12.66) rotate(15.33)"/>
    <rect class="cls-7" x="131.31" y="345.77" width="11.5" height="87.5" rx="5.75" ry="5.75" transform="translate(107.83 -22.37) rotate(15.33)"/>
    <rect class="cls-8" x="263.29" y="386.22" width="11.5" height="87.5" rx="5.75" ry="5.75" transform="translate(123.21 -55.82) rotate(15.33)"/>
    <rect class="cls-4" x="291.84" y="366.18" width="11.5" height="87.5" rx="5.75" ry="5.75" transform="translate(118.93 -64.08) rotate(15.33)"/>
    <rect class="cls-10" x="219.91" y="327.52" width="11.5" height="87.5" rx="5.75" ry="5.75" transform="translate(106.15 -46.44) rotate(15.33)"/>
    <rect class="cls-11" x="296.3" y="278.83" width="11.5" height="87.5" rx="5.75" ry="5.75" transform="translate(96 -68.36) rotate(15.33)"/>
    <rect class="cls-17" x="344.23" y="288.39" width="11.5" height="87.5" rx="5.75" ry="5.75" transform="translate(100.24 -80.69) rotate(15.33)"/>
    <rect class="cls-2" x="321.34" y="388.17" width="11.5" height="87.5" rx="5.75" ry="5.75" transform="translate(125.79 -71.09) rotate(15.33)"/>
    <rect class="cls-12" x="102.47" y="282.29" width="11.5" height="87.5" rx="5.75" ry="5.75" transform="translate(90.02 -17.01) rotate(15.33)"/>
    <rect class="cls-15" x="223.8" y="386.22" width="11.5" height="87.5" rx="5.75" ry="5.75" transform="translate(121.81 -45.38) rotate(15.33)"/>
    <rect class="cls-9" x="150.86" y="383.43" width="11.5" height="87.5" rx="5.75" ry="5.75" transform="translate(118.48 -26.2) rotate(15.33)"/>
    <rect class="cls-3" x="255.77" y="264.15" width="11.5" height="87.5" rx="5.75" ry="5.75" transform="translate(90.68 -58.17) rotate(15.33)"/>
    <rect class="cls-13" x="169.75" y="264.15" width="11.5" height="87.5" rx="5.75" ry="5.75" transform="translate(87.62 -35.44) rotate(15.33)"/>
    <rect class="cls-14" x="180.44" y="388.17" width="11.5" height="87.5" rx="5.75" ry="5.75" transform="translate(120.78 -33.85) rotate(15.33)"/>
  </g>
</svg>