<?xml version="1.0" encoding="UTF-8"?>
<svg id="_图层_1" data-name="图层 1" xmlns="http://www.w3.org/2000/svg" xmlns:xlink="http://www.w3.org/1999/xlink" viewBox="0 0 355.5 446.1">
  <defs>
    <style>
      .cls-1 {
        fill: url(#_未命名的渐变_25-3);
      }

      .cls-2 {
        fill: url(#_未命名的渐变_25-4);
      }

      .cls-3 {
        fill: url(#_未命名的渐变_25-5);
      }

      .cls-4 {
        fill: url(#_未命名的渐变_25);
      }

      .cls-5 {
        fill: url(#_未命名的渐变_25-2);
      }

      .cls-6 {
        fill: url(#_未命名的渐变_25-6);
      }
    </style>
    <linearGradient id="_未命名的渐变_25" data-name="未命名的渐变 25" x1="272.26" y1="163.75" x2="101.32" y2="-7.18" gradientUnits="userSpaceOnUse">
      <stop offset="0" stop-color="#969696"/>
      <stop offset="1" stop-color="#e6e6e6"/>
    </linearGradient>
    <linearGradient id="_未命名的渐变_25-2" data-name="未命名的渐变 25" x1="293.21" y1="-85.98" x2="79.57" y2="127.66" gradientTransform="translate(0 388.65) scale(1 -1)" xlink:href="#_未命名的渐变_25"/>
    <linearGradient id="_未命名的渐变_25-3" data-name="未命名的渐变 25" x1="276.29" y1="327.94" x2="189.91" y2="241.56" xlink:href="#_未命名的渐变_25"/>
    <linearGradient id="_未命名的渐变_25-4" data-name="未命名的渐变 25" x1="106.86" y1="314.76" x2="46.85" y2="254.75" xlink:href="#_未命名的渐变_25"/>
    <linearGradient id="_未命名的渐变_25-5" data-name="未命名的渐变 25" x1="239.36" y1="304.81" x2="75.84" y2="141.29" xlink:href="#_未命名的渐变_25"/>
    <linearGradient id="_未命名的渐变_25-6" data-name="未命名的渐变 25" x1="239.36" y1="243.11" x2="75.84" y2="79.58" xlink:href="#_未命名的渐变_25"/>
  </defs>
  <path class="cls-4" d="M355.5,56.94c0,31.19-25.09,56.53-56.18,56.92v.09H14.63v-.08c-7.86,0-14.23-6.38-14.23-14.23s6.38-14.23,14.23-14.23v-.08H296.51c.68,.06,1.37,.08,2.05,.08,.25,0,.5,0,.75-.02,15.37-.39,27.72-12.97,27.72-28.45s-12.74-28.47-28.47-28.47c-7.86,0-14.23-6.38-14.23-14.23s6.38-14.23,14.23-14.23c31.44,0,56.94,25.48,56.94,56.94Z"/>
  <path class="cls-5" d="M355.1,389.16c0-31.19-25.09-56.53-56.18-56.92v-.09H14.23v.08C6.38,332.23,0,338.6,0,346.46s6.38,14.23,14.23,14.23v.08H296.11c.68-.06,1.37-.08,2.05-.08,.25,0,.5,0,.75,.02,15.37,.39,27.72,12.97,27.72,28.45s-12.74,28.47-28.47,28.47c-7.86,0-14.23,6.38-14.23,14.23s6.38,14.23,14.23,14.23c31.44,0,56.94-25.48,56.94-56.94Z"/>
  <g>
    <rect class="cls-1" x="152.65" y="270.44" width="160.91" height="28.62" rx="14.31" ry="14.31"/>
    <rect class="cls-2" x="22.77" y="270.44" width="108.17" height="28.62" rx="14.31" ry="14.31"/>
  </g>
  <rect class="cls-3" x="0" y="208.74" width="315.2" height="28.62" rx="14.31" ry="14.31"/>
  <rect class="cls-6" x="0" y="147.04" width="315.2" height="28.62" rx="14.31" ry="14.31"/>
</svg>