<?xml version="1.0" encoding="UTF-8"?>
<svg id="_图层_1" data-name="图层 1" xmlns="http://www.w3.org/2000/svg" xmlns:xlink="http://www.w3.org/1999/xlink" viewBox="0 0 500 500">
  <defs>
    <style>
      .cls-1 {
        fill: url(#_未命名的渐变_35-5);
      }

      .cls-2 {
        fill: url(#_未命名的渐变_31);
      }

      .cls-3 {
        fill: url(#_未命名的渐变_35-2);
      }

      .cls-4 {
        fill: url(#_未命名的渐变_31-3);
      }

      .cls-5 {
        fill: url(#_未命名的渐变_31-2);
      }

      .cls-6 {
        fill: url(#_未命名的渐变_35-10);
      }

      .cls-7 {
        fill: url(#_未命名的渐变_35-7);
      }

      .cls-8 {
        fill: url(#_未命名的渐变_31-4);
      }

      .cls-9 {
        fill: url(#_未命名的渐变_35);
      }

      .cls-10 {
        fill: url(#_未命名的渐变_35-8);
      }

      .cls-11 {
        fill: url(#_未命名的渐变_35-4);
      }

      .cls-12 {
        fill: url(#_未命名的渐变_35-6);
      }

      .cls-13 {
        fill: url(#_未命名的渐变_35-3);
      }

      .cls-14 {
        fill: url(#_未命名的渐变_35-9);
      }
    </style>
    <linearGradient id="_未命名的渐变_35" data-name="未命名的渐变 35" x1="151.07" y1="336.96" x2="89.59" y2="275.48" gradientUnits="userSpaceOnUse">
      <stop offset="0" stop-color="#bdb8b5"/>
      <stop offset="1" stop-color="#e6e6e6"/>
    </linearGradient>
    <linearGradient id="_未命名的渐变_35-2" data-name="未命名的渐变 35" x1="379.62" y1="352.4" x2="287.25" y2="260.03" xlink:href="#_未命名的渐变_35"/>
    <linearGradient id="_未命名的渐变_35-3" data-name="未命名的渐变 35" x1="153.96" y1="275.51" x2="102.03" y2="223.58" xlink:href="#_未命名的渐变_35"/>
    <linearGradient id="_未命名的渐变_35-4" data-name="未命名的渐变 35" x1="397.79" y1="295.67" x2="305.53" y2="203.42" xlink:href="#_未命名的渐变_35"/>
    <linearGradient id="_未命名的渐变_35-5" data-name="未命名的渐变 35" x1="229.21" y1="257.26" x2="100.44" y2="128.49" xlink:href="#_未命名的渐变_35"/>
    <linearGradient id="_未命名的渐变_35-6" data-name="未命名的渐变 35" x1="184.66" y1="178.14" x2="100.78" y2="94.26" xlink:href="#_未命名的渐变_35"/>
    <linearGradient id="_未命名的渐变_35-7" data-name="未命名的渐变 35" x1="389.79" y1="172.22" x2="317.75" y2="100.19" xlink:href="#_未命名的渐变_35"/>
    <linearGradient id="_未命名的渐变_31" data-name="未命名的渐变 31" x1="233.08" y1="259.67" x2="212.84" y2="239.42" gradientUnits="userSpaceOnUse">
      <stop offset="0" stop-color="#c8c8f0"/>
      <stop offset="1" stop-color="#f0f0ff"/>
    </linearGradient>
    <linearGradient id="_未命名的渐变_35-8" data-name="未命名的渐变 35" x1="243.97" y1="424.6" x2="120.55" y2="301.18" xlink:href="#_未命名的渐变_35"/>
    <linearGradient id="_未命名的渐变_35-9" data-name="未命名的渐变 35" x1="416.17" y1="218.13" x2="365.66" y2="167.62" xlink:href="#_未命名的渐变_35"/>
    <linearGradient id="_未命名的渐变_31-2" data-name="未命名的渐变 31" x1="218.77" y1="316.34" x2="198.53" y2="296.1" xlink:href="#_未命名的渐变_31"/>
    <linearGradient id="_未命名的渐变_31-3" data-name="未命名的渐变 31" x1="334.89" y1="373.01" x2="314.65" y2="352.77" xlink:href="#_未命名的渐变_31"/>
    <linearGradient id="_未命名的渐变_35-10" data-name="未命名的渐变 35" x1="435.41" y1="393.07" x2="375.04" y2="332.71" xlink:href="#_未命名的渐变_35"/>
    <linearGradient id="_未命名的渐变_31-4" data-name="未命名的渐变 31" x1="326.79" y1="203" x2="306.55" y2="182.75" xlink:href="#_未命名的渐变_31"/>
  </defs>
  <rect class="cls-9" x="64.78" y="291.9" width="111.1" height="28.63" rx="14.31" ry="14.31"/>
  <rect class="cls-3" x="246.99" y="291.9" width="172.88" height="28.63" rx="14.31" ry="14.31"/>
  <rect class="cls-13" x="81.99" y="235.23" width="92.01" height="28.63" rx="14.31" ry="14.31"/>
  <rect class="cls-11" x="265.33" y="235.23" width="172.66" height="28.63" rx="14.31" ry="14.31"/>
  <rect class="cls-1" x="41.99" y="178.56" width="245.68" height="28.63" rx="14.31" ry="14.31"/>
  <rect class="cls-12" x="64.78" y="121.89" width="155.89" height="28.63" rx="14.31" ry="14.31"/>
  <rect class="cls-7" x="287.67" y="121.89" width="132.21" height="28.63" rx="14.31" ry="14.31"/>
  <circle class="cls-2" cx="222.96" cy="249.55" r="14.31"/>
  <rect class="cls-10" x="64.78" y="348.58" width="234.97" height="28.63" rx="14.31" ry="14.31"/>
  <rect class="cls-14" x="346.33" y="178.56" width="89.16" height="28.63" rx="14.31" ry="14.31"/>
  <circle class="cls-5" cx="208.65" cy="306.22" r="14.31"/>
  <circle class="cls-4" cx="324.77" cy="362.89" r="14.31"/>
  <rect class="cls-6" x="350.79" y="348.58" width="108.88" height="28.63" rx="14.31" ry="14.31"/>
  <circle class="cls-8" cx="316.67" cy="192.87" r="14.31"/>
</svg>