<?xml version="1.0" encoding="UTF-8"?>
<svg id="_图层_1" data-name="图层 1" xmlns="http://www.w3.org/2000/svg" xmlns:xlink="http://www.w3.org/1999/xlink" viewBox="0 0 417.68 255.32">
  <defs>
    <style>
      .cls-1 {
        fill: url(#_未命名的渐变_35-5);
      }

      .cls-2 {
        fill: url(#_未命名的渐变_31);
      }

      .cls-3 {
        fill: url(#_未命名的渐变_35-2);
      }

      .cls-4 {
        fill: url(#_未命名的渐变_31-3);
      }

      .cls-5 {
        fill: url(#_未命名的渐变_31-2);
      }

      .cls-6 {
        fill: url(#_未命名的渐变_35-10);
      }

      .cls-7 {
        fill: url(#_未命名的渐变_35-7);
      }

      .cls-8 {
        fill: url(#_未命名的渐变_31-4);
      }

      .cls-9 {
        fill: url(#_未命名的渐变_35);
      }

      .cls-10 {
        fill: url(#_未命名的渐变_35-8);
      }

      .cls-11 {
        fill: url(#_未命名的渐变_35-4);
      }

      .cls-12 {
        fill: url(#_未命名的渐变_35-6);
      }

      .cls-13 {
        fill: url(#_未命名的渐变_35-3);
      }

      .cls-14 {
        fill: url(#_未命名的渐变_35-9);
      }
    </style>
    <linearGradient id="_未命名的渐变_35" data-name="未命名的渐变 35" x1="109.08" y1="215.07" x2="47.6" y2="153.59" gradientUnits="userSpaceOnUse">
      <stop offset="0" stop-color="#bdb8b5"/>
      <stop offset="1" stop-color="#e6e6e6"/>
    </linearGradient>
    <linearGradient id="_未命名的渐变_35-2" data-name="未命名的渐变 35" x1="337.63" y1="230.51" x2="245.26" y2="138.14" xlink:href="#_未命名的渐变_35"/>
    <linearGradient id="_未命名的渐变_35-3" data-name="未命名的渐变 35" x1="111.97" y1="153.62" x2="60.04" y2="101.69" xlink:href="#_未命名的渐变_35"/>
    <linearGradient id="_未命名的渐变_35-4" data-name="未命名的渐变 35" x1="355.8" y1="173.79" x2="263.54" y2="81.53" xlink:href="#_未命名的渐变_35"/>
    <linearGradient id="_未命名的渐变_35-5" data-name="未命名的渐变 35" x1="187.22" y1="135.37" x2="58.45" y2="6.6" xlink:href="#_未命名的渐变_35"/>
    <linearGradient id="_未命名的渐变_35-6" data-name="未命名的渐变 35" x1="142.67" y1="56.25" x2="58.79" y2="-27.62" xlink:href="#_未命名的渐变_35"/>
    <linearGradient id="_未命名的渐变_35-7" data-name="未命名的渐变 35" x1="347.79" y1="50.33" x2="275.76" y2="-21.7" xlink:href="#_未命名的渐变_35"/>
    <linearGradient id="_未命名的渐变_31" data-name="未命名的渐变 31" x1="191.09" y1="137.78" x2="170.85" y2="117.54" gradientUnits="userSpaceOnUse">
      <stop offset="0" stop-color="#c8c8f0"/>
      <stop offset="1" stop-color="#f0f0ff"/>
    </linearGradient>
    <linearGradient id="_未命名的渐变_35-8" data-name="未命名的渐变 35" x1="201.98" y1="302.71" x2="78.56" y2="179.29" xlink:href="#_未命名的渐变_35"/>
    <linearGradient id="_未命名的渐变_35-9" data-name="未命名的渐变 35" x1="374.18" y1="96.24" x2="323.67" y2="45.73" xlink:href="#_未命名的渐变_35"/>
    <linearGradient id="_未命名的渐变_31-2" data-name="未命名的渐变 31" x1="176.78" y1="194.45" x2="156.54" y2="174.21" xlink:href="#_未命名的渐变_31"/>
    <linearGradient id="_未命名的渐变_31-3" data-name="未命名的渐变 31" x1="292.9" y1="251.12" x2="272.66" y2="230.88" xlink:href="#_未命名的渐变_31"/>
    <linearGradient id="_未命名的渐变_35-10" data-name="未命名的渐变 35" x1="393.42" y1="271.19" x2="333.05" y2="210.82" xlink:href="#_未命名的渐变_35"/>
    <linearGradient id="_未命名的渐变_31-4" data-name="未命名的渐变 31" x1="284.8" y1="81.11" x2="264.56" y2="60.86" xlink:href="#_未命名的渐变_31"/>
  </defs>
  <rect class="cls-9" x="22.78" y="170.02" width="111.1" height="28.63" rx="14.31" ry="14.31"/>
  <rect class="cls-3" x="205" y="170.02" width="172.88" height="28.63" rx="14.31" ry="14.31"/>
  <rect class="cls-13" x="40" y="113.34" width="92.01" height="28.63" rx="14.31" ry="14.31"/>
  <rect class="cls-11" x="223.34" y="113.34" width="172.66" height="28.63" rx="14.31" ry="14.31"/>
  <rect class="cls-1" x="0" y="56.67" width="245.68" height="28.63" rx="14.31" ry="14.31"/>
  <rect class="cls-12" x="22.78" y="0" width="155.89" height="28.63" rx="14.31" ry="14.31"/>
  <rect class="cls-7" x="245.68" y="0" width="132.21" height="28.63" rx="14.31" ry="14.31"/>
  <circle class="cls-2" cx="180.97" cy="127.66" r="14.31"/>
  <rect class="cls-10" x="22.78" y="226.69" width="234.97" height="28.63" rx="14.31" ry="14.31"/>
  <rect class="cls-14" x="304.34" y="56.67" width="89.16" height="28.63" rx="14.31" ry="14.31"/>
  <circle class="cls-5" cx="166.66" cy="184.33" r="14.31"/>
  <circle class="cls-4" cx="282.78" cy="241" r="14.31"/>
  <rect class="cls-6" x="308.8" y="226.69" width="108.88" height="28.63" rx="14.31" ry="14.31"/>
  <circle class="cls-8" cx="274.68" cy="70.99" r="14.31"/>
</svg>