<?xml version="1.0" encoding="UTF-8"?>
<svg id="_图层_1" data-name="图层 1" xmlns="http://www.w3.org/2000/svg" xmlns:xlink="http://www.w3.org/1999/xlink" viewBox="0 0 421.02 255.32">
  <defs>
    <style>
      .cls-1 {
        fill: url(#_未命名的渐变_64-4);
      }

      .cls-2 {
        fill: url(#_未命名的渐变_35-5);
      }

      .cls-3 {
        fill: url(#_未命名的渐变_64-2);
      }

      .cls-4 {
        fill: url(#_未命名的渐变_35-2);
      }

      .cls-5 {
        fill: url(#_未命名的渐变_64-7);
      }

      .cls-6 {
        fill: url(#_未命名的渐变_64-6);
      }

      .cls-7 {
        fill: url(#_未命名的渐变_35-12);
      }

      .cls-8 {
        fill: url(#_未命名的渐变_64-5);
      }

      .cls-9 {
        fill: url(#_未命名的渐变_35-10);
      }

      .cls-10 {
        fill: url(#_未命名的渐变_35-7);
      }

      .cls-11 {
        fill: url(#_未命名的渐变_35);
      }

      .cls-12 {
        fill: url(#_未命名的渐变_35-8);
      }

      .cls-13 {
        fill: url(#_未命名的渐变_35-14);
      }

      .cls-14 {
        fill: url(#_未命名的渐变_35-13);
      }

      .cls-15 {
        fill: url(#_未命名的渐变_64-3);
      }

      .cls-16 {
        fill: url(#_未命名的渐变_35-4);
      }

      .cls-17 {
        fill: url(#_未命名的渐变_35-11);
      }

      .cls-18 {
        fill: url(#_未命名的渐变_35-6);
      }

      .cls-19 {
        fill: url(#_未命名的渐变_35-3);
      }

      .cls-20 {
        fill: url(#_未命名的渐变_35-9);
      }

      .cls-21 {
        fill: url(#_未命名的渐变_64);
      }
    </style>
    <linearGradient id="_未命名的渐变_35" data-name="未命名的渐变 35" x1="224.98" y1="220.56" x2="152.52" y2="148.1" gradientUnits="userSpaceOnUse">
      <stop offset="0" stop-color="#bdb8b5"/>
      <stop offset="1" stop-color="#e6e6e6"/>
    </linearGradient>
    <linearGradient id="_未命名的渐变_35-2" data-name="未命名的渐变 35" x1="358.71" y1="211.74" x2="303.88" y2="156.92" xlink:href="#_未命名的渐变_35"/>
    <linearGradient id="_未命名的渐变_35-3" data-name="未命名的渐变 35" x1="118.8" y1="155.13" x2="63.85" y2="100.19" xlink:href="#_未命名的渐变_35"/>
    <linearGradient id="_未命名的渐变_35-4" data-name="未命名的渐变 35" x1="256.26" y1="146.36" x2="218.86" y2="108.96" xlink:href="#_未命名的渐变_35"/>
    <linearGradient id="_未命名的渐变_35-5" data-name="未命名的渐变 35" x1="201.28" y1="98.05" x2="147.15" y2="43.92" xlink:href="#_未命名的渐变_35"/>
    <linearGradient id="_未命名的渐变_35-6" data-name="未命名的渐变 35" x1="356.02" y1="101.09" x2="295.82" y2="40.88" xlink:href="#_未命名的渐变_35"/>
    <linearGradient id="_未命名的渐变_35-7" data-name="未命名的渐变 35" x1="105.37" y1="43.05" x2="47.9" y2="-14.42" xlink:href="#_未命名的渐变_35"/>
    <linearGradient id="_未命名的渐变_35-8" data-name="未命名的渐变 35" x1="258.74" y1="42.16" x2="203.05" y2="-13.53" xlink:href="#_未命名的渐变_35"/>
    <linearGradient id="_未命名的渐变_64" data-name="未命名的渐变 64" x1="182.83" y1="137.78" x2="162.59" y2="117.54" gradientUnits="userSpaceOnUse">
      <stop offset="0" stop-color="#507950"/>
      <stop offset="1" stop-color="#b4dbb4"/>
    </linearGradient>
    <linearGradient id="_未命名的渐变_64-2" data-name="未命名的渐变 64" x1="98.28" y1="194.45" x2="78.04" y2="174.21" xlink:href="#_未命名的渐变_64"/>
    <linearGradient id="_未命名的渐变_35-9" data-name="未命名的渐变 35" x1="186.66" y1="296.83" x2="75" y2="185.17" xlink:href="#_未命名的渐变_35"/>
    <linearGradient id="_未命名的渐变_64-3" data-name="未命名的渐变 64" x1="164.77" y1="24.43" x2="144.53" y2="4.19" xlink:href="#_未命名的渐变_64"/>
    <linearGradient id="_未命名的渐变_64-4" data-name="未命名的渐变 64" x1="320.38" y1="24.43" x2="300.14" y2="4.19" xlink:href="#_未命名的渐变_64"/>
    <linearGradient id="_未命名的渐变_35-10" data-name="未命名的渐变 35" x1="397.4" y1="35.89" x2="354.24" y2="-7.27" xlink:href="#_未命名的渐变_35"/>
    <linearGradient id="_未命名的渐变_35-11" data-name="未命名的渐变 35" x1="48.89" y1="199.84" x2="17.87" y2="168.82" xlink:href="#_未命名的渐变_35"/>
    <linearGradient id="_未命名的渐变_35-12" data-name="未命名的渐变 35" x1="390.12" y1="277.83" x2="316.46" y2="204.17" xlink:href="#_未命名的渐变_35"/>
    <linearGradient id="_未命名的渐变_64-5" data-name="未命名的渐变 64" x1="273.21" y1="251.12" x2="252.97" y2="230.88" xlink:href="#_未命名的渐变_64"/>
    <linearGradient id="_未命名的渐变_64-6" data-name="未命名的渐变 64" x1="112.6" y1="81.11" x2="92.36" y2="60.86" xlink:href="#_未命名的渐变_64"/>
    <linearGradient id="_未命名的渐变_35-13" data-name="未命名的渐变 35" x1="60.44" y1="93.11" x2="16.19" y2="48.86" xlink:href="#_未命名的渐变_35"/>
    <linearGradient id="_未命名的渐变_35-14" data-name="未命名的渐变 35" x1="394.92" y1="153.09" x2="344.97" y2="103.13" xlink:href="#_未命名的渐变_35"/>
    <linearGradient id="_未命名的渐变_64-7" data-name="未命名的渐变 64" x1="301.84" y1="138.23" x2="281.6" y2="117.99" xlink:href="#_未命名的渐变_64"/>
  </defs>
  <rect class="cls-11" x="122.22" y="170.02" width="133.07" height="28.63" rx="14.31" ry="14.31"/>
  <rect class="cls-4" x="282.4" y="170.02" width="97.79" height="28.63" rx="14.31" ry="14.31"/>
  <rect class="cls-19" x="42.31" y="113.34" width="98.03" height="28.63" rx="14.31" ry="14.31"/>
  <rect class="cls-16" x="206.09" y="113.34" width="62.95" height="28.63" rx="14.31" ry="14.31"/>
  <rect class="cls-2" x="126.01" y="56.67" width="96.41" height="28.63" rx="14.31" ry="14.31"/>
  <rect class="cls-18" x="271.64" y="56.67" width="108.55" height="28.63" rx="14.31" ry="14.31"/>
  <rect class="cls-10" x="25.09" y="0" width="103.08" height="28.63" rx="14.31" ry="14.31"/>
  <rect class="cls-12" x="181.13" y="0" width="99.53" height="28.63" rx="14.31" ry="14.31"/>
  <circle class="cls-21" cx="172.71" cy="127.66" r="14.31"/>
  <circle class="cls-3" cx="88.16" cy="184.33" r="14.31"/>
  <rect class="cls-20" x="25.09" y="226.69" width="211.46" height="28.63" rx="14.31" ry="14.31"/>
  <circle class="cls-15" cx="154.65" cy="14.31" r="14.31"/>
  <circle class="cls-1" cx="310.26" cy="14.31" r="14.31"/>
  <rect class="cls-9" x="338.59" y="0" width="74.47" height="28.63" rx="14.31" ry="14.31"/>
  <rect class="cls-17" x="8.29" y="170.02" width="50.19" height="28.63" rx="14.31" ry="14.31"/>
  <rect class="cls-7" x="285.56" y="226.69" width="135.46" height="28.63" rx="14.31" ry="14.31"/>
  <circle class="cls-8" cx="263.09" cy="241" r="14.31"/>
  <circle class="cls-6" cx="102.48" cy="70.99" r="14.31"/>
  <rect class="cls-14" x="0" y="56.67" width="76.64" height="28.63" rx="14.31" ry="14.31"/>
  <rect class="cls-13" x="325.92" y="113.8" width="88.06" height="28.63" rx="14.31" ry="14.31"/>
  <circle class="cls-5" cx="291.72" cy="128.11" r="14.31"/>
</svg>