<?xml version="1.0" encoding="UTF-8"?>
<svg id="_图层_1" data-name="图层 1" xmlns="http://www.w3.org/2000/svg" xmlns:xlink="http://www.w3.org/1999/xlink" viewBox="0 0 500 500">
  <defs>
    <style>
      .cls-1 {
        fill: url(#_未命名的渐变_64-4);
      }

      .cls-2 {
        fill: url(#_未命名的渐变_35-5);
      }

      .cls-3 {
        fill: url(#_未命名的渐变_64-2);
      }

      .cls-4 {
        fill: url(#_未命名的渐变_35-2);
      }

      .cls-5 {
        fill: url(#_未命名的渐变_64-7);
      }

      .cls-6 {
        fill: url(#_未命名的渐变_64-6);
      }

      .cls-7 {
        fill: url(#_未命名的渐变_35-12);
      }

      .cls-8 {
        fill: url(#_未命名的渐变_64-5);
      }

      .cls-9 {
        fill: url(#_未命名的渐变_35-10);
      }

      .cls-10 {
        fill: url(#_未命名的渐变_35-7);
      }

      .cls-11 {
        fill: url(#_未命名的渐变_35);
      }

      .cls-12 {
        fill: url(#_未命名的渐变_35-8);
      }

      .cls-13 {
        fill: url(#_未命名的渐变_35-14);
      }

      .cls-14 {
        fill: url(#_未命名的渐变_35-13);
      }

      .cls-15 {
        fill: url(#_未命名的渐变_64-3);
      }

      .cls-16 {
        fill: url(#_未命名的渐变_35-4);
      }

      .cls-17 {
        fill: url(#_未命名的渐变_35-11);
      }

      .cls-18 {
        fill: url(#_未命名的渐变_35-6);
      }

      .cls-19 {
        fill: url(#_未命名的渐变_35-3);
      }

      .cls-20 {
        fill: url(#_未命名的渐变_35-9);
      }

      .cls-21 {
        fill: url(#_未命名的渐变_64);
      }
    </style>
    <linearGradient id="_未命名的渐变_35" data-name="未命名的渐变 35" x1="264.47" y1="342.9" x2="192.01" y2="270.44" gradientUnits="userSpaceOnUse">
      <stop offset="0" stop-color="#bdb8b5"/>
      <stop offset="1" stop-color="#e6e6e6"/>
    </linearGradient>
    <linearGradient id="_未命名的渐变_35-2" data-name="未命名的渐变 35" x1="398.2" y1="334.08" x2="343.37" y2="279.26" xlink:href="#_未命名的渐变_35"/>
    <linearGradient id="_未命名的渐变_35-3" data-name="未命名的渐变 35" x1="158.29" y1="277.47" x2="103.34" y2="222.53" xlink:href="#_未命名的渐变_35"/>
    <linearGradient id="_未命名的渐变_35-4" data-name="未命名的渐变 35" x1="295.75" y1="268.7" x2="258.35" y2="231.3" xlink:href="#_未命名的渐变_35"/>
    <linearGradient id="_未命名的渐变_35-5" data-name="未命名的渐变 35" x1="240.77" y1="220.4" x2="186.64" y2="166.26" xlink:href="#_未命名的渐变_35"/>
    <linearGradient id="_未命名的渐变_35-6" data-name="未命名的渐变 35" x1="395.51" y1="223.43" x2="335.31" y2="163.23" xlink:href="#_未命名的渐变_35"/>
    <linearGradient id="_未命名的渐变_35-7" data-name="未命名的渐变 35" x1="144.86" y1="165.39" x2="87.39" y2="107.92" xlink:href="#_未命名的渐变_35"/>
    <linearGradient id="_未命名的渐变_35-8" data-name="未命名的渐变 35" x1="298.23" y1="164.5" x2="242.54" y2="108.81" xlink:href="#_未命名的渐变_35"/>
    <linearGradient id="_未命名的渐变_64" data-name="未命名的渐变 64" x1="222.32" y1="260.12" x2="202.08" y2="239.88" gradientUnits="userSpaceOnUse">
      <stop offset="0" stop-color="#507950"/>
      <stop offset="1" stop-color="#b4dbb4"/>
    </linearGradient>
    <linearGradient id="_未命名的渐变_64-2" data-name="未命名的渐变 64" x1="137.77" y1="316.79" x2="117.53" y2="296.55" xlink:href="#_未命名的渐变_64"/>
    <linearGradient id="_未命名的渐变_35-9" data-name="未命名的渐变 35" x1="226.15" y1="419.17" x2="114.49" y2="307.51" xlink:href="#_未命名的渐变_35"/>
    <linearGradient id="_未命名的渐变_64-3" data-name="未命名的渐变 64" x1="204.26" y1="146.78" x2="184.02" y2="126.53" xlink:href="#_未命名的渐变_64"/>
    <linearGradient id="_未命名的渐变_64-4" data-name="未命名的渐变 64" x1="359.87" y1="146.78" x2="339.63" y2="126.53" xlink:href="#_未命名的渐变_64"/>
    <linearGradient id="_未命名的渐变_35-10" data-name="未命名的渐变 35" x1="436.89" y1="158.24" x2="393.73" y2="115.07" xlink:href="#_未命名的渐变_35"/>
    <linearGradient id="_未命名的渐变_35-11" data-name="未命名的渐变 35" x1="88.38" y1="322.18" x2="57.36" y2="291.16" xlink:href="#_未命名的渐变_35"/>
    <linearGradient id="_未命名的渐变_35-12" data-name="未命名的渐变 35" x1="429.61" y1="400.17" x2="355.95" y2="326.52" xlink:href="#_未命名的渐变_35"/>
    <linearGradient id="_未命名的渐变_64-5" data-name="未命名的渐变 64" x1="312.7" y1="373.47" x2="292.46" y2="353.22" xlink:href="#_未命名的渐变_64"/>
    <linearGradient id="_未命名的渐变_64-6" data-name="未命名的渐变 64" x1="152.09" y1="203.45" x2="131.84" y2="183.21" xlink:href="#_未命名的渐变_64"/>
    <linearGradient id="_未命名的渐变_35-13" data-name="未命名的渐变 35" x1="99.93" y1="215.45" x2="55.68" y2="171.2" xlink:href="#_未命名的渐变_35"/>
    <linearGradient id="_未命名的渐变_35-14" data-name="未命名的渐变 35" x1="434.41" y1="275.43" x2="384.46" y2="225.48" xlink:href="#_未命名的渐变_35"/>
    <linearGradient id="_未命名的渐变_64-7" data-name="未命名的渐变 64" x1="341.33" y1="260.58" x2="321.09" y2="240.33" xlink:href="#_未命名的渐变_64"/>
  </defs>
  <rect class="cls-11" x="161.71" y="292.36" width="133.07" height="28.63" rx="14.31" ry="14.31"/>
  <rect class="cls-4" x="321.89" y="292.36" width="97.79" height="28.63" rx="14.31" ry="14.31"/>
  <rect class="cls-19" x="81.8" y="235.69" width="98.03" height="28.63" rx="14.31" ry="14.31"/>
  <rect class="cls-16" x="245.58" y="235.69" width="62.95" height="28.63" rx="14.31" ry="14.31"/>
  <rect class="cls-2" x="165.5" y="179.01" width="96.41" height="28.63" rx="14.31" ry="14.31"/>
  <rect class="cls-18" x="311.13" y="179.01" width="108.55" height="28.63" rx="14.31" ry="14.31"/>
  <rect class="cls-10" x="64.58" y="122.34" width="103.08" height="28.63" rx="14.31" ry="14.31"/>
  <rect class="cls-12" x="220.62" y="122.34" width="99.53" height="28.63" rx="14.31" ry="14.31"/>
  <circle class="cls-21" cx="212.2" cy="250" r="14.31"/>
  <circle class="cls-3" cx="127.65" cy="306.67" r="14.31"/>
  <rect class="cls-20" x="64.58" y="349.03" width="211.46" height="28.63" rx="14.31" ry="14.31"/>
  <circle class="cls-15" cx="194.14" cy="136.66" r="14.31"/>
  <circle class="cls-1" cx="349.75" cy="136.66" r="14.31"/>
  <rect class="cls-9" x="378.08" y="122.34" width="74.47" height="28.63" rx="14.31" ry="14.31"/>
  <rect class="cls-17" x="47.78" y="292.36" width="50.19" height="28.63" rx="14.31" ry="14.31"/>
  <rect class="cls-7" x="325.05" y="349.03" width="135.46" height="28.63" rx="14.31" ry="14.31"/>
  <circle class="cls-8" cx="302.58" cy="363.34" r="14.31"/>
  <circle class="cls-6" cx="141.97" cy="193.33" r="14.31"/>
  <rect class="cls-14" x="39.49" y="179.01" width="76.64" height="28.63" rx="14.31" ry="14.31"/>
  <rect class="cls-13" x="365.41" y="236.14" width="88.06" height="28.63" rx="14.31" ry="14.31"/>
  <circle class="cls-5" cx="331.21" cy="250.45" r="14.31"/>
</svg>