<?xml version="1.0" encoding="UTF-8"?>
<svg id="_图层_1" data-name="图层 1" xmlns="http://www.w3.org/2000/svg" xmlns:xlink="http://www.w3.org/1999/xlink" viewBox="0 0 500 500">
  <defs>
    <style>
      .cls-1 {
        fill: url(#_未命名的渐变_630-2);
      }

      .cls-2 {
        fill: url(#_未命名的渐变_630);
      }
    </style>
    <linearGradient id="_未命名的渐变_630" data-name="未命名的渐变 630" x1="399.45" y1="296.23" x2="227.04" y2="123.83" gradientUnits="userSpaceOnUse">
      <stop offset="0" stop-color="#969696"/>
      <stop offset=".6" stop-color="#cecece"/>
      <stop offset="1" stop-color="#f0f0f0"/>
    </linearGradient>
    <linearGradient id="_未命名的渐变_630-2" data-name="未命名的渐变 630" x1="381.14" y1="430.92" x2="125.17" y2="174.95" xlink:href="#_未命名的渐变_630"/>
  </defs>
  <path class="cls-2" d="M413.22,238.62c0,10.48-1.3,20.68-3.74,30.4,0,.03-.02,.06-.03,.11-.7,3.45-2.15,9.35-5.24,16.11-3.33,7.32-8.56,15.62-16.83,22.88-12.07,10.61-25.75,14.72-37.11,16.09-8.94,1.09-16.44,.47-20.54,0-.81-.11-1.48-.18-2.02-.26-9.77-1.28-19.16-4.51-27.92-9.37-22.4-12.44-40.54-35.58-49.91-64.34-7.17-27.11-25.6-44.38-27.89-46.41-3.87-3.42-20.57-16.93-44.79-21.29,20.51-40.68,62.67-68.57,111.35-68.57,57.92,0,106.61,39.49,120.61,93.02,2.66,10.1,4.07,20.71,4.07,31.63Z"/>
  <path class="cls-1" d="M479.16,295.32c0,50.11-40.61,90.72-90.72,90.72H96.35c-41.71,0-75.51-33.8-75.51-75.49,0-35.41,24.39-65.13,57.29-73.26,13.59-32.93,46.02-56.12,83.87-56.12,5.33,0,10.41,.5,15.19,1.38,24.22,4.36,40.93,17.87,44.79,21.29,2.29,2.03,20.72,19.3,27.89,46.41,9.37,28.76,27.51,51.9,49.91,64.34,8.76,4.86,18.16,8.08,27.92,9.37,.53,.08,1.21,.15,2.02,.26,4.1,.47,11.6,1.09,20.54,0,11.35-1.38,25.03-5.49,37.11-16.09,8.27-7.26,13.49-15.56,16.83-22.88,3.09-6.75,4.54-12.65,5.24-16.11,.02-.05,.03-.08,.03-.11,2.45-9.72,3.74-19.91,3.74-30.4s-1.41-21.53-4.07-31.63c40.13,9.35,70.01,45.36,70.01,88.33Z"/>
</svg>