<?xml version="1.0" encoding="UTF-8"?>
<svg id="_图层_1" data-name="图层 1" xmlns="http://www.w3.org/2000/svg" xmlns:xlink="http://www.w3.org/1999/xlink" viewBox="0 0 790.23 272.07">
  <defs>
    <style>
      .cls-1 {
        fill: url(#_未命名的渐变_630-2);
      }

      .cls-2 {
        fill: url(#_未命名的渐变_630);
      }

      .cls-3 {
        fill: url(#_未命名的渐变_488);
      }

      .cls-4 {
        fill: url(#_未命名的渐变_488-4);
      }

      .cls-5 {
        fill: url(#_未命名的渐变_488-3);
      }

      .cls-6 {
        fill: url(#_未命名的渐变_488-5);
      }

      .cls-7 {
        fill: url(#_未命名的渐变_488-7);
      }

      .cls-8 {
        fill: url(#_未命名的渐变_488-6);
      }

      .cls-9 {
        fill: url(#_未命名的渐变_488-2);
      }
    </style>
    <linearGradient id="_未命名的渐变_488" data-name="未命名的渐变 488" x1="769.66" y1="225.95" x2="765.58" y2="221.87" gradientUnits="userSpaceOnUse">
      <stop offset="0" stop-color="#b5c4db"/>
      <stop offset=".69" stop-color="#60daf4"/>
      <stop offset="1" stop-color="#3fe3ff"/>
    </linearGradient>
    <linearGradient id="_未命名的渐变_488-2" data-name="未命名的渐变 488" x1="574.67" y1="178.86" x2="504.8" y2="108.99" xlink:href="#_未命名的渐变_488"/>
    <linearGradient id="_未命名的渐变_488-3" data-name="未命名的渐变 488" x1="772.85" y1="175.94" x2="688.9" y2="91.99" xlink:href="#_未命名的渐变_488"/>
    <linearGradient id="_未命名的渐变_488-4" data-name="未命名的渐变 488" x1="693.2" y1="230.99" x2="577.41" y2="115.19" xlink:href="#_未命名的渐变_488"/>
    <linearGradient id="_未命名的渐变_488-5" data-name="未命名的渐变 488" x1="723.19" y1="154.55" x2="607.82" y2="39.19" xlink:href="#_未命名的渐变_488"/>
    <linearGradient id="_未命名的渐变_488-6" data-name="未命名的渐变 488" x1="624.65" y1="160.62" x2="540.7" y2="76.67" xlink:href="#_未命名的渐变_488"/>
    <linearGradient id="_未命名的渐变_488-7" data-name="未命名的渐变 488" x1="724.04" y1="148.59" x2="660.06" y2="84.6" xlink:href="#_未命名的渐变_488"/>
    <linearGradient id="_未命名的渐变_630" data-name="未命名的渐变 630" x1="378.61" y1="182.27" x2="206.2" y2="9.86" gradientUnits="userSpaceOnUse">
      <stop offset="0" stop-color="#969696"/>
      <stop offset=".6" stop-color="#cecece"/>
      <stop offset="1" stop-color="#f0f0f0"/>
    </linearGradient>
    <linearGradient id="_未命名的渐变_630-2" data-name="未命名的渐变 630" x1="360.3" y1="316.95" x2="104.33" y2="60.98" xlink:href="#_未命名的渐变_630"/>
  </defs>
  <g>
    <path class="cls-3" d="M771.61,223.63v.37h-8.16c2.75,0,5.47-.12,8.16-.37Z"/>
    <circle class="cls-9" cx="539.74" cy="143.92" r="49.4"/>
    <circle class="cls-5" cx="730.87" cy="133.96" r="59.36"/>
    <rect class="cls-4" x="539.74" y="152.86" width="191.13" height="40.46"/>
    <circle class="cls-6" cx="665.5" cy="96.87" r="81.57"/>
    <path class="cls-8" d="M642.06,118.62c0,32.79-26.58,59.36-59.36,59.36s-59.36-26.58-59.36-59.36,26.58-59.36,59.36-59.36c21.15,0,36.22,12.15,39.26,14.83,1.87,1.65,20.11,18.77,20.11,44.53Z"/>
    <path class="cls-7" d="M640.2,104.46c8.52,26.17,28.17,45.22,50.93,48.22,4.35,.57,23.7,3.12,39.04-10.36,10.45-9.18,13.51-20.93,14.46-25.57l-104.44-12.29Z"/>
  </g>
  <g>
    <path class="cls-2" d="M392.37,124.66c0,10.48-1.3,20.68-3.74,30.4,0,.03-.02,.06-.03,.11-.7,3.45-2.15,9.35-5.24,16.11-3.33,7.32-8.56,15.62-16.83,22.88-12.07,10.61-25.75,14.72-37.11,16.09-8.94,1.09-16.44,.47-20.54,0-.81-.11-1.48-.18-2.02-.26-9.77-1.28-19.16-4.51-27.92-9.37-22.4-12.44-40.54-35.58-49.91-64.34-7.17-27.11-25.6-44.38-27.89-46.41-3.87-3.42-20.57-16.93-44.79-21.29C176.86,27.89,219.03,0,267.7,0c57.92,0,106.61,39.49,120.61,93.02,2.66,10.1,4.07,20.71,4.07,31.63Z"/>
    <path class="cls-1" d="M458.32,181.36c0,50.11-40.61,90.72-90.72,90.72H75.51C33.8,272.07,0,238.27,0,196.58c0-35.41,24.39-65.13,57.29-73.26,13.59-32.93,46.02-56.12,83.87-56.12,5.33,0,10.41,.5,15.19,1.38,24.22,4.36,40.93,17.87,44.79,21.29,2.29,2.03,20.72,19.3,27.89,46.41,9.37,28.76,27.51,51.9,49.91,64.34,8.76,4.86,18.16,8.08,27.92,9.37,.53,.08,1.21,.15,2.02,.26,4.1,.47,11.6,1.09,20.54,0,11.35-1.38,25.03-5.49,37.11-16.09,8.27-7.26,13.49-15.56,16.83-22.88,3.09-6.75,4.54-12.65,5.24-16.11,.02-.05,.03-.08,.03-.11,2.45-9.72,3.74-19.91,3.74-30.4s-1.41-21.53-4.07-31.63c40.13,9.35,70.01,45.36,70.01,88.33Z"/>
  </g>
</svg>