<?xml version="1.0" encoding="UTF-8"?>
<svg id="_图层_1" data-name="图层 1" xmlns="http://www.w3.org/2000/svg" xmlns:xlink="http://www.w3.org/1999/xlink" viewBox="0 0 387.31 408.79">
  <defs>
    <style>
      .cls-1 {
        fill: url(#_未命名的渐变_630-2);
      }

      .cls-2 {
        fill: url(#_未命名的渐变_207-5);
      }

      .cls-3 {
        fill: url(#_未命名的渐变_207);
      }

      .cls-4 {
        fill: url(#_未命名的渐变_630);
      }

      .cls-5 {
        fill: url(#_未命名的渐变_207-3);
      }

      .cls-6 {
        fill: url(#_未命名的渐变_207-4);
      }

      .cls-7 {
        fill: url(#_未命名的渐变_207-2);
      }

      .cls-8 {
        fill: url(#_未命名的渐变_277);
      }
    </style>
    <linearGradient id="_未命名的渐变_277" data-name="未命名的渐变 277" x1="121.1" y1="150.65" x2="40.36" y2="10.8" gradientUnits="userSpaceOnUse">
      <stop offset="0" stop-color="#f70"/>
      <stop offset="1" stop-color="#ddff09"/>
    </linearGradient>
    <linearGradient id="_未命名的渐变_630" data-name="未命名的渐变 630" x1="327.68" y1="147.99" x2="198.71" y2="19.01" gradientUnits="userSpaceOnUse">
      <stop offset="0" stop-color="#969696"/>
      <stop offset=".6" stop-color="#cecece"/>
      <stop offset="1" stop-color="#f0f0f0"/>
    </linearGradient>
    <linearGradient id="_未命名的渐变_630-2" data-name="未命名的渐变 630" x1="313.99" y1="248.75" x2="122.5" y2="57.25" xlink:href="#_未命名的渐变_630"/>
    <linearGradient id="_未命名的渐变_207" data-name="未命名的渐变 207" x1="183.39" y1="383.58" x2="141.23" y2="369.04" gradientTransform="translate(-19.32 80.77) scale(1 .76)" gradientUnits="userSpaceOnUse">
      <stop offset="0" stop-color="#c0c4ff"/>
      <stop offset=".96" stop-color="#e0e2ff"/>
      <stop offset=".96" stop-color="#cae4ff"/>
      <stop offset=".99" stop-color="#76eeff"/>
      <stop offset="1" stop-color="#55f3ff"/>
    </linearGradient>
    <linearGradient id="_未命名的渐变_207-2" data-name="未命名的渐变 207" x1="300.13" y1="334.15" x2="257.96" y2="319.6" gradientTransform="translate(-13.55 112.96) scale(1 .76)" xlink:href="#_未命名的渐变_207"/>
    <linearGradient id="_未命名的渐变_207-3" data-name="未命名的渐变 207" x1="223.2" y1="299.16" x2="181.03" y2="284.61" gradientTransform="translate(-3.8 93.57) scale(1 .76)" xlink:href="#_未命名的渐变_207"/>
    <linearGradient id="_未命名的渐变_207-4" data-name="未命名的渐变 207" x1="162.5" y1="270.05" x2="120.34" y2="255.5" gradientTransform="translate(4.2 78.32) scale(1 .76)" xlink:href="#_未命名的渐变_207"/>
    <linearGradient id="_未命名的渐变_207-5" data-name="未命名的渐变 207" x1="277.08" y1="211.07" x2="234.91" y2="196.52" gradientTransform="translate(11.96 110.19) scale(1 .76)" xlink:href="#_未命名的渐变_207"/>
  </defs>
  <circle class="cls-8" cx="80.73" cy="80.73" r="80.73"/>
  <g>
    <path class="cls-4" d="M337.98,104.89c0,7.84-.97,15.47-2.8,22.74,0,.02-.01,.05-.02,.08-.53,2.58-1.61,7-3.92,12.05-2.49,5.48-6.4,11.68-12.59,17.11-9.03,7.93-19.26,11.01-27.76,12.04-6.69,.81-12.3,.35-15.37,0-.61-.08-1.11-.14-1.51-.19-7.31-.96-14.34-3.37-20.89-7.01-16.76-9.31-30.33-26.62-37.34-48.13-5.36-20.28-19.15-33.2-20.86-34.72-2.89-2.56-15.39-12.67-33.51-15.93,15.34-30.43,46.89-51.3,83.3-51.3,43.33,0,79.75,29.54,90.23,69.59,1.99,7.56,3.04,15.49,3.04,23.67Z"/>
    <path class="cls-1" d="M387.31,147.3c0,37.49-30.38,67.86-67.86,67.86H100.94c-31.2,0-56.49-25.29-56.49-56.48,0-26.49,18.25-48.73,42.86-54.81,10.16-24.64,34.42-41.98,62.74-41.98,3.99,0,7.79,.38,11.36,1.03,18.12,3.26,30.62,13.36,33.51,15.93,1.71,1.52,15.5,14.44,20.86,34.72,7.01,21.52,20.58,38.83,37.34,48.13,6.55,3.64,13.58,6.05,20.89,7.01,.4,.06,.9,.11,1.51,.19,3.06,.35,8.68,.81,15.37,0,8.49-1.03,18.73-4.1,27.76-12.04,6.19-5.43,10.1-11.64,12.59-17.11,2.31-5.05,3.4-9.47,3.92-12.05,.01-.03,.02-.06,.02-.08,1.83-7.27,2.8-14.9,2.8-22.74s-1.05-16.11-3.04-23.67c30.02,7,52.37,33.93,52.37,66.08Z"/>
  </g>
  <rect class="cls-3" x="137.24" y="322.64" width="11.5" height="87.5" rx="5.75" ry="5.75" transform="translate(101.93 -24.76) rotate(15.33)"/>
  <rect class="cls-7" x="259.74" y="317.31" width="11.5" height="87.5" rx="5.75" ry="5.75" transform="translate(104.87 -57.33) rotate(15.33)"/>
  <rect class="cls-5" x="192.57" y="271.36" width="11.5" height="87.5" rx="5.75" ry="5.75" transform="translate(90.34 -41.21) rotate(15.33)"/>
  <rect class="cls-6" x="139.87" y="234.01" width="11.5" height="87.5" rx="5.75" ry="5.75" transform="translate(78.59 -28.61) rotate(15.33)"/>
  <rect class="cls-2" x="262.2" y="221.12" width="11.5" height="87.5" rx="5.75" ry="5.75" transform="translate(79.54 -61.4) rotate(15.33)"/>
</svg>