<?xml version="1.0" encoding="UTF-8"?>
<svg id="_图层_1" data-name="图层 1" xmlns="http://www.w3.org/2000/svg" xmlns:xlink="http://www.w3.org/1999/xlink" viewBox="0 0 387.31 449.07">
  <defs>
    <style>
      .cls-1 {
        fill: url(#_未命名的渐变_630-2);
      }

      .cls-2 {
        fill: url(#_未命名的渐变_207);
      }

      .cls-3 {
        fill: url(#_未命名的渐变_630);
      }

      .cls-4 {
        fill: url(#_未命名的渐变_207-3);
      }

      .cls-5 {
        fill: url(#_未命名的渐变_144);
      }

      .cls-6 {
        fill: url(#_未命名的渐变_207-2);
      }

      .cls-7 {
        fill: url(#_未命名的渐变_144-2);
      }

      .cls-8 {
        fill: url(#_未命名的渐变_277);
      }
    </style>
    <linearGradient id="_未命名的渐变_277" data-name="未命名的渐变 277" x1="121.1" y1="150.65" x2="40.36" y2="10.8" gradientUnits="userSpaceOnUse">
      <stop offset="0" stop-color="#f70"/>
      <stop offset="1" stop-color="#ddff09"/>
    </linearGradient>
    <linearGradient id="_未命名的渐变_630" data-name="未命名的渐变 630" x1="327.68" y1="147.99" x2="198.71" y2="19.01" gradientUnits="userSpaceOnUse">
      <stop offset="0" stop-color="#969696"/>
      <stop offset=".6" stop-color="#cecece"/>
      <stop offset="1" stop-color="#f0f0f0"/>
    </linearGradient>
    <linearGradient id="_未命名的渐变_630-2" data-name="未命名的渐变 630" x1="313.99" y1="248.75" x2="122.5" y2="57.25" xlink:href="#_未命名的渐变_630"/>
    <linearGradient id="_未命名的渐变_144" data-name="未命名的渐变 144" x1="328.87" y1="341.64" x2="261.66" y2="274.44" gradientUnits="userSpaceOnUse">
      <stop offset="0" stop-color="#dcdcff"/>
      <stop offset="1" stop-color="#f5f5ff"/>
    </linearGradient>
    <linearGradient id="_未命名的渐变_207" data-name="未命名的渐变 207" x1="100.91" y1="410.19" x2="58.75" y2="395.64" gradientTransform="translate(-16.13 65.73) scale(1 .76)" gradientUnits="userSpaceOnUse">
      <stop offset="0" stop-color="#c0c4ff"/>
      <stop offset=".96" stop-color="#e0e2ff"/>
      <stop offset=".96" stop-color="#cae4ff"/>
      <stop offset=".99" stop-color="#76eeff"/>
      <stop offset="1" stop-color="#55f3ff"/>
    </linearGradient>
    <linearGradient id="_未命名的渐变_207-2" data-name="未命名的渐变 207" x1="225.9" y1="224.97" x2="183.74" y2="210.42" gradientTransform="translate(16.59 103.77) scale(1 .76)" xlink:href="#_未命名的渐变_207"/>
    <linearGradient id="_未命名的渐变_207-3" data-name="未命名的渐变 207" x1="354.16" y1="366.74" x2="312" y2="352.19" gradientTransform="translate(-16.42 133.84) scale(1 .76)" xlink:href="#_未命名的渐变_207"/>
    <linearGradient id="_未命名的渐变_144-2" data-name="未命名的渐变 144" x1="193.64" y1="386.82" x2="126.44" y2="319.61" xlink:href="#_未命名的渐变_144"/>
  </defs>
  <circle class="cls-8" cx="80.73" cy="80.73" r="80.73"/>
  <g>
    <path class="cls-3" d="M337.98,104.89c0,7.84-.97,15.47-2.8,22.74,0,.02-.01,.05-.02,.08-.53,2.58-1.61,7-3.92,12.05-2.49,5.48-6.4,11.68-12.59,17.11-9.03,7.93-19.26,11.01-27.76,12.04-6.69,.81-12.3,.35-15.37,0-.61-.08-1.11-.14-1.51-.19-7.31-.96-14.34-3.37-20.89-7.01-16.76-9.31-30.33-26.62-37.34-48.13-5.36-20.28-19.15-33.2-20.86-34.72-2.89-2.56-15.39-12.67-33.51-15.93,15.34-30.43,46.89-51.3,83.3-51.3,43.33,0,79.75,29.54,90.23,69.59,1.99,7.56,3.04,15.49,3.04,23.67Z"/>
    <path class="cls-1" d="M387.31,147.3c0,37.49-30.38,67.86-67.86,67.86H100.94c-31.2,0-56.49-25.29-56.49-56.48,0-26.49,18.25-48.73,42.86-54.81,10.16-24.64,34.42-41.98,62.74-41.98,3.99,0,7.79,.38,11.36,1.03,18.12,3.26,30.62,13.36,33.51,15.93,1.71,1.52,15.5,14.44,20.86,34.72,7.01,21.52,20.58,38.83,37.34,48.13,6.55,3.64,13.58,6.05,20.89,7.01,.4,.06,.9,.11,1.51,.19,3.06,.35,8.68,.81,15.37,0,8.49-1.03,18.73-4.1,27.76-12.04,6.19-5.43,10.1-11.64,12.59-17.11,2.31-5.05,3.4-9.47,3.92-12.05,.01-.03,.02-.06,.02-.08,1.83-7.27,2.8-14.9,2.8-22.74s-1.05-16.11-3.04-23.67c30.02,7,52.37,33.93,52.37,66.08Z"/>
  </g>
  <g>
    <path class="cls-5" d="M337.89,314.5l-19.07,3.36-17.01-9.82,17.01-9.82,19.07,3.36c1.37,.24,2.67-.67,2.91-2.04,.24-1.37-.67-2.67-2.04-2.91l-13.17-2.32,10.99-6.34c1.57-.9,2.1-2.9,1.2-4.47h0c-.9-1.57-2.9-2.1-4.47-1.2l-10.99,6.34,4.57-12.57c.47-1.3-.2-2.75-1.5-3.22-1.3-.47-2.75,.2-3.22,1.5l-6.62,18.2-17.01,9.82v-19.64l12.45-14.83c.89-1.06,.75-2.65-.31-3.54-1.06-.89-2.65-.75-3.54,.31l-8.6,10.24v-12.69c0-1.81-1.46-3.27-3.27-3.27h0c-1.81,0-3.27,1.46-3.27,3.27v12.69l-8.6-10.24c-.89-1.06-2.48-1.2-3.54-.31-1.06,.89-1.2,2.48-.31,3.54l12.45,14.83v19.64l-17.01-9.82-6.62-18.2c-.47-1.3-1.92-1.98-3.22-1.5-1.3,.47-1.98,1.92-1.5,3.22l4.57,12.57-10.99-6.34c-1.57-.9-3.57-.37-4.47,1.2h0c-.9,1.57-.37,3.57,1.2,4.47l10.99,6.34-13.17,2.32c-1.37,.24-2.28,1.54-2.04,2.91,.24,1.37,1.54,2.28,2.91,2.04l19.07-3.36,17.01,9.82-17.01,9.82-19.07-3.36c-1.37-.24-2.67,.67-2.91,2.04-.24,1.37,.67,2.67,2.04,2.91l13.17,2.32-10.99,6.34c-1.57,.9-2.1,2.9-1.2,4.47h0c.9,1.57,2.9,2.1,4.47,1.2l10.99-6.34-4.57,12.57c-.47,1.3,.2,2.75,1.5,3.22,1.3,.47,2.75-.2,3.22-1.5l6.62-18.2,17.01-9.82v19.64l-12.45,14.83c-.89,1.06-.75,2.65,.31,3.54,1.06,.89,2.65,.75,3.54-.31l8.6-10.24v12.69c0,1.81,1.46,3.27,3.27,3.27h0c1.81,0,3.27-1.46,3.27-3.27v-12.69l8.6,10.24c.89,1.06,2.48,1.2,3.54,.31,1.06-.89,1.2-2.48,.31-3.54l-12.45-14.83v-19.64l17.01,9.82,6.62,18.2c.47,1.3,1.92,1.98,3.22,1.5,1.3-.47,1.98-1.92,1.5-3.22l-4.57-12.57,10.99,6.34c1.57,.9,3.57,.37,4.47-1.2h0c.9-1.57,.37-3.57-1.2-4.47l-10.99-6.34,13.17-2.32c1.37-.24,2.28-1.54,2.04-2.91-.24-1.37-1.54-2.28-2.91-2.04Z"/>
    <rect class="cls-2" x="57.96" y="327.79" width="11.5" height="87.5" rx="5.75" ry="5.75" transform="translate(100.47 -3.63) rotate(15.33)"/>
    <rect class="cls-6" x="215.65" y="225.25" width="11.5" height="87.5" rx="5.75" ry="5.75" transform="translate(78.97 -48.95) rotate(15.33)"/>
    <rect class="cls-4" x="310.91" y="362.92" width="11.5" height="87.5" rx="5.75" ry="5.75" transform="translate(118.75 -69.24) rotate(15.33)"/>
    <path class="cls-7" d="M202.66,359.67l-19.07,3.36-17.01-9.82,17.01-9.82,19.07,3.36c1.37,.24,2.67-.67,2.91-2.04,.24-1.37-.67-2.67-2.04-2.91l-13.17-2.32,10.99-6.34c1.57-.9,2.1-2.9,1.2-4.47h0c-.9-1.57-2.9-2.1-4.47-1.2l-10.99,6.34,4.57-12.57c.47-1.3-.2-2.75-1.5-3.22-1.3-.47-2.75,.2-3.22,1.5l-6.62,18.2-17.01,9.82v-19.64l12.45-14.83c.89-1.06,.75-2.65-.31-3.54-1.06-.89-2.65-.75-3.54,.31l-8.6,10.24v-12.69c0-1.81-1.46-3.27-3.27-3.27h0c-1.81,0-3.27,1.46-3.27,3.27v12.69l-8.6-10.24c-.89-1.06-2.48-1.2-3.54-.31-1.06,.89-1.2,2.48-.31,3.54l12.45,14.83v19.64l-17.01-9.82-6.62-18.2c-.47-1.3-1.92-1.98-3.22-1.5-1.3,.47-1.98,1.92-1.5,3.22l4.57,12.57-10.99-6.34c-1.57-.9-3.57-.37-4.47,1.2h0c-.9,1.57-.37,3.57,1.2,4.47l10.99,6.34-13.17,2.32c-1.37,.24-2.28,1.54-2.04,2.91,.24,1.37,1.54,2.28,2.91,2.04l19.07-3.36,17.01,9.82-17.01,9.82-19.07-3.36c-1.37-.24-2.67,.67-2.91,2.04-.24,1.37,.67,2.67,2.04,2.91l13.17,2.32-10.99,6.34c-1.57,.9-2.1,2.9-1.2,4.47h0c.9,1.57,2.9,2.1,4.47,1.2l10.99-6.34-4.57,12.57c-.47,1.3,.2,2.75,1.5,3.22,1.3,.47,2.75-.2,3.22-1.5l6.62-18.2,17.01-9.82v19.64l-12.45,14.83c-.89,1.06-.75,2.65,.31,3.54,1.06,.89,2.65,.75,3.54-.31l8.6-10.24v12.69c0,1.81,1.46,3.27,3.27,3.27h0c1.81,0,3.27-1.46,3.27-3.27v-12.69l8.6,10.24c.89,1.06,2.48,1.2,3.54,.31,1.06-.89,1.2-2.48,.31-3.54l-12.45-14.83v-19.64l17.01,9.82,6.62,18.2c.47,1.3,1.92,1.98,3.22,1.5,1.3-.47,1.98-1.92,1.5-3.22l-4.57-12.57,10.99,6.34c1.57,.9,3.57,.37,4.47-1.2h0c.9-1.57,.37-3.57-1.2-4.47l-10.99-6.34,13.17-2.32c1.37-.24,2.28-1.54,2.04-2.91-.24-1.37-1.54-2.28-2.91-2.04Z"/>
  </g>
</svg>