<?xml version="1.0" encoding="UTF-8"?>
<svg id="_图层_1" data-name="图层 1" xmlns="http://www.w3.org/2000/svg" xmlns:xlink="http://www.w3.org/1999/xlink" viewBox="0 0 500 500">
  <defs>
    <style>
      .cls-1 {
        fill: url(#_未命名的渐变_630-2);
      }

      .cls-2 {
        fill: url(#_未命名的渐变_630);
      }

      .cls-3 {
        fill: url(#_未命名的渐变_144);
      }

      .cls-4 {
        fill: url(#_未命名的渐变_144-2);
      }
    </style>
    <linearGradient id="_未命名的渐变_630" data-name="未命名的渐变 630" x1="380.98" y1="196.47" x2="229.88" y2="45.37" gradientUnits="userSpaceOnUse">
      <stop offset="0" stop-color="#969696"/>
      <stop offset=".6" stop-color="#cecece"/>
      <stop offset="1" stop-color="#f0f0f0"/>
    </linearGradient>
    <linearGradient id="_未命名的渐变_630-2" data-name="未命名的渐变 630" x1="364.94" y1="314.51" x2="140.6" y2="90.17" xlink:href="#_未命名的渐变_630"/>
    <linearGradient id="_未命名的渐变_144" data-name="未命名的渐变 144" x1="153.37" y1="423.59" x2="102.96" y2="373.18" gradientTransform="translate(-158.46 128.94) rotate(-31.23)" gradientUnits="userSpaceOnUse">
      <stop offset="0" stop-color="#dcdcff"/>
      <stop offset="1" stop-color="#f5f5ff"/>
    </linearGradient>
    <linearGradient id="_未命名的渐变_144-2" data-name="未命名的渐变 144" x1="323.22" y1="390.43" x2="256.02" y2="323.22" gradientTransform="matrix(1, 0, 0, 1, 0, 0)" xlink:href="#_未命名的渐变_144"/>
  </defs>
  <path class="cls-2" d="M393.05,145.98c0,9.19-1.14,18.12-3.28,26.64,0,.03-.01,.05-.03,.09-.62,3.03-1.89,8.2-4.59,14.12-2.92,6.42-7.5,13.69-14.75,20.05-10.58,9.3-22.57,12.9-32.52,14.1-7.84,.95-14.41,.42-18,0-.71-.09-1.3-.16-1.77-.23-8.56-1.13-16.8-3.95-24.47-8.21-19.64-10.9-35.53-31.18-43.74-56.39-6.28-23.76-22.43-38.9-24.44-40.68-3.39-3-18.03-14.84-39.26-18.66,17.97-35.65,54.93-60.1,97.59-60.1,50.76,0,93.44,34.61,105.7,81.53,2.33,8.85,3.56,18.15,3.56,27.73Z"/>
  <path class="cls-1" d="M450.84,195.67c0,43.92-35.59,79.51-79.51,79.51H115.34c-36.55,0-66.18-29.63-66.18-66.17,0-31.03,21.38-57.08,50.21-64.21,11.91-28.86,40.33-49.18,73.51-49.18,4.67,0,9.12,.44,13.31,1.21,21.23,3.82,35.87,15.66,39.26,18.66,2.01,1.78,18.16,16.92,24.44,40.68,8.21,25.21,24.11,45.49,43.74,56.39,7.67,4.26,15.91,7.09,24.47,8.21,.47,.07,1.06,.13,1.77,.23,3.59,.42,10.17,.95,18,0,9.95-1.21,21.94-4.81,32.52-14.1,7.25-6.36,11.83-13.63,14.75-20.05,2.71-5.92,3.98-11.09,4.59-14.12,.01-.04,.03-.07,.03-.09,2.14-8.52,3.28-17.45,3.28-26.64s-1.23-18.87-3.56-27.73c35.17,8.2,61.36,39.75,61.36,77.42Z"/>
  <g>
    <path class="cls-3" d="M187.52,390.72l-10.92,9.57-14.73,.32,7.09-12.91,13.54-5.26c.97-.38,1.45-1.47,1.07-2.44-.38-.97-1.47-1.45-2.44-1.07l-9.35,3.63,4.58-8.34c.65-1.19,.22-2.68-.97-3.33h0c-1.19-.65-2.68-.22-3.33,.97l-4.58,8.34-1.95-9.84c-.2-1.02-1.19-1.68-2.22-1.48-1.02,.2-1.68,1.19-1.48,2.22l2.83,14.25-7.09,12.91-7.64-12.59,2.21-14.35c.16-1.03-.55-1.99-1.58-2.15-1.03-.16-1.99,.55-2.15,1.58l-1.53,9.91-4.93-8.14c-.7-1.16-2.21-1.53-3.37-.83h0c-1.16,.7-1.53,2.21-.83,3.37l4.93,8.14-9.5-3.23c-.99-.34-2.06,.19-2.39,1.18-.34,.99,.19,2.06,1.18,2.39l13.75,4.67,7.64,12.59-14.73,.32-11.32-9.1c-.81-.65-2-.52-2.65,.29-.65,.81-.52,2,.29,2.65l7.82,6.28-9.51,.2c-1.36,.03-2.43,1.15-2.4,2.51h0c.03,1.36,1.15,2.43,2.51,2.4l9.51-.2-7.54,6.61c-.78,.69-.86,1.88-.18,2.66,.69,.78,1.88,.86,2.66,.18l10.92-9.57,14.73-.32-7.09,12.91-13.54,5.26c-.97,.38-1.45,1.47-1.07,2.44,.38,.97,1.47,1.45,2.44,1.07l9.35-3.63-4.58,8.34c-.65,1.19-.22,2.68,.97,3.33h0c1.19,.65,2.68,.22,3.33-.97l4.58-8.34,1.95,9.84c.2,1.02,1.19,1.68,2.22,1.48,1.02-.2,1.68-1.19,1.48-2.22l-2.83-14.25,7.09-12.91,7.64,12.59-2.21,14.35c-.16,1.03,.55,1.99,1.58,2.15,1.03,.16,1.99-.55,2.15-1.58l1.53-9.91,4.93,8.14c.7,1.16,2.21,1.53,3.37,.83h0c1.16-.7,1.53-2.21,.83-3.37l-4.93-8.14,9.5,3.23c.99,.34,2.06-.19,2.39-1.18,.34-.99-.19-2.06-1.18-2.39l-13.75-4.67-7.64-12.59,14.73-.32,11.32,9.1c.81,.65,2,.52,2.65-.29,.65-.81,.52-2-.29-2.65l-7.82-6.28,9.51-.2c1.36-.03,2.43-1.15,2.4-2.51h0c-.03-1.36-1.15-2.43-2.51-2.4l-9.51,.2,7.54-6.61c.78-.69,.86-1.88,.18-2.66-.69-.78-1.88-.86-2.66-.18Z"/>
    <path class="cls-4" d="M332.24,363.28l-19.07,3.36-17.01-9.82,17.01-9.82,19.07,3.36c1.37,.24,2.67-.67,2.91-2.04,.24-1.37-.67-2.67-2.04-2.91l-13.17-2.32,10.99-6.34c1.57-.9,2.1-2.9,1.2-4.47h0c-.9-1.57-2.9-2.1-4.47-1.2l-10.99,6.34,4.57-12.57c.47-1.3-.2-2.75-1.5-3.22-1.3-.47-2.75,.2-3.22,1.5l-6.62,18.2-17.01,9.82v-19.64l12.45-14.83c.89-1.06,.75-2.65-.31-3.54-1.06-.89-2.65-.75-3.54,.31l-8.6,10.24v-12.69c0-1.81-1.46-3.27-3.27-3.27h0c-1.81,0-3.27,1.46-3.27,3.27v12.69l-8.6-10.24c-.89-1.06-2.48-1.2-3.54-.31-1.06,.89-1.2,2.48-.31,3.54l12.45,14.83v19.64l-17.01-9.82-6.62-18.2c-.47-1.3-1.92-1.98-3.22-1.5-1.3,.47-1.98,1.92-1.5,3.22l4.57,12.57-10.99-6.34c-1.57-.9-3.57-.37-4.47,1.2h0c-.9,1.57-.37,3.57,1.2,4.47l10.99,6.34-13.17,2.32c-1.37,.24-2.28,1.54-2.04,2.91,.24,1.37,1.54,2.28,2.91,2.04l19.07-3.36,17.01,9.82-17.01,9.82-19.07-3.36c-1.37-.24-2.67,.67-2.91,2.04-.24,1.37,.67,2.67,2.04,2.91l13.17,2.32-10.99,6.34c-1.57,.9-2.1,2.9-1.2,4.47h0c.9,1.57,2.9,2.1,4.47,1.2l10.99-6.34-4.57,12.57c-.47,1.3,.2,2.75,1.5,3.22,1.3,.47,2.75-.2,3.22-1.5l6.62-18.2,17.01-9.82v19.64l-12.45,14.83c-.89,1.06-.75,2.65,.31,3.54,1.06,.89,2.65,.75,3.54-.31l8.6-10.24v12.69c0,1.81,1.46,3.27,3.27,3.27h0c1.81,0,3.27-1.46,3.27-3.27v-12.69l8.6,10.24c.89,1.06,2.48,1.2,3.54,.31,1.06-.89,1.2-2.48,.31-3.54l-12.45-14.83v-19.64l17.01,9.82,6.62,18.2c.47,1.3,1.92,1.98,3.22,1.5,1.3-.47,1.98-1.92,1.5-3.22l-4.57-12.57,10.99,6.34c1.57,.9,3.57,.37,4.47-1.2h0c.9-1.57,.37-3.57-1.2-4.47l-10.99-6.34,13.17-2.32c1.37-.24,2.28-1.54,2.04-2.91-.24-1.37-1.54-2.28-2.91-2.04Z"/>
  </g>
</svg>