<?xml version="1.0" encoding="UTF-8"?>
<svg id="_图层_1" data-name="图层 1" xmlns="http://www.w3.org/2000/svg" xmlns:xlink="http://www.w3.org/1999/xlink" viewBox="0 0 500 500">
  <defs>
    <style>
      .cls-1 {
        fill: url(#_未命名的渐变_630-2);
      }

      .cls-2 {
        fill: url(#_未命名的渐变_129-2);
      }

      .cls-3 {
        fill: url(#_未命名的渐变_207);
      }

      .cls-4 {
        fill: url(#_未命名的渐变_630);
      }

      .cls-5 {
        fill: url(#_未命名的渐变_129-3);
      }

      .cls-6 {
        fill: url(#_未命名的渐变_129);
      }

      .cls-7 {
        fill: url(#_未命名的渐变_207-2);
      }

      .cls-8 {
        fill: url(#_未命名的渐变_277);
      }

      .cls-9 {
        fill: url(#_未命名的渐变_251);
      }
    </style>
    <linearGradient id="_未命名的渐变_277" data-name="未命名的渐变 277" x1="177.04" y1="203.29" x2="96.3" y2="63.44" gradientUnits="userSpaceOnUse">
      <stop offset="0" stop-color="#f70"/>
      <stop offset="1" stop-color="#ddff09"/>
    </linearGradient>
    <linearGradient id="_未命名的渐变_630" data-name="未命名的渐变 630" x1="383.63" y1="200.62" x2="254.65" y2="71.65" gradientUnits="userSpaceOnUse">
      <stop offset="0" stop-color="#969696"/>
      <stop offset=".6" stop-color="#cecece"/>
      <stop offset="1" stop-color="#f0f0f0"/>
    </linearGradient>
    <linearGradient id="_未命名的渐变_630-2" data-name="未命名的渐变 630" x1="369.93" y1="301.38" x2="178.44" y2="109.89" xlink:href="#_未命名的渐变_630"/>
    <linearGradient id="_未命名的渐变_129" data-name="未命名的渐变 129" x1="193.65" y1="321.9" x2="163.72" y2="291.96" gradientTransform="translate(55.15 -26.05) rotate(9.85)" gradientUnits="userSpaceOnUse">
      <stop offset="0" stop-color="#e0c9ff"/>
      <stop offset=".18" stop-color="#dccaff"/>
      <stop offset=".35" stop-color="#d0ceff"/>
      <stop offset=".51" stop-color="#bcd5ff"/>
      <stop offset=".68" stop-color="#a1deff"/>
      <stop offset=".85" stop-color="#7eebff"/>
      <stop offset="1" stop-color="#57f9ff"/>
    </linearGradient>
    <linearGradient id="_未命名的渐变_251" data-name="未命名的渐变 251" x1="229.89" y1="333.58" x2="263.68" y2="367.38" gradientUnits="userSpaceOnUse">
      <stop offset="0" stop-color="#ffff6b"/>
      <stop offset=".25" stop-color="#bcf84e"/>
      <stop offset=".77" stop-color="#35ea16"/>
      <stop offset="1" stop-color="#00e500"/>
    </linearGradient>
    <linearGradient id="_未命名的渐变_129-2" data-name="未命名的渐变 129" x1="306.57" y1="399.32" x2="276.64" y2="369.39" xlink:href="#_未命名的渐变_129"/>
    <linearGradient id="_未命名的渐变_129-3" data-name="未命名的渐变 129" x1="375.08" y1="356.07" x2="345.15" y2="326.14" xlink:href="#_未命名的渐变_129"/>
    <linearGradient id="_未命名的渐变_207" data-name="未命名的渐变 207" x1="200.49" y1="445.05" x2="158.33" y2="430.5" gradientTransform="translate(-19.55 83.04) scale(1 .76)" gradientUnits="userSpaceOnUse">
      <stop offset="0" stop-color="#c0c4ff"/>
      <stop offset=".96" stop-color="#e0e2ff"/>
      <stop offset=".96" stop-color="#cae4ff"/>
      <stop offset=".99" stop-color="#76eeff"/>
      <stop offset="1" stop-color="#55f3ff"/>
    </linearGradient>
    <linearGradient id="_未命名的渐变_207-2" data-name="未命名的渐变 207" x1="337.21" y1="267.52" x2="295.05" y2="252.98" gradientTransform="translate(11.2 123.97) scale(1 .76)" xlink:href="#_未命名的渐变_207"/>
  </defs>
  <circle class="cls-8" cx="136.67" cy="133.37" r="80.73"/>
  <g>
    <path class="cls-4" d="M393.93,157.53c0,7.84-.97,15.47-2.8,22.74,0,.02-.01,.05-.02,.08-.53,2.58-1.61,7-3.92,12.05-2.49,5.48-6.4,11.68-12.59,17.11-9.03,7.93-19.26,11.01-27.76,12.04-6.69,.81-12.3,.35-15.37,0-.61-.08-1.11-.14-1.51-.19-7.31-.96-14.34-3.37-20.89-7.01-16.76-9.31-30.33-26.62-37.34-48.13-5.36-20.28-19.15-33.2-20.86-34.72-2.89-2.56-15.39-12.67-33.51-15.93,15.34-30.43,46.89-51.3,83.3-51.3,43.33,0,79.75,29.54,90.23,69.59,1.99,7.56,3.04,15.49,3.04,23.67Z"/>
    <path class="cls-1" d="M443.26,199.94c0,37.49-30.38,67.86-67.86,67.86H156.88c-31.2,0-56.49-25.29-56.49-56.48,0-26.49,18.25-48.73,42.86-54.81,10.16-24.64,34.42-41.98,62.74-41.98,3.99,0,7.79,.38,11.36,1.03,18.12,3.26,30.62,13.36,33.51,15.93,1.71,1.52,15.5,14.44,20.86,34.72,7.01,21.52,20.58,38.83,37.34,48.13,6.55,3.64,13.58,6.05,20.89,7.01,.4,.06,.9,.11,1.51,.19,3.06,.35,8.68,.81,15.37,0,8.49-1.03,18.73-4.1,27.76-12.04,6.19-5.43,10.1-11.64,12.59-17.11,2.31-5.05,3.4-9.47,3.92-12.05,.01-.03,.02-.06,.02-.08,1.83-7.27,2.8-14.9,2.8-22.74s-1.05-16.11-3.04-23.67c30.02,7,52.37,33.93,52.37,66.08Z"/>
  </g>
  <g>
    <path class="cls-6" d="M189.86,289l-15.66-2.72c-2.05-.36-4.13,.41-5.46,2l-10.18,12.2c-1.33,1.6-1.71,3.78-1,5.73l5.47,14.92c.72,1.95,2.42,3.37,4.47,3.73l15.66,2.72c2.05,.36,4.13-.41,5.46-2l10.18-12.2c1.33-1.6,1.71-3.78,1-5.73l-5.47-14.92c-.72-1.95-2.42-3.37-4.47-3.73Z"/>
    <path class="cls-9" d="M271.65,293.95l-.1,.1-54.84,52.71c-1.62,1.66-2.7,4.07-2.65,6.55l.03,.52c.09,2.29,1.09,3.88,2.65,4.43l12.56,4.36c2.57,.89,3.79,3.82,2.61,6.27l-14.87,31.06-.19,.35c-1.41,2.76-1.33,5.63-.04,7.44l.17,.22,.03,.06c.34,.53,.78,.92,1.28,1.16l.31,.13c1.26,.44,2.67,.09,4.02-.93,.19-.14,.38-.31,.55-.49l52.07-53.31c.44-.45,.83-1,1.14-1.62,.68-1.36,1.16-2.75,1.4-4.16,.06-.36,.09-.72,.1-1.06v-.46c-.1-2.27-1.1-3.86-2.66-4.4l-10.07-3.5c-2.57-.89-3.79-3.82-2.61-6.27l15-31.33c.12-.25,.22-.51,.32-.77l.14-.42c.79-2.55,.72-5.02-.48-6.52l-.08-.09-.06-.11c-1.3-2.08-3.62-1.96-5.74,.11h0Z"/>
    <path class="cls-2" d="M287.87,384.6l-15.66-2.72c-2.05-.36-4.13,.41-5.46,2l-10.18,12.2c-1.33,1.6-1.71,3.78-1,5.73l5.47,14.92c.72,1.95,2.42,3.37,4.47,3.73l15.66,2.72c2.05,.36,4.13-.41,5.46-2l10.18-12.2c1.33-1.6,1.71-3.78,1-5.73l-5.47-14.92c-.72-1.95-2.42-3.37-4.47-3.73Z"/>
    <path class="cls-5" d="M362.77,353.71l-15.66-2.72c-2.05-.36-4.13,.41-5.46,2l-10.18,12.2c-1.33,1.6-1.71,3.78-1,5.73l5.47,14.92c.72,1.95,2.42,3.37,4.47,3.73l15.66,2.72c2.05,.36,4.13-.41,5.46-2l10.18-12.2c1.33-1.6,1.71-3.78,1-5.73l-5.47-14.92c-.72-1.95-2.42-3.37-4.47-3.73Z"/>
    <rect class="cls-3" x="154.11" y="371.56" width="11.5" height="87.5" rx="5.75" ry="5.75" transform="translate(115.46 -27.48) rotate(15.33)"/>
    <rect class="cls-7" x="321.58" y="277.75" width="11.5" height="87.5" rx="5.75" ry="5.75" transform="translate(96.62 -75.08) rotate(15.33)"/>
  </g>
</svg>