<?xml version="1.0" encoding="UTF-8"?>
<svg id="_图层_1" data-name="图层 1" xmlns="http://www.w3.org/2000/svg" xmlns:xlink="http://www.w3.org/1999/xlink" viewBox="0 0 415.11 255.32">
  <defs>
    <style>
      .cls-1 {
        fill: url(#_未命名的渐变_35-5);
      }

      .cls-2 {
        fill: url(#_未命名的渐变_31);
      }

      .cls-3 {
        fill: url(#_未命名的渐变_35-2);
      }

      .cls-4 {
        fill: url(#_未命名的渐变_31-3);
      }

      .cls-5 {
        fill: url(#_未命名的渐变_31-2);
      }

      .cls-6 {
        fill: url(#_未命名的渐变_35-7);
      }

      .cls-7 {
        fill: url(#_未命名的渐变_35);
      }

      .cls-8 {
        fill: url(#_未命名的渐变_35-8);
      }

      .cls-9 {
        fill: url(#_未命名的渐变_35-4);
      }

      .cls-10 {
        fill: url(#_未命名的渐变_35-6);
      }

      .cls-11 {
        fill: url(#_未命名的渐变_35-3);
      }

      .cls-12 {
        fill: url(#_未命名的渐变_35-9);
      }
    </style>
    <linearGradient id="_未命名的渐变_35" data-name="未命名的渐变 35" x1="109.08" y1="215.07" x2="47.6" y2="153.59" gradientUnits="userSpaceOnUse">
      <stop offset="0" stop-color="#bdb8b5"/>
      <stop offset="1" stop-color="#e6e6e6"/>
    </linearGradient>
    <linearGradient id="_未命名的渐变_35-2" data-name="未命名的渐变 35" x1="337.63" y1="230.51" x2="245.26" y2="138.14" xlink:href="#_未命名的渐变_35"/>
    <linearGradient id="_未命名的渐变_35-3" data-name="未命名的渐变 35" x1="171.05" y1="173.32" x2="79.73" y2="82" xlink:href="#_未命名的渐变_35"/>
    <linearGradient id="_未命名的渐变_35-4" data-name="未命名的渐变 35" x1="370.66" y1="158.93" x2="308.12" y2="96.39" xlink:href="#_未命名的渐变_35"/>
    <linearGradient id="_未命名的渐变_35-5" data-name="未命名的渐变 35" x1="181.71" y1="133.53" x2="56.62" y2="8.44" xlink:href="#_未命名的渐变_35"/>
    <linearGradient id="_未命名的渐变_35-6" data-name="未命名的渐变 35" x1="103.06" y1="43.05" x2="45.59" y2="-14.42" xlink:href="#_未命名的渐变_35"/>
    <linearGradient id="_未命名的渐变_35-7" data-name="未命名的渐变 35" x1="331.08" y1="67.04" x2="225.62" y2="-38.42" xlink:href="#_未命名的渐变_35"/>
    <linearGradient id="_未命名的渐变_31" data-name="未命名的渐变 31" x1="256.59" y1="137.78" x2="236.35" y2="117.54" gradientUnits="userSpaceOnUse">
      <stop offset="0" stop-color="#c8c8f0"/>
      <stop offset="1" stop-color="#f0f0ff"/>
    </linearGradient>
    <linearGradient id="_未命名的渐变_35-8" data-name="未命名的渐变 35" x1="319.99" y1="342.05" x2="117.9" y2="139.96" xlink:href="#_未命名的渐变_35"/>
    <linearGradient id="_未命名的渐变_31-2" data-name="未命名的渐变 31" x1="162.46" y1="24.43" x2="142.22" y2="4.19" xlink:href="#_未命名的渐变_31"/>
    <linearGradient id="_未命名的渐变_35-9" data-name="未命名的渐变 35" x1="362.01" y1="108.41" x2="287.16" y2="33.56" xlink:href="#_未命名的渐变_35"/>
    <linearGradient id="_未命名的渐变_31-3" data-name="未命名的渐变 31" x1="176.78" y1="194.45" x2="156.54" y2="174.21" xlink:href="#_未命名的渐变_31"/>
  </defs>
  <rect class="cls-7" x="22.78" y="170.02" width="111.1" height="28.63" rx="14.31" ry="14.31"/>
  <rect class="cls-3" x="205" y="170.02" width="172.88" height="28.63" rx="14.31" ry="14.31"/>
  <rect class="cls-11" x="40" y="113.34" width="170.78" height="28.63" rx="14.31" ry="14.31"/>
  <rect class="cls-9" x="282.78" y="113.34" width="113.22" height="28.63" rx="14.31" ry="14.31"/>
  <rect class="cls-1" x="0" y="56.67" width="238.33" height="28.63" rx="14.31" ry="14.31"/>
  <rect class="cls-10" x="22.78" y="0" width="103.08" height="28.63" rx="14.31" ry="14.31"/>
  <rect class="cls-6" x="178.82" y="0" width="199.06" height="28.63" rx="14.31" ry="14.31"/>
  <circle class="cls-2" cx="246.47" cy="127.66" r="14.31"/>
  <rect class="cls-8" x="22.78" y="226.69" width="392.33" height="28.63" rx="14.31" ry="14.31"/>
  <circle class="cls-5" cx="152.34" cy="14.31" r="14.31"/>
  <rect class="cls-12" x="255.67" y="56.67" width="137.83" height="28.63" rx="14.31" ry="14.31"/>
  <circle class="cls-4" cx="166.66" cy="184.33" r="14.31"/>
</svg>