<?xml version="1.0" encoding="UTF-8"?>
<svg id="_图层_1" data-name="图层 1" xmlns="http://www.w3.org/2000/svg" xmlns:xlink="http://www.w3.org/1999/xlink" viewBox="0 0 500 500">
  <defs>
    <style>
      .cls-1 {
        fill: url(#_未命名的渐变_35-5);
      }

      .cls-2 {
        fill: url(#_未命名的渐变_4-2);
      }

      .cls-3 {
        fill: url(#_未命名的渐变_35-2);
      }

      .cls-4 {
        fill: url(#_未命名的渐变_4);
      }

      .cls-5 {
        fill: url(#_未命名的渐变_35-7);
      }

      .cls-6 {
        fill: url(#_未命名的渐变_4-3);
      }

      .cls-7 {
        fill: url(#_未命名的渐变_35);
      }

      .cls-8 {
        fill: url(#_未命名的渐变_35-8);
      }

      .cls-9 {
        fill: url(#_未命名的渐变_35-4);
      }

      .cls-10 {
        fill: url(#_未命名的渐变_35-6);
      }

      .cls-11 {
        fill: url(#_未命名的渐变_35-3);
      }

      .cls-12 {
        fill: url(#_未命名的渐变_35-9);
      }
    </style>
    <linearGradient id="_未命名的渐变_35" data-name="未命名的渐变 35" x1="240.84" y1="367.18" x2="119.81" y2="246.16" gradientUnits="userSpaceOnUse">
      <stop offset="0" stop-color="#bdb8b5"/>
      <stop offset="1" stop-color="#e6e6e6"/>
    </linearGradient>
    <linearGradient id="_未命名的渐变_35-2" data-name="未命名的渐变 35" x1="398.84" y1="334.08" x2="344.02" y2="279.26" xlink:href="#_未命名的渐变_35"/>
    <linearGradient id="_未命名的渐变_35-3" data-name="未命名的渐变 35" x1="163.74" y1="279.08" x2="105.59" y2="220.92" xlink:href="#_未命名的渐变_35"/>
    <linearGradient id="_未命名的渐变_35-4" data-name="未命名的渐变 35" x1="393.85" y1="300.52" x2="292.81" y2="199.48" xlink:href="#_未命名的渐变_35"/>
    <linearGradient id="_未命名的渐变_35-5" data-name="未命名的渐变 35" x1="195.66" y1="246.38" x2="89.56" y2="140.28" xlink:href="#_未命名的渐变_35"/>
    <linearGradient id="_未命名的渐变_35-6" data-name="未命名的渐变 35" x1="396.15" y1="223.43" x2="335.95" y2="163.23" xlink:href="#_未命名的渐变_35"/>
    <linearGradient id="_未命名的渐变_35-7" data-name="未命名的渐变 35" x1="145.5" y1="165.39" x2="88.04" y2="107.92" xlink:href="#_未命名的渐变_35"/>
    <linearGradient id="_未命名的渐变_35-8" data-name="未命名的渐变 35" x1="373.53" y1="189.39" x2="268.06" y2="83.93" xlink:href="#_未命名的渐变_35"/>
    <linearGradient id="_未命名的渐变_4" data-name="未命名的渐变 4" x1="284.72" y1="203.45" x2="264.48" y2="183.21" gradientUnits="userSpaceOnUse">
      <stop offset="0" stop-color="#507950"/>
      <stop offset="1" stop-color="#b4dbb4"/>
    </linearGradient>
    <linearGradient id="_未命名的渐变_4-2" data-name="未命名的渐变 4" x1="228.02" y1="260.12" x2="207.78" y2="239.88" xlink:href="#_未命名的渐变_4"/>
    <linearGradient id="_未命名的渐变_35-9" data-name="未命名的渐变 35" x1="362.44" y1="464.39" x2="160.35" y2="262.3" xlink:href="#_未命名的渐变_35"/>
    <linearGradient id="_未命名的渐变_4-3" data-name="未命名的渐变 4" x1="204.91" y1="146.78" x2="184.67" y2="126.53" xlink:href="#_未命名的渐变_4"/>
  </defs>
  <rect class="cls-7" x="65.23" y="292.36" width="230.19" height="28.63" rx="14.31" ry="14.31"/>
  <rect class="cls-3" x="322.53" y="292.36" width="97.79" height="28.63" rx="14.31" ry="14.31"/>
  <rect class="cls-11" x="82.44" y="235.69" width="104.44" height="28.63" rx="14.31" ry="14.31"/>
  <rect class="cls-9" x="248.22" y="235.69" width="190.22" height="28.63" rx="14.31" ry="14.31"/>
  <rect class="cls-1" x="42.44" y="179.01" width="200.33" height="28.63" rx="14.31" ry="14.31"/>
  <rect class="cls-10" x="311.78" y="179.01" width="108.55" height="28.63" rx="14.31" ry="14.31"/>
  <rect class="cls-5" x="65.23" y="122.34" width="103.08" height="28.63" rx="14.31" ry="14.31"/>
  <rect class="cls-8" x="221.26" y="122.34" width="199.06" height="28.63" rx="14.31" ry="14.31"/>
  <circle class="cls-4" cx="274.6" cy="193.33" r="14.31"/>
  <circle class="cls-2" cx="217.9" cy="250" r="14.31"/>
  <rect class="cls-12" x="65.23" y="349.03" width="392.33" height="28.63" rx="14.31" ry="14.31"/>
  <circle class="cls-6" cx="194.79" cy="136.66" r="14.31"/>
</svg>