<?xml version="1.0" encoding="UTF-8"?>
<svg id="_图层_1" data-name="图层 1" xmlns="http://www.w3.org/2000/svg" xmlns:xlink="http://www.w3.org/1999/xlink" viewBox="0 0 415.11 255.32">
  <defs>
    <style>
      .cls-1 {
        fill: url(#_未命名的渐变_35-5);
      }

      .cls-2 {
        fill: url(#_未命名的渐变_4-2);
      }

      .cls-3 {
        fill: url(#_未命名的渐变_35-2);
      }

      .cls-4 {
        fill: url(#_未命名的渐变_4);
      }

      .cls-5 {
        fill: url(#_未命名的渐变_35-7);
      }

      .cls-6 {
        fill: url(#_未命名的渐变_4-3);
      }

      .cls-7 {
        fill: url(#_未命名的渐变_35);
      }

      .cls-8 {
        fill: url(#_未命名的渐变_35-8);
      }

      .cls-9 {
        fill: url(#_未命名的渐变_35-4);
      }

      .cls-10 {
        fill: url(#_未命名的渐变_35-6);
      }

      .cls-11 {
        fill: url(#_未命名的渐变_35-3);
      }

      .cls-12 {
        fill: url(#_未命名的渐变_35-9);
      }
    </style>
    <linearGradient id="_未命名的渐变_35" data-name="未命名的渐变 35" x1="198.39" y1="244.84" x2="77.37" y2="123.82" gradientUnits="userSpaceOnUse">
      <stop offset="0" stop-color="#bdb8b5"/>
      <stop offset="1" stop-color="#e6e6e6"/>
    </linearGradient>
    <linearGradient id="_未命名的渐变_35-2" data-name="未命名的渐变 35" x1="356.4" y1="211.74" x2="301.57" y2="156.92" xlink:href="#_未命名的渐变_35"/>
    <linearGradient id="_未命名的渐变_35-3" data-name="未命名的渐变 35" x1="121.3" y1="156.73" x2="63.15" y2="98.58" xlink:href="#_未命名的渐变_35"/>
    <linearGradient id="_未命名的渐变_35-4" data-name="未命名的渐变 35" x1="351.41" y1="178.18" x2="250.37" y2="77.14" xlink:href="#_未命名的渐变_35"/>
    <linearGradient id="_未命名的渐变_35-5" data-name="未命名的渐变 35" x1="153.21" y1="124.03" x2="47.12" y2="17.94" xlink:href="#_未命名的渐变_35"/>
    <linearGradient id="_未命名的渐变_35-6" data-name="未命名的渐变 35" x1="353.71" y1="101.09" x2="293.51" y2="40.88" xlink:href="#_未命名的渐变_35"/>
    <linearGradient id="_未命名的渐变_35-7" data-name="未命名的渐变 35" x1="103.06" y1="43.05" x2="45.59" y2="-14.42" xlink:href="#_未命名的渐变_35"/>
    <linearGradient id="_未命名的渐变_35-8" data-name="未命名的渐变 35" x1="331.08" y1="67.04" x2="225.62" y2="-38.42" xlink:href="#_未命名的渐变_35"/>
    <linearGradient id="_未命名的渐变_4" data-name="未命名的渐变 4" x1="242.28" y1="81.11" x2="222.04" y2="60.86" gradientUnits="userSpaceOnUse">
      <stop offset="0" stop-color="#507950"/>
      <stop offset="1" stop-color="#b4dbb4"/>
    </linearGradient>
    <linearGradient id="_未命名的渐变_4-2" data-name="未命名的渐变 4" x1="185.58" y1="137.78" x2="165.33" y2="117.54" xlink:href="#_未命名的渐变_4"/>
    <linearGradient id="_未命名的渐变_35-9" data-name="未命名的渐变 35" x1="319.99" y1="342.05" x2="117.9" y2="139.96" xlink:href="#_未命名的渐变_35"/>
    <linearGradient id="_未命名的渐变_4-3" data-name="未命名的渐变 4" x1="162.46" y1="24.43" x2="142.22" y2="4.19" xlink:href="#_未命名的渐变_4"/>
  </defs>
  <rect class="cls-7" x="22.78" y="170.02" width="230.19" height="28.63" rx="14.31" ry="14.31"/>
  <rect class="cls-3" x="280.09" y="170.02" width="97.79" height="28.63" rx="14.31" ry="14.31"/>
  <rect class="cls-11" x="40" y="113.34" width="104.44" height="28.63" rx="14.31" ry="14.31"/>
  <rect class="cls-9" x="205.78" y="113.34" width="190.22" height="28.63" rx="14.31" ry="14.31"/>
  <rect class="cls-1" x="0" y="56.67" width="200.33" height="28.63" rx="14.31" ry="14.31"/>
  <rect class="cls-10" x="269.33" y="56.67" width="108.55" height="28.63" rx="14.31" ry="14.31"/>
  <rect class="cls-5" x="22.78" y="0" width="103.08" height="28.63" rx="14.31" ry="14.31"/>
  <rect class="cls-8" x="178.82" y="0" width="199.06" height="28.63" rx="14.31" ry="14.31"/>
  <circle class="cls-4" cx="232.16" cy="70.99" r="14.31"/>
  <circle class="cls-2" cx="175.45" cy="127.66" r="14.31"/>
  <rect class="cls-12" x="22.78" y="226.69" width="392.33" height="28.63" rx="14.31" ry="14.31"/>
  <circle class="cls-6" cx="152.34" cy="14.31" r="14.31"/>
</svg>