<?xml version="1.0" encoding="UTF-8"?>
<svg id="_图层_1" data-name="图层 1" xmlns="http://www.w3.org/2000/svg" xmlns:xlink="http://www.w3.org/1999/xlink" viewBox="0 0 500 500">
  <defs>
    <style>
      .cls-1 {
        fill: url(#_未命名的渐变_35-5);
      }

      .cls-2 {
        fill: url(#_未命名的渐变_110);
      }

      .cls-3 {
        fill: url(#_未命名的渐变_35-2);
      }

      .cls-4 {
        fill: url(#_未命名的渐变_35-7);
      }

      .cls-5 {
        fill: url(#_未命名的渐变_35);
      }

      .cls-6 {
        fill: url(#_未命名的渐变_35-8);
      }

      .cls-7 {
        fill: url(#_未命名的渐变_35-4);
      }

      .cls-8 {
        fill: url(#_未命名的渐变_35-6);
      }

      .cls-9 {
        fill: url(#_未命名的渐变_35-3);
      }

      .cls-10 {
        fill: url(#_未命名的渐变_35-9);
      }
    </style>
    <linearGradient id="_未命名的渐变_35" data-name="未命名的渐变 35" x1="245.52" y1="424.35" x2="219.99" y2="398.82" gradientUnits="userSpaceOnUse">
      <stop offset="0" stop-color="#bdb8b5"/>
      <stop offset="1" stop-color="#e6e6e6"/>
    </linearGradient>
    <linearGradient id="_未命名的渐变_35-2" data-name="未命名的渐变 35" x1="291.88" y1="386.95" x2="247.93" y2="342.99" xlink:href="#_未命名的渐变_35"/>
    <linearGradient id="_未命名的渐变_35-3" data-name="未命名的渐变 35" x1="340.79" y1="355.57" x2="266.36" y2="281.14" xlink:href="#_未命名的渐变_35"/>
    <linearGradient id="_未命名的渐变_35-4" data-name="未命名的渐变 35" x1="362" y1="315.83" x2="266.25" y2="220.08" xlink:href="#_未命名的渐变_35"/>
    <linearGradient id="_未命名的渐变_35-5" data-name="未命名的渐变 35" x1="358.3" y1="227.3" x2="182.65" y2="51.65" xlink:href="#_未命名的渐变_35"/>
    <linearGradient id="_未命名的渐变_35-6" data-name="未命名的渐变 35" x1="351.93" y1="145.62" x2="168.31" y2="-38" xlink:href="#_未命名的渐变_35"/>
    <linearGradient id="_未命名的渐变_35-7" data-name="未命名的渐变 35" x1="354.12" y1="195.02" x2="157.35" y2="-1.74" xlink:href="#_未命名的渐变_35"/>
    <linearGradient id="_未命名的渐变_35-8" data-name="未命名的渐变 35" x1="370.16" y1="255.88" x2="222.99" y2="108.72" xlink:href="#_未命名的渐变_35"/>
    <linearGradient id="_未命名的渐变_35-9" data-name="未命名的渐变 35" x1="369.86" y1="287.85" x2="244.41" y2="162.4" xlink:href="#_未命名的渐变_35"/>
    <linearGradient id="_未命名的渐变_110" data-name="未命名的渐变 110" x1="132.2" y1="509.99" x2="259.8" y2="382.39" gradientUnits="userSpaceOnUse">
      <stop offset="0" stop-color="green"/>
      <stop offset="1" stop-color="#004000"/>
    </linearGradient>
  </defs>
  <g>
    <rect class="cls-5" x="213.15" y="397.27" width="39.2" height="28.63" rx="14.31" ry="14.31"/>
    <rect class="cls-3" x="231.88" y="350.65" width="76.05" height="28.63" rx="14.31" ry="14.31"/>
    <rect class="cls-9" x="235.07" y="304.04" width="137" height="28.63" rx="14.31" ry="14.31"/>
    <rect class="cls-7" x="224.31" y="253.64" width="179.64" height="28.63" rx="14.31" ry="14.31"/>
    <rect class="cls-1" x="100.76" y="125.16" width="339.44" height="28.63" rx="14.31" ry="14.31"/>
    <rect class="cls-8" x="82.43" y="39.5" width="355.38" height="28.63" rx="14.31" ry="14.31"/>
    <rect class="cls-4" x="64.9" y="82.33" width="381.67" height="28.63" rx="14.31" ry="14.31"/>
    <rect class="cls-6" x="155.34" y="167.99" width="282.47" height="28.63" rx="14.31" ry="14.31"/>
    <rect class="cls-10" x="187.61" y="210.81" width="239.04" height="28.63" rx="14.31" ry="14.31"/>
  </g>
  <rect class="cls-2" x="74.33" y="431.87" width="243.33" height="28.63" rx="14.31" ry="14.31"/>
</svg>