<?xml version="1.0" encoding="UTF-8"?>
<svg id="_图层_1" data-name="图层 1" xmlns="http://www.w3.org/2000/svg" xmlns:xlink="http://www.w3.org/1999/xlink" viewBox="0 0 381.67 421">
  <defs>
    <style>
      .cls-1 {
        fill: url(#_未命名的渐变_35-5);
      }

      .cls-2 {
        fill: url(#_未命名的渐变_110);
      }

      .cls-3 {
        fill: url(#_未命名的渐变_35-2);
      }

      .cls-4 {
        fill: url(#_未命名的渐变_35-7);
      }

      .cls-5 {
        fill: url(#_未命名的渐变_35);
      }

      .cls-6 {
        fill: url(#_未命名的渐变_35-8);
      }

      .cls-7 {
        fill: url(#_未命名的渐变_35-4);
      }

      .cls-8 {
        fill: url(#_未命名的渐变_35-6);
      }

      .cls-9 {
        fill: url(#_未命名的渐变_35-3);
      }

      .cls-10 {
        fill: url(#_未命名的渐变_35-9);
      }
    </style>
    <linearGradient id="_未命名的渐变_35" data-name="未命名的渐变 35" x1="180.62" y1="384.85" x2="155.09" y2="359.32" gradientUnits="userSpaceOnUse">
      <stop offset="0" stop-color="#bdb8b5"/>
      <stop offset="1" stop-color="#e6e6e6"/>
    </linearGradient>
    <linearGradient id="_未命名的渐变_35-2" data-name="未命名的渐变 35" x1="226.98" y1="347.45" x2="183.03" y2="303.49" xlink:href="#_未命名的渐变_35"/>
    <linearGradient id="_未命名的渐变_35-3" data-name="未命名的渐变 35" x1="275.89" y1="316.07" x2="201.46" y2="241.64" xlink:href="#_未命名的渐变_35"/>
    <linearGradient id="_未命名的渐变_35-4" data-name="未命名的渐变 35" x1="297.1" y1="276.33" x2="201.35" y2="180.58" xlink:href="#_未命名的渐变_35"/>
    <linearGradient id="_未命名的渐变_35-5" data-name="未命名的渐变 35" x1="293.4" y1="187.8" x2="117.75" y2="12.15" xlink:href="#_未命名的渐变_35"/>
    <linearGradient id="_未命名的渐变_35-6" data-name="未命名的渐变 35" x1="287.03" y1="106.12" x2="103.41" y2="-77.5" xlink:href="#_未命名的渐变_35"/>
    <linearGradient id="_未命名的渐变_35-7" data-name="未命名的渐变 35" x1="289.22" y1="155.53" x2="92.45" y2="-41.24" xlink:href="#_未命名的渐变_35"/>
    <linearGradient id="_未命名的渐变_35-8" data-name="未命名的渐变 35" x1="305.26" y1="216.38" x2="158.09" y2="69.22" xlink:href="#_未命名的渐变_35"/>
    <linearGradient id="_未命名的渐变_35-9" data-name="未命名的渐变 35" x1="304.96" y1="248.35" x2="179.51" y2="122.9" xlink:href="#_未命名的渐变_35"/>
    <linearGradient id="_未命名的渐变_110" data-name="未命名的渐变 110" x1="67.3" y1="470.49" x2="194.9" y2="342.89" gradientUnits="userSpaceOnUse">
      <stop offset="0" stop-color="green"/>
      <stop offset="1" stop-color="#004000"/>
    </linearGradient>
  </defs>
  <g>
    <rect class="cls-5" x="148.25" y="357.77" width="39.2" height="28.63" rx="14.31" ry="14.31"/>
    <rect class="cls-3" x="166.98" y="311.16" width="76.05" height="28.63" rx="14.31" ry="14.31"/>
    <rect class="cls-9" x="170.17" y="264.54" width="137" height="28.63" rx="14.31" ry="14.31"/>
    <rect class="cls-7" x="159.41" y="214.14" width="179.64" height="28.63" rx="14.31" ry="14.31"/>
    <rect class="cls-1" x="35.86" y="85.66" width="339.44" height="28.63" rx="14.31" ry="14.31"/>
    <rect class="cls-8" x="17.53" y="0" width="355.38" height="28.63" rx="14.31" ry="14.31"/>
    <rect class="cls-4" x="0" y="42.83" width="381.67" height="28.63" rx="14.31" ry="14.31"/>
    <rect class="cls-6" x="90.44" y="128.49" width="282.47" height="28.63" rx="14.31" ry="14.31"/>
    <rect class="cls-10" x="122.71" y="171.31" width="239.04" height="28.63" rx="14.31" ry="14.31"/>
  </g>
  <rect class="cls-2" x="9.43" y="392.37" width="243.33" height="28.63" rx="14.31" ry="14.31"/>
</svg>